<svg xmlns="http://www.w3.org/2000/svg" xmlns:xlink="http://www.w3.org/1999/xlink" width="1920.512" height="677.313" viewBox="0 0 1920.512 677.313"><defs><style>.a,.aa,.ad,.ah,.w,.x{fill:none;}.b{fill:#f6f7f7;}.c{clip-path:url(#a);}.d{fill:#efefef;}.e{fill:#f5f5f5;}.f{fill:#ebebeb;}.g,.z{fill:#e0e0e0;}.h{fill:#fafbfb;}.i{fill:#fff;}.j{fill:#2f2f2f;}.k{fill:#b0b0b0;}.l{fill:#f9fafb;}.m{fill:#e8e7e7;}.n{fill:#263238;}.o{fill:#575757;}.p{fill:#616262;}.q{fill:url(#b);}.r{fill:#535352;}.s{fill:#4d4e4e;}.t{fill:#414141;}.u{fill:#efeeee;}.v{fill:#ed3161;}.w{stroke:#979797;stroke-width:2px;}.w,.x{stroke-linecap:round;stroke-linejoin:round;}.w,.z{opacity:0.5;isolation:isolate;}.aa,.x{stroke:#b0b0b0;}.x{stroke-width:3px;stroke-dasharray:0 6;}.y{fill:#dddddc;}.aa,.ad,.ah{stroke-miterlimit:10;}.aa{stroke-width:0.5px;}.ab{fill:#1a1a1a;}.ac{opacity:0.3;}.ad{stroke:#44555b;stroke-width:0.05px;}.ae{fill:#c18b76;}.af{fill:#b66351;}.ag{fill:#d1d1d1;}.ah{stroke:#000;stroke-width:0.25px;}.ai{fill:#070808;}</style><clipPath id="a"><path class="a" d="M1920,534.219H0V0H1920"/></clipPath><linearGradient id="b" x1="-1.643" y1="8.842" x2="-1.643" y2="8.822" gradientUnits="objectBoundingBox"><stop offset="0" stop-color="#707171"/><stop offset="1" stop-color="#616262"/></linearGradient></defs><path class="b" d="M865.536,534.212H0l1.014,143.1H92.723a391.913,391.913,0,0,1,83.255-12.529c119.906-5.033,149.836-46.183,246.9-49.144,26.691-.814,51.919-4.65,79.327-8.111,53.668-6.777,154.638-11.315,176.6-10.241,82.512,4.034,137.183,1.326,186.731-10.24Z"/><g class="c"><path class="d" d="M1086.368,541.375v-147H1075.3V364.053l.062-1.628h.556c-6.4-3.448-15.263-5.39-25-5.39-1.19,0-2.315,0-3.581.1-.175,0-.335.011-.489.02-.2.012-.522.022-.53.021a54.028,54.028,0,0,0-16.621,3.647c-.676.257-1.289.558-2.051.925-.613.274-1.227.579-1.825.908l1.029.559v26.359h-21.186V305.736h-60.9v29.751H940.8v3.42h-4.28v3.81h-6.689l-14.075,6.84v9.722h-8.988V270.395H852.381v95.1l-28.977-.677V223.553H797.393v-3.37h-1.659V186.664H748.523v-.487h-1.472V175.291l-2.869-1.671h-49.34l-2.815,1.665v58.36L649.2,233.6V195.653l-2.815-1.664H622.438v49.875H559.167v53.17l-5.948-3.692h-8.29v-.651h-1.717v.651H514.688V267.578h-3.354v-1.607h-3.153v-.688H481.928v.688h-3.105v1.607h-3.354v7.964h-7.232L466.65,308.17l-8.087-3.7V284.527l.049-1.276h.435c-5.012-2.7-11.961-4.224-19.591-4.224-.932,0-1.814,0-2.806.077-.137,0-.263.008-.383.016-.157.009-.409.017-.416.016a42.311,42.311,0,0,0-13.025,2.858c-.53.2-1.011.438-1.607.725-.481.215-.961.454-1.431.711l.807.439v20.657h-16.6v-65.7H356.26v23.315h-3.105v2.681H349.8v2.986h-5.242l-11.03,5.36v7.619h-7.044V211.131H283.862v74.522l-.486,63.546-42.608-.1v-2.641h-1.3V320.2c-6.805,0,0,0-38.153-.381v-8.532l-2.248-1.309H160.4l-2.206,1.3v63.454h-5.918l-.009-11.564-15.483-.01v11.561s-33.207-.026-39.906-.026V327.243l-2.207-1.3H56.66v-62.3H16.178V342.29L.319,342.238V540.153l56.341.053Z"/><path class="d" d="M1920.512,365.1l-12.049-.281V223.553h-26.011v-3.37h-1.659V186.664h-47.211v-.487h-1.472V175.291l-2.869-1.671H1779.9l-2.815,1.665v58.36l-42.825-.05V195.653l-2.815-1.664H1707.5v49.875h-63.271v53.17l-5.949-3.692h-8.289v-.651h-1.717v.651H1599.75V267.578H1596.4v-1.607h-3.153v-.688h-26.254v.688h-3.1v1.607h-3.354v7.964H1553.3l-1.587,32.628-8.088-3.7V284.527l.05-1.276h.434c-5.011-2.7-11.961-4.224-19.59-4.224-.932,0-1.814,0-2.806.077-.137,0-.263.008-.383.016-.157.009-.41.017-.416.016a42.3,42.3,0,0,0-13.025,2.858c-.53.2-1.011.438-1.607.725-.481.215-.962.454-1.431.711l.807.439v20.657h-16.6v-65.7h-47.731v23.315h-3.1v2.681h-3.354v2.986h-5.242l-11.03,5.36v7.619h-7.045V211.131h-42.622v74.522l-.487,63.546-42.607-.1v-2.641h-1.3V320.2c-6.8,0,0,0-38.153-.381v-8.532l-2.248-1.309h-38.667l-2.206,1.3v63.454h-5.919l-.008-11.564-15.483-.01v11.561s-33.207-.026-39.907-.026V327.243l-2.206-1.3h-38.011v-62.3H1101.25V342.29l-15.86-.052V540.153l56.342.053,778.793.885Z"/><rect class="e" width="149.16" height="472.721" transform="translate(581.232 68.655)"/><rect class="f" width="74.58" height="471.42" transform="translate(655.812 68.655)"/><rect class="e" width="52.672" height="46.409" transform="translate(598.264 22.246)"/><rect class="f" width="12.554" height="46.409" transform="translate(638.382 22.246)"/><path class="g" d="M568.8,68.653v-2.7H734.757v2.7"/><rect class="h" width="12.626" height="26.622" transform="translate(610.675 88.896)"/><path class="g" d="M655.812,125.967c0,.28-16.7.508-37.288.508s-37.292-.228-37.292-.508,16.693-.509,37.292-.509S655.812,125.686,655.812,125.967Z"/><rect class="g" width="12.626" height="26.622" transform="translate(685.904 88.896)"/><path class="g" d="M731.041,125.967c0,.28-16.7.508-37.288.508s-37.292-.228-37.292-.508,16.693-.509,37.292-.509S731.041,125.686,731.041,125.967Z"/><rect class="g" width="12.626" height="26.622" transform="translate(685.904 141.752)"/><path class="g" d="M731.041,178.822c0,.281-16.7.509-37.288.509s-37.292-.228-37.292-.509,16.693-.508,37.292-.508S731.041,178.542,731.041,178.822Z"/><rect class="g" width="12.626" height="26.622" transform="translate(685.904 196.202)"/><path class="g" d="M731.041,233.274c0,.28-16.7.508-37.288.508s-37.292-.228-37.292-.508,16.693-.509,37.292-.509S731.041,232.993,731.041,233.274Z"/><rect class="g" width="12.626" height="26.622" transform="translate(685.904 250.653)"/><path class="g" d="M731.041,287.724c0,.281-16.7.509-37.288.509s-37.292-.228-37.292-.509,16.693-.508,37.292-.508S731.041,287.444,731.041,287.724Z"/><rect class="g" width="12.626" height="26.622" transform="translate(685.904 303.547)"/><path class="g" d="M731.041,340.618c0,.281-16.7.508-37.288.508s-37.292-.227-37.292-.508,16.693-.508,37.292-.508S731.041,340.337,731.041,340.618Z"/><rect class="g" width="12.626" height="26.622" transform="translate(685.904 356.654)"/><rect class="g" width="12.626" height="26.622" transform="translate(685.904 410.457)"/><path class="g" d="M731.041,393.725c0,.281-16.7.508-37.288.508s-37.292-.227-37.292-.508,16.693-.508,37.292-.508S731.041,393.444,731.041,393.725Z"/><rect class="h" width="12.626" height="26.622" transform="translate(610.675 142.558)"/><path class="g" d="M655.812,179.629c0,.281-16.7.509-37.288.509s-37.292-.228-37.292-.509,16.693-.508,37.292-.508S655.812,179.353,655.812,179.629Z"/><rect class="h" width="12.626" height="26.622" transform="translate(610.675 196.221)"/><path class="g" d="M655.812,233.292c0,.281-16.7.509-37.288.509s-37.292-.228-37.292-.509,16.693-.508,37.292-.508S655.812,233.012,655.812,233.292Z"/><rect class="h" width="12.626" height="26.622" transform="translate(610.675 249.884)"/><path class="g" d="M655.812,286.953c0,.281-16.7.508-37.288.508s-37.292-.227-37.292-.508,16.693-.508,37.292-.508S655.812,286.675,655.812,286.953Z"/><rect class="h" width="12.626" height="26.622" transform="translate(610.675 303.547)"/><path class="g" d="M655.812,340.618c0,.281-16.7.508-37.288.508s-37.292-.227-37.292-.508,16.693-.508,37.292-.508S655.812,340.337,655.812,340.618Z"/><rect class="h" width="12.626" height="26.622" transform="translate(610.675 357.21)"/><path class="g" d="M655.812,394.281c0,.281-16.7.508-37.288.508s-37.292-.227-37.292-.508,16.693-.508,37.292-.508S655.812,394,655.812,394.281Z"/><rect class="h" width="12.626" height="26.622" transform="translate(610.675 410.873)"/><rect class="g" width="109.662" height="208.122" transform="translate(727.335 333.254)"/><rect class="f" width="51.418" height="208.122" transform="translate(785.579 333.254)"/><rect class="e" width="9.86" height="23.956" transform="translate(750.329 352.836)"/><rect class="e" width="9.86" height="23.955" transform="translate(750.329 446.594)"/><path class="e" d="M785.579,386.194c0,.206-13.039.374-29.12.374s-29.124-.168-29.124-.374,13.037-.374,29.124-.374S785.579,385.988,785.579,386.194Z"/><rect class="e" width="9.86" height="23.955" transform="translate(750.329 400.07)"/><path class="e" d="M785.579,433.428c0,.206-13.039.374-29.12.374s-29.124-.168-29.124-.374,13.037-.374,29.124-.374S785.579,433.221,785.579,433.428Z"/><rect class="g" width="9.86" height="23.956" transform="translate(796.498 352.836)"/><rect class="g" width="9.86" height="23.956" transform="translate(817.889 352.836)"/><rect class="g" width="9.86" height="23.955" transform="translate(796.498 398.293)"/><rect class="g" width="9.86" height="23.955" transform="translate(817.889 398.293)"/><rect class="g" width="9.86" height="23.956" transform="translate(796.498 443.749)"/><rect class="g" width="9.86" height="23.956" transform="translate(817.889 443.749)"/><rect class="g" width="126.149" height="5.216" transform="translate(719.092 328.219)"/><path class="f" d="M837.763,333.926c0,.206-24.51.373-54.739.373s-54.743-.167-54.743-.373,24.505-.374,54.743-.374S837.763,333.72,837.763,333.926Z"/><rect class="f" width="128.026" height="335.103" transform="translate(478.96 206.273)"/><rect class="g" width="64.013" height="335.103" transform="translate(542.973 206.273)"/><rect class="f" width="45.209" height="39.833" transform="translate(493.579 166.439)"/><rect class="g" width="10.775" height="39.833" transform="translate(528.013 166.439)"/><rect class="g" width="142.442" height="2.323" transform="translate(468.29 203.949)"/><rect class="i" width="10.837" height="22.85" transform="translate(504.231 223.646)"/><path class="g" d="M542.973,255.464c0,.241-14.331.436-32.005.436s-32.008-.2-32.008-.436,14.328-.436,32.008-.436S542.973,255.223,542.973,255.464Z"/><rect class="e" width="10.837" height="22.85" transform="translate(568.801 223.646)"/><path class="f" d="M607.543,255.464c0,.241-14.331.436-32.005.436s-32.008-.2-32.008-.436,14.328-.436,32.008-.436S607.543,255.223,607.543,255.464Z"/><rect class="e" width="10.837" height="22.85" transform="translate(568.801 269.013)"/><path class="f" d="M607.543,300.831c0,.241-14.331.437-32.005.437s-32.008-.2-32.008-.437,14.328-.436,32.008-.436S607.543,300.59,607.543,300.831Z"/><rect class="e" width="10.837" height="22.85" transform="translate(568.801 315.749)"/><path class="f" d="M607.543,347.567c0,.241-14.331.437-32.005.437s-32.008-.2-32.008-.437,14.328-.436,32.008-.436S607.543,347.326,607.543,347.567Z"/><rect class="e" width="10.837" height="22.85" transform="translate(568.801 362.485)"/><path class="f" d="M607.543,394.3c0,.241-14.331.437-32.005.437s-32.008-.2-32.008-.437,14.328-.436,32.008-.436S607.543,394.062,607.543,394.3Z"/><rect class="e" width="10.837" height="22.85" transform="translate(568.801 407.884)"/><path class="f" d="M607.543,439.7c0,.241-14.331.436-32.005.436s-32.008-.2-32.008-.436,14.328-.437,32.008-.437S607.543,439.462,607.543,439.7Z"/><rect class="e" width="10.837" height="22.85" transform="translate(568.801 453.467)"/><rect class="e" width="10.837" height="22.85" transform="translate(568.801 499.646)"/><path class="f" d="M607.543,485.285c0,.241-14.331.436-32.005.436s-32.008-.2-32.008-.436,14.328-.436,32.008-.436S607.543,485.044,607.543,485.285Z"/><rect class="i" width="10.837" height="22.85" transform="translate(504.231 269.705)"/><path class="g" d="M542.973,301.524c0,.241-14.331.436-32.005.436s-32.008-.2-32.008-.436,14.328-.437,32.008-.437S542.973,301.283,542.973,301.524Z"/><rect class="i" width="10.837" height="22.85" transform="translate(504.231 315.765)"/><path class="g" d="M542.973,347.583c0,.241-14.331.437-32.005.437s-32.008-.2-32.008-.437,14.328-.436,32.008-.436S542.973,347.342,542.973,347.583Z"/><path class="i" d="M515.068,384.675H504.231v-22.85h10.837"/><path class="g" d="M542.973,393.643c0,.241-14.331.436-32.005.436s-32.008-.2-32.008-.436,14.328-.436,32.008-.436S542.973,393.4,542.973,393.643Z"/><rect class="i" width="10.837" height="22.85" transform="translate(504.231 407.884)"/><path class="g" d="M542.973,439.7c0,.241-14.331.436-32.005.436s-32.008-.2-32.008-.436,14.328-.437,32.008-.437S542.973,439.462,542.973,439.7Z"/><rect class="i" width="10.837" height="22.85" transform="translate(504.231 453.944)"/><path class="g" d="M542.973,485.762c0,.241-14.331.437-32.005.437s-32.008-.2-32.008-.437,14.328-.436,32.008-.436S542.973,485.521,542.973,485.762Z"/><rect class="i" width="10.837" height="22.851" transform="translate(504.231 500.003)"/><rect class="g" width="123.395" height="234.187" transform="translate(387.362 307.189)"/><rect class="f" width="57.858" height="234.187" transform="translate(452.899 307.189)"/><rect class="e" width="11.095" height="26.956" transform="translate(413.235 329.224)"/><rect class="e" width="11.095" height="26.956" transform="translate(413.235 434.723)"/><path class="e" d="M452.9,366.759c0,.233-14.672.421-32.767.421s-32.77-.188-32.77-.421,14.669-.42,32.77-.42S452.9,366.527,452.9,366.759Z"/><rect class="e" width="11.095" height="26.956" transform="translate(413.235 382.374)"/><path class="e" d="M452.9,419.909c0,.232-14.672.42-32.767.42s-32.77-.188-32.77-.42,14.669-.421,32.77-.421S452.9,419.676,452.9,419.909Z"/><rect class="g" width="11.095" height="26.956" transform="translate(465.186 329.224)"/><rect class="g" width="11.095" height="26.956" transform="translate(489.256 329.224)"/><rect class="g" width="11.095" height="26.956" transform="translate(465.186 380.374)"/><rect class="g" width="11.095" height="26.956" transform="translate(489.256 380.374)"/><rect class="g" width="11.095" height="26.956" transform="translate(465.186 431.523)"/><rect class="g" width="11.095" height="26.956" transform="translate(489.256 431.523)"/><rect class="g" width="141.948" height="5.869" transform="translate(378.085 301.524)"/><path class="f" d="M511.619,307.945c0,.232-27.58.421-61.594.421s-61.6-.189-61.6-.421,27.575-.42,61.6-.42S511.619,307.713,511.619,307.945Z"/><rect class="f" width="104.039" height="137.224" transform="translate(290.873 396.161)"/><rect class="g" width="48.782" height="137.224" transform="translate(346.131 396.161)"/><rect class="e" width="9.355" height="22.727" transform="translate(312.688 414.739)"/><rect class="e" width="9.355" height="22.727" transform="translate(312.688 503.689)"/><path class="e" d="M346.131,446.386c0,.256-12.371.463-27.627.463s-27.631-.207-27.631-.463,12.369-.462,27.631-.462S346.131,446.131,346.131,446.386Z"/><rect class="e" width="9.355" height="22.727" transform="translate(312.688 459.552)"/><path class="e" d="M346.131,491.2c0,.255-12.371.462-27.627.462s-27.631-.207-27.631-.462,12.369-.463,27.631-.463S346.131,490.944,346.131,491.2Z"/><rect class="e" width="9.354" height="22.727" transform="translate(356.49 414.739)"/><rect class="e" width="9.355" height="22.727" transform="translate(376.785 414.739)"/><rect class="e" width="9.354" height="22.727" transform="translate(356.49 457.865)"/><rect class="e" width="9.355" height="22.727" transform="translate(376.785 457.865)"/><rect class="e" width="9.354" height="22.727" transform="translate(356.49 500.991)"/><rect class="e" width="9.355" height="22.727" transform="translate(376.785 500.991)"/><rect class="g" width="119.681" height="4.948" transform="translate(283.053 391.384)"/><path class="f" d="M395.639,396.8c0,.256-23.254.463-51.932.463s-51.937-.207-51.937-.463,23.249-.462,51.937-.462S395.639,396.543,395.639,396.8Z"/></g><g transform="translate(116.152)"><path class="j" d="M38.458,517.327a10.469,10.469,0,0,0,1.089-9.517,8.409,8.409,0,0,1-2.7,2.494,21.241,21.241,0,0,0,1.3-4.459l-2.318-1.792a10.968,10.968,0,0,1-1.151,2.711,4.07,4.07,0,0,0-.337-3.97,8.383,8.383,0,0,0-3.074-1.685,23.171,23.171,0,0,0-4.346-1.031,3.6,3.6,0,0,0-2.826.519c-1.061.917-.823,2.717.079,3.79a10.453,10.453,0,0,0,3.509,2.262,24.722,24.722,0,0,1,10.775,10.677"/><path class="j" d="M48.633,506.445a10.465,10.465,0,0,1-1.088-9.517,8.406,8.406,0,0,0,2.7,2.493,21.232,21.232,0,0,1-1.3-4.458l2.321-1.791a11.043,11.043,0,0,0,1.151,2.711,4.077,4.077,0,0,1,.337-3.971,8.4,8.4,0,0,1,3.074-1.684,23.25,23.25,0,0,1,4.346-1.031,3.6,3.6,0,0,1,2.826.519c1.061.917.824,2.717-.079,3.79a10.465,10.465,0,0,1-3.508,2.262,24.729,24.729,0,0,0-10.776,10.677"/><path class="j" d="M44,501.6c-1-1.311-2.772-2.081-4.009-3.174s-2.279-2.712-1.882-4.315l2.227.687a5.807,5.807,0,0,1-2.6-7.01l.759.137a3.614,3.614,0,0,1-1.695-2.575,8.292,8.292,0,0,1,.2-3.16,24.414,24.414,0,0,1,1.679-5.049,6.333,6.333,0,0,0,2.265.673,2.257,2.257,0,0,1,1.817,1.349c.332,1.21-1.1,2.325-.922,3.567a5.773,5.773,0,0,1,2.56-1.925c.04.933,1.156,1.618,1.033,2.543a2.024,2.024,0,0,1-.41.854l-3.075,4.459a37.16,37.16,0,0,0,5.458-2.626c-.32,5.451-.937,10.7-3.4,15.568"/><path d="M26.5,503.774a.561.561,0,0,0,.076.051l.229.136c.2.122.506.282.881.519a27.1,27.1,0,0,1,3.048,2.2c.311.246.613.532.941.815s.648.6.973.936a25.889,25.889,0,0,1,1.979,2.221c.327.408.627.853.943,1.3.154.227.322.449.471.686l.441.724c.311.478.555,1.006.838,1.522.143.258.251.535.379.8s.256.542.367.823a29.909,29.909,0,0,1,1.826,6.557,34.995,34.995,0,0,1,.437,5.552c.015.794-.033,1.511-.05,2.142-.046.626-.086,1.167-.119,1.613s-.082.776-.108,1.018l-.024.265a.461.461,0,0,0,0,.091.344.344,0,0,0,.018-.089l.039-.264c.032-.241.077-.581.134-1.015s.092-.985.144-1.615c.025-.631.08-1.35.071-2.146a34.081,34.081,0,0,0-.407-5.572,29.569,29.569,0,0,0-1.827-6.591c-.112-.283-.247-.553-.369-.828s-.237-.55-.382-.809c-.284-.519-.531-1.05-.845-1.531l-.444-.727c-.15-.238-.319-.46-.475-.687-.317-.449-.621-.9-.953-1.308a25.705,25.705,0,0,0-2-2.224c-.328-.334-.665-.636-.983-.933s-.636-.567-.951-.811a25.179,25.179,0,0,0-3.083-2.164c-.381-.231-.692-.383-.9-.5l-.236-.124A.457.457,0,0,0,26.5,503.774Z"/><path d="M45.539,533.053a.577.577,0,0,0,.01-.11l.014-.324.041-1.243c.018-.54.035-1.2.042-1.969s.028-1.641.022-2.607c.007-1.933-.028-4.234-.11-6.788s-.233-5.359-.452-8.3-.506-5.737-.8-8.275-.615-4.818-.913-6.727c-.139-.956-.289-1.818-.413-2.575s-.239-1.408-.337-1.94l-.227-1.223-.063-.317a.773.773,0,0,0-.026-.108.508.508,0,0,0,.012.11l.048.32.2,1.228c.091.532.2,1.184.314,1.943s.259,1.62.392,2.577c.284,1.91.585,4.19.881,6.727s.564,5.332.789,8.271.365,5.742.463,8.294.134,4.851.14,6.783c.013.966,0,1.839,0,2.606s-.009,1.429-.018,1.969-.01.951-.014,1.244v.323A.824.824,0,0,0,45.539,533.053Z"/><path d="M53.563,498a1.4,1.4,0,0,0-.141.176l-.38.522c-.165.227-.363.507-.581.841s-.477.706-.735,1.136-.554.894-.842,1.409-.591,1.067-.9,1.653c-.6,1.181-1.222,2.5-1.794,3.925s-1.026,2.81-1.4,4.082c-.177.64-.351,1.246-.483,1.821s-.259,1.11-.359,1.6-.179.939-.249,1.331-.121.731-.157,1.009l-.084.64a1.4,1.4,0,0,0-.02.225,1.282,1.282,0,0,0,.049-.221l.11-.635c.044-.277.1-.614.181-1s.154-.837.269-1.324.225-1.024.375-1.593.315-1.176.495-1.812c.382-1.267.846-2.647,1.409-4.067s1.182-2.737,1.777-3.918c.308-.585.594-1.146.889-1.655s.565-.986.824-1.414.5-.809.716-1.145.4-.622.56-.853l.358-.537A1.364,1.364,0,0,0,53.563,498Z"/><path class="j" d="M57.394,514.362a16.034,16.034,0,0,1,2.568,1.752,2.929,2.929,0,0,0,2.927.451l-.775-1.244a3.656,3.656,0,0,0,4.683.457l-.206-.44a2.27,2.27,0,0,0,1.84.611,5.211,5.211,0,0,0,1.891-.626,15.377,15.377,0,0,0,2.8-1.833,3.991,3.991,0,0,1-.773-1.27,4.63,4.63,0,0,0-1.334-1.063l-1.8,1.309a3.624,3.624,0,0,0,.76-1.867c-.574.126-1.17-.443-1.713-.22-.186.077-.846.022-1,.147a7.468,7.468,0,0,0-1.532,1.563,10.443,10.443,0,0,1,.583-2.478,24.575,24.575,0,0,0-8.916,4.751"/><path d="M64.865,513.586a4.089,4.089,0,0,0-.971-.422,6.606,6.606,0,0,0-2.871-.2,9.978,9.978,0,0,0-3.971,1.567,26.865,26.865,0,0,0-4.066,3.31,27.163,27.163,0,0,0-3.393,4,21.752,21.752,0,0,0-2.084,3.74,19.642,19.642,0,0,0-.94,2.73c-.079.332-.132.592-.17.767l-.04.2a.272.272,0,0,0-.009.069.394.394,0,0,0,.023-.066l.054-.2.2-.758a21.537,21.537,0,0,1,.979-2.7,22.306,22.306,0,0,1,2.1-3.706,27.615,27.615,0,0,1,3.384-3.97,27.319,27.319,0,0,1,4.037-3.3,9.981,9.981,0,0,1,3.914-1.578,6.728,6.728,0,0,1,2.841.15,6.175,6.175,0,0,1,.735.262l.186.083A.29.29,0,0,0,64.865,513.586Z"/><path class="k" d="M25.831,534.209a11.959,11.959,0,0,1,13.519-7.728,13.42,13.42,0,0,1,22.05,2.878,17.308,17.308,0,0,1,17.572,2.063l3.5,2.671Z"/><path class="k" d="M0,534.281a11.959,11.959,0,0,1,13.519-7.728,13.658,13.658,0,0,1,11.788-4.414,13.657,13.657,0,0,1,10.26,7.292,17.31,17.31,0,0,1,17.572,2.063l3.632,2.6Z"/></g><g transform="translate(-13.888 -9.621)"><g transform="translate(1709.917 493.181)"><path class="j" d="M1719.346,525.005a9.294,9.294,0,0,0,.966-8.45,7.474,7.474,0,0,1-2.4,2.214,18.9,18.9,0,0,0,1.156-3.958l-2.061-1.59a9.745,9.745,0,0,1-1.022,2.406,3.618,3.618,0,0,0-.3-3.525,7.464,7.464,0,0,0-2.73-1.5,20.712,20.712,0,0,0-3.858-.916,3.187,3.187,0,0,0-2.509.462,2.492,2.492,0,0,0,.07,3.364,9.264,9.264,0,0,0,3.115,2.008,21.949,21.949,0,0,1,9.565,9.479" transform="translate(-1705.976 -489.335)"/><path class="j" d="M1724.427,517.173a9.294,9.294,0,0,1-.966-8.45,7.474,7.474,0,0,0,2.4,2.214,18.923,18.923,0,0,1-1.156-3.959q1.033-.794,2.061-1.589a9.712,9.712,0,0,0,1.022,2.406,3.619,3.619,0,0,1,.3-3.525,7.444,7.444,0,0,1,2.73-1.494,20.614,20.614,0,0,1,3.858-.916,3.192,3.192,0,0,1,2.509.46,2.494,2.494,0,0,1-.07,3.365,9.283,9.283,0,0,1-3.114,2.008,21.946,21.946,0,0,0-9.567,9.479" transform="translate(-1702.024 -491.169)"/><path class="j" d="M1722.024,514.892c-.891-1.165-2.461-1.851-3.56-2.819a4.134,4.134,0,0,1-1.67-3.826l1.975.61a5.155,5.155,0,0,1-2.312-6.223l.673.123a3.209,3.209,0,0,1-1.5-2.289,7.365,7.365,0,0,1,.173-2.805,21.657,21.657,0,0,1,1.491-4.482,5.63,5.63,0,0,0,2.01.6,2,2,0,0,1,1.613,1.2c.3,1.075-.974,2.065-.818,3.168a5.133,5.133,0,0,1,2.273-1.709c.035.828,1.027,1.436.917,2.257a1.823,1.823,0,0,1-.364.759l-2.729,3.958a32.814,32.814,0,0,0,4.845-2.331c-.284,4.839-.832,9.5-3.022,13.822" transform="translate(-1703.73 -493.181)"/><g transform="translate(2.753 23.638)"><path d="M1708.207,512.335a.508.508,0,0,0,.068.046l.2.123c.178.107.449.247.782.46a23.981,23.981,0,0,1,2.706,1.949c.277.218.544.473.836.724s.575.533.864.829a23.448,23.448,0,0,1,1.756,1.975c.29.363.557.758.838,1.158.137.2.286.4.418.608l.391.643c.276.424.494.893.74,1.351.123.228.222.475.336.715s.227.481.326.731a26.531,26.531,0,0,1,1.622,5.821,30.941,30.941,0,0,1,.387,4.929c.014.7-.03,1.341-.044,1.9-.041.557-.076,1.038-.1,1.433l-.1.9-.021.236a.284.284,0,0,0,0,.081.359.359,0,0,0,.016-.08l.035-.233.123-.9c.04-.392.082-.874.124-1.433.021-.56.07-1.2.063-1.905a30.347,30.347,0,0,0-.362-4.947,26.293,26.293,0,0,0-1.621-5.851c-.1-.247-.219-.494-.327-.74a7.384,7.384,0,0,0-.339-.718c-.247-.46-.471-.932-.75-1.358l-.4-.645c-.132-.212-.282-.408-.421-.611-.281-.4-.552-.8-.845-1.161a22.817,22.817,0,0,0-1.775-1.975c-.291-.3-.59-.565-.873-.829s-.565-.5-.844-.719a22.24,22.24,0,0,0-2.737-1.921c-.338-.2-.617-.341-.8-.442l-.209-.11A.385.385,0,0,0,1708.207,512.335Z" transform="translate(-1708.207 -512.335)"/></g><g transform="translate(16.795 11.881)"><path d="M1722.442,540.555a.518.518,0,0,0,.009-.1l.012-.286.037-1.111c.015-.48.031-1.066.037-1.747s.025-1.458.018-2.315c.006-1.715-.024-3.759-.1-6.026s-.207-4.757-.4-7.367-.45-5.094-.711-7.348-.547-4.276-.811-5.972c-.123-.849-.257-1.613-.37-2.286s-.212-1.25-.3-1.728l-.2-1.086-.056-.283a.667.667,0,0,0-.023-.1.434.434,0,0,0,.011.1l.043.284.178,1.09c.08.474.175,1.051.278,1.728s.231,1.439.348,2.288c.253,1.7.52,3.721.782,5.972s.5,4.734.7,7.343.323,5.1.411,7.364.124,4.307.124,6.021c.011.864,0,1.633,0,2.314s-.008,1.269-.016,1.747l-.011,1.111v.287A.451.451,0,0,0,1722.442,540.555Z" transform="translate(-1719.586 -502.808)"/></g><g transform="translate(19.57 18.51)"><path d="M1729.043,508.18a1.154,1.154,0,0,0-.123.157l-.337.463c-.147.2-.323.45-.516.74s-.425.627-.654,1.008-.494.794-.74,1.251-.525.948-.8,1.467c-.537,1.049-1.084,2.221-1.592,3.485s-.912,2.494-1.245,3.623c-.156.568-.312,1.111-.428,1.617s-.231.987-.32,1.422-.158.833-.221,1.181-.107.649-.139.9l-.074.569a.968.968,0,0,0-.017.2,1.324,1.324,0,0,0,.042-.195l.1-.565c.04-.247.089-.544.16-.891s.137-.74.238-1.175.2-.91.334-1.414.279-1.044.439-1.6c.338-1.124.75-2.345,1.25-3.61s1.049-2.43,1.577-3.479c.274-.52.527-1.017.79-1.469s.5-.875.732-1.255.447-.718.636-1.017.357-.553.494-.758l.317-.476A1.192,1.192,0,0,0,1729.043,508.18Z" transform="translate(-1721.835 -508.18)"/></g><g transform="translate(20.374 28.816)"><path class="j" d="M1730.433,520.754a14.425,14.425,0,0,1,2.281,1.556,2.6,2.6,0,0,0,2.592.4l-.689-1.111a3.245,3.245,0,0,0,4.158.4l-.183-.39a2.021,2.021,0,0,0,1.634.543,4.649,4.649,0,0,0,1.678-.557,13.626,13.626,0,0,0,2.487-1.626,3.552,3.552,0,0,1-.686-1.128,4.139,4.139,0,0,0-1.184-.944l-1.6,1.163a3.218,3.218,0,0,0,.674-1.657c-.509.111-1.038-.394-1.521-.2-.164.068-.75.019-.89.13a6.6,6.6,0,0,0-1.357,1.388,9.241,9.241,0,0,1,.517-2.2,21.829,21.829,0,0,0-7.915,4.217" transform="translate(-1720.627 -516.531)"/><g transform="translate(0 2.919)"><path d="M1738.925,519.509a3.665,3.665,0,0,0-.864-.37,5.841,5.841,0,0,0-2.55-.175,8.863,8.863,0,0,0-3.524,1.391,23.838,23.838,0,0,0-3.61,2.938,24.164,24.164,0,0,0-3.012,3.549,19.439,19.439,0,0,0-1.851,3.321,17.548,17.548,0,0,0-.834,2.424c-.07.294-.117.524-.15.68l-.036.178a.175.175,0,0,0-.007.062.35.35,0,0,0,.02-.059l.048-.174.174-.674a19.04,19.04,0,0,1,.864-2.4,19.718,19.718,0,0,1,1.865-3.29,25.816,25.816,0,0,1,6.588-6.455,8.886,8.886,0,0,1,3.475-1.4,5.982,5.982,0,0,1,2.522.133,5.515,5.515,0,0,1,.652.233l.165.073A.205.205,0,0,0,1738.925,519.509Z" transform="translate(-1722.486 -518.896)"/></g></g></g><path class="k" d="M1707.726,536.293a10.613,10.613,0,0,1,12-6.86,11.915,11.915,0,0,1,19.574,2.555,15.365,15.365,0,0,1,15.6,1.831l3.11,2.372Z" transform="translate(4.35 7.545)"/><path class="k" d="M1689.144,536.345a10.613,10.613,0,0,1,12-6.86,11.912,11.912,0,0,1,19.573,2.555,15.367,15.367,0,0,1,15.6,1.831l3.225,2.313Z" transform="translate(0 7.557)"/></g><g transform="translate(856.692 473.742)"><g transform="translate(24.746)"><path class="j" d="M827.659,518.247a11.077,11.077,0,0,0,1.152-10.07,8.9,8.9,0,0,1-2.856,2.639,22.467,22.467,0,0,0,1.375-4.717l-2.455-1.894a11.6,11.6,0,0,1-1.218,2.867,4.308,4.308,0,0,0-.357-4.2,8.851,8.851,0,0,0-3.252-1.782,24.676,24.676,0,0,0-4.6-1.092,3.811,3.811,0,0,0-2.99.55c-1.122.97-.872,2.874.084,4.01a11.082,11.082,0,0,0,3.711,2.393,26.157,26.157,0,0,1,11.4,11.3" transform="translate(-811.718 -475.729)"/><path class="j" d="M837.063,507.365a11.078,11.078,0,0,1-1.152-10.07,8.9,8.9,0,0,0,2.856,2.639,22.467,22.467,0,0,1-1.375-4.717l2.455-1.894a11.582,11.582,0,0,0,1.218,2.867,4.306,4.306,0,0,1,.356-4.2,8.851,8.851,0,0,1,3.252-1.782,24.5,24.5,0,0,1,4.6-1.092,3.811,3.811,0,0,1,2.99.55c1.122.97.872,2.874-.084,4.01a11.051,11.051,0,0,1-3.711,2.392,26.17,26.17,0,0,0-11.4,11.3" transform="translate(-810.358 -476.36)"/><path class="j" d="M832.746,502.936c-1.058-1.388-2.933-2.2-4.242-3.359s-2.411-2.868-1.991-4.564l2.356.727a6.145,6.145,0,0,1-2.751-7.417l.8.145a3.814,3.814,0,0,1-1.783-2.727,8.751,8.751,0,0,1,.212-3.343,25.829,25.829,0,0,1,1.764-5.344,6.729,6.729,0,0,0,2.4.712,2.387,2.387,0,0,1,1.923,1.426c.351,1.28-1.164,2.46-.975,3.775a6.093,6.093,0,0,1,2.708-2.036c.041.986,1.223,1.711,1.093,2.689a2.165,2.165,0,0,1-.434.9l-3.253,4.716a39.044,39.044,0,0,0,5.773-2.778c-.338,5.767-.99,11.32-3.6,16.471" transform="translate(-810.945 -477.053)"/><g transform="translate(3.289 28.179)"><path d="M814.827,503.689a.452.452,0,0,0,.08.053l.242.144c.212.13.534.3.931.55a28.252,28.252,0,0,1,3.224,2.322c.33.26.65.563,1,.862.333.317.686.635,1.029.989a27.378,27.378,0,0,1,2.094,2.35c.346.432.663.9,1,1.375.164.24.342.474.5.725l.467.766c.329.506.588,1.065.887,1.611.152.272.266.566.4.846s.27.573.387.872a31.583,31.583,0,0,1,1.933,6.937,36.877,36.877,0,0,1,.461,5.873c.016.84-.035,1.6-.053,2.266-.049.663-.091,1.236-.126,1.708s-.087.82-.113,1.076l-.026.28a.5.5,0,0,0,0,.1.492.492,0,0,0,.019-.1l.04-.278c.034-.255.082-.616.143-1.074s.1-1.042.151-1.708c.026-.669.085-1.428.076-2.27a36.051,36.051,0,0,0-.431-5.9,31.329,31.329,0,0,0-1.931-6.973c-.118-.3-.262-.586-.39-.876s-.252-.582-.4-.856c-.3-.549-.562-1.111-.894-1.62l-.471-.769c-.159-.252-.338-.487-.5-.727-.336-.476-.657-.952-1.008-1.385a26.88,26.88,0,0,0-2.116-2.352c-.347-.353-.7-.673-1.039-.987-.35-.3-.673-.6-1.006-.859a26.565,26.565,0,0,0-3.263-2.289c-.4-.244-.731-.405-.952-.529l-.249-.131A.352.352,0,0,0,814.827,503.689Z" transform="translate(-814.827 -503.689)"/></g><g transform="translate(20.034 14.183)"><path d="M834.053,535.427a.712.712,0,0,0,.011-.116l.015-.342.042-1.316c.019-.571.037-1.27.045-2.082s.029-1.737.022-2.759c.007-2.044-.03-4.478-.115-7.18s-.246-5.671-.478-8.781-.536-6.069-.846-8.756-.651-5.1-.965-7.117c-.147-1.011-.306-1.922-.437-2.724s-.253-1.49-.358-2.051l-.24-1.294-.066-.336a.528.528,0,0,0-.029-.113.705.705,0,0,0,.013.116l.052.339.212,1.3c.1.564.212,1.254.332,2.056s.274,1.715.415,2.726c.3,2.022.619,4.434.932,7.118s.6,5.641.835,8.75.386,6.075.49,8.775.142,5.132.148,7.175c.013,1.022,0,1.947,0,2.758s-.008,1.511-.018,2.082-.012,1.007-.015,1.316v.343A.606.606,0,0,0,834.053,535.427Z" transform="translate(-830.655 -490.459)"/></g><g transform="translate(23.242 22.068)"><path d="M842.365,497.912a1.5,1.5,0,0,0-.148.187l-.4.552c-.176.239-.385.535-.615.889s-.506.747-.779,1.2-.585.945-.89,1.49-.625,1.13-.952,1.749c-.635,1.25-1.293,2.65-1.9,4.152s-1.086,2.973-1.481,4.32c-.187.676-.372,1.317-.511,1.927s-.274,1.173-.381,1.693-.188.992-.263,1.407-.128.774-.166,1.069l-.089.677a.12.12,0,1,0,.031,0l.116-.673c.048-.292.106-.65.192-1.058s.163-.884.284-1.4.238-1.084.4-1.686.333-1.243.529-1.917c.4-1.34.895-2.8,1.49-4.3s1.25-2.9,1.881-4.145c.325-.62.627-1.212.94-1.751s.6-1.043.873-1.5.529-.856.758-1.212.423-.657.593-.9l.379-.568A1.36,1.36,0,0,0,842.365,497.912Z" transform="translate(-833.687 -497.912)"/></g><g transform="translate(24.29 34.355)"><path class="j" d="M845.722,514.551a17.128,17.128,0,0,1,2.717,1.854,3.1,3.1,0,0,0,3.1.478l-.821-1.317a3.865,3.865,0,0,0,4.954.484l-.217-.464a2.4,2.4,0,0,0,1.946.646,5.515,5.515,0,0,0,2-.663,16.258,16.258,0,0,0,2.962-1.938,4.226,4.226,0,0,1-.819-1.344,4.911,4.911,0,0,0-1.41-1.126l-1.9,1.385a3.846,3.846,0,0,0,.8-1.975c-.606.133-1.238-.469-1.811-.232-.2.08-.9.022-1.058.154a7.878,7.878,0,0,0-1.621,1.655,10.994,10.994,0,0,1,.617-2.622,26,26,0,0,0-9.433,5.025" transform="translate(-834.038 -509.526)"/><g transform="translate(0 3.468)"><path d="M854.266,513.54a4.329,4.329,0,0,0-1.027-.446,6.994,6.994,0,0,0-3.038-.212,10.535,10.535,0,0,0-4.2,1.658,28.236,28.236,0,0,0-4.3,3.5,28.611,28.611,0,0,0-3.59,4.232,23.075,23.075,0,0,0-2.206,3.957,20.909,20.909,0,0,0-.993,2.888c-.084.351-.14.625-.18.81l-.042.212a.22.22,0,0,0-.01.074.323.323,0,0,0,.024-.07l.057-.212.212-.8a22.76,22.76,0,0,1,1.035-2.856,23.675,23.675,0,0,1,2.222-3.921,30.768,30.768,0,0,1,7.851-7.693,10.6,10.6,0,0,1,4.141-1.669,7.118,7.118,0,0,1,3.006.16,6.522,6.522,0,0,1,.778.277l.2.087A.256.256,0,0,0,854.266,513.54Z" transform="translate(-834.678 -512.804)"/></g></g></g><path class="k" d="M851.787,529.7a14.2,14.2,0,0,0-23.326-3.045,12.651,12.651,0,0,0-14.3,8.175h54.216S859.463,526.737,851.787,529.7Z" transform="translate(-786.831 -474.456)"/><path class="k" d="M788.328,534.905a12.651,12.651,0,0,1,14.3-8.175,14.2,14.2,0,0,1,23.326,3.045,18.311,18.311,0,0,1,18.589,2.182l3.842,2.751Z" transform="translate(-788.328 -474.452)"/></g><g transform="translate(351.497 252.737)"><path class="j" d="M554.592,630.464l-95.422-.438a20.82,20.82,0,0,1-20.7-20.877l1.014-239.218a20.819,20.819,0,0,1,20.883-20.7l95.424.438a20.819,20.819,0,0,1,20.7,20.863l-1.02,239.216A20.819,20.819,0,0,1,554.592,630.464Z" transform="translate(-438.474 -349.235)"/><path class="l" d="M553.489,355.093l-18.5-.085a4.6,4.6,0,0,0-4.516,4.673v3.36a4.587,4.587,0,0,1-4.512,4.66h-.011l-36.065-.166a4.609,4.609,0,0,1-4.472-4.717v-3.36a4.6,4.6,0,0,0-4.459-4.681h-6.5l-16.2-.123a14.56,14.56,0,0,0-14.632,14.479l-.983,233.5a14.56,14.56,0,0,0,14.487,14.624l95.237.438A14.561,14.561,0,0,0,566.987,603.2h0l.984-233.486A14.551,14.551,0,0,0,553.487,355.1h0Z" transform="translate(-436.301 -346.408)"/><path class="m" d="M443.214,382.592h15.607l13.927,13.935-14.479,14.479-14.889-14.9Z" transform="translate(-436.001 -331.831)"/><path class="m" d="M467.395,390.41l-7.825-7.817h17.6Z" transform="translate(-427.467 -331.831)"/><path class="m" d="M469.208,396.628l13.7-13.7H530.8s7.33,32.736-21.536,53.756Z" transform="translate(-422.438 -331.659)"/><path class="m" d="M470.38,394.8l-14.659,14.667,40.568,40.568,14.659-15.155Z" transform="translate(-429.475 -325.463)"/><path class="m" d="M443.1,416.256l9.19-9.534-9.01-9.01Z" transform="translate(-436.06 -323.942)"/><path class="m" d="M457.587,407.327l-14.114,14.114v19.614l29.14,29.814L497.3,447.891Z" transform="translate(-435.865 -318.926)"/><path class="m" d="M499.137,440.794s30.237-22.169,20.46-57.869h18.8l-.23,100.764Z" transform="translate(-406.823 -331.658)"/><path class="m" d="M500.411,424.773,485.8,440.036l44.826,44.834,13.712-14.53Z" transform="translate(-413.784 -309.824)"/><path class="m" d="M489.658,437.548,466.68,460.363,512.637,506l22.939-22.184Z" transform="translate(-423.757 -303.158)"/><path class="m" d="M473.864,525.151,509,488.739,542.415,522.8Z" transform="translate(-420.009 -276.45)"/><path class="m" d="M500.552,498.083l36.613-36.254c0,1.608-.317,75.174-.317,75.174Z" transform="translate(-406.085 -290.49)"/><path class="m" d="M493.393,472.27l20.755,20.755L473.17,535.31,454.24,512.6Z" transform="translate(-430.248 -285.042)"/><path class="m" d="M443.12,535.415c1.96-.193,52.147-47.194,52.147-47.194L443.12,434.184Z" transform="translate(-436.05 -304.914)"/><path class="m" d="M442.643,511.419l12.083-10.712,16.739,19.764H442.643v-7.56" transform="translate(-436.298 -270.206)"/><path class="n" d="M454.131,375.474a30.142,30.142,0,0,1-3.59-3.115h0v-.274h0l.05-.043.087-.079.18-.164.344-.324.653-.609,1.128-1a5.43,5.43,0,0,1,1.149-.9,5.038,5.038,0,0,1-.913,1.049l-1.077,1.065-.638.618-.345.33-.172.164-.093.079-.044.043h0v-.272h0A30.306,30.306,0,0,1,454.131,375.474Z" transform="translate(-432.178 -338.942)"/><path class="n" d="M518.661,369.909a.782.782,0,1,1-.79-.776h.015a.775.775,0,0,1,.775.775Z" transform="translate(-397.453 -338.853)"/><path class="n" d="M518.437,371.122a.782.782,0,1,1-1.106,0h0A.79.79,0,0,1,518.437,371.122Z" transform="translate(-397.451 -337.934)"/><path class="n" d="M518.66,373.461a.783.783,0,1,1,0-.152A.834.834,0,0,1,518.66,373.461Z" transform="translate(-397.452 -337.043)"/><rect class="n" width="33.583" height="2.8" transform="translate(53.984 34.235)"/><path class="j" d="M500.816,417.461c0-10.177-10.69-16.622-21.593-11.523a12.378,12.378,0,0,0-5.741,5.5c-2.739,5.311-1.529,11.377.956,16.415l8.49,21.508a3.652,3.652,0,0,0,6.813,0l8.316-21.619C500.937,421.152,500.816,417.461,500.816,417.461Zm-10.221,8.879c-7.327,4.261-14.761-3.613-10.74-11.387a6.148,6.148,0,0,1,2.33-2.47c7.333-4.261,14.761,3.614,10.739,11.389a6.092,6.092,0,0,1-2.328,2.468Z" transform="translate(-421.024 -320.582)"/></g><g transform="translate(405.348 360.331)"><path class="o" d="M718.087,422.063s18.227.913,22.465,1.342,6.076.994,6.218,2.193-5.935,5.783-10.8,6.848Z" transform="translate(-346.44 -418.831)"/><path class="p" d="M568.338,566.23H851.3c6.6,0,54.631-9.984,56.14-11.109s4.757-5.7,4.757-13.047V524.548c0-2.826-5.227-9.325-5.227-15.683V480.606c0-2.26-9.044-16.389-13.565-22.466s-36.312-33.767-48.6-35.609-125.043-4.24-148.065-.989-41.682,13-58.777,23.172-43.8,25.856-47.326,26.7S546.4,477.636,523.8,482.157s-37.724,10.173-40.55,13.14-3.348,5.089-4.285,10.928-1.508,9.608-2.45,11.774-2.639,3.39-2.639,7.534v22.231c0,2.739,14.7,15.26,20.253,16.2S546.673,566.23,568.338,566.23Z" transform="translate(-473.856 -419.939)"/><path class="q" d="M474.519,495.519a9.964,9.964,0,0,0-.654,3.788v22.231c0,2.739,14.7,15.26,20.253,16.2S546.679,540,568.344,540H851.3c6.6,0,54.631-9.984,56.14-11.109s4.757-5.7,4.757-13.047V498.318c0-2.826-5.227-9.325-5.227-15.683v-12.42Z" transform="translate(-473.862 -393.709)"/><path class="r" d="M774.1,457.16l-.873.715c5.405,6.609,10.258,14.064,9.176,23.8-.837,7.537-10,15.3-20.619,24.289-3.322,2.812-6.757,5.722-10.118,8.78-9.308,8.47-14.968,20.34-16.82,35.271l-.032.257c-.429,3.421-2.188,5.157-5.233,5.157H670.526a95.945,95.945,0,0,1-2.97-24.3c0-14.262,2.818-43.065,5.719-53.056.195-1.72.42-3.883.668-6.28.651-6.308,1.466-14.152,2.366-19.889,1.275-8.12,3.247-22.951,3.6-25.614,3.8-.3,8.033-.589,12.256-.778l-.05-1.128c-13.429.6-26.894,2.176-27.028,2.193l.132,1.121c.088-.009,5.84-.685,13.536-1.316-.431,3.249-2.325,17.47-3.564,25.346-.913,5.76-1.72,13.626-2.374,19.947-.248,2.392-.472,4.555-.648,6.177-2.9,9.981-5.745,38.943-5.745,53.276a98.06,98.06,0,0,0,2.929,24.3H564.741c-4.357,0-5.723-2.066-6.513-5.405a325.342,325.342,0,0,1-3.753-40.279V507.98c-.014-11.224-.02-16.858,5.022-26.413,5.226-9.9,16.245-16.2,16.354-16.257l-.554-.985c-.457.26-11.413,6.51-16.8,16.712-5.174,9.8-5.174,15.534-5.154,26.935v1.768a318.571,318.571,0,0,0,3.783,40.539c.773,3.26,2.229,6.276,7.609,6.276H729.582c2.547,0,5.719-1.065,6.355-6.146l.032-.259c1.818-14.657,7.356-26.291,16.459-34.576,3.348-3.043,6.773-5.947,10.088-8.755,10.8-9.144,20.125-17.044,21.012-25.025C784.659,471.621,779.4,463.632,774.1,457.16Z" transform="translate(-432.395 -417.619)"/><g transform="translate(25.34 94.723)"><path class="s" d="M574.781,533.754a42.609,42.609,0,1,0-83.659-1.78c14.44.855,50.379,1.78,68.535,1.78Z" transform="translate(-490.514 -482.186)"/><path class="s" d="M765.23,530.131a42.56,42.56,0,1,0-83.927,3.492h62.224C746.129,533.623,755.154,532.071,765.23,530.131Z" transform="translate(-391.432 -482.055)"/></g><ellipse class="t" cx="36.17" cy="36.17" rx="36.17" ry="36.17" transform="translate(31.747 101.456)"/><path class="u" d="M551.688,518.855a24.719,24.719,0,1,1-24.721-24.719A24.72,24.72,0,0,1,551.688,518.855Z" transform="translate(-459.051 -381.227)"/><ellipse class="t" cx="36.17" cy="36.17" rx="36.17" ry="36.17" transform="translate(320.736 101.456)"/><path class="u" d="M741.6,518.855a24.721,24.721,0,1,1-24.722-24.719h0A24.721,24.721,0,0,1,741.6,518.855Z" transform="translate(-359.969 -381.227)"/><g transform="translate(133.406 6.239)"><path class="s" d="M660.739,474.854c1.271-.04,2.686-1.231,3.5-3.634s4.976-35.181,5.684-39.844.682-6.349-1.965-6.163c-10.26.781-20.486,1.826-29.686,3.2-6.194.913-19.783,5.466-30.891,11.494s-42.114,27.174-43.9,29.2c-4.144,4.717-1.505,8.674,6.029,8.478,3.448-.084,45.943-1.356,91.227-2.725Z" transform="translate(-561.529 -423.433)"/><path class="s" d="M736.282,466.13c-4.332-10.928-27.5-39-42.577-41.256-7.044-1.065-27.778-1.175-50.654.04a3.21,3.21,0,0,0-3.6,3.254c-.251,3.074-2.966,34.758-3.249,40.268s3.249,6.49,3.249,6.49h0c47.942-1.456,93.759-2.865,94.76-2.958C736.282,471.782,737.278,468.64,736.282,466.13Z" transform="translate(-522.578 -424.039)"/></g><path class="r" d="M574.858,467.556c3.489-.283,7.54-1.438,8.726-3.378.7-1.14,3.724-6.822,5.7-10.558a5.487,5.487,0,0,1-.674.23c-.175.044-.456.1-.813.163-1.952,3.675-4.565,8.56-5.174,9.575-.82,1.345-4.122,2.537-7.851,2.843-1.864.152-24.988,4.717-47.352,9.146-19.186,3.8-39.027,7.72-40.244,7.807-1.826.131-6.557.075-9.2.034-.1.348-.181.736-.268,1.126,1.4.026,3.491.052,5.437.052,1.663,0,3.212-.02,4.109-.084,1.287-.093,19.405-3.675,40.384-7.823C548.927,472.474,573.061,467.7,574.858,467.556Z" transform="translate(-471.854 -402.366)"/><path class="u" d="M487.19,471.632c-2.088.924-8.055,8.478-8.826,13.423s-.07,6.569,2.544,6.146S494.4,487.67,498,485.55s14.554-12.223,15.331-13.918-2.333-3.6-4.663-3.885A56.666,56.666,0,0,0,487.19,471.632Z" transform="translate(-471.667 -394.999)"/><path class="s" d="M760.482,464.223c5.2.123,16.99.085,24.462.044-2.421-3.8-5.008-7.609-6.848-10.077-2.853-3.832-16.566-16.283-29.386-25.395-14.457-.5-51.817-1.724-53.033-1.119-1.508.753-.943,2.636,2.165,4.8s38.056,25.9,44.366,28.73S752.57,464.034,760.482,464.223Z" transform="translate(-358.55 -415.988)"/><path class="v" d="M744.756,481.934h21.9V460.453h-7.488c-1.978,0-8.336,7.581-12.011,11.494S740.8,481.934,744.756,481.934Z" transform="translate(-333.546 -398.801)"/></g><path class="w" d="M291.335,116.753a7.678,7.678,0,0,0-1.867-.072v-.022a1.859,1.859,0,0,0-1.859-1.859h0c-.021,0-.041.006-.063.007a3.986,3.986,0,0,0-3.217-4.63c-.086-.016-.171-.028-.257-.038a7.49,7.49,0,0,0-13.312-6.182,5.3,5.3,0,0,0-4.18-.228c.015-.209.032-.417.032-.63a8.855,8.855,0,1,0-17.709-.188c0,.063,0,.125,0,.188,0,.252.017.5.038.747a1.829,1.829,0,0,0-.493-.075,1.858,1.858,0,0,0-1.72,1.158,5.35,5.35,0,0,0-6.434,6.851,1.806,1.806,0,0,0-2,1.055,3.809,3.809,0,0,0-6.473,2.724v.005a1.828,1.828,0,0,0-2.487.7l-.006.01c-.189-.059-4.3-1.3-7.677.542a6.652,6.652,0,0,0-3.249,3.912h76.285A3.729,3.729,0,0,0,291.335,116.753Z"/><path class="w" d="M414.626,77.537h87.1a7.6,7.6,0,0,0-3.71-4.467c-3.857-2.1-8.549-.685-8.765-.619a2.088,2.088,0,0,0-2.835-.823l-.011.007v-.006a4.349,4.349,0,0,0-7.391-3.109,2.069,2.069,0,0,0-2.284-1.206,6.1,6.1,0,0,0-7.347-7.822,2.122,2.122,0,0,0-1.963-1.322,2.088,2.088,0,0,0-.563.086c.024-.282.043-.565.043-.853a10.11,10.11,0,0,0-20.219,0c0,.243.019.481.037.72a6.038,6.038,0,0,0-4.773.26,8.548,8.548,0,0,0-15.2,7.057,4.579,4.579,0,0,0-4.04,4.544,4.769,4.769,0,0,0,.072.786c-.024,0-.047-.007-.072-.007a2.122,2.122,0,0,0-2.121,2.121h0v.025a8.766,8.766,0,0,0-2.132.082A4.258,4.258,0,0,0,414.626,77.537Z" transform="translate(-63.119 -3.755)"/><path class="x" d="M685.886,155.53s-215.487-18.627-118.214,83c44.21,46.193-2.323,84.68-100.377,92.82-112.7,9.355-86.718,110.04,28.9,110.04" transform="translate(-71.637 -60.04)"/><g transform="translate(-23.867 -75.66)"><g transform="translate(199.857 336.367)"><g transform="translate(0 0.005)"><path class="i" d="M220.7,335.052c0,8.208-4.736,14.861-10.579,14.861s-10.579-6.653-10.579-14.861l10.776-4.54Z" transform="translate(-199.542 -330.512)"/></g><path class="y" d="M218.912,334.268l-8.593-3.76-10.776,4.54c0,6.007,2.539,11.178,6.19,13.521a7.646,7.646,0,0,0,2.2.328C213.632,348.9,218.314,342.5,218.912,334.268Z" transform="translate(-199.542 -330.508)"/></g><g transform="translate(269.32 336.705)"><g transform="translate(0 0.004)"><path class="m" d="M272.435,335.3c0,8.207-4.737,14.861-10.579,14.861s-10.579-6.654-10.579-14.861l10.775-4.541Z" transform="translate(-251.277 -330.763)"/></g><path class="y" d="M270.642,334.52l-8.587-3.76L251.28,335.3c0,6.006,2.538,11.177,6.188,13.52a7.608,7.608,0,0,0,2.2.328C265.358,349.145,270.041,342.746,270.642,334.52Z" transform="translate(-251.276 -330.76)"/></g><g transform="translate(198.624 313.411)"><path class="k" d="M280.57,332.521H279.9a31.194,31.194,0,0,0-2.219-7.426,23.7,23.7,0,0,0-4.785-7.107,16.069,16.069,0,0,0-6.418-3.973,13.048,13.048,0,0,0-7.053-.223,15.811,15.811,0,0,0-6.632,3.576c-.5.463-.973.976-1.461,1.464-.461.537-.9,1.1-1.351,1.664-.412.608-.806,1.238-1.208,1.864l-1.062,2.031c-.615,1.313-1.537,4.048-1.537,4.048h-1.645a47.3,47.3,0,0,0-3.573-7.706l-1.314-1.715c-.477-.509-.952-1.022-1.439-1.511-.513-.434-1.024-.874-1.548-1.277-.537-.352-1.074-.73-1.63-1.053a13.51,13.51,0,0,0-13.89.318,19.312,19.312,0,0,0-5.774,5.6,27.932,27.932,0,0,0-3.75,8.244c-.259.93-.471,1.88-.649,2.848h-.922l-11.413,9.38a96.781,96.781,0,0,1,11.774-2.954,9.6,9.6,0,0,1,.961-.067c3.077,0,11.885,3.014,11.885,3.014l-11.565-9.38h-.363c.195-.89.422-1.766.689-2.616a26.117,26.117,0,0,1,3.86-7.761,17.857,17.857,0,0,1,5.62-5.094,12.4,12.4,0,0,1,12.984.317,19.763,19.763,0,0,1,5.461,5.136,27.146,27.146,0,0,1,3.845,7.559c.3.92.568,1.87.8,2.841l-1.319,253.474h4.028L246.191,333.7a30.972,30.972,0,0,1,2.708-8.168,23.877,23.877,0,0,1,4.675-6.484,14.779,14.779,0,0,1,6.064-3.66,12.3,12.3,0,0,1,6.648-.078,14.9,14.9,0,0,1,6.2,3.521,22.009,22.009,0,0,1,4.834,6.6,29.839,29.839,0,0,1,2.379,7.092h-.772L267.516,341.9s9.658-3.013,12.735-3.013,11.885,3.013,11.885,3.013Z" transform="translate(-198.624 -313.411)"/><path class="j" d="M242.4,503.775l-1.837,40.845H229.714l-1.88-40.845Z" transform="translate(-188.614 -248.176)"/></g></g><g transform="translate(-11.335 -61.295)"><g transform="translate(1738.738 324.695)"><path class="i" d="M1759.43,324.443c0,8.127-4.689,14.715-10.474,14.715s-10.475-6.588-10.475-14.715l10.67-4.5Z" transform="translate(-1738.48 -319.947)"/><path class="y" d="M1757.653,323.665l-8.5-3.718-10.67,4.5c0,5.948,2.514,11.067,6.129,13.388a7.509,7.509,0,0,0,2.182.325C1752.424,338.155,1757.061,331.811,1757.653,323.665Z" transform="translate(-1738.48 -319.947)"/></g><g transform="translate(1807.511 325.03)"><path class="m" d="M1813.843,324.707c0,8.127-4.689,14.716-10.474,14.716s-10.476-6.589-10.476-14.716l10.67-4.495Z" transform="translate(-1792.893 -320.212)"/><path class="y" d="M1812.064,323.929l-8.5-3.717-10.67,4.495c0,5.948,2.514,11.068,6.127,13.387a7.551,7.551,0,0,0,2.182.325C1806.837,338.419,1811.474,332.076,1812.064,323.929Z" transform="translate(-1792.893 -320.212)"/></g><g transform="translate(1737.504 301.955)"><path class="k" d="M1818.643,320.882h-.663a30.875,30.875,0,0,0-2.2-7.352,23.492,23.492,0,0,0-4.739-7.038,15.9,15.9,0,0,0-6.355-3.933,12.918,12.918,0,0,0-6.983-.221,15.68,15.68,0,0,0-6.573,3.539c-.493.459-.963.967-1.446,1.45-.457.53-.9,1.091-1.337,1.643-.408.6-.8,1.226-1.2,1.845l-1.052,2.011c-.609,1.3-1.517,4.009-1.517,4.009h-1.628a46.978,46.978,0,0,0-3.539-7.63l-1.3-1.7c-.471-.506-.943-1.011-1.424-1.5-.506-.428-1.011-.865-1.533-1.264-.539-.348-1.069-.723-1.614-1.043a13.378,13.378,0,0,0-13.754.316,19.14,19.14,0,0,0-5.715,5.54,27.648,27.648,0,0,0-3.712,8.162c-.253.921-.468,1.866-.642,2.821h-.914l-11.3,9.287a95.8,95.8,0,0,1,11.658-2.918q.474-.057.952-.067c3.047,0,11.769,2.985,11.769,2.985l-11.451-9.287h-.359c.193-.885.418-1.748.682-2.59a25.9,25.9,0,0,1,3.822-7.685,17.722,17.722,0,0,1,5.561-5.046,12.28,12.28,0,0,1,12.857.316,19.535,19.535,0,0,1,5.407,5.085,26.819,26.819,0,0,1,3.808,7.484c.3.911.561,1.853.788,2.814l-1.306,250.971h3.988L1784.6,322.04a30.74,30.74,0,0,1,2.682-8.089,23.637,23.637,0,0,1,4.63-6.421,14.622,14.622,0,0,1,6-3.624,12.176,12.176,0,0,1,6.581-.078,14.758,14.758,0,0,1,6.14,3.487,21.786,21.786,0,0,1,4.783,6.538,29.557,29.557,0,0,1,2.356,7.021h-.759l-11.3,9.287s9.563-2.984,12.61-2.984,11.768,2.984,11.768,2.984Z" transform="translate(-1737.504 -301.955)"/><path class="j" d="M1782.657,502.2l-1.818,40.446H1770.1l-1.865-40.446Z" transform="translate(-1729.394 -249.106)"/></g></g><path class="z" d="M.446,557.941H307.923l-52.476-7.669L0,544.894Z"/><path class="b" d="M1920,677.313s-188.665-70.477-315.724-53.563-217.411-23.962-309.176-23.962-298.824-33.359-460.423-6.667l30.859-59.034H1920Z"/><path class="z" d="M1920,557.753H1653.924l47.422-4.067L1920,546.48Z"/><g transform="translate(-13.601 -17.155)"><g transform="translate(1807.932 391.384)"><g transform="translate(116.91 31.658)"><path class="e" d="M1921.511,419.63c-5.764.083-9.27.193-9.27.313s3.506.23,9.27.313Z" transform="translate(-1912.241 -419.63)"/></g><g transform="translate(8.766 5.354)"><rect class="f" width="116.608" height="153.802"/><rect class="g" width="54.675" height="153.802" transform="translate(61.932)"/></g><g transform="translate(8.766 26.177)"><rect class="e" width="10.485" height="25.473" transform="translate(24.45)"/><rect class="e" width="10.485" height="25.473" transform="translate(24.45 99.696)"/><g transform="translate(0 34.952)"><path class="e" d="M1877.685,446.442c0,.287-13.865.519-30.964.519s-30.968-.232-30.968-.519,13.862-.518,30.968-.518S1877.685,446.156,1877.685,446.442Z" transform="translate(-1815.753 -445.924)"/></g></g><g transform="translate(8.766 76.403)"><rect class="e" width="10.485" height="25.473" transform="translate(24.45)"/><g transform="translate(0 34.951)"><path class="e" d="M1877.685,491.255c0,.286-13.865.518-30.964.518s-30.968-.232-30.968-.518,13.862-.519,30.968-.519S1877.685,490.969,1877.685,491.255Z" transform="translate(-1815.753 -490.736)"/></g></g><rect class="e" width="10.484" height="25.473" transform="translate(82.309 26.177)"/><rect class="e" width="10.485" height="25.473" transform="translate(105.055 26.177)"/><rect class="e" width="10.484" height="25.473" transform="translate(82.309 74.512)"/><rect class="e" width="10.485" height="25.473" transform="translate(105.055 74.512)"/><rect class="e" width="10.484" height="25.473" transform="translate(82.309 122.848)"/><rect class="e" width="10.485" height="25.473" transform="translate(105.055 122.848)"/><rect class="g" width="126.181" height="5.546"/><g transform="translate(9.771 5.55)"><path class="f" d="M1933.059,396.852c-.167-.285-26.158-.516-58.2-.516-32.154,0-58.211.232-58.211.518s26.058.519,58.211.519c32.039,0,58.031-.231,58.2-.516Z" transform="translate(-1816.65 -396.336)"/></g></g></g><line class="aa" x2="1919.792" transform="translate(0 534.196)"/><g transform="translate(497.987 342.491)"><g transform="translate(0 0)"><g transform="translate(5.169)"><g transform="translate(2.048 76.11)"><path d="M545.108,470.779c-1.149-1.75-5.935,93.739-5.611,94.286l12.554.18,6.848-51.237,3.716-38.824,5.993,36.481,7.35,53.463,13.72.2-8.473-96.914-17.766-10.18Z" transform="translate(-539.482 -458.231)"/></g><g transform="translate(0 24.162)"><g transform="translate(5.061)"><path class="ab" d="M556.2,424.729c-5.606.848-8.415,6.2-8.415,6.2l-6.326,4.294,5.451,26.326-5.4,35.457,1.077,3.057,40.346-.674.768-2.783-4.171-32.273,1.826-21.628,1.685-8.686-7.317-3.086a29.907,29.907,0,0,0,2.9,1.217c.571.173-4.244-5.993-8.437-7.333C566.476,423.644,560.3,424.111,556.2,424.729Z" transform="translate(-541.462 -424.094)"/></g><g class="ac" transform="translate(7.421 54.631)"><path d="M543.013,461.628c4.55,5.9,10.769,10.246,16.891,14.5a11.494,11.494,0,0,0,4.173,2.118,5.849,5.849,0,0,0,5.869-2.464,37.774,37.774,0,0,1,2.236-4.273c.709-.829,1.7-1.37,2.465-2.146a10.639,10.639,0,0,0,1.581-2.337l2.5-4.517c-3.044-.014-5.851,1.485-8.595,2.8s-5.793,2.5-8.756,1.817c-4.109-.939-6.719-5.113-10.661-6.588a8.909,8.909,0,0,0-7.639.727" transform="translate(-543.013 -459.995)"/></g><g transform="translate(0 10.243)"><path class="ab" d="M544.472,430.912s-3.422.717-4.1,7.42c-.4,4.023-2.929,25.17-2.056,28.207s12.174,15.718,15.934,15.406l1.4-.508L557,482.479l6.014-4.507-13.254-16.677.712-24.008S548.663,429.954,544.472,430.912Z" transform="translate(-538.136 -430.825)"/></g><g transform="translate(28.308 9.744)"><path d="M556.739,448.793a4.245,4.245,0,0,1,.05-.761c.056-.484.16-1.181.321-2.035.318-1.712.883-4.048,1.63-6.594A59.682,59.682,0,0,1,561,433c.345-.8.66-1.43.893-1.858a3.939,3.939,0,0,1,.4-.642,4.221,4.221,0,0,1-.3.689c-.2.44-.492,1.079-.813,1.882-.651,1.605-1.421,3.876-2.181,6.41s-1.338,4.86-1.7,6.556c-.186.848-.315,1.535-.4,2.013A4.16,4.16,0,0,1,556.739,448.793Z" transform="translate(-556.738 -430.497)"/></g><g transform="translate(29.563 4.807)"><path d="M557.563,436.3a96.063,96.063,0,0,1,4.361-9.042,95.293,95.293,0,0,1-4.361,9.048Z" transform="translate(-557.563 -427.253)"/></g><g transform="translate(35.884 16.596)"><path d="M563.365,445.7a1.314,1.314,0,0,1-.2-.382c-.116-.253-.262-.625-.423-1.094a19.364,19.364,0,0,1-.971-7.644c.04-.493.087-.892.135-1.164a1.376,1.376,0,0,1,.1-.42,15.083,15.083,0,0,1-.047,1.595,24.02,24.02,0,0,0,.962,7.577C563.19,445.115,563.4,445.689,563.365,445.7Z" transform="translate(-561.717 -435)"/></g><g class="ac" transform="translate(28.105 6.625)"><path d="M557.8,445.073a36.862,36.862,0,0,0-.823,4.529c0,.391-.625,6.557-.262,6.7.429.167,2.06-4.325,2.417-6.563.28-1.755.775-4.063,1.065-5.815.855-5.113,2.753-7.864,5.411-12.314.5-.842,2.383-3.136,2.383-3.136-.181-.114-.927.239-1.449.475a28.738,28.738,0,0,0-4.183,2.82A51.012,51.012,0,0,0,560.2,436.4a65.5,65.5,0,0,0-2.435,8.968" transform="translate(-556.605 -428.448)"/></g><g class="ac" transform="translate(10.877 7.726)"><path d="M546.912,429.174s-1.639.895-1.628,1.616a2.1,2.1,0,0,0,1.193,1.685,14.58,14.58,0,0,0,2.025.753,11.884,11.884,0,0,1,4.116,2.937,34.693,34.693,0,0,1,5.127,6.572c1.195,1.978,2.283,4.194,4.29,5.364-1.354-2.421-2.759-4.763-4.109-7.184a46.263,46.263,0,0,0-4.672-6.848c-1.761-2.13-4.629-4.727-6.339-4.9" transform="translate(-545.284 -429.171)"/></g><g transform="translate(6.638 23.684)"><path d="M542.528,459.433a.355.355,0,0,1-.021-.132,2.093,2.093,0,0,1,0-.391,3.108,3.108,0,0,1,.487-1.389,3.058,3.058,0,0,1,1.826-1.325,3.254,3.254,0,0,1,2.817.625l-.2.1a25.627,25.627,0,0,1,.3-5.119c.259-1.674.565-3.25.74-4.7a38.6,38.6,0,0,0,.3-3.862c.033-1.1.029-2,.015-2.616v-.714a.126.126,0,1,1,.053,0l.053.711c.047.618.079,1.514.07,2.624a34.24,34.24,0,0,1-.245,3.888c-.163,1.459-.457,3.044-.718,4.71a26.67,26.67,0,0,0-.326,5.07l.011.269L547.5,457a3.077,3.077,0,0,0-2.617-.609,2.932,2.932,0,0,0-1.755,1.217,3.242,3.242,0,0,0-.531,1.318C542.536,459.252,542.547,459.433,542.528,459.433Z" transform="translate(-542.498 -439.658)"/></g><g transform="translate(7.946 40.947)"><path d="M543.358,465.909a.967.967,0,0,1,.163.142l.446.434c.4.374.977.921,1.761,1.557a26.122,26.122,0,0,0,2.961,2.092,12.337,12.337,0,0,0,1.978.992,2.6,2.6,0,0,0,1.134.169,1.669,1.669,0,0,0,1.047-.457l.078-.082.085.065,1.348,1.038h-.152l6.006-4.515-.023.19-.107-.134c-1.814-2.257-3.428-4.485-4.932-6.486s-2.855-3.8-4.029-5.285-2.169-2.646-2.882-3.425c-.351-.4-.639-.688-.834-.886a2.453,2.453,0,0,1-.285-.316,2.407,2.407,0,0,1,.321.277c.208.187.508.469.874.854.74.761,1.758,1.908,2.952,3.38s2.572,3.257,4.078,5.256,3.138,4.217,4.943,6.466l.107.132.087.108-.11.082-6.018,4.5-.076.056-.075-.058-1.341-1.047.163-.017a1.871,1.871,0,0,1-1.208.536,2.755,2.755,0,0,1-1.228-.192,12.273,12.273,0,0,1-2-1.029,24.787,24.787,0,0,1-2.951-2.152,23.052,23.052,0,0,1-1.724-1.611l-.42-.457A.875.875,0,0,1,543.358,465.909Z" transform="translate(-543.358 -451.002)"/></g><g transform="translate(5.953 10.48)"><path d="M548.876,438.955c-.049.008-.137-.609-.466-1.542a10.411,10.411,0,0,0-.714-1.583,10.461,10.461,0,0,0-4.194-4.153c-.875-.469-1.47-.651-1.455-.7a1.384,1.384,0,0,1,.428.1,7.1,7.1,0,0,1,1.111.437,9.391,9.391,0,0,1,1.522.922,9.9,9.9,0,0,1,2.814,3.281,9.392,9.392,0,0,1,.677,1.639,6.919,6.919,0,0,1,.262,1.163A1.357,1.357,0,0,1,548.876,438.955Z" transform="translate(-542.048 -430.981)"/></g><g class="ac" transform="translate(6.319 38.813)"><path d="M542.42,453.714a3.361,3.361,0,0,1,1.532-3.832,2,2,0,0,1,1.088-.282c.825.059,1.415.793,1.9,1.462a3.431,3.431,0,0,0-4.27,2.305,3.238,3.238,0,0,0-.079.32" transform="translate(-542.288 -449.599)"/></g><g transform="translate(43.216 41.539)"><path class="ad" d="M566.535,451.391" transform="translate(-566.535 -451.391)"/></g><g class="ac" transform="translate(31.963 25.081)"><path d="M570.008,440.576a10.127,10.127,0,0,0-.349,2.651c0,2.861.183,4.118.187,6.979a9.792,9.792,0,0,1-.986,5.273,11.175,11.175,0,0,1-1.108,2.1,12.356,12.356,0,0,1-1.341,1.467,54.566,54.566,0,0,0-6.154,7.3l-1.118,1.639,11.1-10.412.546-1.37.027-.161Z" transform="translate(-559.14 -440.576)"/></g><g transform="translate(31.106 9.934)"><g transform="translate(0.313)"><path class="ab" d="M574.017,430.622s1.749.657,2.66,4.558a140.321,140.321,0,0,1,2.643,14.829c.18,2.386,2.521,11.109.711,14.945S569.456,480.649,566,481.03l-1.443-.365-1.522.259-4.252-4.891.371-1.4a1.406,1.406,0,0,1,.021-1.476c.5-.7,11.343-10.88,11.343-10.88s-.414-.053-.5-.761c-.152-1.21.9-1.166.9-1.166l-.7-10.652s.313-8.1.594-10.777A24.2,24.2,0,0,1,574.017,430.622Z" transform="translate(-558.783 -430.622)"/></g><g transform="translate(12.113 31.56)"><path d="M570.629,452.718c-.047.067-.846-.507-1.978-.864s-2.114-.368-2.114-.449a5.022,5.022,0,0,1,4.1,1.313Z" transform="translate(-566.537 -451.361)"/></g><g transform="translate(12.46 29.46)"><path d="M572.7,451.845a7.875,7.875,0,0,0-5.935-1.59,2.291,2.291,0,0,1,.913-.234,6.17,6.17,0,0,1,4.346,1.163A2.315,2.315,0,0,1,572.7,451.845Z" transform="translate(-566.765 -449.982)"/></g><g transform="translate(11.38 29.634)"><path d="M566.785,452.067c-.011.024-.181.011-.4-.152a.867.867,0,0,1-.283-.406,1.089,1.089,0,0,1,0-.609,1.415,1.415,0,0,1,.152-.371l-.012.026a.77.77,0,0,1,.677-.457c.2-.012.3.046.3.073s-.114.035-.275.087a.681.681,0,0,0-.457.374v.008l-.009.018a1.584,1.584,0,0,0-.119.3.844.844,0,0,0,.163.807C566.665,451.945,566.8,452.027,566.785,452.067Z" transform="translate(-566.055 -450.096)"/></g><g transform="translate(11.597 14.627)"><path d="M566.218,440.234a2.585,2.585,0,0,1,.1.59c.044.38.1.934.152,1.618.108,1.37.215,3.263.3,5.353.088,2.061.167,3.925.228,5.354l.065,1.624a2.623,2.623,0,0,1-.008.6,2.509,2.509,0,0,1-.094-.59c-.046-.382-.1-.934-.152-1.619-.108-1.37-.214-3.263-.3-5.353-.087-2.06-.167-3.923-.228-5.354-.026-.642-.049-1.184-.065-1.624A2.607,2.607,0,0,1,566.218,440.234Z" transform="translate(-566.198 -440.234)"/></g><g transform="translate(0 31.532)"><path d="M570.862,451.343a2.094,2.094,0,0,1-.269.263l-.8.726-2.975,2.7c-1.254,1.155-2.739,2.552-4.383,4.15q-1.228,1.2-2.56,2.54a2.864,2.864,0,0,0-.545.727,1.34,1.34,0,0,0-.093.87,4.835,4.835,0,0,1,.152,1,1.007,1.007,0,0,1-.545.945l.05-.209,2.194,2.508,2.153,2.465-.12-.043,1.522-.257h.035a6.684,6.684,0,0,0,1.791.289,3.327,3.327,0,0,0,1.546-.709,23.985,23.985,0,0,0,2.435-2.266c1.456-1.529,2.651-2.983,3.632-4.2s1.744-2.213,2.273-2.891l.609-.776a1.834,1.834,0,0,1,.224-.26,2.083,2.083,0,0,1-.187.288l-.575.8c-.507.7-1.251,1.7-2.214,2.941s-2.146,2.707-3.6,4.261a23.665,23.665,0,0,1-2.444,2.307,3.566,3.566,0,0,1-1.663.761,6.613,6.613,0,0,1-1.847-.283h.035l-1.522.262-.071.012-.049-.055c-.7-.8-1.423-1.627-2.156-2.465l-2.191-2.509-.125-.142.175-.065a.76.76,0,0,0,.38-.711,4.746,4.746,0,0,0-.152-.947,1.593,1.593,0,0,1,.116-1.024,3.116,3.116,0,0,1,.593-.791q1.338-1.342,2.587-2.532c1.653-1.589,3.156-2.974,4.428-4.109s2.308-2.033,3.028-2.64l.834-.691A2.1,2.1,0,0,1,570.862,451.343Z" transform="translate(-558.577 -451.343)"/></g></g><g transform="translate(12.166 34.875)"><path d="M577.1,447.495c0,.073-6.935.034-15.484-.09s-15.484-.282-15.484-.356,6.935-.032,15.487.091S577.1,447.421,577.1,447.495Z" transform="translate(-546.131 -447.012)"/></g><g transform="translate(19.406 59.739)"><path d="M551.819,464.419c-.044.055-.333-.108-.595-.412s-.38-.609-.32-.651.274.193.521.479S551.863,464.366,551.819,464.419Z" transform="translate(-550.889 -463.351)"/></g><g transform="translate(21.495 58.258)"><path d="M553.042,463.416c-.059.044-.278-.152-.49-.437s-.335-.551-.275-.6.277.152.488.438S553.1,463.373,553.042,463.416Z" transform="translate(-552.261 -462.378)"/></g><g transform="translate(32.179 55.2)"><path d="M560.63,460.386c.033.065-.259.278-.621.522s-.673.431-.721.374.195-.341.574-.594S560.6,460.321,560.63,460.386Z" transform="translate(-559.282 -460.368)"/></g><g transform="translate(33.69 56.632)"><path d="M561.555,461.313c.061.036-.116.425-.484.785s-.761.533-.793.472.263-.321.609-.66S561.491,461.272,561.555,461.313Z" transform="translate(-560.275 -461.31)"/></g><g transform="translate(35.024 58.321)"><path d="M562.479,462.427c.053.049-.17.373-.546.671s-.742.444-.778.382.254-.3.609-.589S562.426,462.375,562.479,462.427Z" transform="translate(-561.152 -462.419)"/></g><g transform="translate(16.617 4.19)"><path d="M549.056,426.848c.076-.029.683,1.5,1.719,3.229s2.085,3,2.024,3.043a3.727,3.727,0,0,1-.752-.779,17.423,17.423,0,0,1-2.663-4.468A3.741,3.741,0,0,1,549.056,426.848Z" transform="translate(-549.056 -426.848)"/></g><g transform="translate(5.019 72.417)"><path d="M583.723,471.79a2.552,2.552,0,0,1-.431.023l-1.231.014-4.532.043c-3.826.046-9.109.19-14.947.368s-11.127.291-14.956.289c-1.913,0-3.462-.012-4.532-.041l-1.233-.037a2.708,2.708,0,0,1-.429-.03,2.534,2.534,0,0,1,.429-.023l1.233-.014,4.532-.043c3.826-.046,9.109-.19,14.948-.367s11.124-.292,14.953-.291c1.914,0,3.463.014,4.533.043l1.233.035A2.7,2.7,0,0,1,583.723,471.79Z" transform="translate(-541.434 -471.682)"/></g></g><g transform="translate(18.58 79.424)"><g transform="translate(13.136 5.973)"><path class="ae" d="M560.736,464.334a1.124,1.124,0,0,0,1.065.493c.414-.015.816-.152,1.23-.172a1.161,1.161,0,0,1,1.09.456.959.959,0,0,1-.033.94,1.9,1.9,0,0,1-.715.663,3.867,3.867,0,0,1-4.393-.422" transform="translate(-558.978 -464.334)"/></g><g transform="translate(5.483 7.776)"><path class="ae" d="M553.949,469.958a25.645,25.645,0,0,0,4.021,3.263,1.536,1.536,0,0,0,1.036.348c.37-.061.664-.54.415-.82a1.117,1.117,0,0,0,1.768-1.195.032.032,0,0,1,.014-.043.028.028,0,0,1,.031,0,1.275,1.275,0,0,0,1.118-.079.959.959,0,0,0,.418-1.065.987.987,0,0,0,1.572-.256,1.735,1.735,0,0,0-.3-1.78,8.678,8.678,0,0,0-1.409-1.274,2.8,2.8,0,0,1-1.065-1.538" transform="translate(-553.949 -465.519)"/><g transform="translate(3.345 5.052)"><path class="af" d="M558.337,471.052a3.654,3.654,0,0,1-2.19-2.211c.069-.038.434.56,1.036,1.163S558.375,470.983,558.337,471.052Z" transform="translate(-556.147 -468.839)"/></g><g transform="translate(5.217 3.939)"><path class="af" d="M559.431,470.145a4.213,4.213,0,0,1-2.054-2.035c.062-.044.472.456,1.035,1.01S559.474,470.082,559.431,470.145Z" transform="translate(-557.377 -468.107)"/></g><g transform="translate(7.228 3.176)"><path class="af" d="M560.665,469.519a3.878,3.878,0,0,1-1.966-1.91c.062-.044.457.425.992.945S560.706,469.455,560.665,469.519Z" transform="translate(-558.699 -467.606)"/></g></g><path class="ae" d="M552.578,461.2s-.152-.65,1.522-.44a19.416,19.416,0,0,0,4.293.275c1.876-.1,4.92-.632,4.92-.632l4.9,4.31A70.173,70.173,0,0,1,561.7,469.9c-1.5.785-4.55,2.739-6.286,2.646-1.321-.071-1.438-.729-1.438-.729s-1.289-.886-1.1-1.316c0,0-1.529-.084-1.243-1.257,0,0-1.091-.2-1.268-.825s.647-1.353.963-1.674c.51-.5,4.967-3.775,4.987-3.868C556.317,462.886,552.508,462.509,552.578,461.2Z" transform="translate(-550.346 -460.409)"/><g transform="translate(1.225 5.545)"><path class="af" d="M555.319,464.053a26.334,26.334,0,0,1-4.168,3.214A26.176,26.176,0,0,1,555.319,464.053Z" transform="translate(-551.151 -464.053)"/></g><g transform="translate(2.503 6)"><path class="af" d="M557.24,464.353a3.055,3.055,0,0,1-.586.8,13,13,0,0,1-3.75,2.929,3.109,3.109,0,0,1-.913.376c-.037-.074,1.315-.738,2.763-1.878S557.179,464.308,557.24,464.353Z" transform="translate(-551.99 -464.352)"/></g><g transform="translate(3.515 7.523)"><path class="af" d="M559,465.353a3.286,3.286,0,0,1-.663.9A9.492,9.492,0,0,1,553.759,469a3.355,3.355,0,0,1-1.1.166A12.828,12.828,0,0,0,559,465.353Z" transform="translate(-552.656 -465.353)"/></g><g transform="translate(4.174 6.116)"><path class="af" d="M564.752,464.43a2.035,2.035,0,0,1-.367.383c-.251.23-.621.557-1.1.939a31.824,31.824,0,0,1-3.917,2.7c-.8.47-1.589.886-2.315,1.236a8.384,8.384,0,0,1-2.019.752,3.231,3.231,0,0,1-1.458,0,1.191,1.191,0,0,1-.492-.21,3.61,3.61,0,0,0,1.908.026,9.046,9.046,0,0,0,1.952-.788c.715-.361,1.491-.778,2.283-1.245a42.239,42.239,0,0,0,3.938-2.624C564.146,464.88,564.726,464.4,564.752,464.43Z" transform="translate(-553.089 -464.428)"/></g></g><g transform="translate(14.667)"><g transform="translate(0.617)"><path class="ae" d="M566.319,417.511l-1.146,19.218a6.292,6.292,0,0,1-6.292,5.924,2.966,2.966,0,0,1-.368-.014,6.31,6.31,0,0,1-5.9-6.7c0-.05.008-.1.012-.151.152-1.75.3-3.173.3-3.173a5.594,5.594,0,0,1-.737-.2l-.014-.014a6.4,6.4,0,0,1-2.488-1.487,1.083,1.083,0,0,0-.119-.132,4.685,4.685,0,0,1-.788-1.106c-.014-.012-.014-.026-.027-.04a5.656,5.656,0,0,1-.578-2.605v-.3c.026-2.3.3-6.516.592-10.413a8.794,8.794,0,0,1,17.547,1.185Z" transform="translate(-548.18 -408.216)"/><g transform="translate(4.251 20.757)"><path d="M550.979,422.2a.728.728,0,0,0,.642.609,1.9,1.9,0,0,0,.228,0,1.923,1.923,0,0,0,.23,0,.73.73,0,0,0,.642-.609C552.84,421.742,550.862,421.742,550.979,422.2Z" transform="translate(-550.974 -421.856)"/></g><path d="M557.922,421.832a4.332,4.332,0,0,1-2.322,2.377c-1.514.79-1.9-.281-2.776-.222-.63.044-.49,1.065-2.018.28a4.382,4.382,0,0,1-1.66-1.9,4.394,4.394,0,0,0,.044,1.432,6.412,6.412,0,0,0,1.321,1.074,3.582,3.582,0,0,0,1.184.435l.014.014a7.409,7.409,0,0,0,4.739-.449,4.507,4.507,0,0,0,1.8-1.99C558.176,422.625,557.934,421.925,557.922,421.832Z" transform="translate(-547.697 -401.112)"/><path d="M557.284,420.981c-.569-2.01-7.44-2.417-7.913-.02a10.723,10.723,0,0,0-.246,3.348c.011.884.574.516.51.152a4.607,4.607,0,0,1-.142-.968c.012-.3-.032-2.861,1.313-3.152a8.453,8.453,0,0,1,2.182.286,7.957,7.957,0,0,1,3.212-.02c.513.2,1.065,2.728,1.083,3.044.027.676.122,1.464.49.456S557.814,422.85,557.284,420.981Z" transform="translate(-547.707 -402.425)"/><g transform="translate(4.63 22.669)"><path class="af" d="M551.331,424.787a11.1,11.1,0,0,0,6.248-1.674,6.04,6.04,0,0,1-6.356,2.951Z" transform="translate(-551.223 -423.113)"/></g><g transform="translate(17.413 10.794)"><path class="ae" d="M559.876,415.444c.082-.034,3.295-.922,3.142,2.339a2.453,2.453,0,0,1-3.4,2.344C559.621,420.034,559.876,415.444,559.876,415.444Z" transform="translate(-559.623 -415.309)"/><g transform="translate(1.049 1.065)"><path class="af" d="M560.316,418.573c.015-.011.055.041.152.09a.57.57,0,0,0,.424.029,1.409,1.409,0,0,0,.709-1.231,1.892,1.892,0,0,0-.122-.822.654.654,0,0,0-.408-.457.289.289,0,0,0-.342.14c-.047.088-.03.152-.047.152s-.067-.058-.035-.192a.358.358,0,0,1,.138-.2.414.414,0,0,1,.318-.069.8.8,0,0,1,.569.533,1.956,1.956,0,0,1,.152.913,1.478,1.478,0,0,1-.895,1.37.609.609,0,0,1-.516-.111C560.318,418.652,560.3,418.578,560.316,418.573Z" transform="translate(-560.313 -416.009)"/></g></g><g transform="translate(1.5 6.384)"><g transform="translate(0.282 2.756)"><g transform="translate(0.66 0.956)"><path d="M549.785,415.463a.681.681,0,0,0,.647.7.652.652,0,0,0,.711-.586v-.023a.681.681,0,0,0-.647-.7.654.654,0,0,0-.711.592Z" transform="translate(-549.785 -414.85)"/></g><path d="M549.362,414.914c.084.09.609-.285,1.339-.272s1.266.387,1.347.3c.04-.04-.044-.2-.275-.374a1.877,1.877,0,0,0-1.077-.35,1.8,1.8,0,0,0-1.065.329C549.4,414.714,549.32,414.878,549.362,414.914Z" transform="translate(-549.351 -414.222)"/><g transform="translate(7.209 0.242)"><g transform="translate(0.801 0.924)"><path d="M554.615,415.6a.681.681,0,0,0,.647.7.652.652,0,0,0,.711-.589v-.02a.681.681,0,0,0-.647-.7.652.652,0,0,0-.711.589Z" transform="translate(-554.615 -414.988)"/></g><path d="M554.1,415.072c.084.09.609-.284,1.339-.272s1.266.386,1.347.3c.04-.04-.043-.2-.275-.374a1.864,1.864,0,0,0-1.077-.348,1.8,1.8,0,0,0-1.065.327C554.138,414.871,554.059,415.031,554.1,415.072Z" transform="translate(-554.089 -414.381)"/></g><g transform="translate(2.443 0.501)"><path d="M552.808,420.658a4.792,4.792,0,0,0-1.188-.233c-.187-.021-.364-.061-.394-.19a.963.963,0,0,1,.134-.552q.274-.676.574-1.418a24.452,24.452,0,0,0,1.3-3.713,24.518,24.518,0,0,0-1.593,3.6q-.287.749-.551,1.427a1.078,1.078,0,0,0-.108.734.471.471,0,0,0,.3.279,1.245,1.245,0,0,0,.317.049A4.79,4.79,0,0,0,552.808,420.658Z" transform="translate(-550.956 -414.551)"/></g></g><g transform="translate(6.649 0.384)"><path d="M553.541,413.311c.085.195.811.052,1.674.1s1.577.236,1.674.05c.046-.09-.088-.268-.38-.443a2.917,2.917,0,0,0-2.555-.113C553.652,413.052,553.5,413.218,553.541,413.311Z" transform="translate(-553.535 -412.663)"/></g><path d="M549.184,413.157c.126.167.635,0,1.242,0,.609-.021,1.122.128,1.242-.044.053-.084-.024-.253-.248-.414a1.8,1.8,0,0,0-2,.034C549.2,412.9,549.128,413.075,549.184,413.157Z" transform="translate(-549.166 -412.411)"/></g></g><g transform="translate(4.418 18.894)"><path d="M553.329,420.882c0,.152-.59.272-1.322.28s-1.327-.1-1.329-.248.592-.272,1.324-.282S553.327,420.736,553.329,420.882Z" transform="translate(-550.678 -420.632)"/></g><g transform="translate(0 8.144)"><g transform="translate(12.135 0.556)"><path d="M562.265,416.3a3.268,3.268,0,0,1-1-.218c-.609-.181-1.421-.485-2.309-.845l-2.27-.913a4.879,4.879,0,0,1-.937-.4,3.258,3.258,0,0,1,1,.218c.609.181,1.421.484,2.308.845l2.27.913A4.886,4.886,0,0,1,562.265,416.3Z" transform="translate(-555.749 -413.933)"/></g><path d="M552.853,413.676a.978.978,0,0,1,.854.813,4.054,4.054,0,0,1-2.97,4.548,2.364,2.364,0,0,1-1.861-.175,2.945,2.945,0,0,1-1.065-2.368,3.03,3.03,0,0,1,.329-1.9,2.736,2.736,0,0,1,2.2-1.015c.835-.044,2.514.1,2.514.1Z" transform="translate(-547.775 -413.568)"/><g transform="translate(7.956 0.174)"><path d="M553.96,413.736a.986.986,0,0,0-.887.8,4.1,4.1,0,0,0,2.872,4.685,2.4,2.4,0,0,0,1.887-.122,2.979,2.979,0,0,0,1.14-2.365,3.052,3.052,0,0,0-.277-1.933,2.763,2.763,0,0,0-2.19-1.091c-.845-.07-2.544.029-2.544.029Z" transform="translate(-553.003 -413.682)"/></g><g transform="translate(4.092 0.168)"><path d="M556.056,413.871a29.477,29.477,0,0,1-5.592-.111A29.727,29.727,0,0,1,556.056,413.871Z" transform="translate(-550.464 -413.678)"/></g></g><g transform="translate(18.448 13.437)"><g transform="translate(0 2.493)"><path class="ag" d="M559.913,432.908a.349.349,0,0,1-.014-.079,1.221,1.221,0,0,1,.009-.236,2.5,2.5,0,0,1,.315-.843,5.719,5.719,0,0,0,.574-1.271,6.37,6.37,0,0,0,.216-1.826c0-.691-.087-1.433-.137-2.263a1.143,1.143,0,0,1,.152-.657.625.625,0,0,1,.667-.3.541.541,0,0,1,.326.248.42.42,0,0,1-.011.44.643.643,0,0,1-.768.152,1.155,1.155,0,0,1-.609-1.332,1.188,1.188,0,0,1,.457-.659.863.863,0,0,1,.4-.152.536.536,0,0,1,.457.152.428.428,0,0,1-.316.744,1.045,1.045,0,0,1-1.065-1.16,1.03,1.03,0,0,1,.5-.721.976.976,0,0,1,.735-.132.712.712,0,0,1,.344.2.447.447,0,0,1,.117.425.468.468,0,0,1-.3.3.842.842,0,0,1-.379.032,1.362,1.362,0,0,1-.639-.285,1.125,1.125,0,0,1-.417-1.251.994.994,0,0,1,1.1-.65.611.611,0,0,1,.488.495.441.441,0,0,1-.138.361.566.566,0,0,1-.33.143.871.871,0,0,1-.6-.221,1.337,1.337,0,0,1-.377-.456.859.859,0,0,1,.236-1.088.609.609,0,0,1,.951.373l.011.072-.061.034a.9.9,0,0,1-1.207-.387.5.5,0,0,1-.027-.058.763.763,0,0,1,.055-.657.939.939,0,0,1,.457-.4.747.747,0,0,1,.578,0,.421.421,0,0,1,.281.466.3.3,0,0,1-.184.222.362.362,0,0,1-.265-.015.491.491,0,0,1-.271-.358,4.016,4.016,0,0,1-.014-1.208,1.523,1.523,0,0,1,.09-.412,5.984,5.984,0,0,0,.038,1.59.378.378,0,0,0,.208.268.172.172,0,0,0,.236-.061.174.174,0,0,0,.02-.053c.053-.262-.37-.425-.653-.28a.679.679,0,0,0-.4.837.706.706,0,0,0,.936.342l.015-.008-.05.1a.4.4,0,0,0-.616-.219.633.633,0,0,0-.152.8.945.945,0,0,0,.742.542c.14-.012.265-.125.245-.239a.374.374,0,0,0-.3-.275.745.745,0,0,0-.8.5.87.87,0,0,0,.338.956,1.142,1.142,0,0,0,.513.228c.175.027.379-.035.4-.152s-.105-.259-.272-.3a.717.717,0,0,0-.531.1.742.742,0,0,0,.338,1.391c.023,0,.046,0,.068,0,.221,0,.265-.152.143-.3-.1-.12-.345-.085-.51.038a.933.933,0,0,0-.358.514.913.913,0,0,0,.456,1.041c.167.075.4.055.476-.056s-.021-.289-.18-.332a.4.4,0,0,0-.416.209.939.939,0,0,0-.128.531c.039.8.119,1.569.1,2.264a6.374,6.374,0,0,1-.262,1.87,5.469,5.469,0,0,1-.625,1.278,2.727,2.727,0,0,0-.352.8C559.919,432.8,559.926,432.908,559.913,432.908Z" transform="translate(-559.898 -418.684)"/></g><g transform="translate(0.41)"><path class="ag" d="M561.649,418.152a1.8,1.8,0,0,0-.218-.7.811.811,0,0,0-.589-.4.645.645,0,0,0-.648.411.664.664,0,0,0,.242.721l.014.012h0l.058.037c.084.055.2.061.291.114a.6.6,0,0,1,.222.545,5.44,5.44,0,0,0-.049.609c.012.152.1.323.247.327s.221-.125.274-.243A2.632,2.632,0,0,0,561.649,418.152Z" transform="translate(-560.167 -417.046)"/></g></g><g transform="translate(3.785 24.549)"><path class="g" d="M551.8,424.556a5.691,5.691,0,0,0-1.5,2.942,10.836,10.836,0,0,0,2.1,7.332l.663.971a22.844,22.844,0,0,1,2.378,4.485c1.291,3.263,3.459,8.755,3.534,9.018a20.949,20.949,0,0,0,.963,1.919s.557-10.308,1.493-13.618a66.978,66.978,0,0,1,3.113-6.948,4.63,4.63,0,0,0,.495-1.919l.081-2.2a3.091,3.091,0,0,0-.8-2.188h0l-.174,1.978-6.151,5.212-6.239-4.477Z" transform="translate(-550.262 -424.348)"/><path class="ah" d="M555.343,429.074l2.934,4.366,1.755-1.561" transform="translate(-547.611 -421.882)"/><path class="ah" d="M557.34,429.074l-3.4,4.249-2.42-1.356" transform="translate(-549.607 -421.882)"/><path d="M558.636,439.272l-1.3-8.9h-2.152l-1.027,8.674,1.339,4.02,1.379,3.348,1.026,1.66Z" transform="translate(-548.23 -421.204)"/><path d="M554.835,429.075h2.928a.734.734,0,0,1,.8.668.706.706,0,0,1-.006.18c-.3,1.228-1,3.109-2.252,3.109s-1.954-1.881-2.254-3.109a.732.732,0,0,1,.6-.841A.74.74,0,0,1,554.835,429.075Z" transform="translate(-548.292 -421.883)"/></g><g transform="translate(0.112 8.954)"><path class="g" d="M548.027,416.223a1.288,1.288,0,0,1-.061-1.193c.218-.67.73-.985.761-.922a8.515,8.515,0,0,0-.511,1C548.029,415.7,548.1,416.206,548.027,416.223Z" transform="translate(-547.849 -414.1)"/></g><g transform="translate(8.295 9.301)"><path class="g" d="M553.611,416.392c-.053.044-.388-.388-.385-1.03s.332-1.076.385-1.03-.126.469-.12,1.03S553.679,416.354,553.611,416.392Z" transform="translate(-553.226 -414.328)"/></g></g></g><g transform="translate(0 182.547)"><path class="ai" d="M552.715,528.25l-6.749-.075-11.227,5.847,19.194-.015Z" transform="translate(-534.739 -528.175)"/><g transform="translate(0 5.831)"><path class="ab" d="M553.971,534.533l-.038-2.526-19.194.015.038,2.526Z" transform="translate(-534.739 -532.007)"/></g></g><g transform="translate(44.223 182.906)"><path class="ai" d="M565.042,528.486l6.749-.075,11.229,5.846-19.194-.015Z" transform="translate(-563.786 -528.411)"/><g transform="translate(0 5.83)"><path class="ab" d="M563.8,534.768l.038-2.526,19.194.015-.038,2.526Z" transform="translate(-563.8 -532.242)"/></g></g><path class="ah" d="M556.392,438.94a24.569,24.569,0,0,0-10.769-10.348" transform="translate(-529.06 -397.585)"/><path class="ah" d="M560.2,432.335a11.055,11.055,0,0,1,5.935-3.871" transform="translate(-521.455 -397.652)"/></g></g></svg>