<svg xmlns="http://www.w3.org/2000/svg" width="87.348" height="66.917" viewBox="0 0 87.348 66.917"><defs><style>.a{fill:#fff;}</style></defs><path class="a" d="M713.792,68.314h-9.52a.625.625,0,0,1-.625-.624V65.372a.626.626,0,0,0-.622-.625H689.7a.627.627,0,0,0-.626.625V67.69a.625.625,0,0,1-.625.624h-7.157a.627.627,0,0,0-.625.625V71.62a.627.627,0,0,0,.625.623h32.5a.627.627,0,0,0,.625-.623V68.939a.627.627,0,0,0-.625-.625" transform="translate(-646.729 -5.613)"/><path class="a" d="M733.558,15.26H665.62a4.289,4.289,0,0,0-4.285,4.287v11.18c0,1.479-.112,1.687.882,1.687h1.7c.829,0,.661-.208.661-1.715V19.547A1.059,1.059,0,0,1,665.62,18.5h67.939a1.06,1.06,0,0,1,1.043,1.046V61.4H686.166s-1.709,0-1.709,2.2v5.235c0,2.2,1.764,2.2,1.764,2.2h47.338a4.3,4.3,0,0,0,4.289-4.286V19.547a4.292,4.292,0,0,0-4.289-4.287M699.59,67.344a1.931,1.931,0,1,1,1.932-1.932,1.933,1.933,0,0,1-1.932,1.932" transform="translate(-650.499 -15.26)"/><path class="a" d="M679.61,32.822H655.033a2.772,2.772,0,0,0-2.767,2.769v40.4a2.772,2.772,0,0,0,2.767,2.767H679.61a2.771,2.771,0,0,0,2.767-2.767v-40.4a2.772,2.772,0,0,0-2.767-2.769m-15.32,2.824h6.064a.524.524,0,1,1,0,1.048h-6.064a.524.524,0,0,1,0-1.048m3,41.163a1.433,1.433,0,1,1,1.43-1.433,1.432,1.432,0,0,1-1.43,1.433M680,72.6a.667.667,0,0,1-.656.672H655.3a.666.666,0,0,1-.655-.672V39.032a.666.666,0,0,1,.655-.672h24.043a.667.667,0,0,1,.656.672Z" transform="translate(-652.266 -11.836)"/></svg>