<svg xmlns="http://www.w3.org/2000/svg" width="88.011" height="88.011" viewBox="0 0 88.011 88.011"><defs><style>.a{fill:#fff;}</style></defs><path class="a" d="M905.441,276.35a44,44,0,1,1-31.115-12.89,43.719,43.719,0,0,1,31.115,12.89m-3.89,58.343a38.214,38.214,0,0,0,10.509-19.516c-1.158,1.705-2.266,2.337-2.951-1.477-.706-6.224-6.422-2.251-10.013-4.459-3.783,2.551-12.284-4.955-10.839,3.509,2.23,3.817,12.032-5.109,7.148,2.967-3.118,5.642-11.4,18.132-10.324,24.6.137,9.434-9.637,1.969-13-1.16-2.266-6.268-.773-17.22-6.7-20.29-6.43-.281-11.947-.863-14.438-8.053-1.5-5.141,1.6-12.8,7.1-13.978,8.067-5.068,10.949,5.936,18.512,6.14,2.35-2.46,8.752-3.241,9.282-5.994-4.965-.877,6.3-4.174-.475-6.051-3.736.44-6.145,3.876-4.157,6.786-7.24,1.688-7.471-10.477-14.431-6.64-.179,6.068-11.368,1.966-3.873.737,2.574-1.125-4.2-4.386-.539-3.792,1.8-.1,7.85-2.219,6.211-3.645,3.371-2.09,6.2,5.01,9.5-.162,2.381-3.978-1-4.712-3.986-2.7-1.68-1.884,2.974-5.955,7.077-7.712a8.154,8.154,0,0,1,3.674-.814c2.068,2.387,5.891,2.8,6.092-.289a38.6,38.6,0,0,0-39.587,3.85c1.776.811,2.782,1.823,1.072,3.118-1.328,3.959-6.715,9.273-11.449,8.52a38.06,38.06,0,0,0-4.767,13.8c3.964,1.312,4.877,3.906,4.026,4.775a13.037,13.037,0,0,0-3.9,6.989,38.511,38.511,0,0,0,65.221,20.936" transform="translate(-830.321 -263.46)"/></svg>