<svg xmlns="http://www.w3.org/2000/svg" width="743.986" height="347.3" viewBox="0 0 743.986 347.3"><defs><style>.a{fill:#ccc;opacity:0.2;}.ab,.b,.p,.q,.x{fill:none;stroke-miterlimit:10;}.b,.q{stroke:#999;}.b,.p{stroke-width:1.5px;}.c,.q{opacity:0.5;}.d{fill:#dddae0;}.e{fill:#a09fa3;}.f{fill:#aba9ae;}.g{fill:#cfccd2;}.h{fill:#fff;}.i{fill:#e6e3ea;}.j{fill:#bdbbc0;}.k{fill:#b3b1b6;}.l{fill:#b9b7bc;}.m{fill:#aaa8ad;}.n{fill:#b0aeb3;}.o{fill:#c7c4ca;}.ab,.p{stroke:#000;}.q{stroke-width:2px;fill-rule:evenodd;}.r{fill:#ffbf9d;}.s{fill:#ff9a6c;}.t{fill:#e1e1e1;}.u{fill:#070707;}.v{fill:#1a1a1a;}.w{opacity:0.3;}.x{stroke:#44555b;stroke-width:0.05px;}.y{fill:#c18b76;}.z{fill:#b66351;}.aa{fill:#d1d1d1;}.ab{stroke-width:0.25px;}.ac{fill:#070808;}</style></defs><g transform="translate(92.382 633.3)"><path class="a" d="M609.384-287.767s84.458-92.577,14.466-192.084c-62.1-88.289-134.5-82.254-187.626-46.426-22.625,15.26-104.511,84.593-160.03-5.244C200.48-654.035-45.315-662.442,2.538-473.952c23.158,91.217-92.32,95.894-44.61,187.073Z"/><path class="b" d="M599.6-288.442s88.121-95.866,14.246-199.44c-64.449-90.359-134.5-85.7-187.626-48.371-22.625,15.9-98.072,95.476-160.03-5.465C188.555-668.205-55.315-678.126-7.462-481.735,15.7-386.7-100.159-383.241-52.448-288.24" transform="translate(0 1)"/><g class="c"><path class="d" d="M580.311-287.117v-91.706h-2.042v.462h-2.084v1.079h-2.251v5.345H569.08l-1.065,21.9-5.428-2.483v-13.385l.033-.856h.292a28.385,28.385,0,0,0-13.148-2.835c-.626,0-1.218,0-1.884.051-.092,0-.176.006-.257.011-.1.006-.275.011-.279.011a28.4,28.4,0,0,0-8.742,1.918c-.356.135-.678.294-1.079.487-.322.144-.645.3-.96.477l.542.294v13.865H525.961v-44.1H493.925v15.648h-2.083v1.8h-2.251v2h-3.519l-7.4,3.6v5.114h-4.727v-46.752H445.335v50.019l-19.984.077v-9.511h-8.939v-1.773h-.873v-17.628H390.708v-.257h-.775v-5.725l-1.509-.879H362.472l-1.48.875v30.7l-41.153-.027v-19.955l-1.481-.875h-12.6V-363.9H291.11v27.967l-3.129-1.942h-4.36v-.342h-.9v.342h-15v-13.553h-1.764v-.845h-1.659v-.362H250.484v.362H248.85v.845h-1.764v4.189h-3.8l-.835,17.162-4.254-1.946v-10.49l.026-.671h.229a22.253,22.253,0,0,0-10.3-2.222c-.491,0-.955,0-1.476.04-.073,0-.139.005-.2.008-.082.006-.215.009-.219.009a22.277,22.277,0,0,0-6.851,1.5c-.278.107-.531.231-.845.382-.253.113-.506.238-.753.374l.425.23v10.866h-8.733v-34.557H184.385v12.264h-1.633v1.41h-1.764v1.57H178.23l-5.8,2.819v4.008h-3.705v-36.638H146.3v39.2l-15.661.061v-7.454h-7.006V-350.7h-.683v-13.815c-3.579,0,0,0-20.068-.2V-369.2l-1.182-.689H81.367l-1.161.686v24.057a42.791,42.791,0,0,0-32.251-.021v-15.639l-1.16-.686H26.8v-32.764H5.509v41.444l-4.037-2.878H-2.257v67.958H26.8v.617Z"/><path class="e" d="M119.842-287.117V-419.924l10.422-20.865v-12.42H156.5v12.42l10.423,20.865v132.807Z"/><path class="f" d="M134.184-287.117V-419.925l10.422-20.865H170.84l10.423,20.865v132.807Z"/><rect class="g" width="26.234" height="12.42" transform="translate(144.607 -453.21)"/><rect class="h" width="4.806" height="6.955" transform="translate(172.066 -413.1)"/><rect class="g" width="4.807" height="6.955" transform="translate(163.693 -413.1)"/><rect class="g" width="4.807" height="6.955" transform="translate(155.32 -413.1)"/><rect class="h" width="4.807" height="6.955" transform="translate(146.947 -413.1)"/><rect class="g" width="4.807" height="6.955" transform="translate(138.574 -413.1)"/><rect class="g" width="4.806" height="6.955" transform="translate(172.066 -401.674)"/><rect class="h" width="4.807" height="6.955" transform="translate(163.693 -401.674)"/><rect class="g" width="4.807" height="6.955" transform="translate(155.32 -401.674)"/><rect class="g" width="4.807" height="6.955" transform="translate(146.947 -401.674)"/><rect class="g" width="4.807" height="6.955" transform="translate(138.574 -401.674)"/><rect class="h" width="4.806" height="6.955" transform="translate(172.066 -390.248)"/><rect class="g" width="4.807" height="6.955" transform="translate(163.693 -390.248)"/><rect class="h" width="4.807" height="6.955" transform="translate(155.32 -390.248)"/><rect class="h" width="4.807" height="6.955" transform="translate(146.947 -390.248)"/><rect class="g" width="4.807" height="6.955" transform="translate(138.574 -390.248)"/><rect class="g" width="4.806" height="6.955" transform="translate(172.066 -378.821)"/><rect class="g" width="4.807" height="6.955" transform="translate(163.693 -378.821)"/><rect class="h" width="4.807" height="6.955" transform="translate(155.32 -378.821)"/><rect class="g" width="4.807" height="6.955" transform="translate(146.947 -378.821)"/><rect class="g" width="4.807" height="6.955" transform="translate(138.574 -378.821)"/><rect class="g" width="4.806" height="6.955" transform="translate(172.066 -367.395)"/><rect class="g" width="4.807" height="6.955" transform="translate(163.693 -367.395)"/><rect class="h" width="4.807" height="6.955" transform="translate(155.32 -367.395)"/><rect class="g" width="4.807" height="6.955" transform="translate(146.947 -367.395)"/><rect class="g" width="4.807" height="6.955" transform="translate(138.574 -367.395)"/><rect class="g" width="4.806" height="6.955" transform="translate(172.066 -355.969)"/><rect class="h" width="4.807" height="6.955" transform="translate(163.693 -355.969)"/><rect class="g" width="4.807" height="6.955" transform="translate(155.32 -355.969)"/><rect class="g" width="4.807" height="6.955" transform="translate(146.947 -355.969)"/><rect class="h" width="4.807" height="6.955" transform="translate(138.574 -355.969)"/><rect class="h" width="4.806" height="6.955" transform="translate(172.066 -344.543)"/><rect class="g" width="4.807" height="6.955" transform="translate(163.693 -344.543)"/><rect class="g" width="4.807" height="6.955" transform="translate(155.32 -344.543)"/><rect class="g" width="4.807" height="6.955" transform="translate(146.947 -344.543)"/><rect class="h" width="4.807" height="6.955" transform="translate(138.574 -344.543)"/><rect class="g" width="4.806" height="6.955" transform="translate(172.066 -333.116)"/><rect class="g" width="4.807" height="6.955" transform="translate(163.693 -333.116)"/><rect class="h" width="4.807" height="6.955" transform="translate(155.32 -333.116)"/><rect class="h" width="4.807" height="6.955" transform="translate(146.947 -333.116)"/><rect class="g" width="4.807" height="6.955" transform="translate(138.574 -333.116)"/><rect class="g" width="4.806" height="6.955" transform="translate(172.066 -322.132)"/><rect class="h" width="4.807" height="6.955" transform="translate(163.693 -322.132)"/><rect class="g" width="4.807" height="6.955" transform="translate(155.32 -322.132)"/><rect class="g" width="4.807" height="6.955" transform="translate(146.947 -322.132)"/><rect class="g" width="4.807" height="6.955" transform="translate(138.574 -322.132)"/><rect class="g" width="4.806" height="6.955" transform="translate(172.066 -310.706)"/><rect class="g" width="4.807" height="6.955" transform="translate(163.693 -310.706)"/><rect class="h" width="4.807" height="6.955" transform="translate(155.32 -310.706)"/><rect class="h" width="4.807" height="6.955" transform="translate(146.947 -310.706)"/><rect class="h" width="4.807" height="6.955" transform="translate(138.574 -310.706)"/><rect class="h" width="4.806" height="6.955" transform="translate(172.066 -299.28)"/><rect class="h" width="4.807" height="6.955" transform="translate(163.693 -299.28)"/><rect class="g" width="4.807" height="6.955" transform="translate(155.32 -299.28)"/><rect class="g" width="4.807" height="6.955" transform="translate(146.947 -299.28)"/><rect class="g" width="4.807" height="6.955" transform="translate(138.574 -299.28)"/><path class="g" d="M349.035-287.117h-40.77V-363.7l40.77-21.394Z"/><rect class="i" width="31.155" height="3.718" transform="translate(313.073 -359.9)"/><rect class="h" width="31.155" height="3.718" transform="translate(313.073 -352.191)"/><rect class="i" width="31.155" height="3.718" transform="translate(313.073 -344.482)"/><rect class="h" width="31.155" height="3.718" transform="translate(313.073 -336.773)"/><rect class="h" width="31.155" height="3.718" transform="translate(313.073 -329.064)"/><rect class="i" width="31.155" height="3.718" transform="translate(313.073 -321.356)"/><rect class="i" width="31.155" height="3.718" transform="translate(313.073 -313.647)"/><rect class="i" width="31.155" height="3.718" transform="translate(313.073 -305.938)"/><rect class="i" width="31.155" height="3.718" transform="translate(313.073 -298.23)"/><rect class="f" width="15.788" height="97.973" transform="translate(349.035 -385.09)"/><path class="g" d="M2.257-287.117h34V-363.7l-34-21.394Z"/><rect class="i" width="25.985" height="3.718" transform="translate(6.266 -359.9)"/><rect class="h" width="25.985" height="3.718" transform="translate(6.266 -352.191)"/><rect class="i" width="25.985" height="3.718" transform="translate(6.266 -344.482)"/><rect class="h" width="25.985" height="3.718" transform="translate(6.266 -336.773)"/><rect class="i" width="25.985" height="3.718" transform="translate(6.266 -329.065)"/><rect class="h" width="25.985" height="3.718" transform="translate(6.266 -321.356)"/><rect class="i" width="25.985" height="3.718" transform="translate(6.266 -313.647)"/><rect class="i" width="25.985" height="3.718" transform="translate(6.266 -305.938)"/><rect class="i" width="25.985" height="3.718" transform="translate(6.266 -298.23)"/><rect class="f" width="4.513" height="97.973" transform="translate(-2.257 -385.09)"/><path class="g" d="M60.446-287.117h40.77V-408.151l-40.77-21.394Z"/><rect class="h" width="31.155" height="3.718" transform="translate(65.254 -363.754)"/><rect class="i" width="31.155" height="3.718" transform="translate(65.254 -356.045)"/><rect class="i" width="31.155" height="3.718" transform="translate(65.254 -348.337)"/><rect class="h" width="31.155" height="3.718" transform="translate(65.254 -340.628)"/><rect class="h" width="31.155" height="3.718" transform="translate(65.254 -332.919)"/><rect class="i" width="31.155" height="3.718" transform="translate(65.254 -325.21)"/><rect class="i" width="31.155" height="3.718" transform="translate(65.254 -402.298)"/><rect class="i" width="31.155" height="3.718" transform="translate(65.254 -394.589)"/><rect class="h" width="31.155" height="3.718" transform="translate(65.254 -386.881)"/><rect class="i" width="31.155" height="3.718" transform="translate(65.254 -379.172)"/><rect class="i" width="31.155" height="3.718" transform="translate(65.254 -371.463)"/><rect class="i" width="31.155" height="3.718" transform="translate(65.254 -317.501)"/><rect class="i" width="31.155" height="3.718" transform="translate(65.254 -309.792)"/><rect class="i" width="31.155" height="3.718" transform="translate(65.254 -302.084)"/><rect class="f" width="15.788" height="142.428" transform="translate(44.658 -429.545)"/><path class="g" d="M481.381-287.117h40.77V-408.151l-40.77-21.394Z"/><rect class="i" width="31.155" height="3.718" transform="translate(486.189 -363.754)"/><rect class="h" width="31.155" height="3.718" transform="translate(486.189 -356.045)"/><rect class="i" width="31.155" height="3.718" transform="translate(486.189 -348.337)"/><rect class="i" width="31.155" height="3.718" transform="translate(486.189 -340.628)"/><rect class="i" width="31.155" height="3.718" transform="translate(486.189 -332.919)"/><rect class="h" width="31.155" height="3.718" transform="translate(486.189 -325.21)"/><rect class="h" width="31.155" height="3.718" transform="translate(486.189 -402.298)"/><rect class="i" width="31.155" height="3.718" transform="translate(486.189 -394.589)"/><rect class="i" width="31.155" height="3.718" transform="translate(486.189 -386.881)"/><rect class="h" width="31.155" height="3.718" transform="translate(486.189 -379.172)"/><rect class="i" width="31.155" height="3.718" transform="translate(486.189 -371.463)"/><rect class="h" width="31.155" height="3.718" transform="translate(486.189 -317.501)"/><rect class="h" width="31.155" height="3.718" transform="translate(486.189 -309.792)"/><rect class="i" width="31.155" height="3.718" transform="translate(486.189 -302.084)"/><rect class="f" width="15.788" height="142.428" transform="translate(465.593 -429.545)"/><path class="f" d="M396.679-287.117h56.739V-440.06l-56.739-30.616Z"/><rect class="h" width="8.312" height="9.318" transform="translate(438.353 -394.709)"/><rect class="j" width="8.311" height="9.318" transform="translate(426.713 -394.709)"/><rect class="j" width="8.311" height="9.318" transform="translate(415.073 -394.709)"/><rect class="j" width="8.312" height="9.318" transform="translate(403.432 -394.709)"/><rect class="j" width="8.312" height="9.318" transform="translate(438.353 -381.906)"/><rect class="j" width="8.311" height="9.318" transform="translate(426.713 -381.906)"/><rect class="h" width="8.311" height="9.318" transform="translate(415.073 -381.906)"/><rect class="j" width="8.312" height="9.318" transform="translate(403.432 -381.906)"/><rect class="j" width="8.312" height="9.318" transform="translate(438.353 -369.103)"/><rect class="h" width="8.311" height="9.318" transform="translate(426.713 -369.103)"/><rect class="j" width="8.311" height="9.318" transform="translate(415.073 -369.103)"/><rect class="j" width="8.312" height="9.318" transform="translate(403.432 -369.103)"/><rect class="j" width="8.312" height="9.318" transform="translate(438.353 -356.299)"/><rect class="j" width="8.311" height="9.318" transform="translate(426.713 -356.299)"/><rect class="h" width="8.311" height="9.318" transform="translate(415.073 -356.299)"/><rect class="h" width="8.312" height="9.318" transform="translate(403.432 -356.299)"/><rect class="j" width="8.312" height="9.318" transform="translate(438.353 -343.496)"/><rect class="j" width="8.311" height="9.318" transform="translate(426.713 -343.496)"/><rect class="j" width="8.311" height="9.318" transform="translate(415.073 -343.496)"/><rect class="j" width="8.312" height="9.318" transform="translate(403.432 -343.496)"/><rect class="j" width="8.312" height="9.318" transform="translate(438.353 -330.693)"/><rect class="j" width="8.311" height="9.318" transform="translate(426.713 -330.693)"/><rect class="h" width="8.311" height="9.318" transform="translate(415.073 -330.693)"/><rect class="j" width="8.312" height="9.318" transform="translate(403.432 -330.693)"/><rect class="j" width="8.312" height="9.318" transform="translate(438.353 -317.889)"/><rect class="h" width="8.311" height="9.318" transform="translate(426.713 -317.889)"/><rect class="j" width="8.311" height="9.318" transform="translate(415.073 -317.889)"/><rect class="j" width="8.312" height="9.318" transform="translate(403.432 -317.889)"/><rect class="j" width="8.312" height="9.318" transform="translate(438.353 -305.086)"/><rect class="j" width="8.311" height="9.318" transform="translate(426.713 -305.086)"/><rect class="j" width="8.311" height="9.318" transform="translate(415.073 -305.086)"/><rect class="h" width="8.312" height="9.318" transform="translate(403.432 -305.086)"/><rect class="h" width="8.312" height="9.318" transform="translate(438.353 -433.12)"/><rect class="j" width="8.311" height="9.318" transform="translate(426.713 -433.12)"/><rect class="j" width="8.311" height="9.318" transform="translate(415.073 -433.12)"/><rect class="h" width="8.312" height="9.318" transform="translate(403.432 -433.12)"/><rect class="j" width="8.312" height="9.318" transform="translate(438.353 -420.316)"/><rect class="j" width="8.311" height="9.318" transform="translate(426.713 -420.316)"/><rect class="h" width="8.311" height="9.318" transform="translate(415.073 -420.316)"/><rect class="j" width="8.312" height="9.318" transform="translate(403.432 -420.316)"/><rect class="j" width="8.312" height="9.318" transform="translate(438.353 -407.513)"/><rect class="j" width="8.311" height="9.318" transform="translate(426.713 -407.513)"/><rect class="h" width="8.311" height="9.318" transform="translate(415.073 -407.513)"/><rect class="j" width="8.312" height="9.318" transform="translate(403.432 -407.513)"/><rect class="e" width="19.504" height="183.559" transform="translate(377.175 -470.676)"/><rect class="k" width="45.702" height="121.277" transform="translate(544.388 -408.394)"/><rect class="g" width="8.23" height="7.736" transform="translate(567.269 -400.232)"/><rect class="h" width="8.23" height="7.736" transform="translate(556.809 -400.232)"/><rect class="h" width="8.23" height="7.736" transform="translate(546.35 -400.232)"/><rect class="h" width="8.23" height="7.736" transform="translate(567.269 -381.225)"/><rect class="h" width="8.23" height="7.736" transform="translate(556.809 -381.225)"/><rect class="h" width="8.23" height="7.736" transform="translate(546.35 -381.225)"/><rect class="h" width="8.23" height="7.736" transform="translate(567.269 -362.218)"/><rect class="g" width="8.23" height="7.736" transform="translate(556.809 -362.218)"/><rect class="h" width="8.23" height="7.736" transform="translate(546.35 -362.218)"/><rect class="h" width="8.23" height="7.736" transform="translate(567.269 -340.596)"/><rect class="g" width="8.23" height="7.736" transform="translate(556.809 -340.596)"/><rect class="h" width="8.23" height="7.736" transform="translate(546.35 -340.596)"/><rect class="g" width="8.23" height="7.736" transform="translate(567.269 -321.59)"/><rect class="h" width="8.23" height="7.736" transform="translate(556.809 -321.59)"/><rect class="h" width="8.23" height="7.736" transform="translate(546.35 -321.59)"/><rect class="h" width="8.23" height="7.736" transform="translate(567.269 -302.583)"/><rect class="h" width="8.23" height="7.736" transform="translate(556.809 -302.583)"/><rect class="h" width="8.23" height="7.736" transform="translate(546.35 -302.583)"/><ellipse class="l" cx="10.782" cy="7.45" rx="10.782" ry="7.45" transform="translate(199.939 -308.875)"/><path class="l" d="M203.108-310.6a7.629,7.629,0,0,0,7.8,7.451,7.63,7.63,0,0,0,7.8-7.451,7.629,7.629,0,0,0-7.8-7.45A7.628,7.628,0,0,0,203.108-310.6Z"/><path class="m" d="M202.009-305.518l8.073,3.973.278-7.194c-.388-.342-4.385-3.934-4.385-3.934s3.149,2.087,4.423,2.934l.319-8.289.2,5.262c.924-.549,3.409-2.019,3.409-2.019s-2.57,2.3-3.37,3.019l.216,5.611,6.418-3.242-6.343,5.193.209,5.423c2.63-1.335,8.341-4.217,8.341-4.217s-6.568,4.9-8.266,6.161l.374,9.72h-2.38l.481-12.484Z"/><path class="n" d="M183.839-311.51a9.127,9.127,0,0,0,8.874,9.361,9.127,9.127,0,0,0,8.874-9.361,9.127,9.127,0,0,0-8.874-9.361A9.127,9.127,0,0,0,183.839-311.51Z"/><path class="m" d="M185.293-311.579s5.289,1.727,6.907,2.261l.335-8.71.191,4.942,4.32-2.569s-3.331,3.02-4.271,3.863l.183,4.736,7.154-3.625-7.1,4.929.717,18.635h-2.379l.805-20.925C191.661-308.288,185.293-311.579,185.293-311.579Z"/><path class="n" d="M362.084-301.425c0,3.436,3.975,6.221,8.878,6.221s8.879-2.785,8.879-6.221-3.975-6.221-8.879-6.221S362.084-304.86,362.084-301.425Z"/><path class="n" d="M360.35-307.912c0,4.291,4.751,7.77,10.612,7.77s10.613-3.479,10.613-7.77-4.752-7.77-10.613-7.77S360.35-312.2,360.35-307.912Z"/><path class="n" d="M364.789-315c0,2.5,2.764,4.519,6.173,4.519s6.173-2.023,6.173-4.519-2.763-4.52-6.173-4.52S364.789-317.5,364.789-315Z"/><path class="m" d="M378.309-304.753l-6.519,3.208-.277-7.194c.388-.342,4.384-3.935,4.384-3.935s-3.149,2.088-4.422,2.935l-.319-8.289-.2,5.262c-.923-.549-3.408-2.02-3.408-2.02s2.57,2.305,3.37,3.019l-.216,5.612-6.418-3.242,6.343,5.193-.209,5.422c-2.63-1.333-6.66-3.367-6.66-3.367s4.887,4.054,6.585,5.312l-.374,9.72h2.38l-.481-12.484C373.4-300.738,378.309-304.753,378.309-304.753Z"/><path class="n" d="M101.413-301.425c0,3.436,3.974,6.222,8.878,6.222s8.878-2.786,8.878-6.222-3.975-6.221-8.878-6.221S101.413-304.86,101.413-301.425Z"/><path class="n" d="M99.679-307.912c0,4.291,4.751,7.77,10.612,7.77s10.612-3.479,10.612-7.77-4.751-7.77-10.612-7.77S99.679-312.2,99.679-307.912Z"/><path class="n" d="M104.118-315c0,2.5,2.764,4.519,6.173,4.519s6.173-2.023,6.173-4.519-2.764-4.52-6.173-4.52S104.118-317.5,104.118-315Z"/><path class="m" d="M117.638-304.753l-6.519,3.208-.277-7.194c.388-.342,4.384-3.934,4.384-3.934s-3.149,2.087-4.422,2.934l-.32-8.289-.2,5.262c-.923-.549-3.408-2.019-3.408-2.019s2.569,2.3,3.369,3.019l-.216,5.611L103.61-309.4l6.342,5.193-.208,5.423c-2.631-1.335-6.66-3.368-6.66-3.368s4.887,4.054,6.585,5.312l-.374,9.72h2.379l-.48-12.484C112.731-300.738,117.638-304.753,117.638-304.753Z"/><path class="n" d="M72-301.425c0,3.436,3.975,6.222,8.879,6.222s8.878-2.786,8.878-6.222-3.975-6.221-8.878-6.221S72-304.86,72-301.425Z"/><path class="n" d="M70.266-307.912c0,4.291,4.751,7.77,10.613,7.77s10.612-3.479,10.612-7.77-4.751-7.77-10.612-7.77S70.266-312.2,70.266-307.912Z"/><path class="n" d="M74.706-315c0,2.5,2.763,4.519,6.173,4.519s6.173-2.023,6.173-4.519-2.764-4.52-6.173-4.52S74.706-317.5,74.706-315Z"/><path class="m" d="M88.226-304.753l-6.519,3.208-.277-7.194c.387-.342,4.384-3.934,4.384-3.934s-3.149,2.087-4.423,2.934l-.319-8.289-.2,5.262c-.924-.549-3.409-2.019-3.409-2.019s2.57,2.3,3.37,3.019l-.216,5.611L74.2-309.4,80.54-304.2l-.209,5.423c-2.63-1.335-6.659-3.368-6.659-3.368s4.886,4.054,6.585,5.312l-.375,9.72h2.38L81.781-299.6C83.319-300.738,88.226-304.753,88.226-304.753Z"/><path class="n" d="M42.588-301.425c0,3.436,3.975,6.222,8.878,6.222s8.879-2.786,8.879-6.222-3.975-6.221-8.879-6.221S42.588-304.86,42.588-301.425Z"/><path class="n" d="M40.854-307.912c0,4.291,4.751,7.77,10.612,7.77s10.613-3.479,10.613-7.77-4.752-7.77-10.613-7.77S40.854-312.2,40.854-307.912Z"/><path class="n" d="M45.293-315c0,2.5,2.764,4.519,6.173,4.519S57.64-312.506,57.64-315s-2.764-4.52-6.174-4.52S45.293-317.5,45.293-315Z"/><path class="m" d="M58.814-304.753l-6.519,3.208-.278-7.194c.388-.342,4.384-3.934,4.384-3.934s-3.148,2.087-4.422,2.934l-.319-8.289-.2,5.262c-.924-.549-3.409-2.019-3.409-2.019s2.57,2.3,3.37,3.019l-.216,5.611L44.785-309.4l6.343,5.193-.209,5.423c-2.63-1.335-6.659-3.368-6.659-3.368s4.886,4.054,6.584,5.312l-.374,9.72h2.38L52.369-299.6C53.907-300.738,58.814-304.753,58.814-304.753Z"/><path class="n" d="M13.176-301.425c0,3.436,3.975,6.222,8.878,6.222s8.878-2.786,8.878-6.222-3.975-6.221-8.878-6.221S13.176-304.86,13.176-301.425Z"/><path class="n" d="M11.442-307.912c0,4.291,4.751,7.77,10.612,7.77s10.612-3.479,10.612-7.77-4.751-7.77-10.612-7.77S11.442-312.2,11.442-307.912Z"/><path class="n" d="M15.881-315c0,2.5,2.764,4.519,6.173,4.519s6.173-2.023,6.173-4.519-2.764-4.52-6.173-4.52S15.881-317.5,15.881-315Z"/><path class="m" d="M29.4-304.753l-6.519,3.208-.277-7.194c.388-.342,4.384-3.934,4.384-3.934s-3.149,2.087-4.422,2.934l-.319-8.289-.2,5.262c-.923-.549-3.408-2.019-3.408-2.019s2.57,2.3,3.37,3.019l-.216,5.611L15.373-309.4l6.343,5.193-.209,5.423c-2.631-1.335-6.66-3.368-6.66-3.368s4.887,4.054,6.585,5.312l-.374,9.72h2.38L22.957-299.6C24.494-300.738,29.4-304.753,29.4-304.753Z"/><path class="o" d="M454.707-325.586c0,3.46,3.1,6.266,6.925,6.266s6.925-2.806,6.925-6.266-3.1-6.266-6.925-6.266S454.707-329.047,454.707-325.586Z"/><path class="o" d="M449.761-317.039c0,4.72,5.311,8.547,11.863,8.547s11.863-3.827,11.863-8.547-5.311-8.547-11.863-8.547S449.761-321.76,449.761-317.039Z"/><path class="m" d="M471.444-319.537s-7.01,2.289-9.155,3l-.444-11.543-.252,6.55-5.726-3.4s4.415,4,5.66,5.119l-.242,6.276-9.481-4.8,9.415,6.534-.951,24.7h3.154l-1.068-27.733C463-315.176,471.444-319.537,471.444-319.537Z"/><path class="o" d="M524.161-325.586c0,3.46,3.1,6.266,6.925,6.266s6.924-2.806,6.924-6.266-3.1-6.266-6.924-6.266S524.161-329.047,524.161-325.586Z"/><path class="o" d="M519.215-317.039c0,4.72,5.311,8.547,11.863,8.547s11.863-3.827,11.863-8.547-5.312-8.547-11.863-8.547S519.215-321.76,519.215-317.039Z"/><path class="m" d="M540.9-319.537s-7.011,2.289-9.155,3l-.445-11.543-.252,6.55-5.726-3.4s4.415,4,5.66,5.119l-.241,6.276-9.481-4.8,9.414,6.534-.95,24.7h3.153l-1.067-27.733C532.458-315.176,540.9-319.537,540.9-319.537Z"/></g><path class="p" d="M-92.381-286.75c244.722,1.019,490.715-1.049,735.739-1.017"/><path class="q" d="M179.13-565.7a9.7,9.7,0,0,0-2.334-.09c0-.009,0-.018,0-.027a2.323,2.323,0,0,0-2.323-2.323c-.027,0-.052.007-.079.008a4.972,4.972,0,0,0,.079-.86,5.011,5.011,0,0,0-4.422-4.975,9.418,9.418,0,0,0,.257-2.152,9.374,9.374,0,0,0-9.374-9.374,9.35,9.35,0,0,0-7.523,3.8,6.661,6.661,0,0,0-2.948-.691,6.659,6.659,0,0,0-2.277.406c.018-.262.039-.522.039-.789a11.068,11.068,0,0,0-11.068-11.068,11.068,11.068,0,0,0-11.069,11.068c0,.316.022.625.048.934a2.323,2.323,0,0,0-.616-.093,2.323,2.323,0,0,0-2.15,1.447,6.671,6.671,0,0,0-1.683-.222,6.7,6.7,0,0,0-6.7,6.7,6.683,6.683,0,0,0,.337,2.089,2.363,2.363,0,0,0-.388-.039,2.32,2.32,0,0,0-2.108,1.359,4.744,4.744,0,0,0-3.328-1.359,4.763,4.763,0,0,0-4.763,4.763v.006a2.3,2.3,0,0,0-1.1-.29,2.312,2.312,0,0,0-2.013,1.184c-.237-.073-5.374-1.62-9.6.678a8.317,8.317,0,0,0-4.061,4.889h95.359A4.663,4.663,0,0,0,179.13-565.7Z"/><path class="q" d="M377.9-566.68H456.3a6.84,6.84,0,0,0-3.339-4.02c-3.47-1.889-7.694-.617-7.889-.557a1.9,1.9,0,0,0-1.655-.973,1.894,1.894,0,0,0-.907.238V-572a3.916,3.916,0,0,0-3.916-3.916,3.9,3.9,0,0,0-2.736,1.117,1.908,1.908,0,0,0-1.733-1.117,1.864,1.864,0,0,0-.319.033,5.486,5.486,0,0,0,.277-1.718,5.505,5.505,0,0,0-5.505-5.505,5.493,5.493,0,0,0-1.384.182,1.91,1.91,0,0,0-1.767-1.189,1.89,1.89,0,0,0-.507.076c.022-.254.039-.508.039-.767a9.1,9.1,0,0,0-9.1-9.1,9.1,9.1,0,0,0-9.1,9.1c0,.218.017.433.032.648a5.478,5.478,0,0,0-1.872-.334,5.472,5.472,0,0,0-2.423.568,7.686,7.686,0,0,0-6.185-3.123,7.706,7.706,0,0,0-7.706,7.707,7.75,7.75,0,0,0,.211,1.768,4.121,4.121,0,0,0-3.635,4.091,4.212,4.212,0,0,0,.064.706c-.022,0-.042-.006-.064-.006a1.91,1.91,0,0,0-1.91,1.91l0,.022a7.934,7.934,0,0,0-1.919.074A3.833,3.833,0,0,0,377.9-566.68Z"/><g transform="translate(0 0.726)"><path d="M331.23-507.279c-.832.056.259,1.861-.56,2.018a2.956,2.956,0,0,1-2.728-1.463,14.86,14.86,0,0,0-1.9-2.647c-1.068-.947-2.569-1.181-3.921-1.645a11.2,11.2,0,0,1-6.658-6.3,11.138,11.138,0,0,1,.411-9.138l4.736-9.642c-1.47-.93-1.825-1.282-1.028-2.823a5.676,5.676,0,0,1,4.2-2.755,13.465,13.465,0,0,1,8.4,1.342c6.884,3.382,8.693,8.841,8.992,10.411,2.07,10.857-2.562,16.258-4.358,18.346a14.38,14.38,0,0,0-2.1,2.794Z"/><path class="r" d="M317.5-533.769a2.445,2.445,0,0,0-2.187,2.481h0l1.462,32.963c.061,3.894,5.774,6.081,9.958,5.984h0c4.225-.1,4.362-2.162,4.414-5.866.089-6.188.081-8.511.083-8.476,0,0,5.338-.894,6.429-7.837.542-3.452.355-9.11.053-13.735-.273-4.162-3.053-9.264-7.217-8.816Z"/><path d="M335.393-524.269a.892.892,0,0,1-.86.9.853.853,0,0,1-.922-.8.891.891,0,0,1,.858-.9A.855.855,0,0,1,335.393-524.269Z"/><path d="M326.169-523.929a.892.892,0,0,1-.86.9.853.853,0,0,1-.922-.8.891.891,0,0,1,.858-.9A.854.854,0,0,1,326.169-523.929Z"/><path d="M330.541-518.014a6.326,6.326,0,0,1,1.561-.284c.245-.026.478-.075.519-.242a1.245,1.245,0,0,0-.166-.725l-.73-1.86a31.85,31.85,0,0,1-1.641-4.867,31.961,31.961,0,0,1,2.03,4.724q.366.98.7,1.872a1.409,1.409,0,0,1,.13.959.619.619,0,0,1-.4.359,1.66,1.66,0,0,1-.417.058A6.286,6.286,0,0,1,330.541-518.014Z"/><path class="s" d="M331.23-506.683a17.774,17.774,0,0,1-9.335-2.458s2.365,4.893,9.335,4.228Z"/><path class="s" d="M330.14-515.705a1.738,1.738,0,0,0-1.555-.638,1.586,1.586,0,0,0-1.091.586,1,1,0,0,0-.073,1.142,1.165,1.165,0,0,0,1.261.315,3.631,3.631,0,0,0,1.227-.734,1.067,1.067,0,0,0,.274-.283.321.321,0,0,0,0-.357"/><path d="M327.207-526.544c-.152.233-1.059-.1-2.188-.226-1.127-.145-2.088-.029-2.181-.29-.04-.124.17-.327.586-.49a3.675,3.675,0,0,1,1.71-.186,3.663,3.663,0,0,1,1.618.58C327.118-526.9,327.274-526.655,327.207-526.544Z"/><path d="M336.441-526.883c-.183.24-1.027.112-2.011.217-.986.077-1.8.358-2.016.155-.1-.1.009-.332.348-.579a3.329,3.329,0,0,1,1.591-.546,3.269,3.269,0,0,1,1.654.246C336.38-527.208,336.52-527,336.441-526.883Z"/><path d="M317.657-522.554a.774.774,0,0,0,.295,1.47c2.34.527,2.649-4.026,2.127-5.328a13.593,13.593,0,0,0,2.349-2.46,9.746,9.746,0,0,0,1.077-4.714c.843.049,4.437-1.133,4.053-1.242-.347-.1,5.157-1.531,3.516-3.593-3.1-3.9-9.511-6.315-16.923,4.708-4.137,6.154-4.856,16.258-4,18.155s1.454,2.563,2.669,2.943c2.376.743-.38,5.619,3.573,5.619"/><path d="M311.9-516.6c-3.736-.934-5.906,2.01-5.906,5.475a6.276,6.276,0,0,0,6.276,6.276c3.466,0,6.275-4.015,6.275-7.481S315.259-515.761,311.9-516.6Z"/><path class="r" d="M317.753-520.646a2.032,2.032,0,0,0-2.973-1.722,2.769,2.769,0,0,0-1.18,2.79c.172,4.181,4.35,3.145,4.352,3.025C317.953-516.627,317.84-518.917,317.753-520.646Z"/><path class="s" d="M316.605-518.084c-.019-.012-.071.054-.193.116a.729.729,0,0,1-.545.033,1.8,1.8,0,0,1-.9-1.582,2.388,2.388,0,0,1,.161-1.051.845.845,0,0,1,.527-.582.375.375,0,0,1,.44.182c.061.115.038.2.06.206s.087-.074.046-.245a.457.457,0,0,0-.176-.255.55.55,0,0,0-.408-.09,1.025,1.025,0,0,0-.737.679,2.462,2.462,0,0,0-.205,1.176,1.89,1.89,0,0,0,1.141,1.761.784.784,0,0,0,.664-.138C316.6-517.983,316.62-518.077,316.605-518.084Z"/><path d="M330.077-514.329c-.072.09-.753-.344-1.6-.849s-1.55-.9-1.506-1.01a3.39,3.39,0,0,1,1.714.663C329.558-515,330.146-514.413,330.077-514.329Z"/><path class="t" d="M315.911-508.78l-1.194,4.494s-5.97,8.59-6.9,10.044a33.3,33.3,0,0,0-3.316,9.515c-.266,2.643,8.334,43.682,8.275,44.074-.751,5,28.474,3.5,28.474,3.5l5.874-1.107s.678-16.188.147-17.245-.582-17.2-2.041-23.146-13-19.221-13-19.221l-1.052-2.94-.024,2.9Z"/><path class="t" d="M313.12-490.86a12.576,12.576,0,0,0,1.216,12.795c4.323,5.937,10.548,14.365,11.043,14.365.765,0,16.142-14.183,16.142-14.183S333-491.271,328.569-494.227c-2.084-1.391-8.593-4.015-11.441-2.54C315.88-496.121,314.395-493.547,313.12-490.86Z"/><path d="M318.274-497.2a6.04,6.04,0,0,1,.336-2.46,10.2,10.2,0,0,1,.756-2.361,8.406,8.406,0,0,1-.428,2.442A19.713,19.713,0,0,1,318.274-497.2Z"/><path d="M331.158-497.907a2.46,2.46,0,0,1-.5-.287l-1.369-.893.15-.072a9.564,9.564,0,0,0,.256,1.981,12.341,12.341,0,0,1,.35,2.562l-.005.3-.241-.2c-1.288-1.063-2.812-2.243-4.472-3.433-2.791-2-5.425-3.65-7.374-4.772-.971-.566-1.772-1-2.324-1.3a5.431,5.431,0,0,1-.848-.49,5.489,5.489,0,0,1,.907.373c.572.268,1.392.67,2.382,1.212a72.92,72.92,0,0,1,7.453,4.706c1.667,1.195,3.19,2.39,4.469,3.478l-.246.106a12.83,12.83,0,0,0-.3-2.5,9.063,9.063,0,0,1-.2-2.039l.012-.174.138.1,1.317.966A2.533,2.533,0,0,1,331.158-497.907Z"/><path class="r" d="M327.949-465.863l-.027-.032Z"/><path class="r" d="M327.922-465.895Z"/><path class="r" d="M353-469.013c-1.807-1.137-4.851-.379-4.851-.379l-7.558-7.636-12.642,11.165c1.289,1.555,10.319,8.989,13.572,10.021,3.584,1.138,7.579.474,8.911-1.421S353.856-462,353.856-462,354.807-467.876,353-469.013Z"/><path class="r" d="M348.369-478.694l3.815,2.679a6.38,6.38,0,0,1,4.878,3.551c1.376,3.178,1.656,10.155-2.956,10.28l-10.428-7.6v-5.856Z"/><path class="s" d="M356.01-473.037c-.038.046-.584-.432-1.6-.969a9.97,9.97,0,0,0-4.283-1.145,9.976,9.976,0,0,0-4.346.874c-1.05.472-1.624.914-1.659.866-.013-.017.116-.145.376-.346a7.76,7.76,0,0,1,1.18-.735,9.288,9.288,0,0,1,4.46-1,9.28,9.28,0,0,1,4.388,1.275,7.662,7.662,0,0,1,1.132.808C355.9-473.189,356.023-473.053,356.01-473.037Z"/><path class="t" d="M345.276-476.681l4.281-2.823-15.131-15.752Z"/><path d="M316.338-475.324a1.335,1.335,0,0,1,.176.2c.122.149.283.345.486.6l1.836,2.3,6.645,8.452-.184-.02,1.773-1.477c.6-.514,1.2-1.07,1.828-1.625l3.924-3.511,8.767-7.828-.029.218c-.761-1.148-1.59-2.351-2.452-3.553-1.641-2.288-3.324-4.462-5.017-6.507q-1.269-1.533-2.541-2.969a29.132,29.132,0,0,0-2.609-2.663,11.971,11.971,0,0,0-2.93-1.937,15.7,15.7,0,0,0-3.176-1,25.44,25.44,0,0,0-3.078-.512,4.579,4.579,0,0,0-2.721.584,7.2,7.2,0,0,0-1.939,1.7,14.729,14.729,0,0,0-1.323,1.919,16.458,16.458,0,0,0-1.5,3.424,17.456,17.456,0,0,0-.531,2.309l-.09.611a.955.955,0,0,1-.039.208,12.59,12.59,0,0,1,.535-3.165,16.124,16.124,0,0,1,1.459-3.481,14.835,14.835,0,0,1,1.321-1.961,7.4,7.4,0,0,1,1.986-1.772,4.828,4.828,0,0,1,2.855-.637,25.423,25.423,0,0,1,3.122.5,15.863,15.863,0,0,1,3.239,1,12.216,12.216,0,0,1,3.012,1.972,29.2,29.2,0,0,1,2.646,2.684q1.277,1.437,2.554,2.972c1.7,2.048,3.392,4.227,5.037,6.521.865,1.205,1.7,2.413,2.458,3.565l.08.121-.108.1-8.786,7.81-3.94,3.495c-.63.553-1.231,1.1-1.838,1.616l-1.786,1.468-.1.085-.081-.1-6.556-8.522-1.78-2.346-.457-.618A1.369,1.369,0,0,1,316.338-475.324Z"/><path class="s" d="M353.856-462c-.029-.008.084-.327.2-.91a5.38,5.38,0,0,0,.055-1.08c-.01-.43.042-.925.042-1.45a5.578,5.578,0,0,0-1.1-3.446,4.388,4.388,0,0,0-4.006-1.465,4,4,0,0,0-1.572.582l-.115.075-.1-.1c-2.009-2.053-3.771-3.876-5.022-5.192l-1.463-1.561a3.647,3.647,0,0,1-.5-.6,3.82,3.82,0,0,1,.586.512l1.535,1.49c1.294,1.275,3.085,3.068,5.1,5.113l-.21-.023a4.288,4.288,0,0,1,1.7-.636,4.664,4.664,0,0,1,4.3,1.6,5.713,5.713,0,0,1,1.1,3.641c-.016.552-.083,1.026-.091,1.452a4.939,4.939,0,0,1-.116,1.1,5.033,5.033,0,0,1-.217.665C353.9-462.072,353.867-462,353.856-462Z"/><path d="M334.426-494.793a4.994,4.994,0,0,1,.62.7c.382.463.928,1.138,1.591,1.983a55.8,55.8,0,0,1,4.745,6.927,21.5,21.5,0,0,1,1.867,4.248,10.132,10.132,0,0,1,.441,3.763c-.04,1.023-.074,1.877-.1,2.54a5.048,5.048,0,0,1-.082.932,4.918,4.918,0,0,1-.049-.932c0-.663,0-1.517-.007-2.54a10.288,10.288,0,0,0-.5-3.673,22.43,22.43,0,0,0-1.863-4.174,67.816,67.816,0,0,0-4.641-6.947l-1.505-2.047A4.931,4.931,0,0,1,334.426-494.793Z"/><path d="M325.363-454.954c.1-.032.687,1.971,1.982,4.165,1.278,2.2,2.736,3.7,2.658,3.77a4.374,4.374,0,0,1-1-.931,16.271,16.271,0,0,1-1.947-2.669,16.2,16.2,0,0,1-1.371-3A4.37,4.37,0,0,1,325.363-454.954Z"/><path d="M333.587-446.216a12.85,12.85,0,0,1-1.019-2.745,12.83,12.83,0,0,1-.7-2.844,12.8,12.8,0,0,1,1.019,2.745A12.817,12.817,0,0,1,333.587-446.216Z"/><path class="u" d="M342.969-309.289l-.9,13.589s13.525,4.488,13.6,7.016l-26.425.191.534-21.23Z"/><path class="v" d="M329.247-288.493l.054-2.14,25.522.7a1.823,1.823,0,0,1,.983,1.435Z"/><path d="M346.013-417.208l1.172-22.179-34.408-1.266s-4.4,10.353-5.443,14.375a28.515,28.515,0,0,0-.384,14.258c1.341,5.065,11.033,21.962,11.033,21.962l9.246,93.352h21.023Z"/><path d="M345.816-435.52c.252,2.524,19.567,62.23,17.383,71.331s-17.838,51.846-17.838,51.846Z"/><path class="v" d="M346.355-431.572c.094,0,.36,25,.6,55.834s.351,55.842.258,55.843-.36-25-.6-55.84S346.262-431.571,346.355-431.572Z"/><path class="v" d="M340.171-296.706c-.093,0-1.233-29.273-2.545-65.382s-2.3-65.4-2.207-65.4,1.232,29.267,2.544,65.389S340.264-296.709,340.171-296.706Z"/><path class="v" d="M334.334-436.781a4.708,4.708,0,0,1-.084.906,16.393,16.393,0,0,1-.576,2.412,18.9,18.9,0,0,1-4.079,7.053,14.421,14.421,0,0,1-6.788,4.463,5.94,5.94,0,0,1-2.487.094,4.028,4.028,0,0,1-.653-.187c-.144-.055-.218-.09-.214-.1.011-.032.316.079.887.158a6.3,6.3,0,0,0,2.409-.2,14.848,14.848,0,0,0,6.6-4.459,19.877,19.877,0,0,0,4.1-6.9C334.137-435.5,334.26-436.8,334.334-436.781Z"/><path class="v" d="M355.816-369.2a21.466,21.466,0,0,0-4.589.02,21.484,21.484,0,0,0-4.392,1.332,3.98,3.98,0,0,1,1.171-.711,11.606,11.606,0,0,1,3.171-.955,11.6,11.6,0,0,1,3.31-.02A4,4,0,0,1,355.816-369.2Z"/><path class="v" d="M323.41-382.171a11.774,11.774,0,0,1-.971-1.62c-.571-1.015-1.364-2.413-2.277-3.935s-1.776-2.879-2.4-3.859a11.833,11.833,0,0,1-.974-1.619,9.547,9.547,0,0,1,1.172,1.485c.68.949,1.576,2.292,2.495,3.82s1.68,2.95,2.2,4A9.446,9.446,0,0,1,323.41-382.171Z"/><path d="M327.558-536.06s3.495,3.715,6.052,4.749,4.394,5.86,4.394,5.86.431-9.679.311-10.276-6.445-3.369-8.673-2.931S323.525-538.78,327.558-536.06Z"/></g><g transform="translate(0 0.473)"><path d="M239.1-426.984c-1.553-2.365-8.017,126.738-7.585,127.476l16.973.244,9.26-69.274,5.024-52.493,8.1,49.324,9.938,72.285,18.549.267L287.9-430.185,263.88-443.949Z"/><path class="v" d="M255.5-513.327c-7.58,1.146-11.377,8.387-11.377,8.387l-8.553,5.806,7.37,35.6-7.3,47.943,1.458,4.134,54.548-.912,1.04-3.762-5.64-43.635,2.477-29.244,2.278-11.742-9.892-4.172a40.881,40.881,0,0,0,3.923,1.654c.772.236-5.737-8.1-11.407-9.913C269.393-514.794,261.035-514.163,255.5-513.327Z"/><g class="w"><path d="M238.764-438.112c6.152,7.975,14.56,13.853,22.83,19.6a15.5,15.5,0,0,0,5.641,2.865,7.9,7.9,0,0,0,7.934-3.332c1.2-1.823,1.6-4.122,3.023-5.777.96-1.12,2.3-1.845,3.333-2.9a14.34,14.34,0,0,0,2.138-3.16l3.382-6.107c-4.111-.018-7.91,2.007-11.619,3.78s-7.832,3.375-11.84,2.458c-5.548-1.269-9.083-6.914-14.414-8.906a12.049,12.049,0,0,0-10.328.982"/></g><path class="v" d="M237.295-500.219s-4.627.97-5.54,10.033c-.549,5.438-3.96,34.029-2.78,38.136s16.455,21.251,21.543,20.829l1.9-.686,1.818,1.409,8.13-6.094-17.92-22.548.963-32.461S242.963-501.5,237.295-500.219Z"/><path d="M267.005-476.274a5.549,5.549,0,0,1,.068-1.021c.076-.653.215-1.6.434-2.751.428-2.313,1.193-5.473,2.2-8.914a80.484,80.484,0,0,1,3.057-8.662c.466-1.081.892-1.934,1.208-2.512a5.711,5.711,0,0,1,.541-.868,5.513,5.513,0,0,1-.417.931c-.276.594-.664,1.459-1.1,2.546-.88,2.17-1.922,5.239-2.948,8.666-1.007,3.432-1.809,6.572-2.3,8.863-.25,1.145-.426,2.077-.544,2.721A5.572,5.572,0,0,1,267.005-476.274Z"/><path d="M268.7-495.459a64.51,64.51,0,0,1,2.787-6.194,64.67,64.67,0,0,1,3.109-6.04,64.425,64.425,0,0,1-2.787,6.2A64.575,64.575,0,0,1,268.7-495.459Z"/><path d="M279.467-477.274a1.883,1.883,0,0,1-.271-.517c-.157-.341-.354-.846-.572-1.48a26.226,26.226,0,0,1-1.173-5.1,26.312,26.312,0,0,1-.139-5.232c.053-.668.117-1.207.184-1.576a1.826,1.826,0,0,1,.134-.568,21.433,21.433,0,0,1-.065,2.157,33.718,33.718,0,0,0,.241,5.174,33.625,33.625,0,0,0,1.06,5.069A20.864,20.864,0,0,1,279.467-477.274Z"/><g class="w"><path d="M268.35-482.749c-.293,2.448-1.077,3.658-1.113,6.123-.008.528-.846,8.865-.354,9.057.579.227,2.786-5.847,3.268-8.874.377-2.372,1.046-5.493,1.443-7.862,1.158-6.912,3.722-10.633,7.317-16.648.681-1.139,3.222-4.24,3.222-4.24-.245-.155-1.253.323-1.959.641a38.894,38.894,0,0,0-5.657,3.812,68.818,68.818,0,0,0-2.917,6.266,88.423,88.423,0,0,0-3.3,12.124"/></g><g class="w"><path d="M245.638-503.735s-2.216,1.211-2.2,2.186a2.847,2.847,0,0,0,1.614,2.278,19.836,19.836,0,0,0,2.739,1.018,16.052,16.052,0,0,1,5.564,3.97,46.845,46.845,0,0,1,6.932,8.885c1.615,2.684,3.1,5.672,5.8,7.253-1.831-3.273-3.729-6.44-5.559-9.713a62.591,62.591,0,0,0-6.316-9.254c-2.38-2.889-6.258-6.39-8.571-6.623"/></g><path d="M237.745-455.423c-.009,0-.018-.061-.029-.18a2.871,2.871,0,0,1,.006-.529,4.179,4.179,0,0,1,.657-1.878,4.132,4.132,0,0,1,2.473-1.793,4.417,4.417,0,0,1,3.809.847l-.267.131a34.642,34.642,0,0,1,.409-6.921c.35-2.263.763-4.395,1-6.354a51.89,51.89,0,0,0,.4-5.222c.045-1.492.039-2.7.02-3.537l-.007-.963a1.265,1.265,0,0,1,.022-.338,1.2,1.2,0,0,1,.05.334c.02.261.045.579.074.962.062.835.107,2.048.094,3.547a46.306,46.306,0,0,1-.331,5.257c-.22,1.973-.625,4.117-.972,6.367a36.024,36.024,0,0,0-.439,6.855l.014.366-.281-.235a4.156,4.156,0,0,0-3.537-.833,3.968,3.968,0,0,0-2.373,1.638,4.361,4.361,0,0,0-.717,1.783C237.756-455.672,237.77-455.424,237.745-455.423Z"/><path d="M239.474-438.668a1.243,1.243,0,0,1,.219.191l.6.587c.536.505,1.321,1.244,2.381,2.105a35.183,35.183,0,0,0,4.005,2.829,16.584,16.584,0,0,0,2.665,1.34,3.458,3.458,0,0,0,1.532.229,2.249,2.249,0,0,0,1.416-.623l.107-.111.114.087,1.822,1.4-.2,0,8.123-6.1-.032.257-.144-.181c-2.452-3.051-4.636-6.064-6.668-8.769s-3.86-5.142-5.449-7.145-2.93-3.579-3.9-4.632c-.476-.534-.865-.929-1.129-1.2a3.346,3.346,0,0,1-.385-.427,3.478,3.478,0,0,1,.436.375c.28.253.686.634,1.179,1.154,1,1.028,2.378,2.58,3.992,4.569s3.477,4.4,5.515,7.106,4.241,5.7,6.682,8.742l.144.179.117.146-.149.111-8.137,6.084-.1.076-.1-.078-1.814-1.414.22-.024a2.533,2.533,0,0,1-1.633.725,3.754,3.754,0,0,1-1.66-.259,16.553,16.553,0,0,1-2.7-1.391,33.461,33.461,0,0,1-3.99-2.909c-1.048-.887-1.815-1.651-2.33-2.179l-.569-.624A1.269,1.269,0,0,1,239.474-438.668Z"/><path d="M246.011-489.234c-.066.011-.185-.821-.629-2.085a14.209,14.209,0,0,0-.966-2.138,15.653,15.653,0,0,0-1.638-2.355,15.616,15.616,0,0,0-2.077-1.979,14.145,14.145,0,0,0-1.967-1.282c-1.182-.634-1.987-.88-1.966-.942a1.864,1.864,0,0,1,.578.129,9.425,9.425,0,0,1,1.5.592,12.5,12.5,0,0,1,2.05,1.246,14.484,14.484,0,0,1,2.148,2.008,14.464,14.464,0,0,1,1.656,2.428,12.513,12.513,0,0,1,.916,2.215,9.248,9.248,0,0,1,.354,1.573A1.9,1.9,0,0,1,246.011-489.234Z"/><g class="w"><path d="M237.451-456.147a4.541,4.541,0,0,1,2.073-5.18,2.7,2.7,0,0,1,1.471-.381c1.115.082,1.913,1.072,2.567,1.979a4.7,4.7,0,0,0-3.726.471,4.7,4.7,0,0,0-2.154,3.077"/></g><path class="x" d="M287.159-458.023"/><g class="w"><path d="M286.638-480.275c-.37.382-.47,3.586-.47,3.586.006,3.868.247,5.566.253,9.435A17.673,17.673,0,0,1,286-462.5a17.633,17.633,0,0,1-.909,2.371,15.072,15.072,0,0,1-1.5,2.841,16.861,16.861,0,0,1-1.814,1.985,73.862,73.862,0,0,0-8.32,9.872l-1.513,2.217,15.006-14.078.739-1.862.037-.218Z"/></g><path class="v" d="M291.807-500.753s2.363.888,3.6,6.162a189.588,189.588,0,0,1,3.575,20.049c.241,3.227,3.409,15.017.959,20.207s-14.3,21.22-18.971,21.734l-1.949-.494-2.049.351-5.748-6.613.5-1.893a1.9,1.9,0,0,1,.029-1.995c.678-.94,15.335-14.711,15.335-14.711s-.559-.072-.679-1.021c-.207-1.636,1.218-1.577,1.218-1.577l-.946-14.408s.424-10.944.8-14.571C288.021-494.668,291.807-500.753,291.807-500.753Z"/><path d="M292.7-456.246c-.064.089-1.144-.686-2.679-1.169-1.529-.5-2.859-.5-2.858-.608a5.4,5.4,0,0,1,2.968.266A5.4,5.4,0,0,1,292.7-456.246Z"/><path d="M295.657-458.4a13.476,13.476,0,0,0-3.8-1.889,13.405,13.405,0,0,0-4.234-.261,3.1,3.1,0,0,1,1.24-.317,8.3,8.3,0,0,1,3.087.232,8.267,8.267,0,0,1,2.788,1.341A3.142,3.142,0,0,1,295.657-458.4Z"/><path d="M287.159-458.023c-.014.034-.244.014-.546-.212a1.177,1.177,0,0,1-.382-.549,1.473,1.473,0,0,1-.009-.815,1.952,1.952,0,0,1,.211-.5l-.016.035a1.037,1.037,0,0,1,.914-.613c.271-.017.42.063.412.1s-.154.047-.373.117a.931.931,0,0,0-.625.506l0,.01-.013.025a2.054,2.054,0,0,0-.159.413,1.14,1.14,0,0,0,.219,1.09C287-458.187,287.186-458.076,287.159-458.023Z"/><path d="M286.493-480.978a3.5,3.5,0,0,1,.129.8c.06.516.129,1.264.2,2.189.147,1.85.29,4.41.414,7.237.118,2.786.226,5.3.308,7.239.035.867.065,1.6.089,2.194a3.517,3.517,0,0,1-.011.809,3.507,3.507,0,0,1-.128-.8c-.061-.515-.13-1.263-.2-2.189-.147-1.85-.29-4.41-.414-7.238-.119-2.785-.227-5.3-.309-7.238-.035-.867-.064-1.6-.088-2.194A3.55,3.55,0,0,1,286.493-480.978Z"/><path d="M287.4-458.122a2.929,2.929,0,0,1-.364.356l-1.086.981-4.021,3.647c-1.695,1.562-3.709,3.45-5.925,5.61-1.108,1.08-2.271,2.229-3.462,3.434a3.886,3.886,0,0,0-.735.983,1.79,1.79,0,0,0-.125,1.177,6.668,6.668,0,0,1,.213,1.352,1.359,1.359,0,0,1-.737,1.277l.068-.281,2.967,3.391,2.912,3.334-.163-.058,2.049-.349.025,0,.022,0a9.064,9.064,0,0,0,2.422.39,4.5,4.5,0,0,0,2.091-.959,32.567,32.567,0,0,0,3.283-3.062c1.97-2.068,3.584-4.034,4.91-5.683s2.359-2.993,3.075-3.911l.825-1.051a2.715,2.715,0,0,1,.3-.352,2.506,2.506,0,0,1-.252.39l-.778,1.086c-.686.942-1.692,2.3-2.995,3.978s-2.9,3.659-4.866,5.753a32.409,32.409,0,0,1-3.3,3.118,4.819,4.819,0,0,1-2.249,1.033,8.91,8.91,0,0,1-2.5-.382l.047,0L277-432.57l-.1.017-.066-.075-2.915-3.332-2.963-3.393-.167-.191.235-.09a1.02,1.02,0,0,0,.516-.961,6.61,6.61,0,0,0-.205-1.279,2.142,2.142,0,0,1,.157-1.384,4.217,4.217,0,0,1,.8-1.071q1.807-1.815,3.488-3.423c2.233-2.149,4.267-4.02,5.986-5.56s3.121-2.747,4.1-3.569l1.127-.934A2.827,2.827,0,0,1,287.4-458.122Z"/><path d="M287.048-466.379c0,.1-9.376.044-20.935-.123s-20.935-.381-20.933-.48,9.374-.044,20.938.122S287.05-466.478,287.048-466.379Z"/><path d="M256.22-431.966c-.061.076-.452-.144-.806-.556s-.514-.831-.43-.88.369.261.7.646S256.285-432.043,256.22-431.966Z"/><path d="M258.846-434.014c-.08.059-.376-.2-.661-.59s-.453-.745-.373-.8.375.2.661.59S258.925-434.073,258.846-434.014Z"/><path d="M274.058-439.529c.046.09-.348.378-.839.707s-.909.582-.974.506.262-.461.775-.8S274.015-439.616,274.058-439.529Z"/><path d="M276.009-437.611c.082.05-.156.574-.654,1.062s-1.023.72-1.072.638.358-.434.821-.893S275.924-437.666,276.009-437.611Z"/><path d="M277.879-435.323c.071.066-.232.505-.74.907s-1,.6-1.051.516.344-.41.828-.8S277.8-435.392,277.879-435.323Z"/><path d="M251.2-508.518c.1-.04.923,2.027,2.326,4.366s2.818,4.052,2.735,4.123a5.07,5.07,0,0,1-1.015-1.053,23.288,23.288,0,0,1-2.028-2.886,23.282,23.282,0,0,1-1.575-3.156A5.093,5.093,0,0,1,251.2-508.518Z"/><path d="M292.692-416.132a3.573,3.573,0,0,1-.582.031l-1.666.018-6.127.057c-5.172.062-12.316.257-20.207.5s-15.044.395-20.22.392c-2.588,0-4.682-.018-6.129-.057l-1.666-.049a3.592,3.592,0,0,1-.58-.041,3.536,3.536,0,0,1,.581-.031l1.666-.018,6.126-.057c5.173-.062,12.317-.256,20.211-.5s15.04-.4,20.217-.392c2.588,0,4.682.018,6.129.057l1.666.049A3.612,3.612,0,0,1,292.692-416.132Z"/><path class="y" d="M273.987-431.394a1.525,1.525,0,0,0,1.446.668c.56-.021,1.1-.2,1.664-.233a1.573,1.573,0,0,1,1.473.619,1.3,1.3,0,0,1-.047,1.272,2.558,2.558,0,0,1-.965.9,5.23,5.23,0,0,1-5.941-.572"/><path class="y" d="M261.265-422.953a34.627,34.627,0,0,0,5.435,4.41,2.079,2.079,0,0,0,1.4.472c.5-.082.9-.731.561-1.11a1.557,1.557,0,0,0,1.832.044,1.559,1.559,0,0,0,.557-1.659.046.046,0,0,1,.062-.057,1.727,1.727,0,0,0,1.512-.107,1.292,1.292,0,0,0,.564-1.445,1.335,1.335,0,0,0,2.126-.346,2.344,2.344,0,0,0-.4-2.407,11.8,11.8,0,0,0-1.9-1.723,3.79,3.79,0,0,1-1.43-2.079"/><path class="z" d="M268.747-419.133a3.647,3.647,0,0,1-1.814-1.165,3.659,3.659,0,0,1-1.148-1.825c.093-.05.588.759,1.4,1.573S268.8-419.225,268.747-419.133Z"/><path class="z" d="M271.1-420.874a3.852,3.852,0,0,1-1.631-1.131,3.837,3.837,0,0,1-1.146-1.622c.084-.058.637.618,1.4,1.367S271.153-420.96,271.1-420.874Z"/><path class="z" d="M273.694-422.075a3.5,3.5,0,0,1-1.564-1.048,3.487,3.487,0,0,1-1.092-1.535c.084-.059.615.576,1.341,1.278S273.751-422.161,273.694-422.075Z"/><path class="y" d="M256.869-438.393s-.2-.877,2.053-.593a26.161,26.161,0,0,0,5.8.371c2.537-.131,6.653-.854,6.653-.854L278-433.642s-6.773,5.95-8.8,7.01-6.152,3.7-8.5,3.578c-1.785-.1-1.945-.985-1.945-.985s-1.742-1.2-1.482-1.781c0,0-2.069-.113-1.681-1.7,0,0-1.475-.273-1.714-1.114s.874-1.831,1.3-2.255c.689-.682,6.716-5.105,6.742-5.23C261.924-436.118,256.775-436.629,256.869-438.393Z"/><path class="z" d="M261.142-431.961a17.7,17.7,0,0,1-2.708,2.314,17.848,17.848,0,0,1-2.928,2.031,17.864,17.864,0,0,1,2.709-2.314A17.867,17.867,0,0,1,261.142-431.961Z"/><path class="z" d="M264.331-431.343a4.144,4.144,0,0,1-.791,1.08,17.476,17.476,0,0,1-2.353,2.213,17.437,17.437,0,0,1-2.716,1.747,4.16,4.16,0,0,1-1.239.507c-.05-.1,1.777-1,3.735-2.537C262.934-429.859,264.247-431.415,264.331-431.343Z"/><path class="z" d="M267.18-429.3a4.515,4.515,0,0,1-.9,1.213,12.8,12.8,0,0,1-2.827,2.3,12.8,12.8,0,0,1-3.36,1.417,4.506,4.506,0,0,1-1.493.225,23.106,23.106,0,0,0,4.669-1.949A23.133,23.133,0,0,0,267.18-429.3Z"/><path class="z" d="M275.264-431.2a2.768,2.768,0,0,1-.5.517c-.338.313-.839.753-1.48,1.271a42.932,42.932,0,0,1-5.3,3.655c-1.086.637-2.147,1.2-3.129,1.671a11.469,11.469,0,0,1-2.729,1.017,4.355,4.355,0,0,1-1.972,0,1.639,1.639,0,0,1-.664-.284,4.883,4.883,0,0,0,2.58.035,12.353,12.353,0,0,0,2.639-1.066c.967-.487,2.016-1.052,3.094-1.684a56.845,56.845,0,0,0,5.323-3.546C274.445-430.589,275.227-431.239,275.264-431.2Z"/><path class="y" d="M273.915-534.286,272.366-508.3a8.506,8.506,0,0,1-8.507,8.009,4.865,4.865,0,0,1-.5-.017,8.53,8.53,0,0,1-7.956-9.255c.214-2.367.41-4.289.41-4.289a7.785,7.785,0,0,1-1-.267l-.018-.018a8.634,8.634,0,0,1-3.363-2.011,1.589,1.589,0,0,0-.161-.178,6.275,6.275,0,0,1-1.067-1.495c-.019-.018-.019-.036-.037-.054a7.647,7.647,0,0,1-.782-3.524v-.409c.035-3.115.408-8.81.8-14.078a11.869,11.869,0,0,1,12.939-10.928A11.885,11.885,0,0,1,273.915-534.286Z"/><path d="M255.149-518.324a.987.987,0,0,0,.868.819,2.817,2.817,0,0,0,.31,0,2.817,2.817,0,0,0,.31,0,.986.986,0,0,0,.867-.819C257.66-518.944,254.994-518.944,255.149-518.324Z"/><path d="M263.22-518.838a5.867,5.867,0,0,1-3.141,3.214c-2.047,1.068-2.568-.382-3.752-.3-.853.058-.664,1.445-2.729.377a5.926,5.926,0,0,1-2.244-2.57,5.919,5.919,0,0,0,.058,1.936,8.686,8.686,0,0,0,1.786,1.454,4.84,4.84,0,0,0,1.6.588l.018.018c2.1.48,4.983.267,6.407-.606a6.078,6.078,0,0,0,2.433-2.693C263.565-517.765,263.238-518.714,263.22-518.838Z"/><path d="M262.344-521.764c-.77-2.718-10.058-3.268-10.7-.027a14.476,14.476,0,0,0-.332,4.524c.014,1.2.774.7.689.215a6.266,6.266,0,0,1-.192-1.309c.017-.42-.043-3.868,1.776-4.26a11.4,11.4,0,0,1,2.949.387s2.956-.577,4.343-.027c.7.275,1.448,3.689,1.466,4.109.038.914.166,1.979.664.62S263.061-519.238,262.344-521.764Z"/><path class="z" d="M255.8-513.94a15,15,0,0,0,8.448-2.27s-2.162,4.665-8.593,3.991Z"/><path class="y" d="M273.28-532.076c.111-.046,4.453-1.247,4.249,3.163s-4.59,3.3-4.592,3.168S273.28-532.076,273.28-532.076Z"/><path class="z" d="M274.362-527.353c.02-.013.074.057.2.123a.766.766,0,0,0,.574.038,1.9,1.9,0,0,0,.959-1.665,2.56,2.56,0,0,0-.164-1.11.886.886,0,0,0-.551-.616.392.392,0,0,0-.463.189c-.065.121-.041.21-.065.217s-.091-.078-.047-.259a.49.49,0,0,1,.186-.268.583.583,0,0,1,.43-.093,1.083,1.083,0,0,1,.771.721,2.618,2.618,0,0,1,.21,1.242,2,2,0,0,1-1.209,1.852.825.825,0,0,1-.7-.149C274.365-527.246,274.346-527.346,274.362-527.353Z"/><path d="M252.7-532.366a.922.922,0,0,0,.875.943.882.882,0,0,0,.962-.818.922.922,0,0,0-.874-.943A.881.881,0,0,0,252.7-532.366Z"/><path d="M251.819-533.56c.113.122.818-.385,1.81-.368s1.711.523,1.821.4c.054-.053-.06-.272-.373-.507a2.524,2.524,0,0,0-1.456-.472,2.416,2.416,0,0,0-1.442.443C251.87-533.831,251.764-533.615,251.819-533.56Z"/><path d="M262.634-532.094a.922.922,0,0,0,.875.943.882.882,0,0,0,.962-.817.922.922,0,0,0-.874-.944A.883.883,0,0,0,262.634-532.094Z"/><path d="M261.565-533.235c.113.122.819-.385,1.81-.368s1.712.524,1.821.4c.054-.053-.058-.272-.373-.507a2.537,2.537,0,0,0-1.455-.472,2.436,2.436,0,0,0-1.443.443C261.617-533.505,261.51-533.289,261.565-533.235Z"/><path d="M257.61-525.563a6.616,6.616,0,0,0-1.607-.313c-.253-.03-.492-.084-.532-.257a1.292,1.292,0,0,1,.18-.749q.37-.914.777-1.917a33.255,33.255,0,0,0,1.754-5.02,33.173,33.173,0,0,0-2.154,4.867q-.39,1.01-.746,1.93a1.462,1.462,0,0,0-.145.991.633.633,0,0,0,.411.377,1.74,1.74,0,0,0,.429.066A6.426,6.426,0,0,0,257.61-525.563Z"/><path d="M260.421-536.826c.116.262,1.1.07,2.266.134,1.172.04,2.13.318,2.268.067.061-.12-.118-.363-.514-.6a3.786,3.786,0,0,0-1.71-.475,3.791,3.791,0,0,0-1.745.322C260.572-537.177,260.371-536.951,260.421-536.826Z"/><path d="M251.448-537.214c.171.228.858,0,1.68.005.822-.029,1.515.173,1.678-.061.072-.113-.034-.34-.335-.558a2.323,2.323,0,0,0-1.36-.389,2.32,2.32,0,0,0-1.346.434C251.471-537.556,251.373-537.325,251.448-537.214Z"/><path d="M258.118-520.97c0,.2-.8.368-1.788.38s-1.793-.139-1.795-.337.8-.368,1.789-.38S258.117-521.168,258.118-520.97Z"/><path d="M273.777-531.884a4.523,4.523,0,0,1-1.351-.3c-.817-.244-1.921-.654-3.121-1.141l-3.07-1.235a6.522,6.522,0,0,1-1.268-.535,4.448,4.448,0,0,1,1.35.295c.818.244,1.922.655,3.122,1.142l3.07,1.235A6.526,6.526,0,0,1,273.777-531.884Z"/><path d="M255.426-535.7a1.319,1.319,0,0,1,1.155,1.1,5.577,5.577,0,0,1-.566,3.405,5.568,5.568,0,0,1-3.45,2.745,3.2,3.2,0,0,1-2.517-.237,3.982,3.982,0,0,1-1.433-3.2,4.106,4.106,0,0,1,.444-2.573,3.7,3.7,0,0,1,2.969-1.372c1.131-.061,3.4.135,3.4.135Z"/><path d="M260.612-535.535a1.333,1.333,0,0,0-1.2,1.077,5.629,5.629,0,0,0,.474,3.459,5.622,5.622,0,0,0,3.407,2.876,3.245,3.245,0,0,0,2.552-.166,4.028,4.028,0,0,0,1.542-3.2,4.146,4.146,0,0,0-.375-2.614,3.736,3.736,0,0,0-2.961-1.474c-1.141-.1-3.44.038-3.44.038Z"/><path d="M261.655-535.353a20.056,20.056,0,0,1-3.785.1,20.272,20.272,0,0,1-3.777-.254,20.049,20.049,0,0,1,3.784-.1A20.288,20.288,0,0,1,261.655-535.353Z"/><path class="aa" d="M273.525-506.084c-.006,0-.013-.036-.019-.107a1.469,1.469,0,0,1,.012-.318,3.4,3.4,0,0,1,.426-1.141,7.621,7.621,0,0,0,.776-1.718,8.652,8.652,0,0,0,.292-2.471c0-.934-.117-1.938-.185-3.059a1.56,1.56,0,0,1,.213-.89.847.847,0,0,1,.9-.416.737.737,0,0,1,.44.336.567.567,0,0,1-.013.595.869.869,0,0,1-1.04.2,1.562,1.562,0,0,1-.821-1.8,1.6,1.6,0,0,1,.612-.891,1.172,1.172,0,0,1,.54-.214.716.716,0,0,1,.607.206.629.629,0,0,1,.145.656.633.633,0,0,1-.573.35,1.378,1.378,0,0,1-1.063-.456,1.366,1.366,0,0,1-.366-1.112,1.4,1.4,0,0,1,.669-.976,1.321,1.321,0,0,1,.995-.178.965.965,0,0,1,.464.271.6.6,0,0,1,.158.574.623.623,0,0,1-.417.41,1.153,1.153,0,0,1-.512.044,1.876,1.876,0,0,1-.865-.385,1.523,1.523,0,0,1-.562-1.691,1.338,1.338,0,0,1,1.483-.879.825.825,0,0,1,.66.667.587.587,0,0,1-.188.488.762.762,0,0,1-.445.2,1.179,1.179,0,0,1-.807-.3,1.82,1.82,0,0,1-.51-.622,1.161,1.161,0,0,1,.319-1.471.831.831,0,0,1,1.285.505l.015.1-.083.045a1.211,1.211,0,0,1-1.669-.6,1.029,1.029,0,0,1,.074-.889,1.274,1.274,0,0,1,.621-.547,1,1,0,0,1,.78-.005.575.575,0,0,1,.382.63.4.4,0,0,1-.249.3.487.487,0,0,1-.358-.02.674.674,0,0,1-.367-.483,5.428,5.428,0,0,1-.019-1.635,1.973,1.973,0,0,1,.122-.556,8.124,8.124,0,0,0,.051,2.149.508.508,0,0,0,.282.361.232.232,0,0,0,.347-.154c.072-.354-.5-.573-.884-.378a.918.918,0,0,0-.544,1.131.95.95,0,0,0,1.286.453l-.068.14a.545.545,0,0,0-.834-.3.855.855,0,0,0-.206,1.086,1.28,1.28,0,0,0,1,.733c.19-.017.359-.169.332-.323a.506.506,0,0,0-.406-.372,1,1,0,0,0-1.082.672,1.179,1.179,0,0,0,.458,1.293,1.531,1.531,0,0,0,.692.309c.236.036.513-.048.539-.2.057-.14-.142-.349-.368-.4a.972.972,0,0,0-.719.137,1.051,1.051,0,0,0-.5.723,1.012,1.012,0,0,0,.275.818,1.018,1.018,0,0,0,.779.344c.3-.007.357-.215.194-.413-.138-.161-.469-.114-.691.053a1.262,1.262,0,0,0-.482.7,1.235,1.235,0,0,0,.618,1.406c.227.1.548.075.644-.076.117-.15-.029-.39-.242-.448a.544.544,0,0,0-.562.281,1.255,1.255,0,0,0-.172.719c.053,1.079.159,2.12.141,3.062a8.582,8.582,0,0,1-.354,2.528,7.4,7.4,0,0,1-.845,1.728,3.686,3.686,0,0,0-.476,1.085C273.533-506.231,273.542-506.084,273.525-506.084Z"/><path class="aa" d="M276.06-527.189a2.411,2.411,0,0,0-.292-.95,1.1,1.1,0,0,0-.8-.545.871.871,0,0,0-.875.556.9.9,0,0,0,.326.976l.018.016.007.005,0,0,.076.05c.115.073.278.082.393.154a.8.8,0,0,1,.3.735,7.29,7.29,0,0,0-.066.831c.015.2.13.436.332.441.176,0,.3-.169.372-.329A3.547,3.547,0,0,0,276.06-527.189Z"/><path class="t" d="M255.754-513.381a7.7,7.7,0,0,0-2.028,3.979,14.653,14.653,0,0,0,2.842,9.913l.9,1.311a30.923,30.923,0,0,1,3.217,6.064c1.744,4.41,4.676,11.836,4.778,12.192a28.329,28.329,0,0,0,1.3,2.594s.753-13.937,2.018-18.412c.706-2.5,4.209-9.394,4.209-9.394a6.262,6.262,0,0,0,.668-2.594l.109-2.975a4.173,4.173,0,0,0-1.081-2.959h0l-.235,2.677-8.316,7.046-8.436-6.053Z"/><path class="ab" d="M264.132-503.939l3.966,5.9,2.372-2.11"/><path class="ab" d="M264.132-503.939l-4.6,5.743-3.271-1.834"/><path d="M267.756-489.234,266-501.264h-2.91L261.7-489.538l1.812,5.436,1.864,4.528,1.386,2.245Z"/><path d="M262.524-503.939h3.957a.993.993,0,0,1,1.068,1.147c-.406,1.66-1.351,4.2-3.044,4.2s-2.643-2.543-3.048-4.2A.993.993,0,0,1,262.524-503.939Z"/><path class="t" d="M248.955-531.876a1.744,1.744,0,0,1-.082-1.614c.294-.9.986-1.331,1.03-1.246.068.079-.438.568-.69,1.358C248.943-532.593,249.057-531.9,248.955-531.876Z"/><path class="t" d="M260.3-531.488c-.073.06-.526-.524-.522-1.393s.449-1.454.522-1.393c.091.05-.172.634-.164,1.393C260.126-532.123,260.389-531.538,260.3-531.488Z"/><path class="ac" d="M246.045-299.458l-9.125-.1-15.181,7.9,25.951-.02Z"/><path class="v" d="M247.742-288.26l-.052-3.416-25.951.02.052,3.416Z"/><path class="ac" d="M283.23-299.458l9.125-.1,15.181,7.9-25.951-.02Z"/><path class="v" d="M281.532-288.26l.052-3.416,25.951.02-.052,3.416Z"/><path class="ab" d="M258.686-490.94s-4.754-9.583-14.56-14"/><path class="ab" d="M274.116-499.96a14.939,14.939,0,0,1,8.017-5.233"/></g></g></svg>