<svg xmlns="http://www.w3.org/2000/svg" xmlns:xlink="http://www.w3.org/1999/xlink" width="146.491" height="117.753" viewBox="0 0 146.491 117.753"><defs><style>.a{fill:#ededed;}.b{fill:#d6d6d6;}.c,.d,.h,.i,.l{stroke:#000;stroke-linecap:round;stroke-linejoin:round;}.c{stroke-width:0.25px;}.d{fill:#fbbf9e;}.e{fill:#f7996e;}.f{fill:#404041;}.g{fill:#e1e1e1;}.h{fill:#f1f1f2;}.h,.i{stroke-width:1.5px;}.i{fill:#393434;}.j,.k{mix-blend-mode:multiply;isolation:isolate;}.j{fill:url(#a);}.k{fill:url(#b);}.l{fill:#d0d2d3;}</style><linearGradient id="a" x1="0.175" y1="0.563" x2="0.933" y2="0.474" gradientUnits="objectBoundingBox"><stop offset="0" stop-color="#fff"/><stop offset="1" stop-color="#b4bebd"/></linearGradient><linearGradient id="b" x1="-122.855" y1="0.564" x2="-122.093" y2="0.474" xlink:href="#a"/></defs><g transform="translate(0.75)"><g transform="translate(43.82 0)"><path d="M1069.124,346.437c-40.886-19.1-48.37-60.629-49.664-72.969a6.461,6.461,0,0,1,3.9-6.645,23.322,23.322,0,0,0,14.12-19.713,5.327,5.327,0,0,1,5.3-4.96l54.851-.322h.03a5.367,5.367,0,0,1,5.326,4.865,23.319,23.319,0,0,0,14.331,19.57,6.48,6.48,0,0,1,4,6.61c-1.147,12.352-8.133,54-48.8,73.545a4.323,4.323,0,0,1-3.391.019Zm-26.162-98.776a28.814,28.814,0,0,1-17.436,24.23.975.975,0,0,0-.584,1c1.208,11.542,8.075,50.412,45.844,68.236,37.555-18.264,43.969-57.213,45.042-68.767a1,1,0,0,0-.622-1.012,28.809,28.809,0,0,1-17.693-24.011Zm0,0" transform="translate(-1019.424 -241.828)"/><path class="a" d="M1113.494,267.967a25.45,25.45,0,0,1-15.467-20.178,3.939,3.939,0,0,0-3.948-3.388l-25.122.146-.536,0-25.114.148a3.922,3.922,0,0,0-3.91,3.384,25.448,25.448,0,0,1-14.531,20.092,5.026,5.026,0,0,0-2.781,5.184c1.544,12.846,9.32,50.5,46.658,67.72a1.192,1.192,0,0,0,.512.111,1.233,1.233,0,0,0,.511-.116c38.3-18.214,44.9-57.784,45.974-69.4a3.655,3.655,0,0,0-2.247-3.71Zm0,0" transform="translate(-1017.886 -240.318)"/><path class="a" d="M1064.776,327.252c-26.951-14.434-34.526-41.571-36.63-54.482a1.8,1.8,0,0,1,.844-1.833,32.563,32.563,0,0,0,14.55-19.137,1.8,1.8,0,0,1,1.723-1.322l39.831-.233a1.805,1.805,0,0,1,1.741,1.3,32.553,32.553,0,0,0,14.774,18.963,1.8,1.8,0,0,1,.865,1.825c-1.952,12.932-9.209,40.156-35.989,54.908a1.79,1.79,0,0,1-1.707.01Zm0,0" transform="translate(-1014.322 -236.89)"/><path class="b" d="M1097.886,267.968a25.45,25.45,0,0,1-15.527-20.665,3.212,3.212,0,0,0-3.188-2.905l-15.28.09c0,12.129,6.915,24.691,16.025,28.532a3.7,3.7,0,0,1,2.344,3.713c-.941,10.193-6.161,42.169-33.609,62.1,1.447.781,2.937,1.533,4.484,2.245a1.21,1.21,0,0,0,1.023,0c38.3-18.214,44.9-57.784,45.975-69.4a3.655,3.655,0,0,0-2.247-3.71Zm0,0" transform="translate(-1002.277 -240.32)"/><g transform="translate(37.854 36.83)"><path class="c" d="M1067.957,266.092l-.768.263-.263-.768a.811.811,0,0,0-1.534.528l.263.766-14.68,5.044-3.069,1.055-3.069,1.055a.81.81,0,0,0-.5,1.03.812.812,0,0,1-.5,1.031.814.814,0,0,0-.5,1.031l1.055,3.069.527,1.534a.813.813,0,0,0,1.031.5.81.81,0,0,1,1.014.459l1.793,9.365a2.434,2.434,0,0,0,3.181,1.844l3.018-1.036a2.44,2.44,0,0,0,1.593-2.794l-.89-4.311,3.139-1.077,0,0,.017-.006a2.435,2.435,0,0,0,1.493-3.086l-.79-2.3,8.541-2.935a.811.811,0,0,0,.541-.66l.414-3.1,1.06-.365a.809.809,0,0,0,.5-1.03l-1.582-4.6A.809.809,0,0,0,1067.957,266.092Zm-18.971,8.233,1.451-.5.032,3.421-1.45.5Zm-3.908,2.912a2.445,2.445,0,0,0,.922-1.885l1.368-.47.031,3.419-1.748.6Zm10.881,6.7a1.622,1.622,0,1,1-1.053-3.069l.032-.011a4.01,4.01,0,0,0,1.417,2.945Zm2.805-1.821a.813.813,0,0,1-.344.955,2.391,2.391,0,0,1-1.82-2.785l1.374-.473Zm8.284-7.135-12.671,4.354a3.244,3.244,0,0,0-.492,5.92l1.062,5.146a.814.814,0,0,1-.53.931l-3.02,1.036a.809.809,0,0,1-1.06-.614c-1.931-10.088-1.806-9.461-1.834-9.542a2.439,2.439,0,0,0-2.28-1.644l-.046-.132,21.111-7.254Zm1.721-4.024-16.684,5.734-.032-3.421,15.662-5.382Z" transform="translate(-1043.282 -265.04)"/></g></g><g transform="translate(0 14.286)"><g transform="translate(23.674)"><g transform="translate(1.466)"><path class="d" d="M1032.994,250.926a21.9,21.9,0,0,0-23.859,20.165c-.759,10.16-1.472,21.152-1.484,26.694-.025,11.9,11.844,13.917,11.844,13.917s-1.449,8.133-1.84,12.5c-.789,8.8,6.951,11.9,15.767,12.43h0c8.643.52,16.756-2.286,17.268-10.929l2.156-51.669a21.907,21.907,0,0,0-19.853-23.11Z" transform="translate(-1007.651 -250.832)"/><g transform="translate(11.943 56.477)"><path class="e" d="M1015.868,290.856s9.945.473,18.008-4.43c0,0-6.845,9.823-18.7,8.581Z" transform="translate(-1015.178 -286.426)"/></g><g transform="translate(44.532 26.938)"><path class="d" d="M1036.349,268.147c.2-.086,8.208-2.3,7.832,5.828s-8.46,6.074-8.464,5.839S1036.349,268.147,1036.349,268.147Z" transform="translate(-1035.717 -267.809)"/><g transform="translate(2.617 2.68)"><path class="e" d="M1037.375,275.859c.037-.024.137.106.371.227a1.421,1.421,0,0,0,1.057.071c.873-.276,1.66-1.606,1.768-3.069a4.7,4.7,0,0,0-.3-2.045,1.637,1.637,0,0,0-1.014-1.136.721.721,0,0,0-.854.349c-.121.222-.076.387-.119.4-.024.019-.168-.144-.087-.476a.9.9,0,0,1,.343-.5,1.078,1.078,0,0,1,.793-.171,1.993,1.993,0,0,1,1.42,1.33,4.82,4.82,0,0,1,.385,2.288c-.127,1.636-1.037,3.129-2.228,3.415a1.516,1.516,0,0,1-1.285-.276C1037.38,276.057,1037.347,275.873,1037.375,275.859Z" transform="translate(-1037.367 -269.498)"/></g></g><g transform="translate(3.76 15.957)"><g transform="translate(0.703 6.845)"><g transform="translate(1.641 2.427)"><path d="M1011.5,268.244a1.7,1.7,0,0,0,1.614,1.737,1.625,1.625,0,0,0,1.772-1.507,1.7,1.7,0,0,0-1.61-1.737A1.626,1.626,0,0,0,1011.5,268.244Z" transform="translate(-1011.498 -266.732)"/></g><path d="M1010.49,266.941c.208.225,1.508-.709,3.335-.678,1.826,0,3.155.963,3.356.743.1-.1-.11-.5-.687-.934a4.662,4.662,0,0,0-2.683-.868,4.474,4.474,0,0,0-2.659.816C1010.583,266.442,1010.387,266.839,1010.49,266.941Z" transform="translate(-1010.464 -265.203)"/><g transform="translate(17.962 0.6)"><g transform="translate(1.994 2.329)"><path d="M1023.043,268.56a1.7,1.7,0,0,0,1.612,1.737,1.626,1.626,0,0,0,1.774-1.506,1.7,1.7,0,0,0-1.612-1.739A1.626,1.626,0,0,0,1023.043,268.56Z" transform="translate(-1023.041 -267.048)"/></g><path d="M1021.809,267.319c.208.224,1.511-.709,3.337-.678,1.825,0,3.154.965,3.356.743.1-.1-.108-.5-.689-.935a4.661,4.661,0,0,0-2.683-.868,4.472,4.472,0,0,0-2.658.816C1021.9,266.82,1021.708,267.217,1021.809,267.319Z" transform="translate(-1021.784 -265.581)"/></g><g transform="translate(6.521 0.578)"><path d="M1019.213,280.786a12.022,12.022,0,0,0-2.963-.579c-.465-.054-.906-.154-.981-.473a2.383,2.383,0,0,1,.332-1.379q.683-1.685,1.433-3.535c1.99-5.033,3.437-9.173,3.234-9.252s-1.982,3.938-3.971,8.971c-.479,1.241-.938,2.423-1.374,3.556a2.7,2.7,0,0,0-.268,1.828,1.17,1.17,0,0,0,.758.693,3.194,3.194,0,0,0,.79.122A11.92,11.92,0,0,0,1019.213,280.786Z" transform="translate(-1014.573 -265.567)"/></g></g><g transform="translate(16.568 0.949)"><path d="M1020.476,263.1c.212.484,2.018.13,4.175.248,2.161.073,3.927.587,4.183.122.113-.221-.219-.666-.949-1.1a7.27,7.27,0,0,0-6.366-.282C1020.754,262.455,1020.384,262.871,1020.476,263.1Z" transform="translate(-1020.462 -261.487)"/></g><path d="M1010.066,262.738c.316.419,1.58.006,3.1.008,1.514-.052,2.793.319,3.093-.111.133-.209-.062-.627-.617-1.028a4.479,4.479,0,0,0-4.987.083C1010.109,262.108,1009.926,262.533,1010.066,262.738Z" transform="translate(-1010.021 -260.889)"/></g></g><g transform="translate(14.102 43.506)"><path d="M1022.468,278.751c.021.365-1.5.743-3.391.844s-3.443-.111-3.462-.474,1.5-.743,3.391-.844S1022.449,278.388,1022.468,278.751Z" transform="translate(-1015.615 -278.251)"/></g><g transform="translate(0 20.335)"><g transform="translate(30.184 1.365)"><path d="M1041.988,270.436a8.236,8.236,0,0,1-2.49-.544c-1.506-.449-3.541-1.206-5.751-2.1l-5.658-2.275a12.019,12.019,0,0,1-2.337-.985,8.237,8.237,0,0,1,2.49.544c1.506.449,3.541,1.206,5.753,2.1l5.657,2.275A12.012,12.012,0,0,1,1041.988,270.436Z" transform="translate(-1025.751 -264.507)"/></g><path d="M1019.33,263.918a2.428,2.428,0,0,1,2.126,2.026,10.1,10.1,0,0,1-7.4,11.334,5.906,5.906,0,0,1-4.64-.436c-1.893-1.2-2.477-3.67-2.642-5.9a7.566,7.566,0,0,1,.819-4.741c1.146-1.744,3.389-2.415,5.472-2.529s6.263.249,6.263.249Z" transform="translate(-1006.727 -263.647)"/><g transform="translate(19.785 0.433)"><path d="M1021.571,264.053a2.455,2.455,0,0,0-2.208,1.985,10.218,10.218,0,0,0,7.151,11.675,5.975,5.975,0,0,0,4.7-.306c1.948-1.154,2.61-3.638,2.842-5.89a7.64,7.64,0,0,0-.69-4.817c-1.106-1.8-3.356-2.542-5.458-2.716s-6.339.07-6.339.07Z" transform="translate(-1019.197 -263.92)"/></g><g transform="translate(10.145 0.405)"><path d="M1027.057,264.4c0,.182-3.127.268-6.975.19s-6.964-.286-6.961-.468,3.126-.268,6.975-.192S1027.06,264.218,1027.057,264.4Z" transform="translate(-1013.121 -263.902)"/></g></g><g transform="translate(46.802 33.16)"><g transform="translate(0 6.164)"><path class="f" d="M1036.266,311.109c-.011,0-.022-.067-.035-.2a2.6,2.6,0,0,1,.024-.586,6.2,6.2,0,0,1,.784-2.1,14.077,14.077,0,0,0,1.429-3.167,15.906,15.906,0,0,0,.54-4.552c0-1.722-.217-3.572-.343-5.638a2.878,2.878,0,0,1,.394-1.641,1.56,1.56,0,0,1,1.663-.766,1.353,1.353,0,0,1,.809.619,1.04,1.04,0,0,1-.024,1.1,1.6,1.6,0,0,1-1.917.371,2.881,2.881,0,0,1-1.512-3.316,2.949,2.949,0,0,1,1.127-1.642,2.148,2.148,0,0,1,1-.394,1.318,1.318,0,0,1,1.119.378,1.066,1.066,0,0,1-.789,1.855,2.611,2.611,0,0,1-2.634-2.891,2.587,2.587,0,0,1,1.233-1.8,2.436,2.436,0,0,1,1.834-.328,1.778,1.778,0,0,1,.855.5,1.11,1.11,0,0,1,.292,1.058,1.149,1.149,0,0,1-.769.755,2.142,2.142,0,0,1-.944.081,3.451,3.451,0,0,1-1.593-.709,2.81,2.81,0,0,1-1.037-3.118,2.472,2.472,0,0,1,2.735-1.62,1.526,1.526,0,0,1,1.215,1.231,1.079,1.079,0,0,1-.346.9,1.4,1.4,0,0,1-.82.36,2.177,2.177,0,0,1-1.487-.551,3.343,3.343,0,0,1-.941-1.147,2.141,2.141,0,0,1,.587-2.71,1.532,1.532,0,0,1,2.369.93l.029.176-.152.083a2.233,2.233,0,0,1-3.077-1.1,1.89,1.89,0,0,1,.136-1.637,2.334,2.334,0,0,1,1.144-1.009,1.86,1.86,0,0,1,1.438-.009,1.062,1.062,0,0,1,.7,1.161.733.733,0,0,1-.46.552.9.9,0,0,1-.659-.035,1.241,1.241,0,0,1-.677-.892,10.068,10.068,0,0,1-.035-3.012,3.723,3.723,0,0,1,.224-1.027,15.085,15.085,0,0,0,.095,3.96.941.941,0,0,0,.519.666.431.431,0,0,0,.641-.284c.132-.652-.924-1.055-1.63-.7a1.69,1.69,0,0,0-1,2.085,1.753,1.753,0,0,0,2.369.835l-.124.259a1,1,0,0,0-1.537-.547,1.578,1.578,0,0,0-.379,2,2.357,2.357,0,0,0,1.85,1.35c.349-.03.662-.311.611-.6a.93.93,0,0,0-.747-.685,1.854,1.854,0,0,0-1.994,1.238,2.175,2.175,0,0,0,.844,2.383,2.822,2.822,0,0,0,1.276.57c.435.067.945-.089.993-.367.1-.257-.262-.644-.679-.741a1.794,1.794,0,0,0-1.323.252,1.939,1.939,0,0,0-.927,1.333,1.859,1.859,0,0,0,.506,1.509,1.878,1.878,0,0,0,1.434.633c.547-.014.659-.4.357-.762-.254-.3-.863-.209-1.273.1a2.328,2.328,0,0,0-.888,1.284,2.277,2.277,0,0,0,1.141,2.591c.417.187,1.008.138,1.185-.14.216-.276-.052-.72-.446-.827a1.006,1.006,0,0,0-1.036.517,2.348,2.348,0,0,0-.317,1.326c.1,1.988.294,3.906.262,5.642a15.945,15.945,0,0,1-.652,4.66,13.639,13.639,0,0,1-1.558,3.184,6.778,6.778,0,0,0-.879,2C1036.281,310.838,1036.3,311.108,1036.266,311.109Z" transform="translate(-1036.224 -275.615)"/></g><g transform="translate(1.016)"><path class="f" d="M1040.563,274.492a4.415,4.415,0,0,0-.539-1.75,2.024,2.024,0,0,0-1.469-1.006,1.607,1.607,0,0,0-1.612,1.027,1.655,1.655,0,0,0,.6,1.8l.035.029.013.011-.006-.006c.049.033.1.067.141.092.211.135.511.151.725.282a1.492,1.492,0,0,1,.555,1.357,13.418,13.418,0,0,0-.121,1.531c.027.371.238.8.611.812.324.006.552-.311.685-.6A6.543,6.543,0,0,0,1040.563,274.492Z" transform="translate(-1036.864 -271.73)"/></g></g><g transform="translate(1.014 22.353)"><path class="g" d="M1007.763,270.21c-.159.078-.711-1.317-.151-2.975.543-1.666,1.818-2.453,1.9-2.3.127.146-.806,1.047-1.271,2.5C1007.74,268.889,1007.95,270.167,1007.763,270.21Z" transform="translate(-1007.366 -264.92)"/></g><g transform="translate(21.117 22.801)"><path class="g" d="M1021,270.346c-.135.111-.971-.966-.963-2.567s.828-2.68.963-2.569c.168.094-.318,1.169-.3,2.569C1020.682,269.177,1021.167,270.252,1021,270.346Z" transform="translate(-1020.036 -265.202)"/></g></g><path class="h" d="M1043.911,326.587l-.24-17.36-13.373-12.44s-21.908,1.336-30.756,8.678c-4.441,3.684-6.448,15.943-7.427,21.122Z" transform="translate(-991.627 -223.87)"/><path class="i" d="M1032.495,326.36l-7.781-29.186-4.843.516c-7.027,1.1-15.805,3.208-20.606,7.191-4.362,3.619-6.453,16.313-7.458,21.479Z" transform="translate(-991.807 -223.643)"/><path class="j" d="M1015.694,326.36h8.473l-7.416-29.186s-5.1.44-7.105.812-3.456.673-3.456.673l4.335,26.209Z" transform="translate(-983.369 -223.643)"/><path class="h" d="M1076.758,326.587c-.965-5.052-2.678-16.824-7.021-20.426-8.847-7.342-31.275-9.374-31.275-9.374l-13.854,12.44.24,17.36Z" transform="translate(-972.563 -223.87)"/><path class="i" d="M1072.609,326.192c-1.038-5.1-3.129-17.512-7.365-21.027-4.8-3.983-13.579-6.093-20.607-7.189l-4.841-.516-7.634,28.732Z" transform="translate(-968.13 -223.475)"/><path class="k" d="M1041.986,326.192l3.6-1.039,4.335-26.209s-1.45-.3-3.456-.673-7.1-.811-7.1-.811l-7.272,28.732Z" transform="translate(-968.173 -223.475)"/><path d="M1033.194,321.584l-3.022-17.8H1023.4l-2.384,17.8Z" transform="translate(-974.668 -219.768)"/><path d="M1023.193,300.687h7.261a1.82,1.82,0,0,1,1.958,2.1c-.744,3.046-2.477,7.711-5.583,7.711s-4.849-4.665-5.593-7.711A1.82,1.82,0,0,1,1023.193,300.687Z" transform="translate(-974.568 -221.582)"/><path class="l" d="M1015.637,292.156l-2.765,8.234,9.66,11.632,8.837-6.382Z" transform="translate(-979.449 -226.587)"/><path class="l" d="M1040.758,291.633l2.634,8.224-8.957,12.471-9.906-6.382Z" transform="translate(-972.609 -226.894)"/></g></g></svg>