<svg xmlns="http://www.w3.org/2000/svg" width="149.838" height="118.947" viewBox="0 0 149.838 118.947"><defs><style>.a{fill:#ededed;}.b{fill:#d0d2d3;}.c,.k{fill:none;}.c,.f,.j,.k,.l{stroke:#000;stroke-linecap:round;stroke-linejoin:round;}.c{stroke-width:2px;}.d{fill:#d6d6d6;}.e{fill:#fff;}.f{fill:#fbbf9e;}.g{fill:#f7996e;}.h{fill:#404041;}.i{fill:#e1e1e1;}.j,.l{fill:#231f20;}.j,.k{stroke-width:1.5px;}</style></defs><g transform="translate(0.75)"><g transform="translate(44.845 0)"><path d="M489.589,542.887c-41.818-19.533-49.473-62.012-50.794-74.631a6.607,6.607,0,0,1,3.986-6.8A23.851,23.851,0,0,0,457.223,441.3a5.449,5.449,0,0,1,5.424-5.075l56.1-.329h.031a5.491,5.491,0,0,1,5.45,4.976,23.846,23.846,0,0,0,14.656,20.016,6.629,6.629,0,0,1,4.088,6.761c-1.173,12.636-8.319,55.228-49.915,75.222a4.415,4.415,0,0,1-3.468.019ZM462.832,441.859A29.467,29.467,0,0,1,445,466.642a1,1,0,0,0-.6,1.027c1.235,11.8,8.259,51.562,46.89,69.792,38.412-18.679,44.971-58.516,46.068-70.335a1.023,1.023,0,0,0-.636-1.035,29.464,29.464,0,0,1-18.1-24.559Zm0,0" transform="translate(-438.758 -435.893)"/><path class="a" d="M534.912,462.57a26.033,26.033,0,0,1-15.82-20.638,4.03,4.03,0,0,0-4.038-3.466l-25.695.151-.549,0-25.687.151a4.013,4.013,0,0,0-4,3.462,26.035,26.035,0,0,1-14.861,20.551,5.136,5.136,0,0,0-2.847,5.3c1.579,13.14,9.534,51.649,47.722,69.266a1.241,1.241,0,0,0,.524.112,1.263,1.263,0,0,0,.522-.118c39.17-18.627,45.921-59.1,47.023-70.979a3.733,3.733,0,0,0-2.3-3.793Zm0,0" transform="translate(-437.125 -434.29)"/><path class="a" d="M484.945,523.074c-27.566-14.765-35.314-42.519-37.466-55.725a1.84,1.84,0,0,1,.863-1.876A33.293,33.293,0,0,0,463.224,445.9a1.84,1.84,0,0,1,1.762-1.352l40.741-.24a1.846,1.846,0,0,1,1.779,1.332,33.286,33.286,0,0,0,15.112,19.395,1.842,1.842,0,0,1,.883,1.868c-1.995,13.225-9.419,41.07-36.81,56.158a1.836,1.836,0,0,1-1.746.011Zm0,0" transform="translate(-433.341 -430.65)"/><g transform="translate(37.374 28.329)"><path class="b" d="M466.217,456.917a16.527,16.527,0,0,0-1.756-2.481c-1.618.552-2.483,4.8-1.871,11.891.323,5.474,1.957,6.5,1.957,6.5Z" transform="translate(-461.411 -452.673)"/><path class="b" d="M479.048,457.121a14.842,14.842,0,0,1,1.748-3.012c1.618.552,2.491,5.331,1.881,12.421-.325,5.474-1.959,6.5-1.959,6.5Z" transform="translate(-451.037 -452.876)"/><path class="c" d="M465.74,477.551a23.692,23.692,0,0,0,10.5,2.389,20.756,20.756,0,0,0,10.068-2.389" transform="translate(-459.327 -438.275)"/><path class="a" d="M466.76,454.866a14.314,14.314,0,0,1,4.766,6.053,14.043,14.043,0,0,1,1.576,2.295,30.4,30.4,0,0,1,5.209-.162c1.423.24,4.26.32,4.26.32s2.5-5.776,4.523-7.358,2.413-1.577,2.413-1.577-4.135,7-2.029,12.694a26.229,26.229,0,0,0,4.6,5.935,38.038,38.038,0,0,0-.435,5.3c.118,1.464,1.939,3.877,1.5,5.7s-3.561,7.279-11,7.556-11.2-.273-13.83-1.61-5.992-4.325-5.872-6.026a47.013,47.013,0,0,1,1.7-6.527c.039-.159-.99-3.731.118-4.555s4.549-5.969,4.667-8.619S466.76,454.866,466.76,454.866Z" transform="translate(-461.379 -452.673)"/><path class="d" d="M469.517,458.593a11.917,11.917,0,0,1-2.582,12.366c-1.246,1.365-1.662,10.865,5.617,14.547,7.225,3.217,16.138-.148,18.356-1.228-2.254,2.493-9.827,6.078-16.751,4.821s-11.435-3.661-11.642-6.954a27.949,27.949,0,0,1,1.423-6.972s-.178-4.541.949-5.609A19.245,19.245,0,0,0,469.517,458.593Z" transform="translate(-461.336 -450.083)"/><path d="M467.01,476.292c.118.855.881,1.42,1.938,2.2.281.209.573.424.88.665a5.193,5.193,0,0,0,2.379,1.117v.532a2.809,2.809,0,0,0,5.618,0v-.531a5.211,5.211,0,0,0,2.381-1.118c.307-.242.6-.456.88-.665,1.055-.782,1.819-1.347,1.936-2.2a5.879,5.879,0,0,0-.331-2.7,7.209,7.209,0,0,0-3.233-3.728l-.011-.006c-1.365-.787-2.056-1.727-2.056-2.793a2.373,2.373,0,0,0-4.747,0c0,1.066-.693,2.006-2.058,2.793l-.01.006a7.2,7.2,0,0,0-3.234,3.728,5.9,5.9,0,0,0-.331,2.7Zm8.006,5.751a1.237,1.237,0,0,1-1.235-1.235v-.625a3.891,3.891,0,0,0,1.235-.613,3.96,3.96,0,0,0,1.235.613v.625a1.235,1.235,0,0,1-1.235,1.235Zm0-6.527a1.636,1.636,0,0,1-1.6-1.35c0-.5,1-.636,1.6-.636s1.6.135,1.6.636a1.637,1.637,0,0,1-1.6,1.35Zm-3.637-4.293c2.345-1.357,2.838-3.007,2.838-4.155a.8.8,0,0,1,1.6,0c0,1.147.493,2.8,2.838,4.155,3.122,1.871,2.85,4.554,2.809,4.849-.057.224-.785.763-1.316,1.157-.276.2-.589.437-.914.691-1.269,1-2.421,1.086-3.431.268v-1.2a3.146,3.146,0,0,0,2.387-2.825c0-1.07-.834-2.21-3.174-2.21s-3.173,1.141-3.173,2.21a3.146,3.146,0,0,0,2.386,2.825v1.2c-1.008.818-2.16.729-3.429-.268-.324-.255-.638-.487-.915-.691a5.447,5.447,0,0,1-1.315-1.152c-.04-.3-.313-2.983,2.809-4.854Zm0,0" transform="translate(-458.559 -446.281)"/><path d="M492.227,453.615c-1.238-.643-2.717-.117-4.395,1.56a38.467,38.467,0,0,0-5.515,7.978,9.636,9.636,0,0,0-2.379-.08c-.493.021-1.053.045-1.693.045s-1.2-.024-1.693-.045a9.626,9.626,0,0,0-2.378.08,38.419,38.419,0,0,0-5.519-7.981c-1.676-1.676-3.155-2.2-4.395-1.555-2.264,1.177-2.58,6.026-2.447,9.888.143,4.185.876,8.551,1.762,10.588a6.781,6.781,0,0,0,.079,1.759,7.431,7.431,0,0,1-.018,2.814,15.431,15.431,0,0,1-.961,2.722,5.228,5.228,0,0,0-.622,3.567,8.475,8.475,0,0,0,1.006,2.429.787.787,0,0,0,1.344-.821,6.878,6.878,0,0,1-.82-1.977,3.829,3.829,0,0,1,.536-2.571,17.376,17.376,0,0,0,1.048-2.98,8.866,8.866,0,0,0,.045-3.39c-.14-1.065-.164-1.53.162-1.844l.151-.143a14.383,14.383,0,0,0,4.208-6.44,11.525,11.525,0,0,0,.08-6.058,16.16,16.16,0,0,0-2.012-4.607,38.874,38.874,0,0,1,4.927,7.244,6.023,6.023,0,0,0-1.134,1.112.788.788,0,0,0,1.227.988c1.1-1.362,1.745-1.334,3.663-1.253.51.021,1.087.047,1.759.047s1.25-.026,1.761-.047c1.918-.081,2.564-.109,3.663,1.253a.787.787,0,0,0,1.225-.988,6.026,6.026,0,0,0-1.133-1.112,38.791,38.791,0,0,1,4.927-7.244,16.194,16.194,0,0,0-2.014,4.607,11.525,11.525,0,0,0,.081,6.058,14.383,14.383,0,0,0,4.206,6.44c.058.055.11.1.153.143.325.313.3.779.161,1.844a8.869,8.869,0,0,0,.047,3.39,17.092,17.092,0,0,0,1.048,2.98,3.818,3.818,0,0,1,.534,2.571c-.711,2.958-3.215,4.685-5.192,5.615a22.826,22.826,0,0,1-9.468,1.881,23.738,23.738,0,0,1-8.694-1.543.787.787,0,0,0-.591,1.459,24.987,24.987,0,0,0,9.284,1.659,24.433,24.433,0,0,0,10.138-2.03c3.281-1.542,5.373-3.849,6.052-6.672a5.228,5.228,0,0,0-.62-3.567,15.562,15.562,0,0,1-.962-2.722,7.465,7.465,0,0,1-.016-2.814,6.786,6.786,0,0,0,.08-1.759c.888-2.04,1.62-6.417,1.762-10.6.131-3.858-.187-8.7-2.452-9.874Zm-27.6,18.73a40.785,40.785,0,0,1-1.241-8.895c-.178-5.192.639-7.691,1.451-8.337,5.091,6.263,5.02,12.209-.209,17.232Zm28.478-8.91a40.771,40.771,0,0,1-1.241,8.91c-5.231-5.023-5.3-10.969-.209-17.232.811.646,1.628,3.14,1.451,8.322Zm0,0" transform="translate(-461.788 -453.349)"/><path d="M476.421,466.6a.787.787,0,0,0-.787-.787h0a.787.787,0,1,0,.787.787Zm0,0" transform="translate(-453.654 -445.586)"/><path d="M469.617,466.6a.788.788,0,0,0-.789-.787h0a.787.787,0,1,0,.789.787Zm0,0" transform="translate(-457.893 -445.586)"/><path d="M464.478,475.177" transform="translate(-460.113 -439.754)"/><path d="M463.85,473.757a10.309,10.309,0,0,0,1.332,1.61,12.145,12.145,0,0,0,1.641,1.384,11.867,11.867,0,0,0,1.85,1.084,13.13,13.13,0,0,0,2,.755l.036.011a.795.795,0,0,1-.463,1.521,14.483,14.483,0,0,1-2.264-.854,13.371,13.371,0,0,1-2.085-1.224,13.755,13.755,0,0,1-1.844-1.561,11.571,11.571,0,0,1-1.566-1.912.792.792,0,0,1,1.331-.86Z" transform="translate(-461.429 -440.892)"/><path d="M463.564,470.715a9.772,9.772,0,0,0,1.965-14.75C462.936,456.888,463.564,470.715,463.564,470.715Z" transform="translate(-460.724 -451.72)"/><path d="M482.053,470.715a9.772,9.772,0,0,1-1.965-14.75C482.681,456.888,482.053,470.715,482.053,470.715Z" transform="translate(-451.95 -451.72)"/><path class="e" d="M473.2,477.812l.305.618a.321.321,0,0,0,.245.179l.683.1a.326.326,0,0,1,.18.557l-.493.482a.33.33,0,0,0-.094.289l.117.68a.326.326,0,0,1-.474.344l-.61-.321a.333.333,0,0,0-.3,0l-.612.321a.325.325,0,0,1-.472-.344l.115-.68a.324.324,0,0,0-.093-.289l-.495-.482a.327.327,0,0,1,.182-.557l.682-.1a.321.321,0,0,0,.247-.179l.305-.618A.327.327,0,0,1,473.2,477.812Z" transform="translate(-455.99 -438.226)"/></g><path class="d" d="M518.342,462.572a26.037,26.037,0,0,1-15.881-21.136,3.283,3.283,0,0,0-3.26-2.971l-15.628.091c0,12.405,7.072,25.253,16.391,29.184a3.775,3.775,0,0,1,2.4,3.8c-.962,10.427-6.3,43.131-34.376,63.518,1.48.8,3,1.569,4.586,2.3a1.246,1.246,0,0,0,1.047-.006c39.17-18.627,45.921-59.1,47.023-70.98a3.733,3.733,0,0,0-2.3-3.793Zm0,0" transform="translate(-420.554 -434.292)"/></g><g transform="translate(0 13.138)"><g transform="translate(23.714)"><g transform="translate(1.499)"><path class="f" d="M452.582,444.085a22.4,22.4,0,0,0-24.4,20.623c-.777,10.393-1.508,21.634-1.519,27.3-.026,12.167,12.115,14.234,12.115,14.234s-1.482,8.317-1.883,12.785c-.807,9,7.111,12.17,16.128,12.713h0c8.84.532,17.136-2.339,17.662-11.178l2.2-52.845a22.405,22.405,0,0,0-20.305-23.637Z" transform="translate(-426.661 -443.989)"/><g transform="translate(12.215 57.765)"><path class="g" d="M434.894,484.112s10.174.485,18.418-4.529c0,0-7,10.046-19.124,8.775Z" transform="translate(-434.188 -479.583)"/></g><g transform="translate(45.547 27.551)"><path class="f" d="M455.375,461.31c.208-.086,8.394-2.352,8.009,5.962s-8.652,6.211-8.656,5.972S455.375,461.31,455.375,461.31Z" transform="translate(-454.727 -460.965)"/><g transform="translate(2.677 2.741)"><path class="g" d="M456.385,469.161c.037-.026.141.107.38.23a1.446,1.446,0,0,0,1.081.073c.894-.282,1.7-1.642,1.808-3.139a4.76,4.76,0,0,0-.31-2.092,1.674,1.674,0,0,0-1.037-1.162.739.739,0,0,0-.873.357c-.122.227-.076.4-.122.407-.024.021-.172-.146-.089-.487a.919.919,0,0,1,.352-.506,1.088,1.088,0,0,1,.81-.174,2.033,2.033,0,0,1,1.452,1.358,4.913,4.913,0,0,1,.4,2.34c-.131,1.673-1.061,3.2-2.28,3.493a1.558,1.558,0,0,1-1.315-.281C456.392,469.363,456.356,469.174,456.385,469.161Z" transform="translate(-456.377 -462.655)"/></g></g><g transform="translate(3.846 16.321)"><g transform="translate(0.719 7)"><g transform="translate(1.679 2.482)"><path d="M430.511,461.434a1.736,1.736,0,0,0,1.649,1.777,1.662,1.662,0,0,0,1.814-1.54,1.739,1.739,0,0,0-1.649-1.779A1.663,1.663,0,0,0,430.511,461.434Z" transform="translate(-430.509 -459.888)"/></g><path d="M429.5,460.136c.213.23,1.542-.725,3.413-.693,1.866,0,3.225.987,3.431.761.1-.1-.112-.513-.7-.956a4.768,4.768,0,0,0-2.744-.889,4.582,4.582,0,0,0-2.718.834C429.6,459.627,429.4,460.034,429.5,460.136Z" transform="translate(-429.474 -458.359)"/><g transform="translate(18.371 0.613)"><g transform="translate(2.04 2.382)"><path d="M442.053,461.75a1.737,1.737,0,0,0,1.649,1.777,1.662,1.662,0,0,0,1.814-1.54,1.74,1.74,0,0,0-1.649-1.779A1.663,1.663,0,0,0,442.053,461.75Z" transform="translate(-442.051 -460.204)"/></g><path d="M440.82,460.514c.213.23,1.545-.725,3.413-.693,1.868,0,3.226.987,3.432.759.1-.1-.11-.511-.7-.954a4.751,4.751,0,0,0-2.743-.889,4.576,4.576,0,0,0-2.72.834C440.919,460,440.716,460.412,440.82,460.514Z" transform="translate(-440.794 -458.737)"/></g><g transform="translate(6.67 0.593)"><path d="M438.328,474.289a12.439,12.439,0,0,0-3.028-.591c-.477-.057-.928-.159-1-.485a2.416,2.416,0,0,1,.339-1.41q.7-1.723,1.464-3.614c2.035-5.148,3.515-9.383,3.307-9.463s-2.027,4.026-4.062,9.174q-.735,1.9-1.4,3.637a2.762,2.762,0,0,0-.276,1.87,1.2,1.2,0,0,0,.776.709,3.189,3.189,0,0,0,.808.125A12.191,12.191,0,0,0,438.328,474.289Z" transform="translate(-433.584 -458.724)"/></g></g><g transform="translate(16.945 0.969)"><path d="M439.486,456.3c.217.493,2.066.131,4.271.251,2.209.075,4.015.6,4.276.127.115-.227-.224-.683-.97-1.128a7.436,7.436,0,0,0-6.511-.289C439.77,455.633,439.392,456.058,439.486,456.3Z" transform="translate(-439.472 -454.643)"/></g><path d="M429.076,455.935c.323.428,1.616.006,3.166.008,1.55-.052,2.856.326,3.165-.114.135-.213-.065-.641-.633-1.052a4.589,4.589,0,0,0-5.1.084C429.12,455.291,428.935,455.726,429.076,455.935Z" transform="translate(-429.031 -454.046)"/></g></g><g transform="translate(14.424 44.497)"><path d="M441.636,471.92c.02.372-1.534.758-3.47.862s-3.522-.114-3.541-.485,1.532-.758,3.47-.863S441.615,471.547,441.636,471.92Z" transform="translate(-434.625 -471.407)"/></g><g transform="translate(0 20.798)"><g transform="translate(30.873 1.395)"><path d="M461.368,463.729a8.475,8.475,0,0,1-2.545-.557c-1.542-.461-3.622-1.235-5.885-2.154l-5.787-2.327a12.358,12.358,0,0,1-2.391-1.008,8.42,8.42,0,0,1,2.546.557c1.542.461,3.622,1.233,5.884,2.154,2.118.85,4.039,1.624,5.786,2.327A12.289,12.289,0,0,1,461.368,463.729Z" transform="translate(-444.761 -457.663)"/></g><path d="M438.627,457.081a2.485,2.485,0,0,1,2.176,2.071,10.337,10.337,0,0,1-7.569,11.592,6.04,6.04,0,0,1-4.745-.446c-1.936-1.224-2.532-3.752-2.7-6.035a7.736,7.736,0,0,1,.837-4.849c1.172-1.783,3.466-2.472,5.6-2.587a63.854,63.854,0,0,1,6.405.255Z" transform="translate(-425.737 -456.804)"/><g transform="translate(20.237 0.442)"><path d="M440.635,457.212a2.512,2.512,0,0,0-2.259,2.032,10.455,10.455,0,0,0,7.314,11.94,6.118,6.118,0,0,0,4.81-.312c1.993-1.181,2.67-3.721,2.907-6.026a7.825,7.825,0,0,0-.7-4.927c-1.133-1.837-3.434-2.6-5.584-2.778s-6.483.071-6.483.071Z" transform="translate(-438.207 -457.076)"/></g><g transform="translate(10.377 0.414)"><path d="M446.385,457.567c0,.187-3.2.274-7.132.2s-7.124-.294-7.121-.48,3.2-.274,7.134-.195S446.388,457.38,446.385,457.567Z" transform="translate(-432.131 -457.059)"/></g></g><g transform="translate(47.869 33.916)"><g transform="translate(0 6.303)"><path class="h" d="M455.276,505.075c-.011,0-.023-.066-.036-.2a2.806,2.806,0,0,1,.024-.6,6.4,6.4,0,0,1,.8-2.15,14.4,14.4,0,0,0,1.461-3.239,16.264,16.264,0,0,0,.552-4.656c0-1.761-.221-3.653-.351-5.766a2.944,2.944,0,0,1,.4-1.678,1.6,1.6,0,0,1,1.7-.784,1.391,1.391,0,0,1,.829.633,1.07,1.07,0,0,1-.024,1.121,1.638,1.638,0,0,1-1.96.38,2.945,2.945,0,0,1-1.548-3.392,3.027,3.027,0,0,1,1.154-1.68,2.185,2.185,0,0,1,1.019-.4,1.347,1.347,0,0,1,1.143.386,1.089,1.089,0,0,1-.807,1.9,2.67,2.67,0,0,1-2.694-2.955,2.645,2.645,0,0,1,1.261-1.84,2.493,2.493,0,0,1,1.876-.336,1.834,1.834,0,0,1,.875.513,1.129,1.129,0,0,1,.3,1.081,1.172,1.172,0,0,1-.787.772,2.166,2.166,0,0,1-.966.083,3.536,3.536,0,0,1-1.629-.725,2.871,2.871,0,0,1-1.06-3.187,2.523,2.523,0,0,1,2.8-1.657,1.555,1.555,0,0,1,1.243,1.258,1.1,1.1,0,0,1-.354.919,1.428,1.428,0,0,1-.839.368,2.228,2.228,0,0,1-1.521-.563,3.408,3.408,0,0,1-.962-1.173,2.188,2.188,0,0,1,.6-2.772,1.566,1.566,0,0,1,2.421.951l.029.18-.156.084a2.284,2.284,0,0,1-3.147-1.13,1.938,1.938,0,0,1,.14-1.675,2.4,2.4,0,0,1,1.17-1.032,1.9,1.9,0,0,1,1.47-.01,1.085,1.085,0,0,1,.721,1.188.75.75,0,0,1-.471.565.911.911,0,0,1-.674-.036,1.278,1.278,0,0,1-.693-.912,10.308,10.308,0,0,1-.036-3.08,3.809,3.809,0,0,1,.23-1.05,15.273,15.273,0,0,0,.1,4.051.951.951,0,0,0,.531.682.439.439,0,0,0,.654-.289c.136-.669-.943-1.081-1.665-.714a1.726,1.726,0,0,0-1.026,2.132,1.791,1.791,0,0,0,2.423.854l-.127.265a1.028,1.028,0,0,0-1.573-.56,1.613,1.613,0,0,0-.389,2.048,2.411,2.411,0,0,0,1.894,1.381c.355-.031.677-.318.625-.607a.958.958,0,0,0-.766-.7,1.893,1.893,0,0,0-2.038,1.266,2.223,2.223,0,0,0,.862,2.438,2.893,2.893,0,0,0,1.306.583c.443.068.966-.089,1.014-.375.107-.263-.268-.657-.695-.756a1.821,1.821,0,0,0-1.353.258,1.977,1.977,0,0,0-.948,1.362,1.9,1.9,0,0,0,.518,1.543,1.931,1.931,0,0,0,1.467.649c.562-.015.674-.407.367-.779-.26-.305-.883-.216-1.3.1a2.373,2.373,0,0,0-.907,1.311,2.329,2.329,0,0,0,1.165,2.652c.428.19,1.032.141,1.214-.144.219-.282-.055-.735-.458-.845a1.029,1.029,0,0,0-1.06.531,2.4,2.4,0,0,0-.325,1.357c.1,2.032.3,3.994.268,5.771a16.237,16.237,0,0,1-.667,4.765,13.93,13.93,0,0,1-1.594,3.257,7,7,0,0,0-.9,2.046C455.293,504.8,455.309,505.075,455.276,505.075Z" transform="translate(-455.234 -468.771)"/></g><g transform="translate(1.04)"><path class="h" d="M459.657,467.711a4.521,4.521,0,0,0-.552-1.79,2.065,2.065,0,0,0-1.5-1.027,1.642,1.642,0,0,0-1.649,1.048,1.7,1.7,0,0,0,.613,1.84l.034.029.013.01,0-.006c.049.036.1.068.143.1.217.136.524.154.742.289a1.528,1.528,0,0,1,.57,1.386,13.8,13.8,0,0,0-.125,1.566c.029.38.245.823.626.831.329.008.563-.318.7-.618A6.7,6.7,0,0,0,459.657,467.711Z" transform="translate(-455.874 -464.887)"/></g></g><g transform="translate(1.038 22.862)"><path class="i" d="M426.781,463.487c-.161.08-.727-1.345-.154-3.043.555-1.7,1.86-2.507,1.941-2.348.13.149-.824,1.071-1.3,2.561C426.759,462.135,426.974,463.445,426.781,463.487Z" transform="translate(-426.377 -458.076)"/></g><g transform="translate(21.599 23.322)"><path class="i" d="M440.031,463.619c-.138.114-.992-.988-.985-2.626s.847-2.739.985-2.626c.172.094-.325,1.2-.31,2.626C439.707,462.423,440.2,463.523,440.031,463.619Z" transform="translate(-439.046 -458.359)"/></g></g><path class="j" d="M464.048,496.733l-13.869-6.79s-22.407,1.366-31.458,8.875c-4.542,3.77-6.6,16.307-7.6,21.605H464.1" transform="translate(-411.125 -415.365)"/><path class="j" d="M443.79,520.424h53.094c-.987-5.169-2.739-17.207-7.18-20.893-9.051-7.509-31.99-9.588-31.99-9.588l-13.978,6.79" transform="translate(-390.813 -415.365)"/><line class="k" y2="22.267" transform="translate(52.604 82.151)"/><rect class="l" width="17.964" height="3.103" transform="translate(70.715 95.921)"/><path class="j" d="M434.71,485.312l-2.828,8.422,9.88,11.9L450.8,499.1Z" transform="translate(-398.196 -418.249)"/><path class="j" d="M460.138,484.79l2.694,8.411-9.161,12.755-10.132-6.527Z" transform="translate(-390.935 -418.575)"/></g></g></svg>