<svg xmlns="http://www.w3.org/2000/svg" width="147.141" height="117.753" viewBox="0 0 147.141 117.753"><defs><style>.a{fill:#ededed;}.b{fill:#d6d6d6;}.c,.d,.h,.j,.k,.l{stroke:#000;}.c,.d,.h,.k,.l{stroke-linecap:round;stroke-linejoin:round;}.c{stroke-width:0.25px;}.d{fill:#fbbf9e;}.e{fill:#f7996e;}.f{fill:#404041;}.g{fill:#e1e1e1;}.h{fill:#fff;}.h,.l{stroke-width:1.5px;}.i{fill:#98939e;}.j{fill:#2d5872;stroke-miterlimit:10;}.k,.l{fill:#d0d2d3;}</style></defs><g transform="translate(0.75)"><g transform="translate(43.646 0)"><path d="M477.4,175.953c-41.217-19.254-48.762-61.12-50.066-73.559a6.512,6.512,0,0,1,3.93-6.7A23.51,23.51,0,0,0,445.5,75.822a5.369,5.369,0,0,1,5.346-5l55.294-.325h.03a5.41,5.41,0,0,1,5.37,4.9A23.508,23.508,0,0,0,525.983,95.13a6.533,6.533,0,0,1,4.029,6.664c-1.156,12.452-8.2,54.432-49.2,74.14a4.358,4.358,0,0,1-3.418.019ZM451.024,76.377A29.048,29.048,0,0,1,433.447,100.8a.982.982,0,0,0-.589,1.011c1.217,11.637,8.14,50.822,46.215,68.79,37.859-18.412,44.325-57.676,45.406-69.324a1,1,0,0,0-.627-1.02,29.043,29.043,0,0,1-17.837-24.206Zm0,0" transform="translate(-427.295 -70.497)"/><path class="a" d="M522.105,96.826a25.656,25.656,0,0,1-15.592-20.341,3.97,3.97,0,0,0-3.98-3.415l-25.326.147-.541,0-25.318.149a3.955,3.955,0,0,0-3.941,3.412,25.658,25.658,0,0,1-14.647,20.255,5.065,5.065,0,0,0-2.806,5.226c1.556,12.95,9.4,50.905,47.036,68.268a1.2,1.2,0,0,0,.517.112,1.22,1.22,0,0,0,.515-.118c38.606-18.359,45.26-58.25,46.347-69.957a3.682,3.682,0,0,0-2.265-3.74Zm0,0" transform="translate(-425.723 -68.954)"/><path class="a" d="M472.944,156.544c-27.17-14.551-34.806-41.908-36.927-54.923a1.81,1.81,0,0,1,.851-1.847,32.819,32.819,0,0,0,14.668-19.292,1.817,1.817,0,0,1,1.737-1.332l40.153-.235a1.82,1.82,0,0,1,1.755,1.313,32.816,32.816,0,0,0,14.893,19.116,1.812,1.812,0,0,1,.872,1.839c-1.967,13.036-9.284,40.481-36.281,55.352a1.81,1.81,0,0,1-1.721.01Zm0,0" transform="translate(-422.081 -65.451)"/><path class="b" d="M506.156,96.828A25.659,25.659,0,0,1,490.5,76a3.238,3.238,0,0,0-3.214-2.929l-15.4.091c0,12.225,6.971,24.89,16.155,28.763a3.724,3.724,0,0,1,2.363,3.743c-.949,10.275-6.211,42.511-33.881,62.6,1.459.787,2.961,1.547,4.52,2.265a1.213,1.213,0,0,0,1.032-.006c38.606-18.359,45.26-58.25,46.347-69.957a3.682,3.682,0,0,0-2.265-3.74Zm0,0" transform="translate(-409.773 -68.956)"/><g transform="translate(37.986 35.756)"><path class="c" d="M477.7,93.987l-.829.285-.285-.829a.877.877,0,0,0-1.659.569l.285.83-15.859,5.45-3.314,1.139-3.316,1.139a.875.875,0,0,0-.544,1.113.88.88,0,0,1-.545,1.115.877.877,0,0,0-.544,1.113l1.14,3.316.569,1.657a.875.875,0,0,0,1.113.544.879.879,0,0,1,1.1.5l1.935,10.117a2.63,2.63,0,0,0,3.437,1.993l3.262-1.121a2.632,2.632,0,0,0,1.72-3.017l-.96-4.658,3.389-1.164,0,0,.019-.006a2.632,2.632,0,0,0,1.614-3.335l-.854-2.486,9.228-3.172a.875.875,0,0,0,.584-.713l.446-3.348,1.147-.393a.876.876,0,0,0,.544-1.113l-1.71-4.975A.877.877,0,0,0,477.7,93.987Zm-20.495,8.9,1.569-.539.034,3.695-1.568.539Zm-4.221,3.145a2.639,2.639,0,0,0,.995-2.036l1.48-.509.034,3.7-1.889.648Zm11.757,7.241a1.753,1.753,0,1,1-1.14-3.316l.035-.013a4.327,4.327,0,0,0,1.532,3.181Zm3.03-1.969a.88.88,0,0,1-.371,1.033,2.582,2.582,0,0,1-1.966-3.01l1.483-.509Zm8.951-7.708-13.69,4.7a3.5,3.5,0,0,0-.531,6.395l1.147,5.558a.879.879,0,0,1-.573,1.006l-3.261,1.121a.875.875,0,0,1-1.145-.665c-2.086-10.9-1.952-10.221-1.982-10.309a2.635,2.635,0,0,0-2.463-1.774l-.05-.142,22.808-7.838Zm1.859-4.346-18.025,6.193-.034-3.695,16.92-5.814Z" transform="translate(-451.043 -92.851)"/></g></g><g transform="translate(0 13.455)"><g transform="translate(23.373)"><g transform="translate(1.478)"><path class="d" d="M441.093,79a22.077,22.077,0,0,0-24.052,20.327c-.765,10.243-1.484,21.325-1.5,26.912-.026,11.992,11.941,14.03,11.941,14.03s-1.46,8.2-1.855,12.6c-.8,8.868,7.007,11.993,15.9,12.529h0c8.711.526,16.889-2.3,17.406-11.018l2.174-52.086A22.083,22.083,0,0,0,441.093,79Z" transform="translate(-415.545 -78.909)"/><g transform="translate(12.04 56.934)"><path class="e" d="M423.768,118.969s10.026.477,18.153-4.466c0,0-6.9,9.9-18.849,8.65Z" transform="translate(-423.072 -114.503)"/></g><g transform="translate(44.893 27.155)"><path class="d" d="M444.248,96.227c.206-.086,8.274-2.319,7.9,5.875s-8.529,6.121-8.532,5.886S444.248,96.227,444.248,96.227Z" transform="translate(-443.611 -95.886)"/><g transform="translate(2.639 2.702)"><path class="e" d="M445.269,103.988c.037-.024.138.107.374.229a1.426,1.426,0,0,0,1.065.07c.881-.277,1.673-1.617,1.782-3.092a4.746,4.746,0,0,0-.306-2.063,1.65,1.65,0,0,0-1.022-1.145.728.728,0,0,0-.861.352c-.122.226-.077.39-.12.4-.024.019-.17-.146-.088-.481a.908.908,0,0,1,.345-.5,1.079,1.079,0,0,1,.8-.173,2.009,2.009,0,0,1,1.432,1.34,4.835,4.835,0,0,1,.389,2.307c-.128,1.648-1.046,3.154-2.246,3.441a1.528,1.528,0,0,1-1.3-.277C445.274,104.186,445.24,104,445.269,103.988Z" transform="translate(-445.261 -97.575)"/></g></g><g transform="translate(3.79 16.086)"><g transform="translate(0.708 6.899)"><g transform="translate(1.654 2.446)"><path d="M419.394,96.332a1.714,1.714,0,0,0,1.627,1.751,1.638,1.638,0,0,0,1.787-1.518,1.712,1.712,0,0,0-1.624-1.753A1.64,1.64,0,0,0,419.394,96.332Z" transform="translate(-419.392 -94.808)"/></g><path d="M418.384,95.032c.21.226,1.52-.715,3.362-.685,1.841,0,3.18.973,3.383.75.1-.1-.11-.505-.693-.942a4.711,4.711,0,0,0-2.7-.877,4.51,4.51,0,0,0-2.681.824C418.478,94.528,418.28,94.93,418.384,95.032Z" transform="translate(-418.358 -93.279)"/><g transform="translate(18.107 0.605)"><g transform="translate(2.01 2.349)"><path d="M430.937,96.649a1.713,1.713,0,0,0,1.625,1.751,1.64,1.64,0,0,0,1.788-1.52,1.713,1.713,0,0,0-1.625-1.752A1.638,1.638,0,0,0,430.937,96.649Z" transform="translate(-430.935 -95.125)"/></g><path d="M429.7,95.409c.21.227,1.523-.715,3.364-.683,1.839,0,3.18.973,3.383.75.1-.1-.109-.505-.694-.942a4.7,4.7,0,0,0-2.7-.877,4.521,4.521,0,0,0-2.681.822C429.8,94.906,429.6,95.308,429.7,95.409Z" transform="translate(-429.678 -93.657)"/></g><g transform="translate(6.574 0.584)"><path d="M427.144,108.985a12.268,12.268,0,0,0-2.986-.582c-.469-.056-.913-.155-.988-.478a2.408,2.408,0,0,1,.334-1.39q.689-1.7,1.444-3.562c2.006-5.074,3.465-9.249,3.26-9.327s-2,3.97-4,9.042c-.483,1.252-.945,2.444-1.385,3.586a2.719,2.719,0,0,0-.27,1.843,1.183,1.183,0,0,0,.765.7,3.136,3.136,0,0,0,.8.122A11.916,11.916,0,0,0,427.144,108.985Z" transform="translate(-422.467 -93.644)"/></g></g><g transform="translate(16.702 0.956)"><path d="M428.37,91.191c.214.488,2.035.13,4.21.248,2.177.075,3.957.592,4.215.125.114-.222-.221-.673-.957-1.112a7.336,7.336,0,0,0-6.417-.283C428.65,90.54,428.277,90.959,428.37,91.191Z" transform="translate(-428.356 -89.563)"/></g><path d="M417.96,90.828c.318.424,1.593.008,3.121.01,1.526-.053,2.815.321,3.119-.112.133-.211-.064-.633-.624-1.038a4.523,4.523,0,0,0-5.027.083C418,90.193,417.819,90.622,417.96,90.828Z" transform="translate(-417.915 -88.966)"/></g></g><g transform="translate(14.216 43.858)"><path d="M430.418,106.832c.021.366-1.51.747-3.418.851s-3.471-.112-3.49-.48,1.51-.747,3.418-.849S430.4,106.466,430.418,106.832Z" transform="translate(-423.509 -106.328)"/></g><g transform="translate(0 20.499)"><g transform="translate(30.429 1.375)"><path d="M450.013,98.562a8.3,8.3,0,0,1-2.51-.549c-1.518-.454-3.57-1.216-5.8-2.121L436,93.6a12.11,12.11,0,0,1-2.356-.993,8.365,8.365,0,0,1,2.51.549c1.518.454,3.57,1.217,5.8,2.123l5.7,2.294A12.113,12.113,0,0,1,450.013,98.562Z" transform="translate(-433.645 -92.584)"/></g><path d="M427.326,92a2.448,2.448,0,0,1,2.143,2.041,10.185,10.185,0,0,1-7.459,11.426,5.96,5.96,0,0,1-4.677-.438c-1.908-1.206-2.5-3.7-2.663-5.95A7.625,7.625,0,0,1,415.5,94.3c1.155-1.758,3.417-2.436,5.517-2.55s6.313.251,6.313.251Z" transform="translate(-414.621 -91.724)"/><g transform="translate(19.946 0.436)"><path d="M429.484,92.131a2.473,2.473,0,0,0-2.227,2,10.3,10.3,0,0,0,7.209,11.768,6.023,6.023,0,0,0,4.741-.307c1.964-1.164,2.631-3.668,2.865-5.937a7.7,7.7,0,0,0-.7-4.856c-1.115-1.812-3.383-2.562-5.5-2.738a63.628,63.628,0,0,0-6.39.07Z" transform="translate(-427.091 -91.997)"/></g><g transform="translate(10.227 0.408)"><path d="M435.064,92.481c0,.182-3.153.269-7.032.192s-7.02-.29-7.017-.473,3.151-.269,7.032-.192S435.067,92.3,435.064,92.481Z" transform="translate(-421.015 -91.979)"/></g></g><g transform="translate(47.181 33.428)"><g transform="translate(0 6.214)"><path class="f" d="M444.16,139.472c-.011,0-.022-.066-.035-.2a2.666,2.666,0,0,1,.024-.592,6.26,6.26,0,0,1,.79-2.119,14.185,14.185,0,0,0,1.441-3.191,16.049,16.049,0,0,0,.544-4.591c0-1.734-.219-3.6-.346-5.683a2.9,2.9,0,0,1,.4-1.652,1.576,1.576,0,0,1,1.676-.774,1.366,1.366,0,0,1,.816.625,1.045,1.045,0,0,1-.024,1.1,1.616,1.616,0,0,1-1.932.376,2.906,2.906,0,0,1-1.524-3.345,2.971,2.971,0,0,1,1.136-1.654,2.186,2.186,0,0,1,1-.4,1.326,1.326,0,0,1,1.128.382,1.073,1.073,0,0,1-.795,1.868,2.631,2.631,0,0,1-2.655-2.913,2.614,2.614,0,0,1,1.243-1.814,2.464,2.464,0,0,1,1.849-.331,1.808,1.808,0,0,1,.862.505,1.113,1.113,0,0,1,.294,1.065,1.165,1.165,0,0,1-.776.763,2.135,2.135,0,0,1-.952.08,3.46,3.46,0,0,1-1.606-.713,2.837,2.837,0,0,1-1.046-3.143,2.491,2.491,0,0,1,2.758-1.633,1.538,1.538,0,0,1,1.225,1.24,1.08,1.08,0,0,1-.349.905,1.408,1.408,0,0,1-.827.363,2.181,2.181,0,0,1-1.5-.555,3.353,3.353,0,0,1-.949-1.155,2.16,2.16,0,0,1,.592-2.734,1.545,1.545,0,0,1,2.388.937l.029.179-.154.083a2.253,2.253,0,0,1-3.1-1.113,1.908,1.908,0,0,1,.138-1.652,2.367,2.367,0,0,1,1.153-1.017,1.889,1.889,0,0,1,1.449-.01,1.074,1.074,0,0,1,.71,1.172.742.742,0,0,1-.464.557.9.9,0,0,1-.664-.037,1.25,1.25,0,0,1-.683-.9,10.159,10.159,0,0,1-.035-3.036,3.756,3.756,0,0,1,.226-1.033,15.19,15.19,0,0,0,.1,3.992.942.942,0,0,0,.521.672.434.434,0,0,0,.646-.286c.134-.657-.931-1.065-1.643-.7a1.7,1.7,0,0,0-1.011,2.1,1.764,1.764,0,0,0,2.388.841l-.125.261a1.012,1.012,0,0,0-1.55-.55,1.59,1.59,0,0,0-.382,2.019,2.376,2.376,0,0,0,1.865,1.361c.352-.03.667-.315.616-.6a.94.94,0,0,0-.753-.693,1.87,1.87,0,0,0-2.011,1.249,2.191,2.191,0,0,0,.851,2.4,2.81,2.81,0,0,0,1.286.574c.438.067.953-.088,1-.369.106-.258-.264-.648-.685-.745a1.8,1.8,0,0,0-1.334.254,1.948,1.948,0,0,0-.934,1.344,1.974,1.974,0,0,0,1.956,2.159c.552-.014.664-.4.36-.768-.256-.3-.87-.213-1.283.1a2.347,2.347,0,0,0-.9,1.292,2.3,2.3,0,0,0,1.15,2.614c.421.189,1.016.139,1.195-.142.217-.277-.053-.725-.449-.832a1.012,1.012,0,0,0-1.045.521,2.364,2.364,0,0,0-.32,1.337c.1,2,.3,3.938.264,5.688a16.057,16.057,0,0,1-.657,4.7,13.7,13.7,0,0,1-1.571,3.21,6.871,6.871,0,0,0-.886,2.017C444.176,139.2,444.192,139.472,444.16,139.472Z" transform="translate(-444.118 -103.692)"/></g><g transform="translate(1.024)"><path class="f" d="M448.487,102.59a4.463,4.463,0,0,0-.544-1.764,2.042,2.042,0,0,0-1.481-1.013,1.62,1.62,0,0,0-1.625,1.033,1.67,1.67,0,0,0,.6,1.814l.035.029.013.01-.006,0c.05.034.1.067.142.093.213.134.515.152.731.285a1.5,1.5,0,0,1,.56,1.368,13.572,13.572,0,0,0-.122,1.542c.027.376.24.813.616.821.326.006.557-.314.691-.611A6.6,6.6,0,0,0,448.487,102.59Z" transform="translate(-444.758 -99.807)"/></g></g><g transform="translate(1.023 22.534)"><path class="g" d="M415.66,98.328c-.16.078-.717-1.326-.152-3,.547-1.678,1.833-2.471,1.913-2.313.128.147-.813,1.054-1.281,2.522C415.637,97,415.85,98.287,415.66,98.328Z" transform="translate(-415.26 -92.997)"/></g><g transform="translate(21.288 22.986)"><path class="g" d="M428.9,98.463c-.136.112-.979-.973-.971-2.588s.835-2.7.971-2.588c.17.094-.32,1.179-.305,2.588C428.581,97.284,429.07,98.37,428.9,98.463Z" transform="translate(-427.93 -93.279)"/></g></g><path class="h" d="M452.224,154.9l-.242-17.5L438.5,124.864s-22.085,1.347-31.005,8.748c-4.477,3.714-6.5,16.072-7.487,21.293Z" transform="translate(-400.009 -51.357)"/><path class="h" d="M485.074,154.9c-.972-5.094-2.7-16.96-7.078-20.592-8.919-7.4-31.529-9.448-31.529-9.448L432.5,137.4l.241,17.5Z" transform="translate(-380.528 -51.357)"/><path class="i" d="M434.134,134.313l-1.48,9.45,13.723-18.9Z" transform="translate(-380.437 -51.357)"/><path class="j" d="M441.186,149.8l-3.046-17.949h-6.823l-2.4,17.949Z" transform="translate(-382.68 -47.165)"/><path class="j" d="M431.1,128.763h7.319a1.836,1.836,0,0,1,1.974,2.121c-.75,3.071-2.5,7.774-5.629,7.774s-4.888-4.7-5.638-7.774A1.836,1.836,0,0,1,431.1,128.763Z" transform="translate(-382.577 -49.019)"/><path class="k" d="M423.611,120.5l-3.039,8.3,9.738,11.726,8.908-6.433Z" transform="translate(-387.681 -53.972)"/><path class="k" d="M449.4,120.5l1.848,7.455-9.029,12.572-9.986-6.433Z" transform="translate(-380.692 -53.972)"/><path class="l" d="M463.42,131.388l-1.555,3.623a3.015,3.015,0,0,1-4.026,1.374l-5.344-2.294a3.016,3.016,0,0,1-1.779-3.864l1.409-3.284" transform="translate(-369.734 -50.11)"/><path class="l" d="M418.432,126.762l1.173,3.765a3.017,3.017,0,0,1-2.171,3.66l-5.552,1.727a3.017,3.017,0,0,1-3.863-1.783l-1.062-3.412" transform="translate(-395.843 -50.219)"/></g></g></svg>