<svg xmlns="http://www.w3.org/2000/svg" width="117.506" height="249.922" viewBox="0 0 117.506 249.922"><defs><style>.a{fill:#e0e0e0;}.b{fill:none;stroke:#e0e0e0;stroke-linecap:round;stroke-linejoin:round;}</style></defs><path class="a" d="M215.08,680.687s0-6.267,8.767-14.952S238.183,652,238.183,652s4.367,14.335-3.759,23.07A153.4,153.4,0,0,1,215.1,691.881Z" transform="translate(-189.246 -652)"/><path class="a" d="M230.47,728.011s0-6.267,8.767-14.952,14.311-13.719,14.311-13.719,4.376,14.336-3.759,23.029a153.407,153.407,0,0,1-19.32,16.819Z" transform="translate(-191.978 -660.405)"/><path class="a" d="M210.054,694.146s-.666-6.185-10.264-13.982-15.7-12.115-15.7-12.115-2.821,14.714,6.152,22.56a153.9,153.9,0,0,0,20.989,14.681Z" transform="translate(-183.669 -654.85)"/><path class="a" d="M228.166,750.663s-1.258-6.094-11.671-12.8-16.877-10.4-16.877-10.4-1.25,14.936,8.48,21.762a153.513,153.513,0,0,0,22.42,12.394Z" transform="translate(-186.491 -665.399)"/><path class="a" d="M228.246,792.374s.584-6.234-7.336-15.709-12.987-14.985-12.987-14.985-5.691,13.858,1.6,23.3a153.214,153.214,0,0,0,17.666,18.579Z" transform="translate(-187.599 -671.473)"/><path class="a" d="M230.994,824.648s-.822-6.152,6.53-16.021S249.771,793,249.771,793s6.349,13.57-.428,23.358a153.946,153.946,0,0,1-16.7,19.409Z" transform="translate(-192.066 -677.034)"/><path class="a" d="M236.241,869.371s0-6.259-8.767-14.944S213.138,840.7,213.138,840.7s-4.359,14.335,3.759,23.029a154.8,154.8,0,0,0,19.319,16.835Z" transform="translate(-188.693 -685.503)"/><path class="a" d="M230.233,908.283s1.579-6.029-4.647-16.68-10.4-16.893-10.4-16.893-7.846,12.757-2.221,23.259a153.632,153.632,0,0,0,14.426,21.161Z" transform="translate(-188.509 -691.541)"/><path class="b" d="M214.12,684.94a178.062,178.062,0,0,0,2.369,19.353c3.463,17.814,12.082,29.321,15.528,45.408s-6.448,36.83-3.759,57.506,10.692,32.166,8.4,45.967-14.985,53.879-14.985,53.879" transform="translate(-189.075 -657.848)"/><line class="b" x1="9.401" y1="7.221" transform="translate(17.059 36.229)"/><line class="b" y1="6.999" x2="3.948" transform="translate(26.023 28.136)"/><path class="b" d="M231.8,760.232s-7.871-5.9-15.964-11.8" transform="translate(-189.381 -669.121)"/><path class="b" d="M230.47,743.224s6.58-12.863,13.982-21.384" transform="translate(-191.978 -664.4)"/><path class="b" d="M228.544,804.542A97.349,97.349,0,0,0,213.88,780.51" transform="translate(-189.033 -674.816)"/><path class="b" d="M232.33,832.851a109.4,109.4,0,0,1,8.529-16.194c4.589-6.777,5.255-7.657,5.255-7.657" transform="translate(-192.308 -679.874)"/><path class="b" d="M237.966,883.807a105.117,105.117,0,0,0-7.09-14.3,91.655,91.655,0,0,0-9.187-12.024" transform="translate(-190.419 -688.482)"/><path class="b" d="M228.591,921.881a26.6,26.6,0,0,0-2.352-13.751c-3.29-6.341-7-14.648-8.529-17.929" transform="translate(-189.713 -694.291)"/><path class="a" d="M302.256,783.7s.683-3.906-3.841-10.338-7.525-10.149-7.525-10.149-4.285,8.521-.148,14.862A98.1,98.1,0,0,0,301.03,790.73Z" transform="translate(-202.359 -671.745)"/><path class="a" d="M287.466,811.707s.674-3.915-3.849-10.338S276.1,791.22,276.1,791.22s-4.285,8.52-.148,14.87a97.809,97.809,0,0,0,10.289,12.641Z" transform="translate(-199.733 -676.718)"/><path class="a" d="M302.908,793.218s1.077-3.758,7.945-7.633,11.153-5.9,11.153-5.9.173,9.54-6.267,13.472A98.41,98.41,0,0,1,301,800.085Z" transform="translate(-204.5 -674.669)"/><path class="a" d="M285,826.7s1.48-3.684,8.7-6.769,11.728-4.688,11.728-4.688-.822,9.5-7.7,12.731a97.947,97.947,0,0,1-15.4,5.338Z" transform="translate(-201.187 -680.982)"/><path class="a" d="M282.137,849.139s.658-3.907,7.089-8.43S299.7,833.66,299.7,833.66s1.176,9.467-4.852,14.048a96.648,96.648,0,0,1-13.982,8.463Z" transform="translate(-200.926 -684.252)"/><path class="a" d="M276.928,872.344s1.25-3.759-2.344-10.774S268.6,850.45,268.6,850.45s-5.453,7.822-2.27,14.706a97.284,97.284,0,0,0,8.389,13.982Z" transform="translate(-198.169 -687.233)"/><path class="a" d="M262.474,911.85s-.452-3.932-6.58-8.768-10.026-7.632-10.026-7.632-1.711,9.384,4.038,14.311A98.658,98.658,0,0,0,263.338,919Z" transform="translate(-194.67 -695.223)"/><path class="a" d="M267.831,900.229s.675-3.915,7.09-8.439,10.453-7.04,10.453-7.04,1.176,9.458-4.853,14.064a98.2,98.2,0,0,1-13.982,8.455Z" transform="translate(-198.382 -693.323)"/><path class="a" d="M268.109,925.217s-.329-3.964,4.737-9.96,8.332-9.466,8.332-9.466,3.545,8.85-1.135,14.8a97.778,97.778,0,0,1-11.276,11.7Z" transform="translate(-198.66 -697.059)"/><path class="b" d="M298.953,787a112.319,112.319,0,0,1-3.594,11.885c-4.112,10.8-10.758,17.082-14.664,26.787s0,23.851-3.857,36.484-10.248,19.007-10.248,27.906,3.512,35.267,3.512,35.267" transform="translate(-198.391 -675.969)"/><line class="b" y1="3.504" x2="6.678" transform="translate(99.51 117.233)"/><line class="b" x1="1.702" y1="4.811" transform="translate(97.372 111.155)"/><path class="b" d="M284.24,832.3s5.576-2.846,11.284-5.683" transform="translate(-201.525 -683.003)"/><path class="b" d="M287.465,821.46A80.518,80.518,0,0,0,281,806.59" transform="translate(-200.949 -679.447)"/><path class="b" d="M281.46,856.626a61.739,61.739,0,0,1,13.011-12.3" transform="translate(-201.031 -686.147)"/><path class="b" d="M276.6,877.451a70.723,70.723,0,0,0-3.6-11.07c-2.139-4.746-2.467-5.371-2.467-5.371" transform="translate(-199.091 -689.108)"/><path class="b" d="M264.442,918.024a59.213,59.213,0,0,0-7.188-7.46,36.457,36.457,0,0,1-4.663-4.055" transform="translate(-195.905 -697.187)"/><path class="b" d="M266.59,909.113a67.325,67.325,0,0,1,6-8.225,58.454,58.454,0,0,1,7.073-6.538" transform="translate(-198.391 -695.028)"/><path class="b" d="M268.93,934.007a16.934,16.934,0,0,1,2.969-8.4c2.747-3.619,5.979-8.43,7.3-10.33" transform="translate(-198.806 -698.744)"/></svg>