<svg xmlns="http://www.w3.org/2000/svg" width="513.44" height="24.409" viewBox="0 0 513.44 24.409"><defs><style>.a{fill:#fff;}</style></defs><g transform="translate(0)"><g transform="translate(226.715 1.095)"><g transform="translate(0 0)"><g transform="translate(0 0)"><path class="a" d="M94.236,3.867A7.553,7.553,0,0,0,87.806,0c-.114,0-.229,0-.343,0a7.553,7.553,0,0,0-6.43,3.865,7.949,7.949,0,0,0-.1,7.768l5.53,10.25.008.014a1.336,1.336,0,0,0,2.332,0l.008-.014,5.53-10.25a7.949,7.949,0,0,0-.1-7.768Zm-6.6,6.366A3.176,3.176,0,1,1,90.77,7.057,3.159,3.159,0,0,1,87.634,10.232Z" transform="translate(-79.968 0)"/></g></g></g><g transform="translate(318.715 3.286)"><g transform="translate(0 0)"><path class="a" d="M10.906,13.814a.727.727,0,0,0-.727.727v.727A.727.727,0,0,1,9.452,16H2.181a.727.727,0,0,1-.727-.727V2.181a.727.727,0,0,1,.727-.727h.364a.727.727,0,0,1,.727.736.716.716,0,0,0,.722.718H7.278c.759,0,1.088-.32,1.083-.718a.727.727,0,0,1,.727-.736h.364a.727.727,0,0,1,.727.727v.727a.727.727,0,0,0,1.454,0V2.181A2.181,2.181,0,0,0,9.452,0H2.181A2.181,2.181,0,0,0,0,2.181V15.268A2.181,2.181,0,0,0,2.181,17.45H9.452a2.181,2.181,0,0,0,2.181-2.181v-.727A.727.727,0,0,0,10.906,13.814Z" transform="translate(0 0)"/><path class="a" d="M20.179,8.454A1.456,1.456,0,0,0,18.725,7H11.454A1.456,1.456,0,0,0,10,8.454v4.362a1.456,1.456,0,0,0,1.454,1.454h7.271a1.456,1.456,0,0,0,1.454-1.454ZM18.725,9.908l-3.4,1.585a.557.557,0,0,1-.465,0l-3.4-1.585V8.7L15.089,10.4,18.725,8.7Z" transform="translate(-2.729 -1.911)"/></g></g><g transform="translate(364.715 3.286)"><g transform="translate(0 0)"><path class="a" d="M15.262,7.007h-.584V4.671a4.671,4.671,0,0,0-9.342,0V7.007H4.752A1.754,1.754,0,0,0,3,8.759v8.175a1.754,1.754,0,0,0,1.752,1.752h10.51a1.754,1.754,0,0,0,1.752-1.752V8.759A1.754,1.754,0,0,0,15.262,7.007ZM6.893,4.671a3.114,3.114,0,0,1,6.228,0V7.007H6.893Zm3.893,8.347v1.774a.779.779,0,0,1-1.557,0V13.019a1.557,1.557,0,1,1,1.557,0Z" transform="translate(-3)"/></g></g><g transform="translate(406.334 4.381)"><g transform="translate(0 0)"><path class="a" d="M17.162,1.615h-4.24v-.2A1.415,1.415,0,0,0,11.509,0H7.875A1.415,1.415,0,0,0,6.461,1.413v.2H2.221A2.223,2.223,0,0,0,0,3.836v10.1a2.223,2.223,0,0,0,2.221,2.221H17.162a2.223,2.223,0,0,0,2.221-2.221V3.836a2.223,2.223,0,0,0-2.221-2.221ZM11.308,3.231H8.076V1.615h3.231ZM6.057,5.654A2.019,2.019,0,1,1,4.038,7.673,2.022,2.022,0,0,1,6.057,5.654Zm3.634,7.471a.606.606,0,0,1-.606.606H3.029a.606.606,0,0,1-.606-.606v-.4A2.223,2.223,0,0,1,4.644,10.5H7.471A2.223,2.223,0,0,1,9.692,12.72Zm6.663.606H11.913a.606.606,0,1,1,0-1.211h4.442a.606.606,0,0,1,0,1.211Zm0-3.231H11.913a.606.606,0,1,1,0-1.211h4.442a.606.606,0,0,1,0,1.211Zm0-3.231H11.913a.606.606,0,1,1,0-1.211h4.442a.606.606,0,0,1,0,1.211Zm0,0" transform="translate(0 0)"/></g></g><g transform="translate(454.524 6.571)"><g transform="translate(0 0)"><g transform="translate(0 0)"><g transform="translate(11.111 0.811)"><g transform="translate(0 0)"><path class="a" d="M357.11,101.721l-4.9,4.867,4.9,4.867a1.4,1.4,0,0,0,.142-.608v-8.518A1.4,1.4,0,0,0,357.11,101.721Z" transform="translate(-352.211 -101.721)"/></g></g><g transform="translate(0.811)"><path class="a" d="M39.642,76H26.329a1.4,1.4,0,0,0-.608.142l6.261,6.229a1.421,1.421,0,0,0,2.007,0l6.261-6.229A1.4,1.4,0,0,0,39.642,76Z" transform="translate(-25.721 -76)"/></g><g transform="translate(0 0.811)"><g transform="translate(0 0)"><path class="a" d="M.142,101.721a1.4,1.4,0,0,0-.142.608v8.518a1.4,1.4,0,0,0,.142.608l4.9-4.867Z" transform="translate(0 -101.721)"/></g></g><g transform="translate(0.811 6.348)"><g transform="translate(0 0)"><path class="a" d="M35.352,277.211l-.693.693a2.369,2.369,0,0,1-3.346,0l-.693-.693-4.9,4.867a1.4,1.4,0,0,0,.608.142H39.642a1.4,1.4,0,0,0,.608-.142Z" transform="translate(-25.721 -277.211)"/></g></g></g></g></g><g transform="translate(499.429 5.476)"><g transform="translate(0 0)"><g transform="translate(0 0)"><path class="a" d="M14.183,10.3,12.223,8.345a1.3,1.3,0,0,0-2.169.49,1.333,1.333,0,0,1-1.54.84A6.042,6.042,0,0,1,4.876,6.036a1.268,1.268,0,0,1,.84-1.54,1.3,1.3,0,0,0,.49-2.169L4.246.367a1.4,1.4,0,0,0-1.889,0L1.027,1.7c-1.33,1.4.14,5.108,3.429,8.4s7,4.828,8.4,3.429l1.33-1.33A1.4,1.4,0,0,0,14.183,10.3Z" transform="translate(-0.539 0)"/></g></g></g><g transform="translate(145.667 1.095)"><g transform="translate(0 0)"><g transform="translate(0 0)"><path class="a" d="M117.985,10.085,127.857.241a.827.827,0,0,1,1.168,1.172l-9.284,9.258,9.284,9.258a.827.827,0,0,1-1.169,1.171l-9.871-9.844a.827.827,0,0,1,0-1.171Z" transform="translate(-117.742 0)"/></g></g></g><g transform="translate(270.524 0)"><path class="a" d="M21.71,17.2a6.812,6.812,0,0,1-2.42-5.213V9.154a7.125,7.125,0,0,0-6.1-7.038v-1.1a1.017,1.017,0,0,0-2.034,0v1.1a7.124,7.124,0,0,0-6.1,7.038v2.836A6.82,6.82,0,0,1,2.622,17.21,1.78,1.78,0,0,0,3.78,20.342H20.562A1.78,1.78,0,0,0,21.71,17.2Z" transform="translate(-2 0)"/><path class="a" d="M12.063,24.051A3.82,3.82,0,0,0,15.8,21H8.326A3.82,3.82,0,0,0,12.063,24.051Z" transform="translate(-1.892 0.359)"/></g><g transform="translate(185.096 8.762)"><path class="a" d="M12.562,28.017H.636A.635.635,0,0,0,.189,29.1l5.963,5.963a.636.636,0,0,0,.895,0L13.01,29.1A.635.635,0,0,0,12.562,28.017Z" transform="translate(0 -28.017)"/></g><g transform="translate(0 2.19)"><path class="a" d="M10.094,0,0,7.581V20.187H7.518v-8.28h5.152v8.28h7.518V7.581Z"/><rect class="a" width="8.762" height="8.762" transform="translate(5.954 11.648)"/></g><g transform="translate(94.191 2.19)"><g transform="translate(0 0)"><path class="a" d="M.672,161.667H18.257a.677.677,0,0,0,.431-.154c.169-.14,4.022-3.428,4.257-10.524H4.059c-.234,6.442-3.782,9.47-3.819,9.5a.667.667,0,0,0,.432,1.179Z" transform="translate(0 -145.555)"/><path class="a" d="M109.041,32.323H105.7v-.667a.667.667,0,1,0-1.335,0v.667h-3.382v-.667a.667.667,0,1,0-1.335,0v.667H96.315v-.667a.667.667,0,1,0-1.335,0v.667H91.643a.661.661,0,0,0-.667.667v2h18.732v-2A.661.661,0,0,0,109.041,32.323Z" transform="translate(-86.741 -30.988)"/><path class="a" d="M106.322,302.856a2.009,2.009,0,0,1-1.285.466H90.977v2a.667.667,0,0,0,.667.667h17.4a.667.667,0,0,0,.667-.667v-7.482A13.227,13.227,0,0,1,106.322,302.856Z" transform="translate(-86.742 -285.805)"/></g></g><g transform="translate(48.191 2.19)"><g transform="translate(0 0)"><g transform="translate(3.235)"><g transform="translate(0)"><path class="a" d="M126.323,0a5.323,5.323,0,1,0,5.323,5.323A5.329,5.329,0,0,0,126.323,0Z" transform="translate(-121)"/></g></g><g transform="translate(0 11.828)"><path class="a" d="M45.946,302.295A7.2,7.2,0,0,0,40.7,300H38.417a7.2,7.2,0,0,0-5.247,2.295A7.906,7.906,0,0,0,31,307.767a.581.581,0,0,0,.571.591H47.545a.581.581,0,0,0,.571-.591A7.906,7.906,0,0,0,45.946,302.295Z" transform="translate(-31 -300)"/></g></g></g></g></svg>