<svg xmlns="http://www.w3.org/2000/svg" width="627.251" height="22.915" viewBox="0 0 627.251 22.915"><defs><style>.a{fill:#fff;}</style></defs><g transform="translate(38.333 3.286)"><path class="a" d="M12.017,10.346A6.555,6.555,0,1,0,10,12.2l4.834,4.805a1.372,1.372,0,0,0,1.99-1.89c-.017-.018-.033-.034-.05-.05Zm-5.355.448a4.228,4.228,0,1,1,4.226-4.236,4.229,4.229,0,0,1-4.226,4.236Zm0,0" transform="translate(-0.109 0)"/></g><g transform="translate(79.952 1.095)"><g transform="translate(0)"><path class="a" d="M16.533,2.924,17.84,0H12.332l1.307,2.924Zm0,0" transform="translate(-11.605)"/><path class="a" d="M4.9,64H2.093L.031,77.107a1.11,1.11,0,0,0,.194.827l2.563,3.518a.856.856,0,0,0,1.42,0l2.563-3.522a1.094,1.094,0,0,0,.194-.82Zm0,0" transform="translate(-0.016 -60.222)"/></g></g><g transform="translate(111.714 1.095)"><g transform="translate(0 0)"><g transform="translate(0 0)"><path class="a" d="M66.535.559a.91.91,0,0,0-.99.151L64.118,1.972a.1.1,0,0,1-.136,0L62.041.236a.924.924,0,0,0-1.233,0L58.869,1.97a.1.1,0,0,1-.137,0L56.793.236a.924.924,0,0,0-1.233,0L53.618,1.972a.1.1,0,0,1-.137,0L52.054.709a.918.918,0,0,0-1.528.693V20.339a.919.919,0,0,0,1.53.693l1.426-1.263a.1.1,0,0,1,.136,0l1.941,1.736a.924.924,0,0,0,1.233,0l1.939-1.734a.1.1,0,0,1,.137,0l1.939,1.734a.924.924,0,0,0,1.233,0l1.941-1.736a.1.1,0,0,1,.137,0l1.428,1.263a.918.918,0,0,0,1.527-.693V1.4A.91.91,0,0,0,66.535.559ZM53.929,7.376h5.118a.411.411,0,0,1,0,.822H53.929a.411.411,0,0,1,0-.822Zm9.743,6.989H53.929a.411.411,0,0,1,0-.822h9.743a.411.411,0,0,1,0,.822Zm0-3.083H53.929a.411.411,0,0,1,0-.822h9.743a.411.411,0,0,1,0,.822Z" transform="translate(-50.526 0)"/></g></g></g><g transform="translate(153.333 0)"><g transform="translate(0 0)"><path class="a" d="M351,8.787v4.082h4.082Z" transform="translate(-338.021 -8.394)"/><path class="a" d="M176.186,192h-2.764A3.542,3.542,0,0,1,171,193.728v3.222a5.572,5.572,0,0,0,3.8,5.311,5.572,5.572,0,0,0,3.8-5.311v-3.222A3.542,3.542,0,0,1,176.186,192Zm.992,4.356-2.532,2.532a.671.671,0,0,1-.949,0l-1.266-1.266a.671.671,0,0,1,.949-.949l.791.791,2.057-2.057a.671.671,0,1,1,.949.949Z" transform="translate(-166.077 -183.407)"/><path class="a" d="M73.308,5.818a.671.671,0,0,1-.671-.671V0H63.462A2.464,2.464,0,0,0,61,2.462V20.454a2.464,2.464,0,0,0,2.462,2.462H75.993a2.464,2.464,0,0,0,2.462-2.462V5.818Zm1.566,7.725A6.951,6.951,0,0,1,69.92,20.2a.671.671,0,0,1-.386,0,6.951,6.951,0,0,1-4.954-6.658V9.712a.671.671,0,0,1,.671-.671,2.213,2.213,0,0,0,1.99-1.23l.094-.189a.671.671,0,0,1,.6-.371h3.58a.671.671,0,0,1,.6.371l.094.189a2.213,2.213,0,0,0,1.99,1.23.671.671,0,0,1,.671.671Z" transform="translate(-61 0)"/></g></g><g transform="translate(194.953 0)"><g transform="translate(0 0)"><path class="a" d="M13.951,12.094a.93.93,0,0,0-.93.93v3.72a.931.931,0,0,1-.93.93H9.3V3.724A1.875,1.875,0,0,0,8.034,1.956l-.275-.092h4.332a.931.931,0,0,1,.93.93v2.79a.93.93,0,1,0,1.86,0V2.794A2.794,2.794,0,0,0,12.091,0h-10a.731.731,0,0,0-.1.02C1.948.021,1.906,0,1.86,0A1.862,1.862,0,0,0,0,1.864V18.6a1.875,1.875,0,0,0,1.267,1.768l5.6,1.866a1.925,1.925,0,0,0,.577.087,1.862,1.862,0,0,0,1.86-1.86v-.93h2.79a2.794,2.794,0,0,0,2.79-2.79v-3.72a.93.93,0,0,0-.93-.93Zm0,0" transform="translate(0 -0.004)"/><path class="a" d="M287.29,110.658l-3.72-3.72a.93.93,0,0,0-1.587.658v2.79h-3.72a.93.93,0,1,0,0,1.86h3.72v2.79a.93.93,0,0,0,1.587.658l3.72-3.72a.929.929,0,0,0,0-1.315Zm0,0" transform="translate(-265.241 -102.015)"/></g></g><g transform="translate(240.953 5.476)"><g transform="translate(0 0)"><path class="a" d="M11.17,98.725c-4.268,0-8.139,2.335-11,6.128a.884.884,0,0,0,0,1.056c2.856,3.8,6.727,6.133,11,6.133s8.139-2.335,11-6.128a.884.884,0,0,0,0-1.056C19.309,101.06,15.438,98.725,11.17,98.725Zm.306,11.347a4.7,4.7,0,1,1,4.382-4.382A4.7,4.7,0,0,1,11.476,110.072Zm-.142-2.166a2.53,2.53,0,1,1,2.363-2.363A2.526,2.526,0,0,1,11.334,107.906Z" transform="translate(0 -98.725)"/></g></g><g transform="translate(332.953 4.381)"><g transform="translate(0 0)"><g transform="translate(2.784)"><g transform="translate(0)"><path class="a" d="M114.636,0a3.845,3.845,0,1,0,3.845,3.845A3.855,3.855,0,0,0,114.636,0Z" transform="translate(-110.791 0)"/></g></g><g transform="translate(0 7.965)"><path class="a" d="M37.392,250.638a3.584,3.584,0,0,0-.386-.705,4.779,4.779,0,0,0-3.308-2.082.708.708,0,0,0-.487.118,4.1,4.1,0,0,1-4.836,0,.63.63,0,0,0-.487-.118,4.745,4.745,0,0,0-3.308,2.082,4.133,4.133,0,0,0-.386.705.357.357,0,0,0,.017.319,6.7,6.7,0,0,0,.453.672,6.38,6.38,0,0,0,.772.873,10.048,10.048,0,0,0,.772.672,7.657,7.657,0,0,0,9.134,0,7.376,7.376,0,0,0,.772-.672,7.752,7.752,0,0,0,.772-.873,5.888,5.888,0,0,0,.453-.672A.287.287,0,0,0,37.392,250.638Z" transform="translate(-24.165 -247.841)"/></g></g></g><g transform="translate(370.191 3.286)"><g transform="translate(0 0)"><g transform="translate(3.442)"><path class="a" d="M102.974,0a.574.574,0,0,0-.574.574V1.721h1.147V.574A.574.574,0,0,0,102.974,0Z" transform="translate(-102.4)"/></g><g transform="translate(11.475)"><path class="a" d="M341.907,0a.574.574,0,0,0-.574.574V1.721h1.148V.574A.574.574,0,0,0,341.907,0Z" transform="translate(-341.333)"/></g><g transform="translate(0 1.721)"><path class="a" d="M14.344,51.2H12.622v2.295a.574.574,0,0,1-1.148,0V51.2H4.59v2.295a.574.574,0,0,1-1.148,0V51.2H1.721A1.721,1.721,0,0,0,0,52.921v10.9a1.721,1.721,0,0,0,1.721,1.721H14.344a1.721,1.721,0,0,0,1.721-1.721v-10.9A1.721,1.721,0,0,0,14.344,51.2Zm.574,12.622a.574.574,0,0,1-.574.574H1.721a.574.574,0,0,1-.574-.574V56.364h13.77Z" transform="translate(0 -51.2)"/></g><g transform="translate(2.869 8.032)"><path class="a" d="M87.054,238.933H85.907a.574.574,0,0,0,0,1.148h1.147a.574.574,0,0,0,0-1.148Z" transform="translate(-85.333 -238.933)"/></g><g transform="translate(6.885 8.032)"><path class="a" d="M206.521,238.933h-1.148a.574.574,0,0,0,0,1.148h1.148a.574.574,0,0,0,0-1.148Z" transform="translate(-204.8 -238.933)"/></g><g transform="translate(10.901 8.032)"><path class="a" d="M325.988,238.933h-1.147a.574.574,0,0,0,0,1.148h1.147a.574.574,0,0,0,0-1.148Z" transform="translate(-324.267 -238.933)"/></g><g transform="translate(2.869 10.327)"><path class="a" d="M87.054,307.2H85.907a.574.574,0,1,0,0,1.147h1.147a.574.574,0,1,0,0-1.147Z" transform="translate(-85.333 -307.2)"/></g><g transform="translate(6.885 10.327)"><path class="a" d="M206.521,307.2h-1.148a.574.574,0,0,0,0,1.147h1.148a.574.574,0,0,0,0-1.147Z" transform="translate(-204.8 -307.2)"/></g><g transform="translate(10.901 10.327)"><path class="a" d="M325.988,307.2h-1.147a.574.574,0,0,0,0,1.147h1.147a.574.574,0,1,0,0-1.147Z" transform="translate(-324.267 -307.2)"/></g><g transform="translate(2.869 12.622)"><path class="a" d="M87.054,375.467H85.907a.574.574,0,1,0,0,1.147h1.147a.574.574,0,1,0,0-1.147Z" transform="translate(-85.333 -375.467)"/></g><g transform="translate(6.885 12.622)"><path class="a" d="M206.521,375.467h-1.148a.574.574,0,1,0,0,1.147h1.148a.574.574,0,1,0,0-1.147Z" transform="translate(-204.8 -375.467)"/></g><g transform="translate(10.901 12.622)"><path class="a" d="M325.988,375.467h-1.147a.574.574,0,1,0,0,1.147h1.147a.574.574,0,1,0,0-1.147Z" transform="translate(-324.267 -375.467)"/></g></g></g><g transform="translate(410.715 3.286)"><g transform="translate(0)"><path class="a" d="M8.39,0a8.39,8.39,0,1,0,8.39,8.39A8.39,8.39,0,0,0,8.39,0Zm.6,8.39a.6.6,0,0,1-.6.6H3.6a.6.6,0,1,1,0-1.2H7.791V3.6a.6.6,0,1,1,1.2,0Z" transform="translate(0)"/></g></g><g transform="translate(452.334 5.476)"><path class="a" d="M0,75.161v2.463H2.463l7.268-7.268L7.268,67.893Z" transform="translate(0 -65.803)"/><path class="a" d="M262.331,1.726,260.8.192a.658.658,0,0,0-.929,0l-1.2,1.2,2.463,2.463,1.2-1.2A.658.658,0,0,0,262.331,1.726Z" transform="translate(-250.702 0)"/></g><g transform="translate(613.334 3.286)"><path class="a" d="M91.05,8.036A3.888,3.888,0,0,0,93.89,6.859a3.887,3.887,0,0,0,1.177-2.841A3.888,3.888,0,0,0,93.89,1.177a4.017,4.017,0,0,0-5.681,0,3.888,3.888,0,0,0-1.177,2.841,3.887,3.887,0,0,0,1.177,2.841A3.889,3.889,0,0,0,91.05,8.036Zm0,0" transform="translate(-84.196 0)"/><path class="a" d="M13.883,252.086a9.923,9.923,0,0,0-.135-1.054,8.306,8.306,0,0,0-.259-1.06,5.234,5.234,0,0,0-.436-.988,3.73,3.73,0,0,0-.657-.856,2.9,2.9,0,0,0-.944-.593,3.261,3.261,0,0,0-1.2-.218,1.223,1.223,0,0,0-.653.277c-.2.128-.425.275-.68.439a3.9,3.9,0,0,1-.88.388,3.418,3.418,0,0,1-2.153,0,3.889,3.889,0,0,1-.88-.388c-.253-.162-.482-.309-.681-.439a1.221,1.221,0,0,0-.653-.277,3.258,3.258,0,0,0-1.2.218,2.9,2.9,0,0,0-.944.593,3.73,3.73,0,0,0-.657.856,5.243,5.243,0,0,0-.436.988,8.325,8.325,0,0,0-.259,1.06,9.888,9.888,0,0,0-.135,1.054c-.022.319-.033.65-.033.985a2.77,2.77,0,0,0,.823,2.1,2.962,2.962,0,0,0,2.12.773h8.032a2.961,2.961,0,0,0,2.12-.773,2.769,2.769,0,0,0,.823-2.1c0-.336-.011-.668-.034-.985Zm0,0" transform="translate(0 -239.259)"/></g><g transform="translate(488.477 5.476)"><g transform="translate(0 0)"><path class="a" d="M19.053,83.089v-1A2.084,2.084,0,0,0,16.969,80H2.084A2.084,2.084,0,0,0,0,82.084v1a.186.186,0,0,0,.186.186h18.68A.186.186,0,0,0,19.053,83.089Z" transform="translate(0 -80)"/><path class="a" d="M0,200.186v6.363a2.084,2.084,0,0,0,2.084,2.084H16.969a2.084,2.084,0,0,0,2.084-2.084v-6.363a.186.186,0,0,0-.186-.186H.186A.186.186,0,0,0,0,200.186Zm4.763,4.875a.6.6,0,0,1-.6.6h-.6a.6.6,0,0,1-.6-.6v-.6a.6.6,0,0,1,.6-.6h.6a.6.6,0,0,1,.6.6Z" transform="translate(0 -195.535)"/></g></g><g transform="translate(0 4.381)"><g transform="translate(0 0)"><g transform="translate(0 0)"><path class="a" d="M14.189.176a.6.6,0,0,0-.65-.131L.373,5.431a.6.6,0,0,0,.12,1.143L6.668,7.7l1.123,6.175a.6.6,0,0,0,.526.488l.062,0a.6.6,0,0,0,.554-.372L14.32.825A.6.6,0,0,0,14.189.176Z" transform="translate(-0.002 -0.001)"/></g></g></g><g transform="translate(532.286 3.286)"><path class="a" d="M16.8,7.96H9.729V.884a.884.884,0,0,0-1.769,0V7.96H.884a.884.884,0,0,0,0,1.769H7.96V16.8a.884.884,0,1,0,1.769,0V9.729H16.8a.884.884,0,1,0,0-1.769Zm0,0" transform="translate(0 0)"/></g><g transform="translate(573.905 3.286)"><g transform="translate(0)"><path class="a" d="M64.444,139.376a2.1,2.1,0,0,0,2.1,2.1h8.39a2.1,2.1,0,0,0,2.1-2.1V128.889H64.444Z" transform="translate(-63.395 -124.694)"/><path class="a" d="M41.661,1.049V0H37.466V1.049H32.222v2.1H46.9v-2.1Z" transform="translate(-32.222)"/></g></g><g transform="translate(288.048 3.286)"><g transform="translate(0 0)"><path class="a" d="M231.147,160.067l2.879,2.879.014-.151a2.744,2.744,0,0,0-2.742-2.742Z" transform="translate(-221.244 -154.569)"/><path class="a" d="M153.3,66.339a4.572,4.572,0,0,1,4.57,4.57,4.5,4.5,0,0,1-.324,1.668l2.673,2.673a10.854,10.854,0,0,0,3.139-4.341A10.815,10.815,0,0,0,153.3,64.054a10.689,10.689,0,0,0-3.642.64l1.974,1.97A4.593,4.593,0,0,1,153.3,66.339Z" transform="translate(-143.243 -62.683)"/><path class="a" d="M.914,33.218,3,35.3l.416.416A10.825,10.825,0,0,0,0,40.279a10.8,10.8,0,0,0,14.061,6.082l.388.388,2.664,2.669,1.165-1.161-16.2-16.2Zm5.054,5.05L7.38,39.68a2.9,2.9,0,0,0-.069.6,2.744,2.744,0,0,0,2.742,2.742,2.817,2.817,0,0,0,.594-.069l1.412,1.412a4.5,4.5,0,0,1-2.006.484,4.54,4.54,0,0,1-4.085-6.581Z" transform="translate(0 -32.053)"/></g></g></svg>