<svg xmlns="http://www.w3.org/2000/svg" xmlns:xlink="http://www.w3.org/1999/xlink" width="1012.956" height="111.017" viewBox="0 0 1012.956 111.017"><defs><style>.a,.aa,.v{fill:none;}.b{fill:#ededed;}.c{fill:#d6d6d6;}.d{fill:#fbbf9e;}.d,.h,.i,.j,.l,.o,.p,.r,.t,.u,.v{stroke:#000;}.aa,.ab,.d,.h,.i,.l,.o,.p,.r,.u,.v,.z{stroke-linecap:round;stroke-linejoin:round;}.e{fill:#f7996e;}.f{fill:#404041;}.g{fill:#e1e1e1;}.h{fill:#f1f1f2;}.aa,.h,.l,.r,.u,.z{stroke-width:1.5px;}.i,.u,.x{fill:#d0d2d3;}.j,.t{stroke-miterlimit:10;}.j{stroke-width:0.75px;}.k{clip-path:url(#a);}.l{fill:#393434;}.m,.n,.w{mix-blend-mode:multiply;isolation:isolate;}.m{fill:url(#b);}.n{fill:url(#c);}.o{stroke-width:0.25px;}.p{fill:#c18b76;}.q{fill:#b66351;}.r,.y{fill:#fff;}.s{fill:#98939e;}.t{fill:#2d5872;}.v{stroke-width:2px;}.w{fill:url(#e);}.aa,.ab,.z{stroke:#231f20;}</style><clipPath id="a"><rect class="a" width="28.752" height="14.564"/></clipPath><linearGradient id="b" x1="0.175" y1="0.563" x2="0.933" y2="0.474" gradientUnits="objectBoundingBox"><stop offset="0" stop-color="#fff"/><stop offset="1" stop-color="#b4bebd"/></linearGradient><linearGradient id="c" x1="22.221" y1="0.564" x2="22.983" y2="0.474" xlink:href="#b"/><linearGradient id="e" x1="31.472" y1="0.564" x2="32.235" y2="0.474" xlink:href="#b"/></defs><g transform="translate(-490.25 -9891.898)"><g transform="translate(491 9892.491)"><g transform="translate(41.014 0)"><path d="M443.4,332.949c-38.509-17.988-45.557-57.1-46.775-68.724a6.086,6.086,0,0,1,3.67-6.258,21.963,21.963,0,0,0,13.3-18.566,5.016,5.016,0,0,1,4.993-4.672l51.661-.3h.028a5.055,5.055,0,0,1,5.017,4.582,21.964,21.964,0,0,0,13.5,18.432,6.106,6.106,0,0,1,3.766,6.226c-1.081,11.634-7.66,50.856-45.965,69.267a4.068,4.068,0,0,1-3.192.018Zm-24.64-93.03a27.138,27.138,0,0,1-16.423,22.821.919.919,0,0,0-.548.946c1.137,10.87,7.6,47.48,43.177,64.266,35.371-17.2,41.411-53.885,42.42-64.767a.94.94,0,0,0-.584-.953,27.131,27.131,0,0,1-16.664-22.615Zm0,0" transform="translate(-396.589 -234.425)"/><path class="b" d="M485.34,259.193a23.974,23.974,0,0,1-14.569-19A3.708,3.708,0,0,0,467.053,237l-23.661.139h-.505l-23.652.139a3.694,3.694,0,0,0-3.682,3.188,23.968,23.968,0,0,1-13.686,18.923,4.734,4.734,0,0,0-2.62,4.882c1.454,12.1,8.778,47.561,43.944,63.781a1.123,1.123,0,0,0,.483.1,1.164,1.164,0,0,0,.481-.109c36.069-17.154,42.285-54.423,43.3-65.36a3.443,3.443,0,0,0-2.116-3.494Zm0,0" transform="translate(-395.293 -233.153)"/><path class="b" d="M439.809,315.369c-25.385-13.595-32.518-39.153-34.5-51.313a1.69,1.69,0,0,1,.8-1.726,30.67,30.67,0,0,0,13.7-18.022,1.7,1.7,0,0,1,1.623-1.246l37.514-.22a1.7,1.7,0,0,1,1.639,1.227A30.659,30.659,0,0,0,474.5,261.928a1.7,1.7,0,0,1,.814,1.719c-1.838,12.179-8.673,37.82-33.9,51.713a1.686,1.686,0,0,1-1.608.009Zm0,0" transform="translate(-392.29 -230.264)"/><path class="c" d="M472.187,259.194a23.971,23.971,0,0,1-14.624-19.463,3.025,3.025,0,0,0-3-2.736l-14.391.085c0,11.423,6.512,23.254,15.093,26.872a3.479,3.479,0,0,1,2.207,3.5c-.886,9.6-5.8,39.716-31.654,58.489,1.363.735,2.766,1.444,4.223,2.115a1.14,1.14,0,0,0,.964,0c36.069-17.154,42.286-54.423,43.3-65.36a3.443,3.443,0,0,0-2.116-3.494Zm0,0" transform="translate(-382.14 -233.155)"/><path d="M430.162,278.838l-7.979-7.18a1.79,1.79,0,0,1-.072-2.624,2.034,2.034,0,0,1,2.766-.067l6.288,5.659,11.365-16.261a2.024,2.024,0,0,1,2.712-.521,1.8,1.8,0,0,1,.55,2.57l-12.652,18.1a2.062,2.062,0,0,1-2.98.32Zm0,0" transform="translate(-384.237 -223)"/></g><g transform="translate(0 12.57)"><g transform="translate(21.836)"><g transform="translate(1.381)"><path class="d" d="M408.548,242.925a20.626,20.626,0,0,0-22.471,18.992c-.714,9.569-1.387,19.922-1.4,25.142-.024,11.2,11.156,13.107,11.156,13.107s-1.364,7.66-1.734,11.774c-.743,8.285,6.547,11.2,14.851,11.705h0c8.138.492,15.779-2.152,16.262-10.292l2.031-48.663a20.631,20.631,0,0,0-18.7-21.766Z" transform="translate(-384.68 -242.837)"/><g transform="translate(11.248 53.192)"><path class="e" d="M392.857,282.6s9.367.445,16.96-4.172c0,0-6.447,9.252-17.61,8.082Z" transform="translate(-392.207 -278.431)"/></g><g transform="translate(41.942 25.371)"><path class="d" d="M413.341,260.132c.193-.081,7.73-2.165,7.376,5.489s-7.968,5.721-7.971,5.5S413.341,260.132,413.341,260.132Z" transform="translate(-412.746 -259.814)"/><g transform="translate(2.465 2.524)"><path class="e" d="M414.4,267.494c.034-.022.128.1.35.214a1.332,1.332,0,0,0,1,.066c.823-.258,1.563-1.511,1.665-2.889a4.432,4.432,0,0,0-.285-1.928,1.536,1.536,0,0,0-.955-1.068.677.677,0,0,0-.8.329c-.114.209-.072.365-.112.375-.022.018-.159-.136-.082-.448a.852.852,0,0,1,.323-.466,1.013,1.013,0,0,1,.747-.161,1.877,1.877,0,0,1,1.337,1.252,4.52,4.52,0,0,1,.363,2.155c-.12,1.541-.977,2.947-2.1,3.216a1.432,1.432,0,0,1-1.211-.26C414.408,267.681,414.377,267.507,414.4,267.494Z" transform="translate(-414.396 -261.503)"/></g></g><g transform="translate(3.541 15.029)"><g transform="translate(0.662 6.446)"><g transform="translate(1.546 2.286)"><path d="M388.528,260.16a1.6,1.6,0,0,0,1.52,1.636,1.529,1.529,0,0,0,1.669-1.418,1.6,1.6,0,0,0-1.517-1.638A1.532,1.532,0,0,0,388.528,260.16Z" transform="translate(-388.527 -258.736)"/></g><path d="M387.517,258.845c.2.211,1.42-.668,3.141-.64,1.72,0,2.971.909,3.161.7.093-.091-.1-.471-.647-.88a4.4,4.4,0,0,0-2.527-.819,4.225,4.225,0,0,0-2.5.77C387.605,258.376,387.42,258.749,387.517,258.845Z" transform="translate(-387.492 -257.207)"/><g transform="translate(16.917 0.565)"><g transform="translate(1.878 2.195)"><path d="M400.072,260.477a1.6,1.6,0,0,0,1.518,1.636,1.531,1.531,0,0,0,1.671-1.418,1.6,1.6,0,0,0-1.518-1.638A1.531,1.531,0,0,0,400.072,260.477Z" transform="translate(-400.07 -259.053)"/></g><path d="M398.837,259.223c.2.211,1.423-.668,3.143-.64,1.719,0,2.971.909,3.161.7.093-.093-.1-.471-.649-.88a4.4,4.4,0,0,0-2.525-.819,4.213,4.213,0,0,0-2.5.77C398.927,258.754,398.741,259.127,398.837,259.223Z" transform="translate(-398.813 -257.585)"/></g><g transform="translate(6.142 0.546)"><path d="M395.971,271.906a11.329,11.329,0,0,0-2.79-.545c-.438-.052-.853-.145-.924-.445a2.253,2.253,0,0,1,.312-1.3q.643-1.585,1.349-3.328c1.874-4.74,3.237-8.639,3.046-8.714s-1.867,3.709-3.74,8.448c-.451,1.17-.883,2.283-1.294,3.35a2.541,2.541,0,0,0-.252,1.722,1.1,1.1,0,0,0,.714.653,3.007,3.007,0,0,0,.744.115A11.306,11.306,0,0,0,395.971,271.906Z" transform="translate(-391.602 -257.572)"/></g></g><g transform="translate(15.604 0.894)"><path d="M397.5,255.012c.2.456,1.9.122,3.933.233,2.034.069,3.7.551,3.938.115.106-.208-.206-.629-.894-1.039a6.854,6.854,0,0,0-6-.265C397.766,254.4,397.418,254.8,397.5,255.012Z" transform="translate(-397.491 -253.492)"/></g><path d="M387.092,254.634c.3.4,1.488.007,2.916.009,1.426-.049,2.63.3,2.914-.1.124-.2-.06-.592-.583-.97a4.225,4.225,0,0,0-4.7.078C387.132,254.042,386.96,254.442,387.092,254.634Z" transform="translate(-387.049 -252.894)"/></g></g><g transform="translate(13.282 40.975)"><path d="M399.1,270.727c.019.344-1.411.7-3.194.795s-3.243-.1-3.261-.448,1.411-.7,3.193-.794S399.08,270.385,399.1,270.727Z" transform="translate(-392.644 -270.256)"/></g><g transform="translate(0 19.152)"><g transform="translate(28.429 1.284)"><path d="M418.072,262.1a7.76,7.76,0,0,1-2.345-.513c-1.418-.423-3.336-1.136-5.417-1.982l-5.329-2.143a11.259,11.259,0,0,1-2.2-.93,7.873,7.873,0,0,1,2.345.513c1.418.424,3.335,1.137,5.419,1.983l5.327,2.143A11.319,11.319,0,0,1,418.072,262.1Z" transform="translate(-402.78 -256.512)"/></g><path d="M395.626,255.907a2.287,2.287,0,0,1,2,1.908,9.515,9.515,0,0,1-6.968,10.673,5.568,5.568,0,0,1-4.37-.41c-1.783-1.127-2.333-3.456-2.488-5.559a7.124,7.124,0,0,1,.771-4.465c1.079-1.642,3.192-2.274,5.154-2.382s5.9.235,5.9.235Z" transform="translate(-383.756 -255.652)"/><g transform="translate(18.635 0.408)"><path d="M398.461,256.05a2.311,2.311,0,0,0-2.08,1.869,9.621,9.621,0,0,0,6.735,10.994,5.621,5.621,0,0,0,4.429-.287c1.835-1.088,2.458-3.427,2.677-5.547a7.2,7.2,0,0,0-.65-4.537c-1.042-1.692-3.16-2.394-5.141-2.558s-5.97.066-5.97.066Z" transform="translate(-396.226 -255.925)"/></g><g transform="translate(9.555 0.381)"><path d="M403.275,256.376c0,.172-2.945.253-6.569.179s-6.559-.27-6.556-.442,2.944-.251,6.569-.179S403.278,256.2,403.275,256.376Z" transform="translate(-390.15 -255.907)"/></g></g><g transform="translate(44.079 31.231)"><g transform="translate(0 5.805)"><path class="f" d="M413.292,301.05c-.01,0-.021-.063-.033-.187a2.473,2.473,0,0,1,.023-.551,5.837,5.837,0,0,1,.738-1.98,13.266,13.266,0,0,0,1.346-2.983,14.984,14.984,0,0,0,.508-4.287c0-1.621-.2-3.364-.323-5.31a2.708,2.708,0,0,1,.371-1.545,1.468,1.468,0,0,1,1.566-.722,1.273,1.273,0,0,1,.762.583.977.977,0,0,1-.022,1.031,1.51,1.51,0,0,1-1.805.351A2.715,2.715,0,0,1,415,282.325a2.78,2.78,0,0,1,1.061-1.545,2.042,2.042,0,0,1,.938-.372,1.243,1.243,0,0,1,1.054.357,1,1,0,0,1-.743,1.747,2.459,2.459,0,0,1-2.481-2.723,2.436,2.436,0,0,1,1.161-1.693,2.288,2.288,0,0,1,1.728-.309,1.677,1.677,0,0,1,.806.471,1.041,1.041,0,0,1,.275,1,1.087,1.087,0,0,1-.725.713,1.993,1.993,0,0,1-.889.075,3.233,3.233,0,0,1-1.5-.667,2.65,2.65,0,0,1-.977-2.936,2.329,2.329,0,0,1,2.576-1.526,1.437,1.437,0,0,1,1.145,1.158,1.012,1.012,0,0,1-.326.847,1.334,1.334,0,0,1-.773.339,2.051,2.051,0,0,1-1.4-.519,3.152,3.152,0,0,1-.886-1.08,2.019,2.019,0,0,1,.553-2.554,1.443,1.443,0,0,1,2.231.877l.027.166-.143.078a2.1,2.1,0,0,1-2.9-1.04,1.78,1.78,0,0,1,.128-1.542,2.205,2.205,0,0,1,1.078-.95,1.75,1.75,0,0,1,1.354-.009,1,1,0,0,1,.664,1.094.693.693,0,0,1-.433.52.845.845,0,0,1-.62-.033,1.173,1.173,0,0,1-.638-.841,9.49,9.49,0,0,1-.033-2.836,3.531,3.531,0,0,1,.211-.965,14.193,14.193,0,0,0,.091,3.73.88.88,0,0,0,.487.628.405.405,0,0,0,.6-.268c.126-.614-.87-1-1.535-.656a1.591,1.591,0,0,0-.945,1.962,1.649,1.649,0,0,0,2.231.786l-.117.244a.945.945,0,0,0-1.448-.514,1.485,1.485,0,0,0-.357,1.886,2.22,2.22,0,0,0,1.742,1.272c.329-.028.623-.294.575-.56a.875.875,0,0,0-.7-.646,1.745,1.745,0,0,0-1.878,1.166,2.05,2.05,0,0,0,.8,2.245,2.655,2.655,0,0,0,1.2.537c.409.061.891-.084.935-.345.1-.242-.247-.607-.64-.7a1.689,1.689,0,0,0-1.246.238,1.821,1.821,0,0,0-.873,1.255,1.844,1.844,0,0,0,1.828,2.017c.516-.014.62-.375.336-.717-.239-.281-.813-.2-1.2.091a2.192,2.192,0,0,0-.837,1.209,2.144,2.144,0,0,0,1.074,2.44c.393.176.949.13,1.116-.133.2-.258-.049-.677-.42-.777a.947.947,0,0,0-.976.487,2.212,2.212,0,0,0-.3,1.249c.093,1.872.277,3.679.247,5.314a15,15,0,0,1-.614,4.387,12.84,12.84,0,0,1-1.468,3,6.4,6.4,0,0,0-.828,1.883C413.307,300.794,413.322,301.048,413.292,301.05Z" transform="translate(-413.253 -267.62)"/></g><g transform="translate(0.957)"><path class="f" d="M417.376,266.337a4.172,4.172,0,0,0-.508-1.65,1.907,1.907,0,0,0-1.384-.946,1.513,1.513,0,0,0-1.518.965,1.56,1.56,0,0,0,.563,1.695l.033.027.012.009-.006,0c.046.031.1.063.133.087.2.127.481.142.683.266a1.4,1.4,0,0,1,.523,1.278,12.733,12.733,0,0,0-.114,1.442c.025.35.224.758.576.765.3.006.52-.293.646-.571A6.16,6.16,0,0,0,417.376,266.337Z" transform="translate(-413.893 -263.735)"/></g></g><g transform="translate(0.955 21.053)"><path class="g" d="M384.768,261.906c-.149.073-.67-1.239-.142-2.8.511-1.569,1.713-2.31,1.787-2.162.119.137-.759.985-1.2,2.358C384.747,260.663,384.946,261.867,384.768,261.906Z" transform="translate(-384.395 -256.925)"/></g><g transform="translate(19.889 21.475)"><path class="g" d="M397.972,262.05c-.127.106-.915-.908-.907-2.418s.78-2.522.907-2.418c.158.088-.3,1.1-.285,2.418C397.673,260.949,398.131,261.964,397.972,262.05Z" transform="translate(-397.065 -257.207)"/></g></g><path class="h" d="M417.653,297.055l-12.547-8.262s-20.633,1.258-28.967,8.173c-4.183,3.47-6.073,15.016-7,19.893h48.783" transform="translate(-369.144 -220.117)"/><path class="h" d="M401.971,316.858h48.891c-.909-4.76-2.522-15.845-6.613-19.237-8.333-6.915-29.456-8.829-29.456-8.829l-13.375,8.135" transform="translate(-353.188 -220.117)"/><path class="i" d="M392.242,285.662l-2.114,5.774,8.373,12.937,8.323-6.01Z" transform="translate(-358.77 -221.664)"/><path class="i" d="M417.339,285.662l1.975,5.751-8.684,12.959-9.33-6.01Z" transform="translate(-353.246 -221.664)"/></g></g><g transform="translate(663 9892.856)"><g transform="translate(41.336 0)"><path d="M251.027,532.075c-38.38-17.928-45.4-56.911-46.618-68.494a6.063,6.063,0,0,1,3.659-6.238,21.891,21.891,0,0,0,13.254-18.5,5,5,0,0,1,4.976-4.656l51.488-.3h.028a5.037,5.037,0,0,1,5,4.566,21.89,21.89,0,0,0,13.451,18.37,6.084,6.084,0,0,1,3.753,6.2c-1.077,11.595-7.635,50.684-45.811,69.035a4.053,4.053,0,0,1-3.181.018ZM226.47,439.356A27.05,27.05,0,0,1,210.1,462.1a.915.915,0,0,0-.548.941c1.133,10.835,7.58,47.323,43.033,64.053,35.252-17.144,41.272-53.7,42.278-64.55a.935.935,0,0,0-.582-.95,27.043,27.043,0,0,1-16.608-22.539Zm0,0" transform="translate(-204.375 -433.881)"/><path class="b" d="M292.837,458.574a23.889,23.889,0,0,1-14.518-18.941,3.7,3.7,0,0,0-3.707-3.18l-23.58.137-.5,0-23.573.139a3.681,3.681,0,0,0-3.67,3.177,23.89,23.89,0,0,1-13.64,18.86,4.717,4.717,0,0,0-2.611,4.866c1.449,12.058,8.749,47.4,43.8,63.567a1.125,1.125,0,0,0,.481.1,1.143,1.143,0,0,0,.48-.111c35.948-17.1,42.144-54.239,43.155-65.139a3.429,3.429,0,0,0-2.109-3.483Zm0,0" transform="translate(-203.092 -432.622)"/><path class="b" d="M247.479,514.583c-25.3-13.549-32.409-39.022-34.384-51.141a1.686,1.686,0,0,1,.792-1.72,30.564,30.564,0,0,0,13.658-17.964,1.692,1.692,0,0,1,1.618-1.241l37.388-.219a1.7,1.7,0,0,1,1.634,1.223,30.556,30.556,0,0,0,13.868,17.8,1.69,1.69,0,0,1,.812,1.713c-1.832,12.139-8.644,37.693-33.782,51.54a1.685,1.685,0,0,1-1.6.009Zm0,0" transform="translate(-200.119 -429.762)"/><path class="c" d="M279.818,458.576a23.89,23.89,0,0,1-14.575-19.4,3.015,3.015,0,0,0-2.992-2.727l-14.343.085c0,11.383,6.491,23.176,15.043,26.782a3.468,3.468,0,0,1,2.2,3.485c-.883,9.568-5.783,39.583-31.548,58.292,1.358.733,2.757,1.44,4.209,2.109a1.123,1.123,0,0,0,.481.1,1.108,1.108,0,0,0,.48-.11c35.948-17.1,42.144-54.239,43.155-65.14a3.429,3.429,0,0,0-2.109-3.482Zm0,0" transform="translate(-190.072 -432.623)"/><path class="j" d="M254.307,479.085l-7.072-7.073a9.86,9.86,0,1,0-1.466,1.466l7.072,7.072a1.036,1.036,0,1,0,1.466-1.464ZM239.584,473.6a7.772,7.772,0,1,1,7.773-7.772A7.781,7.781,0,0,1,239.584,473.6Z" transform="translate(-191.962 -423.065)"/></g><g transform="translate(0 12.528)"><g transform="translate(21.422)"><g transform="translate(2.176)"><path class="d" d="M216.254,442.381a20.555,20.555,0,0,0-22.394,18.927c-.713,9.538-1.384,19.857-1.394,25.059-.024,11.166,11.118,13.063,11.118,13.063s-1.36,7.635-1.728,11.735c-.74,8.257,6.526,11.167,14.8,11.666h0c8.113.49,15.727-2.145,16.208-10.259l2.024-48.5a20.563,20.563,0,0,0-18.635-21.693Z" transform="translate(-192.466 -442.293)"/><g transform="translate(11.211 53.014)"><path class="e" d="M200.641,482.045s9.336.444,16.9-4.158c0,0-6.425,9.221-17.551,8.055Z" transform="translate(-199.993 -477.887)"/></g><g transform="translate(41.801 25.285)"><path class="d" d="M221.126,459.587c.191-.08,7.7-2.16,7.35,5.471s-7.941,5.7-7.944,5.481S221.126,459.587,221.126,459.587Z" transform="translate(-220.532 -459.27)"/><g transform="translate(2.457 2.516)"><path class="e" d="M222.19,466.93c.034-.022.128.1.349.213a1.329,1.329,0,0,0,.992.066c.821-.258,1.558-1.506,1.659-2.879a4.4,4.4,0,0,0-.284-1.921,1.536,1.536,0,0,0-.952-1.066.678.678,0,0,0-.8.328c-.112.21-.072.363-.112.375-.022.018-.158-.136-.082-.448a.845.845,0,0,1,.322-.463,1,1,0,0,1,.745-.161,1.87,1.87,0,0,1,1.333,1.248,4.5,4.5,0,0,1,.362,2.148c-.119,1.534-.973,2.937-2.091,3.2a1.424,1.424,0,0,1-1.206-.258C222.194,467.115,222.163,466.942,222.19,466.93Z" transform="translate(-222.182 -460.959)"/></g></g><g transform="translate(4.1 14.979)"><g transform="translate(14.176 0.408)"><path d="M204.749,454.139c.2.454,1.895.122,3.92.233,2.027.069,3.685.551,3.925.116.106-.209-.206-.627-.891-1.035a6.826,6.826,0,0,0-5.975-.265C205.01,453.533,204.663,453.923,204.749,454.139Z" transform="translate(-204.736 -452.624)"/></g><path d="M195.261,454.084c.295.395,1.483.007,2.9.009,1.422-.049,2.621.3,2.9-.1.124-.2-.06-.59-.581-.966a4.209,4.209,0,0,0-4.68.077C195.3,453.493,195.13,453.892,195.261,454.084Z" transform="translate(-195.218 -452.35)"/></g></g><g transform="translate(13.553 40.838)"><path d="M206.539,470.181c.018.341-1.408.7-3.183.793s-3.232-.1-3.251-.447,1.407-.7,3.184-.791S206.521,469.84,206.539,470.181Z" transform="translate(-200.105 -469.712)"/></g><g transform="translate(44.732 31.126)"><g transform="translate(0 5.786)"><path class="f" d="M221.078,500.392c-.01,0-.021-.061-.033-.185a2.485,2.485,0,0,1,.022-.551,5.866,5.866,0,0,1,.736-1.973,13.214,13.214,0,0,0,1.342-2.971,14.948,14.948,0,0,0,.506-4.275c0-1.615-.2-3.353-.322-5.292a2.7,2.7,0,0,1,.369-1.538,1.467,1.467,0,0,1,1.561-.721,1.271,1.271,0,0,1,.76.582A.973.973,0,0,1,226,484.5a1.5,1.5,0,0,1-1.8.35,2.706,2.706,0,0,1-1.421-3.114,2.769,2.769,0,0,1,1.059-1.54,2.023,2.023,0,0,1,.934-.371,1.234,1.234,0,0,1,1.05.356,1,1,0,0,1-.74,1.74,2.45,2.45,0,0,1-2.472-2.712,2.433,2.433,0,0,1,1.157-1.689,2.3,2.3,0,0,1,1.722-.308,1.684,1.684,0,0,1,.8.471,1.036,1.036,0,0,1,.274.992,1.081,1.081,0,0,1-.722.711,1.987,1.987,0,0,1-.886.074,3.229,3.229,0,0,1-1.5-.664,2.639,2.639,0,0,1-.973-2.927,2.317,2.317,0,0,1,2.566-1.521A1.431,1.431,0,0,1,226.2,475.5a1,1,0,0,1-.325.843,1.31,1.31,0,0,1-.77.338,2.03,2.03,0,0,1-1.4-.517,3.135,3.135,0,0,1-.883-1.076,2.009,2.009,0,0,1,.553-2.545,1.438,1.438,0,0,1,2.222.872l.027.167-.143.078a2.1,2.1,0,0,1-2.888-1.037,1.777,1.777,0,0,1,.128-1.538,2.2,2.2,0,0,1,1.074-.947,1.76,1.76,0,0,1,1.349-.009,1,1,0,0,1,.661,1.092.691.691,0,0,1-.432.518.836.836,0,0,1-.618-.034,1.163,1.163,0,0,1-.636-.837,9.462,9.462,0,0,1-.033-2.827,3.457,3.457,0,0,1,.211-.962,14.011,14.011,0,0,0,.089,3.717.877.877,0,0,0,.486.626.4.4,0,0,0,.6-.267c.125-.612-.865-.992-1.528-.654a1.585,1.585,0,0,0-.943,1.956,1.643,1.643,0,0,0,2.224.783l-.116.243a.942.942,0,0,0-1.443-.512,1.481,1.481,0,0,0-.356,1.88,2.213,2.213,0,0,0,1.737,1.267c.328-.028.623-.293.575-.559a.879.879,0,0,0-.7-.645,1.738,1.738,0,0,0-1.871,1.163,2.037,2.037,0,0,0,.791,2.236,2.625,2.625,0,0,0,1.2.535c.408.062.888-.082.932-.344.1-.24-.246-.6-.638-.694a1.678,1.678,0,0,0-1.242.237,1.815,1.815,0,0,0-.87,1.251,1.838,1.838,0,0,0,1.822,2.011c.515-.014.618-.374.335-.715-.237-.28-.81-.2-1.194.091a2.193,2.193,0,0,0-.834,1.2,2.139,2.139,0,0,0,1.071,2.434c.392.176.947.129,1.112-.133.2-.258-.049-.675-.419-.774a.943.943,0,0,0-.973.485,2.2,2.2,0,0,0-.3,1.245c.092,1.866.276,3.667.246,5.3a14.954,14.954,0,0,1-.612,4.373,12.755,12.755,0,0,1-1.462,2.989,6.394,6.394,0,0,0-.825,1.878C221.093,500.139,221.108,500.392,221.078,500.392Z" transform="translate(-221.039 -467.076)"/></g><g transform="translate(0.954)"><path class="f" d="M225.151,465.782a4.158,4.158,0,0,0-.506-1.643,1.9,1.9,0,0,0-1.379-.943,1.509,1.509,0,0,0-1.513.962,1.556,1.556,0,0,0,.563,1.689l.031.027.012.009,0,0c.045.031.094.063.131.086.2.125.481.142.681.265a1.4,1.4,0,0,1,.521,1.273,12.616,12.616,0,0,0-.113,1.436c.027.35.225.757.573.764.3.006.518-.292.643-.569A6.146,6.146,0,0,0,225.151,465.782Z" transform="translate(-221.679 -463.191)"/></g></g><g transform="translate(0 19.094)"><g class="k"><path d="M207.843,456.968c-.57-.156-1.936-.4-1.936-.4a4.89,4.89,0,0,0-7.014,0s-1.366.241-1.936.4a6.643,6.643,0,0,1,3.534,9.5h3.816a6.642,6.642,0,0,1,3.536-9.5Zm0,0" transform="translate(-188.092 -455.124)"/></g><path d="M197.219,456.54a6.215,6.215,0,1,0,6.215,6.214,6.221,6.221,0,0,0-6.215-6.214Zm0,10.14a3.925,3.925,0,1,1,3.925-3.926,3.931,3.931,0,0,1-3.925,3.926Zm0,0" transform="translate(-191.005 -454.414)"/><ellipse class="b" cx="3.939" cy="3.939" rx="3.939" ry="3.939" transform="translate(2.274 4.386)"/><ellipse class="b" cx="3.939" cy="3.939" rx="3.939" ry="3.939" transform="translate(18.462 4.386)"/><path d="M193.672,459.752a2.882,2.882,0,0,0,.1,3.639,3.462,3.462,0,0,1,3.445-4.465,2.878,2.878,0,0,0-3.545.827Zm0,0" transform="translate(-189.993 -453.39)"/><path d="M208.087,456.54a6.215,6.215,0,1,0,6.215,6.214,6.222,6.222,0,0,0-6.215-6.214Zm0,10.14a3.925,3.925,0,1,1,3.924-3.926,3.93,3.93,0,0,1-3.924,3.926Zm0,0" transform="translate(-185.686 -454.414)"/><path d="M205.368,458.926a3.462,3.462,0,0,1,3.445,4.465,2.878,2.878,0,0,0-3.445-4.465Zm0,0" transform="translate(-183.976 -453.39)"/></g></g><path class="h" d="M225.55,516.22l-.225-16.3-12.553-11.677s-20.564,1.254-28.87,8.145c-4.169,3.459-6.053,14.966-6.972,19.827Z" transform="translate(-176.471 -419.803)"/><path class="l" d="M214.814,516.031l-7.3-27.4-4.546.484c-6.6,1.031-14.836,3.012-19.343,6.75-4.094,3.4-6.057,15.312-7,20.162Z" transform="translate(-176.622 -419.613)"/><path class="m" d="M199.926,516.031h7.953l-6.961-27.4s-4.787.411-6.669.761-3.244.631-3.244.631l4.069,24.6Z" transform="translate(-169.583 -419.613)"/><path class="h" d="M258.375,516.22c-.906-4.744-2.514-15.792-6.589-19.174-8.306-6.891-29.359-8.8-29.359-8.8l-13,11.677.225,16.3Z" transform="translate(-160.57 -419.803)"/><path class="l" d="M254.944,515.891c-.974-4.788-2.937-16.438-6.914-19.737-4.505-3.739-12.746-5.719-19.343-6.748l-4.544-.486-7.166,26.971Z" transform="translate(-156.872 -419.474)"/><path class="n" d="M226.2,515.891l3.38-.976,4.069-24.6s-1.361-.282-3.244-.632-6.668-.763-6.668-.763l-6.826,26.971Z" transform="translate(-156.907 -419.474)"/><path d="M217.262,512.8l-2.836-17.558h-6.353L205.835,512.8Z" transform="translate(-162.326 -416.381)"/><path d="M207.886,492.147H214.7a1.709,1.709,0,0,1,1.838,1.975c-.7,2.86-2.325,7.238-5.241,7.238s-4.552-4.379-5.25-7.238A1.71,1.71,0,0,1,207.886,492.147Z" transform="translate(-162.242 -417.894)"/><path class="i" d="M200.364,483.945l-2.83,7.73,9.068,10.918,8.3-5.99Z" transform="translate(-166.387 -421.908)"/><path class="i" d="M225.178,483.945l1.721,6.942-8.408,11.706-9.3-5.99Z" transform="translate(-160.682 -421.908)"/></g></g><g transform="translate(835 9892.534)"><g transform="translate(41.188 0)"><path d="M763.012,535.441c-38.62-18.041-45.69-57.269-46.91-68.925a6.1,6.1,0,0,1,3.681-6.277,22.027,22.027,0,0,0,13.337-18.621,5.032,5.032,0,0,1,5.009-4.685l51.812-.3h.028a5.068,5.068,0,0,1,5.031,4.6,22.025,22.025,0,0,0,13.535,18.486,6.122,6.122,0,0,1,3.777,6.244c-1.084,11.668-7.682,51-46.1,69.469a4.085,4.085,0,0,1-3.2.018Zm-24.71-93.3a27.219,27.219,0,0,1-16.471,22.889.919.919,0,0,0-.55.947c1.141,10.9,7.627,47.62,43.3,64.456,35.472-17.252,41.53-54.042,42.544-64.958a.94.94,0,0,0-.588-.955,27.21,27.21,0,0,1-16.711-22.68Zm0,0" transform="translate(-716.068 -436.629)"/><path class="b" d="M805.07,461.461a24.038,24.038,0,0,1-14.611-19.06,3.72,3.72,0,0,0-3.729-3.2L763,439.34l-.507,0-23.721.139a3.7,3.7,0,0,0-3.693,3.2,24.043,24.043,0,0,1-13.725,18.979,4.744,4.744,0,0,0-2.627,4.9c1.458,12.134,8.8,47.7,44.07,63.967a1.14,1.14,0,0,0,.486.1,1.155,1.155,0,0,0,.482-.111c36.174-17.2,42.409-54.58,43.425-65.55a3.447,3.447,0,0,0-2.121-3.5Zm0,0" transform="translate(-714.76 -435.346)"/><path class="b" d="M759.389,517.785c-25.459-13.634-32.614-39.267-34.6-51.463a1.7,1.7,0,0,1,.8-1.731,30.754,30.754,0,0,0,13.745-18.077,1.7,1.7,0,0,1,1.628-1.249l37.623-.22a1.7,1.7,0,0,1,1.643,1.23,30.75,30.75,0,0,0,13.957,17.912,1.7,1.7,0,0,1,.817,1.724c-1.844,12.215-8.7,37.93-33.995,51.864a1.7,1.7,0,0,1-1.613.009Zm0,0" transform="translate(-711.731 -432.431)"/><path class="c" d="M791.8,461.463a24.039,24.039,0,0,1-14.667-19.52,3.035,3.035,0,0,0-3.011-2.744l-14.433.086c0,11.455,6.53,23.322,15.137,26.951a3.493,3.493,0,0,1,2.214,3.507c-.889,9.628-5.821,39.832-31.748,58.658,1.367.738,2.776,1.449,4.235,2.122a1.141,1.141,0,0,0,.485.105,1.125,1.125,0,0,0,.483-.111c36.174-17.2,42.409-54.58,43.425-65.55a3.447,3.447,0,0,0-2.12-3.5Zm0,0" transform="translate(-701.492 -435.347)"/><g transform="translate(35.84 32.215)"><path class="o" d="M764.96,459.187l-.778.268-.267-.778a.821.821,0,1,0-1.553.534l.267.778-14.86,5.106-3.107,1.067-3.107,1.067a.822.822,0,0,0-.509,1.043.823.823,0,0,1-.51,1.045.82.82,0,0,0-.51,1.043l1.067,3.107.534,1.553a.82.82,0,0,0,1.043.509.823.823,0,0,1,1.026.465l1.815,9.48a2.463,2.463,0,0,0,3.219,1.867l3.056-1.049a2.47,2.47,0,0,0,1.612-2.828l-.9-4.364,3.176-1.091h0L755.7,478a2.465,2.465,0,0,0,1.512-3.125l-.8-2.329,8.646-2.972a.822.822,0,0,0,.549-.668l.418-3.137,1.073-.369a.82.82,0,0,0,.51-1.043L766,459.7A.821.821,0,0,0,764.96,459.187Zm-19.2,8.336,1.469-.5.031,3.462-1.469.505ZM741.8,470.47a2.478,2.478,0,0,0,.932-1.908l1.385-.477.031,3.464-1.77.608Zm11.014,6.785a1.643,1.643,0,0,1-1.067-3.107l.033-.01a4.047,4.047,0,0,0,1.434,2.979Zm2.84-1.845a.823.823,0,0,1-.349.968,2.422,2.422,0,0,1-1.842-2.821l1.39-.477Zm8.385-7.223-12.826,4.408a3.282,3.282,0,0,0-.5,5.992l1.074,5.208a.823.823,0,0,1-.538.943l-3.056,1.051a.82.82,0,0,1-1.073-.622c-1.954-10.213-1.829-9.579-1.857-9.661a2.466,2.466,0,0,0-2.308-1.662l-.046-.133,21.371-7.344Zm1.743-4.072-16.889,5.8-.033-3.462,15.854-5.448Z" transform="translate(-739.982 -458.123)"/></g></g><g transform="translate(0 12.607)"><g transform="translate(21.901)"><g transform="translate(1.384)"><path class="p" d="M728.061,445.13a20.685,20.685,0,0,0-22.536,19.046c-.718,9.6-1.392,19.982-1.4,25.216-.022,11.236,11.188,13.146,11.188,13.146s-1.367,7.683-1.737,11.809c-.745,8.309,6.566,11.238,14.893,11.74h0c8.164.493,15.827-2.158,16.311-10.323l2.035-48.8a20.692,20.692,0,0,0-18.752-21.829Z" transform="translate(-704.123 -445.041)"/><g transform="translate(11.281 53.347)"><path class="q" d="M712.3,484.82s9.4.447,17.011-4.184c0,0-6.467,9.279-17.663,8.105Z" transform="translate(-711.65 -480.635)"/></g><g transform="translate(42.066 25.445)"><path class="p" d="M732.786,462.337c.193-.081,7.751-2.173,7.4,5.505s-7.99,5.736-7.993,5.515S732.786,462.337,732.786,462.337Z" transform="translate(-732.19 -462.018)"/><g transform="translate(2.471 2.532)"><path class="q" d="M733.846,469.716c.036-.023.13.1.351.214a1.339,1.339,0,0,0,1,.066c.824-.259,1.568-1.515,1.668-2.9a4.423,4.423,0,0,0-.285-1.933,1.549,1.549,0,0,0-.959-1.073.683.683,0,0,0-.806.33c-.112.211-.07.366-.112.378-.023.018-.159-.136-.082-.451a.852.852,0,0,1,.325-.466,1.006,1.006,0,0,1,.748-.162,1.884,1.884,0,0,1,1.343,1.256,4.551,4.551,0,0,1,.365,2.161c-.122,1.544-.981,2.955-2.106,3.224a1.429,1.429,0,0,1-1.212-.259C733.852,469.9,733.82,469.728,733.846,469.716Z" transform="translate(-733.839 -463.707)"/></g></g><g transform="translate(3.553 15.073)"><g transform="translate(0.663 6.465)"><g transform="translate(1.551 2.292)"><path d="M707.972,462.368a1.6,1.6,0,0,0,1.524,1.641,1.534,1.534,0,0,0,1.674-1.422,1.606,1.606,0,0,0-1.523-1.643A1.536,1.536,0,0,0,707.972,462.368Z" transform="translate(-707.97 -460.94)"/></g><path d="M706.96,461.054c.2.211,1.425-.67,3.152-.642,1.725,0,2.978.911,3.17.7.093-.093-.1-.474-.65-.882a4.4,4.4,0,0,0-2.534-.822,4.221,4.221,0,0,0-2.511.772C707.05,460.582,706.864,460.958,706.96,461.054Z" transform="translate(-706.936 -459.411)"/><g transform="translate(16.967 0.567)"><g transform="translate(1.883 2.201)"><path d="M719.515,462.685a1.605,1.605,0,0,0,1.524,1.641,1.535,1.535,0,0,0,1.674-1.424,1.6,1.6,0,0,0-1.523-1.641A1.535,1.535,0,0,0,719.515,462.685Z" transform="translate(-719.513 -461.257)"/></g><path d="M718.281,461.43c.195.213,1.425-.67,3.15-.64,1.725,0,2.979.911,3.17.7.093-.093-.1-.474-.65-.883a4.4,4.4,0,0,0-2.533-.821,4.236,4.236,0,0,0-2.512.77C718.371,460.96,718.184,461.336,718.281,461.43Z" transform="translate(-718.256 -459.789)"/></g><g transform="translate(6.16 0.548)"><path d="M715.427,474.15a11.507,11.507,0,0,0-2.8-.546c-.44-.052-.856-.145-.926-.448a2.244,2.244,0,0,1,.313-1.3q.646-1.592,1.352-3.338c1.879-4.754,3.246-8.666,3.054-8.739s-1.872,3.718-3.75,8.472q-.681,1.758-1.3,3.36a2.559,2.559,0,0,0-.255,1.727,1.11,1.11,0,0,0,.717.655,3.02,3.02,0,0,0,.748.114A11.154,11.154,0,0,0,715.427,474.15Z" transform="translate(-711.046 -459.776)"/></g></g><g transform="translate(15.649 0.896)"><path d="M716.948,457.221c.2.457,1.907.121,3.943.232,2.04.07,3.709.555,3.95.117.106-.208-.207-.631-.895-1.042a6.878,6.878,0,0,0-6.015-.265C717.209,456.611,716.86,457,716.948,457.221Z" transform="translate(-716.935 -455.695)"/></g><path d="M706.536,456.843c.3.4,1.493.008,2.923.009,1.431-.05,2.638.3,2.923-.1.124-.2-.06-.594-.585-.973a4.235,4.235,0,0,0-4.709.078C706.577,456.248,706.4,456.65,706.536,456.843Z" transform="translate(-706.494 -455.098)"/></g></g><g transform="translate(13.32 41.095)"><path d="M718.562,472.932c.018.343-1.416.7-3.2.8s-3.253-.1-3.27-.449,1.416-.7,3.2-.8S718.544,472.589,718.562,472.932Z" transform="translate(-712.087 -472.46)"/></g><g transform="translate(0 19.207)"><g transform="translate(28.512 1.288)"><path d="M737.559,464.317a7.772,7.772,0,0,1-2.35-.514c-1.424-.426-3.345-1.141-5.434-1.987l-5.345-2.151a11.308,11.308,0,0,1-2.206-.931,7.769,7.769,0,0,1,2.35.514c1.423.426,3.345,1.141,5.434,1.989l5.344,2.149A11.281,11.281,0,0,1,737.559,464.317Z" transform="translate(-722.224 -458.715)"/></g><path d="M715.1,458.112a2.292,2.292,0,0,1,2.01,1.912,9.547,9.547,0,0,1-6.99,10.706,5.585,5.585,0,0,1-4.383-.411c-1.787-1.13-2.338-3.466-2.494-5.575a7.135,7.135,0,0,1,.774-4.478c1.081-1.647,3.2-2.283,5.168-2.389a58.968,58.968,0,0,1,5.916.236Z" transform="translate(-703.2 -457.856)"/><g transform="translate(18.689 0.409)"><path d="M717.912,458.255a2.319,2.319,0,0,0-2.088,1.875,9.653,9.653,0,0,0,6.755,11.026,5.654,5.654,0,0,0,4.444-.288c1.839-1.091,2.464-3.437,2.685-5.563a7.225,7.225,0,0,0-.652-4.55c-1.046-1.7-3.17-2.4-5.158-2.566a59.594,59.594,0,0,0-5.986.066Z" transform="translate(-715.669 -458.129)"/></g><g transform="translate(9.582 0.383)"><path d="M722.756,458.582c0,.171-2.952.252-6.587.18s-6.58-.271-6.577-.444,2.953-.252,6.589-.18S722.761,458.409,722.756,458.582Z" transform="translate(-709.593 -458.111)"/></g></g><g transform="translate(44.208 31.322)"><g transform="translate(0 5.822)"><path class="f" d="M732.736,503.35c-.012,0-.022-.061-.033-.186a2.5,2.5,0,0,1,.021-.555,5.9,5.9,0,0,1,.742-1.986,13.364,13.364,0,0,0,1.35-2.99,15.087,15.087,0,0,0,.508-4.3c0-1.625-.2-3.374-.322-5.325a2.717,2.717,0,0,1,.37-1.55,1.478,1.478,0,0,1,1.572-.724,1.282,1.282,0,0,1,.764.586.985.985,0,0,1-.022,1.034,1.512,1.512,0,0,1-1.81.351,2.72,2.72,0,0,1-1.43-3.132,2.789,2.789,0,0,1,1.065-1.55,2.037,2.037,0,0,1,.942-.373,1.237,1.237,0,0,1,1.055.358,1.005,1.005,0,0,1-.745,1.751,2.466,2.466,0,0,1-2.488-2.729,2.446,2.446,0,0,1,1.166-1.7,2.305,2.305,0,0,1,1.731-.31,1.7,1.7,0,0,1,.809.473,1.046,1.046,0,0,1,.274,1,1.086,1.086,0,0,1-.727.715,2,2,0,0,1-.891.075,3.235,3.235,0,0,1-1.506-.67,2.654,2.654,0,0,1-.979-2.944,2.332,2.332,0,0,1,2.582-1.53,1.44,1.44,0,0,1,1.149,1.162,1.017,1.017,0,0,1-.328.848,1.318,1.318,0,0,1-.775.34,2.053,2.053,0,0,1-1.4-.52,3.153,3.153,0,0,1-.887-1.082,2.022,2.022,0,0,1,.555-2.561,1.447,1.447,0,0,1,2.236.878l.027.168-.144.078a2.11,2.11,0,0,1-2.9-1.043,1.783,1.783,0,0,1,.129-1.548,2.215,2.215,0,0,1,1.079-.953,1.762,1.762,0,0,1,1.358-.009,1,1,0,0,1,.665,1.1.693.693,0,0,1-.433.522.846.846,0,0,1-.624-.034,1.168,1.168,0,0,1-.638-.842,9.417,9.417,0,0,1-.033-2.845,3.447,3.447,0,0,1,.211-.968,14.283,14.283,0,0,0,.09,3.741.888.888,0,0,0,.49.63.407.407,0,0,0,.6-.268c.126-.617-.871-1-1.538-.658a1.594,1.594,0,0,0-.948,1.968,1.653,1.653,0,0,0,2.238.788l-.117.244a.949.949,0,0,0-1.453-.515,1.49,1.49,0,0,0-.36,1.891,2.226,2.226,0,0,0,1.749,1.276c.33-.028.625-.3.577-.562a.879.879,0,0,0-.707-.649,1.75,1.75,0,0,0-1.882,1.17,2.051,2.051,0,0,0,.8,2.25,2.643,2.643,0,0,0,1.206.538c.41.063.892-.082.937-.346.1-.243-.246-.607-.64-.7a1.692,1.692,0,0,0-1.252.238,1.829,1.829,0,0,0-.875,1.259,1.754,1.754,0,0,0,.48,1.424,1.774,1.774,0,0,0,1.355.6c.517-.013.621-.376.337-.719-.24-.282-.815-.2-1.2.091a2.2,2.2,0,0,0-.838,1.211,2.152,2.152,0,0,0,1.076,2.449c.4.177.953.13,1.121-.133.2-.259-.051-.679-.423-.779a.947.947,0,0,0-.977.489,2.19,2.19,0,0,0-.3,1.253c.091,1.878.277,3.69.246,5.33a14.971,14.971,0,0,1-.616,4.4,12.841,12.841,0,0,1-1.472,3.008,6.425,6.425,0,0,0-.829,1.89C732.75,503.095,732.765,503.35,732.736,503.35Z" transform="translate(-732.696 -469.824)"/></g><g transform="translate(0.96)"><path class="f" d="M736.829,468.547a4.205,4.205,0,0,0-.508-1.653,1.915,1.915,0,0,0-1.388-.949,1.519,1.519,0,0,0-1.524.968,1.565,1.565,0,0,0,.566,1.7l.033.027.011.009,0,0c.046.032.094.063.134.087.2.126.483.142.683.267a1.408,1.408,0,0,1,.526,1.281,12.715,12.715,0,0,0-.115,1.445c.027.352.226.761.578.769.306.006.52-.294.648-.572A6.186,6.186,0,0,0,736.829,468.547Z" transform="translate(-733.336 -465.939)"/></g></g><g transform="translate(0.958 21.115)"><path class="g" d="M704.212,464.125c-.148.073-.67-1.243-.143-2.81s1.718-2.316,1.794-2.167c.118.138-.763.988-1.2,2.364C704.193,462.876,704.39,464.085,704.212,464.125Z" transform="translate(-703.839 -459.129)"/></g><g transform="translate(19.947 21.538)"><path class="g" d="M717.418,464.268c-.128.105-.916-.911-.909-2.425-.008-1.514.782-2.53.909-2.425.16.087-.3,1.1-.285,2.425C717.119,463.164,717.576,464.181,717.418,464.268Z" transform="translate(-716.509 -459.411)"/></g></g><path class="h" d="M737.238,499.283,724.656,491s-20.7,1.262-29.052,8.2c-4.195,3.48-6.091,15.06-7.017,19.952h48.925" transform="translate(-688.587 -422.12)"/><path class="h" d="M721.415,519.144h49.033c-.911-4.773-2.528-15.891-6.631-19.295-8.358-6.935-29.543-8.853-29.543-8.853l-13.414,8.159" transform="translate(-672.49 -422.12)"/><path class="i" d="M711.691,487.866l-2.12,5.791,8.4,12.975,8.347-6.028Z" transform="translate(-678.121 -423.681)"/><path class="i" d="M736.829,487.866l1.98,5.768-8.709,13-9.357-6.028Z" transform="translate(-672.549 -423.681)"/></g></g><g transform="translate(1007 9891.898)"><g transform="translate(40.494 0)"><path d="M198.144,169.555c-38.716-18.086-45.8-57.412-47.027-69.1a6.114,6.114,0,0,1,3.69-6.293A22.084,22.084,0,0,0,168.178,75.5a5.044,5.044,0,0,1,5.021-4.7l51.94-.3h.029a5.083,5.083,0,0,1,5.045,4.607,22.078,22.078,0,0,0,13.569,18.532,6.136,6.136,0,0,1,3.785,6.259c-1.086,11.7-7.7,51.13-46.213,69.642a4.094,4.094,0,0,1-3.211.018ZM173.371,76.02A27.286,27.286,0,0,1,156.86,98.965a.923.923,0,0,0-.553.95c1.143,10.931,7.646,47.739,43.412,64.617,35.563-17.3,41.636-54.177,42.652-65.118a.945.945,0,0,0-.589-.959,27.281,27.281,0,0,1-16.754-22.737Zm0,0" transform="translate(-151.083 -70.497)"/><path class="b" d="M240.3,95.385a24.1,24.1,0,0,1-14.646-19.107,3.73,3.73,0,0,0-3.738-3.208l-23.789.138-.508,0-23.782.14a3.715,3.715,0,0,0-3.7,3.2,24.1,24.1,0,0,1-13.758,19.026,4.757,4.757,0,0,0-2.635,4.909c1.462,12.164,8.827,47.817,44.183,64.127a1.131,1.131,0,0,0,.485.105,1.146,1.146,0,0,0,.484-.111c36.264-17.246,42.515-54.717,43.535-65.713a3.457,3.457,0,0,0-2.128-3.513Zm0,0" transform="translate(-149.765 -69.204)"/><path class="b" d="M194.489,151.835c-25.521-13.668-32.694-39.366-34.687-51.591a1.7,1.7,0,0,1,.8-1.735A30.823,30.823,0,0,0,174.38,80.386a1.707,1.707,0,0,1,1.632-1.252l37.719-.221a1.708,1.708,0,0,1,1.647,1.234A30.822,30.822,0,0,0,229.368,98.1a1.7,1.7,0,0,1,.817,1.728c-1.847,12.245-8.721,38.025-34.08,51.994a1.7,1.7,0,0,1-1.617.009Zm0,0" transform="translate(-146.713 -66.267)"/><path class="c" d="M226.932,95.387a24.105,24.105,0,0,1-14.7-19.569,3.042,3.042,0,0,0-3.019-2.751l-14.469.086c0,11.484,6.548,23.38,15.175,27.018a3.5,3.5,0,0,1,2.219,3.516c-.891,9.652-5.834,39.932-31.826,58.8,1.37.739,2.781,1.453,4.246,2.128a1.131,1.131,0,0,0,.485.105,1.119,1.119,0,0,0,.484-.111c36.264-17.246,42.515-54.717,43.535-65.713a3.457,3.457,0,0,0-2.128-3.513Zm0,0" transform="translate(-136.397 -69.206)"/><path d="M184.916,115.1l-8.023-7.22a1.8,1.8,0,0,1-.071-2.637,2.043,2.043,0,0,1,2.781-.069l6.322,5.691,11.427-16.35a2.035,2.035,0,0,1,2.726-.524,1.808,1.808,0,0,1,.554,2.586l-12.722,18.2a2.071,2.071,0,0,1-2.995.322Zm0,0" transform="translate(-138.421 -58.848)"/></g><g transform="translate(0 12.638)"><g transform="translate(21.956)"><g transform="translate(1.387)"><path class="p" d="M163.666,79a20.737,20.737,0,0,0-22.592,19.094c-.72,9.622-1.4,20.031-1.406,25.28-.023,11.264,11.218,13.178,11.218,13.178s-1.372,7.7-1.743,11.838c-.747,8.33,6.582,11.266,14.93,11.769h0c8.184.494,15.866-2.164,16.352-10.349l2.04-48.926A20.742,20.742,0,0,0,163.666,79Z" transform="translate(-139.668 -78.909)"/><g transform="translate(11.309 53.481)"><path class="q" d="M147.849,118.7s9.419.448,17.053-4.2c0,0-6.483,9.3-17.707,8.126Z" transform="translate(-147.195 -114.503)"/></g><g transform="translate(42.171 25.508)"><path class="p" d="M168.333,96.206c.194-.081,7.771-2.179,7.415,5.519s-8.01,5.75-8.013,5.529S168.333,96.206,168.333,96.206Z" transform="translate(-167.735 -95.886)"/><g transform="translate(2.478 2.538)"><path class="q" d="M169.393,103.6c.035-.023.129.1.35.215a1.343,1.343,0,0,0,1,.066c.826-.26,1.572-1.519,1.672-2.9a4.436,4.436,0,0,0-.285-1.938,1.549,1.549,0,0,0-.962-1.076.685.685,0,0,0-.808.331c-.113.212-.071.367-.113.379-.023.018-.159-.137-.083-.452a.856.856,0,0,1,.326-.467,1.007,1.007,0,0,1,.75-.162,1.889,1.889,0,0,1,1.346,1.259,4.561,4.561,0,0,1,.365,2.167c-.122,1.548-.983,2.963-2.109,3.232a1.434,1.434,0,0,1-1.217-.26C169.4,103.785,169.364,103.611,169.393,103.6Z" transform="translate(-169.384 -97.575)"/></g></g><g transform="translate(3.562 15.111)"><g transform="translate(0.665 6.481)"><g transform="translate(1.554 2.298)"><path d="M143.518,96.24a1.609,1.609,0,0,0,1.528,1.645,1.538,1.538,0,0,0,1.678-1.426,1.61,1.61,0,0,0-1.527-1.647A1.54,1.54,0,0,0,143.518,96.24Z" transform="translate(-143.516 -94.808)"/></g><path d="M142.506,94.926c.2.212,1.427-.672,3.158-.643,1.729,0,2.987.914,3.178.7.093-.093-.105-.475-.652-.885a4.424,4.424,0,0,0-2.539-.823,4.236,4.236,0,0,0-2.518.774C142.595,94.453,142.409,94.83,142.506,94.926Z" transform="translate(-142.481 -93.279)"/><g transform="translate(17.009 0.568)"><g transform="translate(1.887 2.206)"><path d="M155.06,96.557a1.611,1.611,0,0,0,1.528,1.645,1.539,1.539,0,0,0,1.678-1.427,1.608,1.608,0,0,0-1.526-1.645A1.539,1.539,0,0,0,155.06,96.557Z" transform="translate(-155.058 -95.125)"/></g><path d="M153.826,95.3c.2.213,1.429-.672,3.158-.642,1.729,0,2.987.914,3.178.7.093-.093-.1-.475-.652-.885a4.406,4.406,0,0,0-2.539-.823,4.247,4.247,0,0,0-2.518.772C153.916,94.831,153.73,95.208,153.826,95.3Z" transform="translate(-153.802 -93.657)"/></g><g transform="translate(6.175 0.549)"><path d="M150.983,108.054a11.522,11.522,0,0,0-2.8-.547c-.442-.053-.858-.146-.929-.449a2.25,2.25,0,0,1,.314-1.306l1.355-3.346c1.884-4.766,3.254-8.687,3.062-8.761s-1.875,3.729-3.759,8.494c-.454,1.176-.888,2.3-1.3,3.369a2.554,2.554,0,0,0-.254,1.731,1.109,1.109,0,0,0,.717.657,2.956,2.956,0,0,0,.75.114A11.18,11.18,0,0,0,150.983,108.054Z" transform="translate(-146.591 -93.644)"/></g></g><g transform="translate(15.688 0.898)"><path d="M152.493,91.092c.2.458,1.911.122,3.953.233,2.045.071,3.719.556,3.959.117.107-.209-.207-.633-.9-1.044a6.894,6.894,0,0,0-6.03-.266C152.755,90.481,152.4,90.875,152.493,91.092Z" transform="translate(-152.48 -89.563)"/></g><path d="M142.081,90.715c.3.4,1.5.007,2.931.009,1.433-.05,2.643.3,2.928-.105.126-.2-.06-.595-.586-.975a4.246,4.246,0,0,0-4.721.078C142.122,90.119,141.949,90.521,142.081,90.715Z" transform="translate(-142.039 -88.966)"/></g></g><g transform="translate(13.353 41.198)"><path d="M154.123,106.8c.018.344-1.42.7-3.212.8s-3.259-.105-3.278-.451,1.42-.7,3.212-.8S154.1,106.457,154.123,106.8Z" transform="translate(-147.632 -106.328)"/></g><g transform="translate(0 19.256)"><g transform="translate(28.584 1.291)"><path d="M173.144,98.2a7.8,7.8,0,0,1-2.357-.515c-1.427-.427-3.354-1.142-5.447-1.992l-5.358-2.156a11.381,11.381,0,0,1-2.213-.933,7.847,7.847,0,0,1,2.356.515c1.427.427,3.354,1.143,5.448,1.994l5.358,2.155A11.433,11.433,0,0,1,173.144,98.2Z" transform="translate(-157.769 -92.584)"/></g><path d="M150.678,91.981a2.3,2.3,0,0,1,2.015,1.917,9.566,9.566,0,0,1-7.008,10.732,5.6,5.6,0,0,1-4.393-.412c-1.791-1.133-2.344-3.475-2.5-5.589a7.153,7.153,0,0,1,.775-4.489c1.083-1.651,3.209-2.288,5.181-2.395s5.93.236,5.93.236Z" transform="translate(-138.745 -91.724)"/><g transform="translate(18.735 0.41)"><path d="M153.463,92.123A2.325,2.325,0,0,0,151.37,94a9.678,9.678,0,0,0,6.772,11.054,5.661,5.661,0,0,0,4.455-.288c1.844-1.094,2.47-3.445,2.691-5.577a7.242,7.242,0,0,0-.654-4.562c-1.049-1.7-3.178-2.407-5.169-2.572a59.751,59.751,0,0,0-6,.066Z" transform="translate(-151.214 -91.997)"/></g><g transform="translate(9.608 0.383)"><path d="M158.334,92.451c0,.171-2.96.252-6.6.18s-6.6-.272-6.592-.445,2.958-.252,6.6-.18S158.338,92.278,158.334,92.451Z" transform="translate(-145.139 -91.979)"/></g></g><g transform="translate(44.318 31.4)"><g transform="translate(0 5.837)"><path class="f" d="M168.282,137.3c-.011,0-.023-.062-.033-.186a2.483,2.483,0,0,1,.021-.556,5.926,5.926,0,0,1,.744-1.991,13.392,13.392,0,0,0,1.354-3,15.127,15.127,0,0,0,.509-4.312c0-1.629-.2-3.382-.323-5.338a2.72,2.72,0,0,1,.371-1.552,1.482,1.482,0,0,1,1.576-.727,1.292,1.292,0,0,1,.766.587.988.988,0,0,1-.023,1.037,1.519,1.519,0,0,1-1.815.353A2.729,2.729,0,0,1,170,118.477a2.8,2.8,0,0,1,1.068-1.554,2.047,2.047,0,0,1,.944-.374,1.246,1.246,0,0,1,1.059.359,1.008,1.008,0,0,1-.748,1.755,2.472,2.472,0,0,1-2.494-2.736,2.457,2.457,0,0,1,1.169-1.7,2.311,2.311,0,0,1,1.735-.311,1.7,1.7,0,0,1,.811.475,1.049,1.049,0,0,1,.275,1,1.088,1.088,0,0,1-.729.717,2,2,0,0,1-.892.075,3.256,3.256,0,0,1-1.51-.67,2.664,2.664,0,0,1-.981-2.952,2.338,2.338,0,0,1,2.589-1.534,1.445,1.445,0,0,1,1.152,1.164,1.02,1.02,0,0,1-.329.85,1.322,1.322,0,0,1-.777.341,2.051,2.051,0,0,1-1.408-.521,3.146,3.146,0,0,1-.89-1.085,2.027,2.027,0,0,1,.556-2.568,1.45,1.45,0,0,1,2.242.88l.027.168-.144.078a2.115,2.115,0,0,1-2.912-1.046,1.787,1.787,0,0,1,.129-1.552,2.22,2.22,0,0,1,1.082-.956,1.778,1.778,0,0,1,1.363-.009,1.009,1.009,0,0,1,.667,1.1.7.7,0,0,1-.436.523.847.847,0,0,1-.625-.035,1.172,1.172,0,0,1-.64-.844,9.5,9.5,0,0,1-.033-2.852,3.532,3.532,0,0,1,.212-.971,14.3,14.3,0,0,0,.09,3.75.886.886,0,0,0,.491.631.407.407,0,0,0,.606-.269c.126-.617-.873-1-1.542-.66a1.6,1.6,0,0,0-.95,1.973,1.657,1.657,0,0,0,2.243.79l-.117.245a.951.951,0,0,0-1.456-.517,1.494,1.494,0,0,0-.361,1.9,2.235,2.235,0,0,0,1.753,1.279c.331-.029.627-.3.578-.563a.883.883,0,0,0-.709-.651,1.755,1.755,0,0,0-1.887,1.173,2.056,2.056,0,0,0,.8,2.255,2.64,2.64,0,0,0,1.208.539c.412.063.894-.083.939-.347.1-.242-.246-.609-.642-.7a1.7,1.7,0,0,0-1.255.239,1.835,1.835,0,0,0-.877,1.262,1.856,1.856,0,0,0,1.839,2.028c.518-.014.623-.377.338-.721-.24-.282-.817-.2-1.207.092a2.21,2.21,0,0,0-.84,1.214,2.157,2.157,0,0,0,1.079,2.455c.4.177.956.131,1.124-.134.2-.26-.051-.681-.424-.781a.949.949,0,0,0-.98.49,2.2,2.2,0,0,0-.3,1.256c.093,1.883.278,3.7.246,5.343a14.984,14.984,0,0,1-.618,4.411,12.806,12.806,0,0,1-1.476,3.016,6.483,6.483,0,0,0-.831,1.895C168.3,137.046,168.31,137.3,168.282,137.3Z" transform="translate(-168.241 -103.692)"/></g><g transform="translate(0.962)"><path class="f" d="M172.385,102.421a4.243,4.243,0,0,0-.511-1.657,1.919,1.919,0,0,0-1.391-.951,1.523,1.523,0,0,0-1.528.971,1.57,1.57,0,0,0,.568,1.7l.033.027.011.009,0,0c.047.032.095.063.134.087.2.126.484.143.685.267a1.412,1.412,0,0,1,.527,1.285,12.748,12.748,0,0,0-.116,1.448c.027.353.227.763.58.771.307.006.521-.294.649-.574A6.2,6.2,0,0,0,172.385,102.421Z" transform="translate(-168.881 -99.807)"/></g></g><g transform="translate(0.961 21.167)"><path class="g" d="M139.758,98.005c-.149.074-.672-1.246-.143-2.817s1.722-2.321,1.8-2.173c.119.138-.765.99-1.2,2.369C139.739,96.755,139.937,97.966,139.758,98.005Z" transform="translate(-139.384 -92.997)"/></g><g transform="translate(19.997 21.592)"><path class="g" d="M152.964,98.149c-.128.105-.918-.913-.91-2.431-.008-1.518.784-2.536.912-2.431.159.089-.3,1.107-.287,2.431C152.665,97.041,153.124,98.061,152.964,98.149Z" transform="translate(-152.054 -93.279)"/></g></g><path class="r" d="M173.18,153.082l-.227-16.439-12.661-11.78s-20.745,1.265-29.125,8.217c-4.206,3.489-6.106,15.1-7.035,20Z" transform="translate(-124.132 -55.816)"/><path class="r" d="M206.009,153.082c-.915-4.785-2.536-15.931-6.648-19.343-8.379-6.952-29.616-8.875-29.616-8.875l-13.12,11.78.227,16.439Z" transform="translate(-107.804 -55.816)"/><path class="s" d="M158.168,133.74l-1.391,8.876,12.891-17.753Z" transform="translate(-107.728 -55.816)"/><path class="t" d="M164.565,148.716l-2.861-16.86h-6.409l-2.258,16.86Z" transform="translate(-109.607 -52.302)"/><path class="t" d="M155.105,128.763h6.875a1.725,1.725,0,0,1,1.854,1.992c-.7,2.885-2.347,7.3-5.289,7.3s-4.59-4.417-5.295-7.3A1.724,1.724,0,0,1,155.105,128.763Z" transform="translate(-109.521 -53.857)"/><path class="i" d="M147.55,120.5l-2.855,7.8,9.148,11.015,8.368-6.043Z" transform="translate(-113.799 -58.008)"/><path class="i" d="M172.479,120.5l1.736,7-8.482,11.809-9.381-6.043Z" transform="translate(-107.941 -58.008)"/><path class="u" d="M186.762,131.118l-1.46,3.4a2.833,2.833,0,0,1-3.783,1.291l-5.018-2.155a2.833,2.833,0,0,1-1.672-3.63l1.324-3.085" transform="translate(-98.757 -54.771)"/><path class="u" d="M141.86,126.762l1.1,3.537a2.833,2.833,0,0,1-2.037,3.438l-5.215,1.623a2.833,2.833,0,0,1-3.629-1.675l-1-3.2" transform="translate(-120.64 -54.862)"/></g></g><g transform="translate(1179 9892.808)"><g transform="translate(41.522 0)"><path d="M254.518,239.062H158.387a6.387,6.387,0,0,0-6.38,6.38V308.82a6.386,6.386,0,0,0,6.38,6.38H189.65v20.722h3.63V315.2h25.753v20.722h4.221V315.2h31.264a6.387,6.387,0,0,0,6.38-6.38V245.442A6.388,6.388,0,0,0,254.518,239.062Zm0,69.758H158.387V245.442h96.131C254.523,310.2,254.538,308.82,254.518,308.82Z" transform="translate(-152.007 -239.062)"/><path d="M219.617,285.07" transform="translate(-117.106 -215.312)"/></g><path class="b" d="M255.93,246.824v57.935a5.086,5.086,0,0,1-5.094,5.094H159.544a5.1,5.1,0,0,1-5.095-5.094V246.824a5.106,5.106,0,0,1,5.095-5.095h91.291A5.1,5.1,0,0,1,255.93,246.824Z" transform="translate(-109.224 -237.685)"/><path class="c" d="M255.93,246.824v57.935a5.086,5.086,0,0,1-5.094,5.094H236.689c7.642-14.252,17.932-47.066,0-57.636-15.449-9.1-82.235-5.393-82.235-5.393a5.106,5.106,0,0,1,5.095-5.095h91.291A5.1,5.1,0,0,1,255.93,246.824Z" transform="translate(-109.224 -237.685)"/><line class="v" x2="50.57" transform="translate(70.615 97.037)"/><g transform="translate(0 10.842)"><g transform="translate(22.622)"><g transform="translate(1.401)"><path class="p" d="M164.683,246.3a20.926,20.926,0,0,0-22.8,19.268c-.726,9.71-1.408,20.214-1.419,25.51-.023,11.367,11.318,13.3,11.318,13.3s-1.384,7.772-1.757,11.946c-.754,8.406,6.643,11.369,15.067,11.876h0c8.259.5,16.01-2.183,16.5-10.444l2.059-49.372A20.933,20.933,0,0,0,164.683,246.3Z" transform="translate(-140.466 -246.213)"/><g transform="translate(11.413 53.969)"><path class="q" d="M148.652,286.04s9.505.452,17.207-4.233c0,0-6.541,9.387-17.867,8.2Z" transform="translate(-147.993 -281.807)"/></g><g transform="translate(42.554 25.741)"><path class="p" d="M169.137,263.513c.194-.082,7.842-2.2,7.483,5.569s-8.083,5.8-8.087,5.58S169.137,263.513,169.137,263.513Z" transform="translate(-168.532 -263.19)"/><g transform="translate(2.501 2.561)"><path class="q" d="M170.19,270.958c.036-.023.132.1.355.217a1.355,1.355,0,0,0,1.011.067c.834-.262,1.584-1.533,1.688-2.931a4.476,4.476,0,0,0-.288-1.956,1.566,1.566,0,0,0-.97-1.086.69.69,0,0,0-.816.334c-.114.214-.071.37-.114.382-.023.018-.161-.138-.083-.456a.863.863,0,0,1,.329-.471,1.017,1.017,0,0,1,.757-.164,1.9,1.9,0,0,1,1.357,1.271,4.584,4.584,0,0,1,.37,2.186c-.123,1.562-.992,2.99-2.13,3.261a1.45,1.45,0,0,1-1.228-.262C170.2,271.145,170.162,270.97,170.19,270.958Z" transform="translate(-170.182 -264.879)"/></g></g><g transform="translate(3.593 15.248)"><g transform="translate(0.671 6.54)"><g transform="translate(1.569 2.319)"><path d="M144.316,263.557a1.622,1.622,0,0,0,1.542,1.66,1.552,1.552,0,0,0,1.694-1.439,1.624,1.624,0,0,0-1.54-1.662A1.554,1.554,0,0,0,144.316,263.557Z" transform="translate(-144.314 -262.112)"/></g><path d="M143.3,262.245c.2.214,1.442-.678,3.189-.649,1.745,0,3.013.922,3.207.711.094-.094-.106-.479-.658-.893a4.466,4.466,0,0,0-2.564-.831,4.269,4.269,0,0,0-2.54.781C143.393,261.767,143.206,262.148,143.3,262.245Z" transform="translate(-143.279 -260.583)"/><g transform="translate(17.165 0.573)"><g transform="translate(1.905 2.226)"><path d="M155.858,263.874a1.624,1.624,0,0,0,1.542,1.66,1.553,1.553,0,0,0,1.694-1.44,1.623,1.623,0,0,0-1.541-1.66A1.553,1.553,0,0,0,155.858,263.874Z" transform="translate(-155.856 -262.429)"/></g><path d="M154.624,262.621c.2.215,1.442-.678,3.187-.647,1.745,0,3.014.922,3.207.711.094-.094-.1-.479-.658-.893a4.445,4.445,0,0,0-2.562-.831,4.275,4.275,0,0,0-2.541.781C154.715,262.145,154.526,262.526,154.624,262.621Z" transform="translate(-154.6 -260.961)"/></g><g transform="translate(6.232 0.554)"><path d="M151.821,275.49a11.628,11.628,0,0,0-2.829-.552c-.446-.053-.867-.147-.937-.453a2.271,2.271,0,0,1,.317-1.318l1.368-3.377c1.9-4.809,3.284-8.767,3.09-8.841s-1.894,3.763-3.8,8.571c-.458,1.187-.9,2.317-1.312,3.4a2.588,2.588,0,0,0-.258,1.747,1.122,1.122,0,0,0,.725.663,2.974,2.974,0,0,0,.755.115A11.284,11.284,0,0,0,151.821,275.49Z" transform="translate(-147.389 -260.948)"/></g></g><g transform="translate(15.832 0.906)"><path d="M153.292,258.41c.2.462,1.929.123,3.989.235,2.064.071,3.753.561,4,.118.108-.211-.209-.638-.907-1.054a6.952,6.952,0,0,0-6.083-.268C153.555,257.793,153.2,258.191,153.292,258.41Z" transform="translate(-153.278 -256.867)"/></g><path d="M142.878,258.035c.3.4,1.512.008,2.958.009,1.448-.05,2.669.3,2.957-.106.126-.2-.061-.6-.591-.984a4.287,4.287,0,0,0-4.765.079C142.919,257.435,142.746,257.839,142.878,258.035Z" transform="translate(-142.836 -256.27)"/></g></g><g transform="translate(13.476 41.574)"><path d="M154.98,274.109c.018.347-1.433.708-3.242.807s-3.29-.106-3.308-.455,1.433-.708,3.242-.805S154.96,273.762,154.98,274.109Z" transform="translate(-148.43 -273.632)"/></g><g transform="translate(0 19.431)"><g transform="translate(28.845 1.303)"><path d="M174.081,265.554a7.864,7.864,0,0,1-2.377-.52c-1.44-.431-3.384-1.152-5.5-2.011l-5.407-2.176a11.437,11.437,0,0,1-2.232-.941,7.921,7.921,0,0,1,2.377.52c1.44.431,3.384,1.154,5.5,2.012l5.405,2.174A11.426,11.426,0,0,1,174.081,265.554Z" transform="translate(-158.567 -259.888)"/></g><path d="M151.585,259.287a2.322,2.322,0,0,1,2.033,1.935,9.658,9.658,0,0,1-7.072,10.83,5.65,5.65,0,0,1-4.433-.416c-1.807-1.143-2.365-3.507-2.524-5.64a7.229,7.229,0,0,1,.784-4.531c1.093-1.666,3.237-2.309,5.228-2.417s5.984.238,5.984.238Z" transform="translate(-139.542 -259.028)"/><g transform="translate(18.907 0.413)"><path d="M154.282,259.428a2.345,2.345,0,0,0-2.112,1.9A9.766,9.766,0,0,0,159,272.48a5.709,5.709,0,0,0,4.494-.291c1.862-1.1,2.494-3.477,2.717-5.628a7.319,7.319,0,0,0-.66-4.6c-1.058-1.718-3.207-2.429-5.217-2.6a60.278,60.278,0,0,0-6.056.067Z" transform="translate(-152.012 -259.301)"/></g><g transform="translate(9.694 0.387)"><path d="M159.253,259.759c0,.173-2.987.255-6.664.182s-6.656-.274-6.653-.449,2.987-.255,6.665-.182S159.256,259.584,159.253,259.759Z" transform="translate(-145.936 -259.283)"/></g></g><g transform="translate(44.723 31.687)"><g transform="translate(0 5.89)"><path class="f" d="M169.08,304.912c-.012,0-.023-.062-.035-.188a2.6,2.6,0,0,1,.023-.559,5.972,5.972,0,0,1,.751-2.011,13.449,13.449,0,0,0,1.365-3.025,15.214,15.214,0,0,0,.515-4.351c0-1.644-.206-3.413-.326-5.387a2.733,2.733,0,0,1,.375-1.566,1.5,1.5,0,0,1,1.59-.734,1.3,1.3,0,0,1,.773.593,1,1,0,0,1-.023,1.046,1.533,1.533,0,0,1-1.832.356,2.755,2.755,0,0,1-1.446-3.171,2.824,2.824,0,0,1,1.078-1.568,2.059,2.059,0,0,1,.952-.378,1.255,1.255,0,0,1,1.067.362,1.017,1.017,0,0,1-.754,1.771,2.494,2.494,0,0,1-2.517-2.761,2.474,2.474,0,0,1,1.18-1.719,2.332,2.332,0,0,1,1.751-.314,1.725,1.725,0,0,1,.819.479,1.058,1.058,0,0,1,.278,1.01,1.1,1.1,0,0,1-.735.723,2.015,2.015,0,0,1-.9.076,3.286,3.286,0,0,1-1.524-.676,2.686,2.686,0,0,1-.99-2.979,2.36,2.36,0,0,1,2.612-1.548,1.46,1.46,0,0,1,1.163,1.175,1.034,1.034,0,0,1-.332.86,1.342,1.342,0,0,1-.784.343,2.067,2.067,0,0,1-1.421-.526,3.156,3.156,0,0,1-.9-1.095,2.045,2.045,0,0,1,.561-2.591,1.464,1.464,0,0,1,2.262.888l.027.17-.146.079a2.136,2.136,0,0,1-2.94-1.055,1.809,1.809,0,0,1,.132-1.566,2.241,2.241,0,0,1,1.092-.964,1.783,1.783,0,0,1,1.374-.008,1.012,1.012,0,0,1,.673,1.11.7.7,0,0,1-.44.528.851.851,0,0,1-.629-.035,1.183,1.183,0,0,1-.646-.852,9.592,9.592,0,0,1-.035-2.878,3.535,3.535,0,0,1,.215-.979,14.348,14.348,0,0,0,.091,3.784.891.891,0,0,0,.5.637.41.41,0,0,0,.611-.271c.127-.623-.881-1.01-1.556-.666a1.611,1.611,0,0,0-.958,1.991,1.672,1.672,0,0,0,2.264.8l-.118.247a.959.959,0,0,0-1.469-.522,1.506,1.506,0,0,0-.364,1.914,2.252,2.252,0,0,0,1.769,1.29c.334-.029.632-.3.584-.569a.9.9,0,0,0-.716-.657,1.771,1.771,0,0,0-1.9,1.184,2.079,2.079,0,0,0,.805,2.277,2.69,2.69,0,0,0,1.221.543c.414.064.9-.083.948-.35.1-.244-.249-.614-.649-.707a1.709,1.709,0,0,0-1.265.241,1.851,1.851,0,0,0-.885,1.274,1.871,1.871,0,0,0,1.854,2.047c.525-.014.629-.381.343-.728-.243-.285-.825-.2-1.218.092a2.223,2.223,0,0,0-.848,1.225,2.177,2.177,0,0,0,1.089,2.478c.4.179.964.132,1.134-.135.2-.262-.051-.687-.428-.789a.96.96,0,0,0-.99.494,2.228,2.228,0,0,0-.3,1.268c.092,1.9.279,3.733.249,5.392a15.166,15.166,0,0,1-.623,4.452,12.984,12.984,0,0,1-1.489,3.043,6.5,6.5,0,0,0-.838,1.912C169.094,304.654,169.109,304.912,169.08,304.912Z" transform="translate(-169.039 -270.996)"/></g><g transform="translate(0.971)"><path class="f" d="M173.213,269.751a4.228,4.228,0,0,0-.516-1.674,1.93,1.93,0,0,0-1.4-.96,1.537,1.537,0,0,0-1.542.98,1.584,1.584,0,0,0,.573,1.719l.033.027.011.009,0,0c.047.032.1.064.135.088.2.127.488.144.691.27a1.425,1.425,0,0,1,.532,1.3,12.87,12.87,0,0,0-.117,1.462c.027.356.229.77.585.778.308.006.526-.3.655-.579A6.249,6.249,0,0,0,173.213,269.751Z" transform="translate(-169.679 -267.111)"/></g></g><g transform="translate(0.969 21.36)"><path class="g" d="M140.56,265.355c-.15.074-.679-1.257-.144-2.843.518-1.59,1.738-2.342,1.815-2.192.12.139-.772,1-1.216,2.391C140.54,264.093,140.74,265.315,140.56,265.355Z" transform="translate(-140.182 -260.301)"/></g><g transform="translate(20.179 21.789)"><path class="g" d="M153.771,265.5c-.129.106-.926-.922-.92-2.453s.792-2.559.92-2.453c.161.09-.3,1.118-.29,2.453C153.468,264.379,153.932,265.409,153.771,265.5Z" transform="translate(-152.851 -260.583)"/></g></g><path class="h" d="M174.425,320.644l-.229-16.589-12.777-11.887s-20.936,1.277-29.392,8.292c-4.242,3.521-6.16,15.235-7.1,20.184Z" transform="translate(-124.463 -222.49)"/><path class="l" d="M163.5,320.444l-7.436-27.889-4.628.493c-6.715,1.049-15.1,3.066-19.689,6.871-4.168,3.457-6.168,15.588-7.128,20.525Z" transform="translate(-124.622 -222.29)"/><path class="m" d="M148.087,320.444h8.1L149.1,292.555s-4.873.418-6.79.775-3.3.645-3.3.645l4.144,25.043Z" transform="translate(-117.197 -222.29)"/><path class="h" d="M207.256,320.644c-.922-4.829-2.559-16.076-6.708-19.52-8.456-7.016-29.888-8.956-29.888-8.956l-13.238,11.887.229,16.589Z" transform="translate(-107.69 -222.49)"/><path class="l" d="M203.629,320.3c-.993-4.875-2.991-16.734-7.04-20.093-4.587-3.806-12.974-5.822-19.691-6.87l-4.626-.494L164.978,320.3Z" transform="translate(-103.79 -222.143)"/><path class="w" d="M174.363,320.3l3.44-.993,4.144-25.045s-1.387-.287-3.3-.643-6.788-.776-6.788-.776L164.906,320.3Z" transform="translate(-103.827 -222.143)"/><path d="M165.468,316.174l-2.887-17.014h-6.468l-2.278,17.014Z" transform="translate(-109.542 -218.88)"/><path d="M155.919,296.067h6.94a1.74,1.74,0,0,1,1.87,2.011c-.711,2.911-2.367,7.369-5.336,7.369s-4.633-4.458-5.345-7.369A1.742,1.742,0,0,1,155.919,296.067Z" transform="translate(-109.454 -220.477)"/><path class="i" d="M148.374,287.593l-2.881,7.869,9.231,11.115,8.444-6.1Z" transform="translate(-113.848 -224.852)"/><path class="i" d="M173.424,287.593l1.752,7.067-8.559,11.917-9.466-6.1Z" transform="translate(-107.83 -224.852)"/></g><g transform="translate(84.617 21.527)"><g transform="translate(10.477 17.785)"><path class="j" d="M188.144,264.99a.812.812,0,0,0-.8.819v3.139a.811.811,0,0,0,1.622,0v-3.139A.815.815,0,0,0,188.144,264.99Z" transform="translate(-187.34 -264.99)"/></g><path class="j" d="M202.172,264.768H200.9v-2.335a9.188,9.188,0,0,0-18.376,0v2.335h-1.274a.812.812,0,0,0-.819.8V281.28a.812.812,0,0,0,.819.8h20.924a.812.812,0,0,0,.819-.8V265.572A.812.812,0,0,0,202.172,264.768Zm-18.028-2.335a7.566,7.566,0,0,1,15.132,0v2.335H184.145Zm17.224,18.028H182.052V266.39h19.317Z" transform="translate(-180.43 -253.26)"/></g></g><g transform="translate(1365 9892.234)"><g transform="translate(41.572 0)"><path d="M485.879,535.078c-38.766-18.107-45.862-57.485-47.087-69.184a6.125,6.125,0,0,1,3.695-6.3A22.11,22.11,0,0,0,455.875,440.9a5.051,5.051,0,0,1,5.028-4.7l52.006-.305h.029a5.091,5.091,0,0,1,5.052,4.612,22.106,22.106,0,0,0,13.586,18.556,6.145,6.145,0,0,1,3.79,6.267c-1.088,11.713-7.711,51.2-46.271,69.731a4.093,4.093,0,0,1-3.215.018Zm-24.8-93.654A27.317,27.317,0,0,1,444.542,464.4a.926.926,0,0,0-.554.952c1.145,10.943,7.656,47.8,43.467,64.7,35.608-17.316,41.689-54.245,42.706-65.2a.948.948,0,0,0-.59-.96A27.314,27.314,0,0,1,512.8,441.119Zm0,0" transform="translate(-438.758 -435.893)"/><path class="b" d="M528.085,460.811a24.133,24.133,0,0,1-14.665-19.132,3.736,3.736,0,0,0-3.743-3.213l-23.819.14-.508,0-23.812.14a3.72,3.72,0,0,0-3.707,3.209,24.135,24.135,0,0,1-13.776,19.05,4.761,4.761,0,0,0-2.639,4.913c1.464,12.181,8.839,47.879,44.239,64.21a1.155,1.155,0,0,0,.486.1,1.167,1.167,0,0,0,.484-.11c36.311-17.268,42.569-54.786,43.59-65.8a3.46,3.46,0,0,0-2.13-3.516Zm0,0" transform="translate(-437.435 -434.595)"/><path class="b" d="M482.208,517.326c-25.554-13.687-32.736-39.416-34.731-51.657a1.706,1.706,0,0,1,.8-1.739,30.863,30.863,0,0,0,13.8-18.143,1.706,1.706,0,0,1,1.634-1.253l37.767-.223a1.711,1.711,0,0,1,1.649,1.235,30.858,30.858,0,0,0,14.009,17.979,1.708,1.708,0,0,1,.818,1.731c-1.849,12.259-8.732,38.072-34.123,52.059a1.7,1.7,0,0,1-1.619.011Zm0,0" transform="translate(-434.371 -431.647)"/><g transform="translate(34.646 26.262)"><path class="x" d="M465.938,456.736a15.316,15.316,0,0,0-1.628-2.3c-1.5.512-2.3,4.45-1.735,11.023.3,5.074,1.814,6.025,1.814,6.025Z" transform="translate(-461.483 -452.801)"/><path class="x" d="M479.048,456.9a13.76,13.76,0,0,1,1.62-2.792c1.5.512,2.309,4.942,1.743,11.515-.3,5.074-1.816,6.025-1.816,6.025Z" transform="translate(-453.082 -452.966)"/><path class="v" d="M465.74,477.551a21.965,21.965,0,0,0,9.732,2.214,19.242,19.242,0,0,0,9.333-2.214" transform="translate(-459.794 -441.142)"/><path class="b" d="M466.445,454.835a13.271,13.271,0,0,1,4.418,5.611,13.025,13.025,0,0,1,1.461,2.127,28.167,28.167,0,0,1,4.829-.151c1.319.223,3.949.3,3.949.3s2.321-5.354,4.193-6.821,2.237-1.462,2.237-1.462-3.833,6.487-1.88,11.768a24.309,24.309,0,0,0,4.264,5.5,35.279,35.279,0,0,0-.4,4.913c.11,1.357,1.8,3.594,1.393,5.282s-3.3,6.747-10.194,7-10.381-.253-12.821-1.492-5.554-4.009-5.443-5.586a43.6,43.6,0,0,1,1.577-6.051c.036-.148-.918-3.459.11-4.223s4.217-5.533,4.327-7.99S466.445,454.835,466.445,454.835Z" transform="translate(-461.456 -452.801)"/><path class="c" d="M469.005,458.593a11.047,11.047,0,0,1-2.393,11.464c-1.155,1.265-1.541,10.072,5.207,13.486,6.7,2.982,14.96-.137,17.017-1.139-2.09,2.311-9.109,5.634-15.529,4.47s-10.6-3.394-10.793-6.447a25.91,25.91,0,0,1,1.319-6.463s-.165-4.209.88-5.2A17.839,17.839,0,0,0,469.005,458.593Z" transform="translate(-461.422 -450.704)"/><path d="M467.008,475.446c.11.793.817,1.316,1.8,2.041.26.194.531.393.815.617a4.814,4.814,0,0,0,2.205,1.035v.493a2.6,2.6,0,0,0,5.208,0v-.492a4.831,4.831,0,0,0,2.207-1.036c.284-.224.555-.423.815-.617.978-.725,1.687-1.249,1.795-2.041a5.45,5.45,0,0,0-.307-2.5,6.682,6.682,0,0,0-3-3.456l-.011-.006a3.119,3.119,0,0,1-1.906-2.589,2.2,2.2,0,0,0-4.4,0,3.121,3.121,0,0,1-1.908,2.589l-.009.006a6.675,6.675,0,0,0-3,3.456,5.473,5.473,0,0,0-.307,2.5Zm7.421,5.332a1.146,1.146,0,0,1-1.145-1.145v-.579a3.606,3.606,0,0,0,1.145-.569,3.667,3.667,0,0,0,1.145.569v.579a1.145,1.145,0,0,1-1.145,1.145Zm0-6.051a1.517,1.517,0,0,1-1.482-1.252c0-.465.931-.59,1.482-.59s1.483.125,1.483.59a1.518,1.518,0,0,1-1.483,1.252Zm-3.371-3.979c2.174-1.258,2.631-2.788,2.631-3.851a.741.741,0,0,1,1.482,0c0,1.064.457,2.594,2.631,3.851a4.66,4.66,0,0,1,2.6,4.5c-.053.208-.728.707-1.22,1.073-.256.19-.546.4-.847.641-1.176.924-2.245,1.007-3.18.248v-1.11a2.916,2.916,0,0,0,2.213-2.619c0-.991-.773-2.049-2.943-2.049s-2.941,1.057-2.941,2.049a2.917,2.917,0,0,0,2.212,2.619v1.11c-.934.758-2,.676-3.179-.248-.3-.236-.591-.451-.848-.641-.492-.366-1.166-.865-1.219-1.068a4.662,4.662,0,0,1,2.6-4.5Zm0,0" transform="translate(-459.173 -447.626)"/><path d="M490,453.6c-1.148-.6-2.518-.108-4.074,1.446a35.647,35.647,0,0,0-5.112,7.4,8.919,8.919,0,0,0-2.206-.074c-.457.019-.976.042-1.569.042s-1.11-.022-1.569-.042a8.91,8.91,0,0,0-2.2.074,35.613,35.613,0,0,0-5.116-7.4c-1.554-1.554-2.925-2.038-4.074-1.441-2.1,1.091-2.392,5.586-2.269,9.166.132,3.88.813,7.927,1.634,9.815a6.279,6.279,0,0,0,.074,1.631,6.887,6.887,0,0,1-.016,2.609,14.336,14.336,0,0,1-.891,2.523,4.846,4.846,0,0,0-.576,3.307,7.857,7.857,0,0,0,.933,2.252.73.73,0,0,0,1.246-.761,6.378,6.378,0,0,1-.76-1.832,3.55,3.55,0,0,1,.5-2.383,16.1,16.1,0,0,0,.972-2.762,8.212,8.212,0,0,0,.042-3.143c-.129-.987-.152-1.419.15-1.709l.14-.132a13.33,13.33,0,0,0,3.9-5.969,10.683,10.683,0,0,0,.074-5.616,14.981,14.981,0,0,0-1.866-4.271,36.036,36.036,0,0,1,4.568,6.716,5.584,5.584,0,0,0-1.052,1.031.73.73,0,0,0,1.137.916c1.019-1.262,1.617-1.237,3.4-1.161.472.019,1.008.044,1.631.044s1.158-.024,1.632-.044c1.778-.075,2.377-.1,3.4,1.161a.73.73,0,1,0,1.136-.916,5.577,5.577,0,0,0-1.05-1.031,35.962,35.962,0,0,1,4.567-6.716,15.008,15.008,0,0,0-1.867,4.271,10.682,10.682,0,0,0,.075,5.616,13.333,13.333,0,0,0,3.9,5.969l.141.132c.3.29.28.722.149,1.709a8.214,8.214,0,0,0,.044,3.143,15.836,15.836,0,0,0,.972,2.762,3.539,3.539,0,0,1,.495,2.383c-.659,2.743-2.98,4.343-4.812,5.205a21.16,21.16,0,0,1-8.777,1.744,22,22,0,0,1-8.059-1.431.73.73,0,0,0-.548,1.352,23.161,23.161,0,0,0,8.607,1.538,22.649,22.649,0,0,0,9.4-1.882c3.042-1.429,4.981-3.569,5.61-6.185a4.846,4.846,0,0,0-.575-3.307,14.442,14.442,0,0,1-.892-2.523,6.917,6.917,0,0,1-.015-2.609,6.314,6.314,0,0,0,.074-1.631c.823-1.891,1.5-5.949,1.634-9.83.122-3.576-.173-8.067-2.273-9.153Zm-25.584,17.363a37.783,37.783,0,0,1-1.151-8.246c-.166-4.813.593-7.13,1.345-7.728,4.719,5.806,4.653,11.318-.194,15.974Zm26.4-8.259a37.787,37.787,0,0,1-1.151,8.259c-4.849-4.656-4.913-10.168-.194-15.974.752.6,1.509,2.911,1.345,7.715Zm0,0" transform="translate(-461.788 -453.349)"/><path d="M476.306,466.543a.729.729,0,0,0-.73-.73h0a.73.73,0,1,0,.73.73Zm0,0" transform="translate(-455.201 -447.062)"/><path d="M469.5,466.543a.731.731,0,0,0-.731-.73h0a.73.73,0,1,0,.731.73Zm0,0" transform="translate(-458.634 -447.062)"/><path d="M464.478,475.177" transform="translate(-460.431 -442.339)"/><path d="M463.741,473.728a9.586,9.586,0,0,0,1.235,1.493A11.262,11.262,0,0,0,466.5,476.5a10.993,10.993,0,0,0,1.715,1.005,12.181,12.181,0,0,0,1.858.7l.033.01a.737.737,0,0,1-.429,1.41,13.4,13.4,0,0,1-2.1-.791,12.39,12.39,0,0,1-1.933-1.134,12.769,12.769,0,0,1-1.709-1.447,10.71,10.71,0,0,1-1.452-1.772.734.734,0,0,1,1.234-.8Z" transform="translate(-461.497 -443.261)"/><path d="M463.559,469.638a9.059,9.059,0,0,0,1.822-13.674C462.976,456.821,463.559,469.638,463.559,469.638Z" transform="translate(-460.926 -452.03)"/><path d="M481.726,469.638a9.059,9.059,0,0,1-1.822-13.674C482.309,456.821,481.726,469.638,481.726,469.638Z" transform="translate(-453.821 -452.03)"/><path class="y" d="M473.042,477.8l.283.573a.3.3,0,0,0,.227.165l.633.092a.3.3,0,0,1,.167.516l-.457.447a.305.305,0,0,0-.087.268l.108.63a.3.3,0,0,1-.44.319l-.566-.3a.309.309,0,0,0-.281,0l-.567.3a.3.3,0,0,1-.438-.319l.107-.63a.3.3,0,0,0-.086-.268l-.459-.447a.3.3,0,0,1,.169-.516l.632-.092a.3.3,0,0,0,.229-.165l.283-.573A.3.3,0,0,1,473.042,477.8Z" transform="translate(-457.093 -441.102)"/></g><path class="c" d="M514.666,460.812a24.137,24.137,0,0,1-14.722-19.594,3.043,3.043,0,0,0-3.022-2.754l-14.488.084c0,11.5,6.556,23.41,15.195,27.054a3.5,3.5,0,0,1,2.222,3.519c-.892,9.666-5.842,39.983-31.867,58.881,1.372.74,2.785,1.455,4.251,2.13a1.155,1.155,0,0,0,.486.1,1.139,1.139,0,0,0,.484-.11c36.311-17.268,42.569-54.786,43.59-65.8a3.46,3.46,0,0,0-2.13-3.516Zm0,0" transform="translate(-424.016 -434.596)"/></g><g transform="translate(0 12.179)"><g transform="translate(21.983)"><g transform="translate(1.39)"><path class="d" d="M450.689,444.078a20.762,20.762,0,0,0-22.62,19.118c-.721,9.634-1.4,20.055-1.408,25.312-.024,11.279,11.23,13.2,11.23,13.2s-1.374,7.71-1.745,11.852c-.748,8.34,6.592,11.282,14.951,11.786h0c8.195.493,15.885-2.168,16.373-10.362l2.043-48.988a20.77,20.77,0,0,0-18.823-21.912Z" transform="translate(-426.661 -443.988)"/><g transform="translate(11.324 53.549)"><path class="e" d="M434.842,483.782s9.431.45,17.074-4.2c0,0-6.49,9.312-17.728,8.134Z" transform="translate(-434.188 -479.583)"/></g><g transform="translate(42.223 25.54)"><path class="d" d="M455.327,461.285c.193-.08,7.781-2.18,7.424,5.527s-8.02,5.758-8.025,5.536S455.327,461.285,455.327,461.285Z" transform="translate(-454.727 -460.965)"/><g transform="translate(2.482 2.541)"><path class="e" d="M456.385,468.686c.034-.024.131.1.352.214a1.339,1.339,0,0,0,1,.068c.829-.262,1.574-1.523,1.676-2.91a4.408,4.408,0,0,0-.287-1.939,1.552,1.552,0,0,0-.961-1.077.684.684,0,0,0-.809.331c-.113.211-.071.367-.113.378-.023.02-.159-.135-.083-.451a.852.852,0,0,1,.327-.47,1.008,1.008,0,0,1,.751-.161,1.884,1.884,0,0,1,1.346,1.259,4.555,4.555,0,0,1,.367,2.169c-.122,1.551-.984,2.967-2.114,3.238a1.443,1.443,0,0,1-1.219-.26C456.391,468.873,456.357,468.7,456.385,468.686Z" transform="translate(-456.377 -462.655)"/></g></g><g transform="translate(3.566 15.13)"><g transform="translate(0.666 6.489)"><g transform="translate(1.557 2.301)"><path d="M430.51,461.321a1.61,1.61,0,0,0,1.529,1.648,1.541,1.541,0,0,0,1.682-1.428,1.612,1.612,0,0,0-1.528-1.649A1.542,1.542,0,0,0,430.51,461.321Z" transform="translate(-430.509 -459.888)"/></g><path d="M429.5,460.006c.2.214,1.429-.672,3.164-.642,1.73,0,2.989.915,3.18.706.095-.093-.1-.475-.652-.886a4.42,4.42,0,0,0-2.544-.825,4.25,4.25,0,0,0-2.52.773C429.587,459.534,429.4,459.912,429.5,460.006Z" transform="translate(-429.474 -458.359)"/><g transform="translate(17.03 0.569)"><g transform="translate(1.891 2.208)"><path d="M442.053,461.638a1.61,1.61,0,0,0,1.529,1.647,1.54,1.54,0,0,0,1.682-1.428,1.613,1.613,0,0,0-1.528-1.649A1.542,1.542,0,0,0,442.053,461.638Z" transform="translate(-442.051 -460.204)"/></g><path d="M440.818,460.384c.2.214,1.432-.672,3.164-.642,1.732,0,2.991.915,3.182.7.093-.092-.1-.474-.653-.885a4.4,4.4,0,0,0-2.543-.824,4.241,4.241,0,0,0-2.521.773C440.91,459.912,440.722,460.29,440.818,460.384Z" transform="translate(-440.794 -458.737)"/></g><g transform="translate(6.183 0.55)"><path d="M437.981,473.153a11.534,11.534,0,0,0-2.807-.547c-.442-.053-.86-.148-.93-.45a2.239,2.239,0,0,1,.315-1.307q.645-1.6,1.357-3.35c1.887-4.772,3.259-8.7,3.066-8.772s-1.879,3.732-3.765,8.5q-.682,1.765-1.3,3.371a2.56,2.56,0,0,0-.256,1.733,1.109,1.109,0,0,0,.719.657,2.956,2.956,0,0,0,.749.116A11.293,11.293,0,0,0,437.981,473.153Z" transform="translate(-433.584 -458.724)"/></g></g><g transform="translate(15.708 0.898)"><path d="M439.485,456.175c.2.457,1.915.122,3.959.233,2.048.069,3.722.557,3.964.117.107-.211-.208-.633-.9-1.045a6.891,6.891,0,0,0-6.035-.268C439.749,455.561,439.4,455.955,439.485,456.175Z" transform="translate(-439.472 -454.643)"/></g><path d="M429.073,455.8c.3.4,1.5.006,2.935.007,1.437-.048,2.648.3,2.934-.105.125-.2-.06-.594-.587-.975a4.253,4.253,0,0,0-4.728.078C429.113,455.2,428.942,455.6,429.073,455.8Z" transform="translate(-429.031 -454.046)"/></g></g><g transform="translate(13.371 41.249)"><path d="M441.124,471.882c.018.345-1.422.7-3.216.8s-3.265-.105-3.283-.45,1.42-.7,3.216-.8S441.1,471.536,441.124,471.882Z" transform="translate(-434.625 -471.407)"/></g><g transform="translate(0 19.28)"><g transform="translate(28.619 1.293)"><path d="M460.156,463.286a7.861,7.861,0,0,1-2.359-.516c-1.429-.427-3.358-1.145-5.455-2l-5.365-2.157a11.46,11.46,0,0,1-2.216-.934,7.8,7.8,0,0,1,2.36.516c1.429.427,3.358,1.143,5.455,2,1.963.788,3.744,1.506,5.363,2.157A11.363,11.363,0,0,1,460.156,463.286Z" transform="translate(-444.76 -457.663)"/></g><path d="M437.686,457.061a2.3,2.3,0,0,1,2.017,1.92,9.582,9.582,0,0,1-7.017,10.746,5.6,5.6,0,0,1-4.4-.414c-1.795-1.134-2.347-3.478-2.5-5.595a7.172,7.172,0,0,1,.776-4.5c1.086-1.653,3.213-2.291,5.189-2.4a59.21,59.21,0,0,1,5.938.236Z" transform="translate(-425.737 -456.804)"/><g transform="translate(18.76 0.41)"><path d="M440.457,457.2a2.329,2.329,0,0,0-2.094,1.884,9.692,9.692,0,0,0,6.78,11.068,5.671,5.671,0,0,0,4.459-.289c1.847-1.1,2.475-3.45,2.694-5.586a7.253,7.253,0,0,0-.653-4.568c-1.05-1.7-3.183-2.409-5.177-2.576s-6.01.066-6.01.066Z" transform="translate(-438.207 -457.076)"/></g><g transform="translate(9.619 0.383)"><path d="M445.344,457.53c0,.173-2.964.254-6.612.182s-6.6-.272-6.6-.445,2.964-.254,6.613-.18S445.347,457.357,445.344,457.53Z" transform="translate(-432.131 -457.059)"/></g></g><g transform="translate(44.375 31.44)"><g transform="translate(0 5.843)"><path class="f" d="M455.273,502.425c-.01,0-.021-.062-.033-.187a2.585,2.585,0,0,1,.023-.557,5.93,5.93,0,0,1,.744-1.993,13.348,13.348,0,0,0,1.354-3,15.071,15.071,0,0,0,.512-4.316c0-1.632-.2-3.386-.325-5.345a2.728,2.728,0,0,1,.373-1.556,1.48,1.48,0,0,1,1.577-.727,1.29,1.29,0,0,1,.769.587.993.993,0,0,1-.023,1.04,1.518,1.518,0,0,1-1.817.352,2.73,2.73,0,0,1-1.435-3.144,2.807,2.807,0,0,1,1.07-1.557,2.024,2.024,0,0,1,.945-.373,1.249,1.249,0,0,1,1.059.358,1.01,1.01,0,0,1-.748,1.759,2.475,2.475,0,0,1-2.5-2.74,2.452,2.452,0,0,1,1.169-1.706,2.311,2.311,0,0,1,1.739-.311,1.7,1.7,0,0,1,.811.475,1.047,1.047,0,0,1,.277,1,1.088,1.088,0,0,1-.73.716,2.006,2.006,0,0,1-.9.077,3.279,3.279,0,0,1-1.51-.672,2.662,2.662,0,0,1-.982-2.955,2.338,2.338,0,0,1,2.592-1.536,1.441,1.441,0,0,1,1.152,1.166,1.017,1.017,0,0,1-.328.852,1.323,1.323,0,0,1-.778.341,2.066,2.066,0,0,1-1.41-.522,3.161,3.161,0,0,1-.892-1.088,2.028,2.028,0,0,1,.558-2.57,1.451,1.451,0,0,1,2.245.881l.027.167-.144.078a2.117,2.117,0,0,1-2.917-1.047,1.8,1.8,0,0,1,.129-1.552,2.225,2.225,0,0,1,1.085-.957,1.762,1.762,0,0,1,1.363-.009,1.006,1.006,0,0,1,.668,1.1.7.7,0,0,1-.436.524.845.845,0,0,1-.624-.033,1.185,1.185,0,0,1-.642-.846,9.55,9.55,0,0,1-.033-2.855,3.537,3.537,0,0,1,.213-.973,14.173,14.173,0,0,0,.09,3.755.882.882,0,0,0,.492.632.407.407,0,0,0,.606-.268c.127-.62-.874-1-1.543-.662a1.6,1.6,0,0,0-.951,1.977,1.66,1.66,0,0,0,2.246.792l-.117.245a.953.953,0,0,0-1.458-.519,1.5,1.5,0,0,0-.361,1.9,2.236,2.236,0,0,0,1.756,1.28c.33-.029.627-.295.579-.563a.888.888,0,0,0-.71-.651,1.755,1.755,0,0,0-1.89,1.173,2.061,2.061,0,0,0,.8,2.26,2.68,2.68,0,0,0,1.211.54c.411.063.9-.083.94-.347.1-.244-.248-.609-.644-.7a1.688,1.688,0,0,0-1.255.239,1.833,1.833,0,0,0-.879,1.262,1.766,1.766,0,0,0,.48,1.431,1.79,1.79,0,0,0,1.36.6c.521-.014.624-.378.34-.722-.241-.283-.818-.2-1.208.092a2.2,2.2,0,0,0-.841,1.215,2.159,2.159,0,0,0,1.08,2.458c.4.176.957.131,1.125-.134.2-.262-.051-.681-.424-.784a.954.954,0,0,0-.983.492,2.221,2.221,0,0,0-.3,1.258c.093,1.884.278,3.7.248,5.35a15.056,15.056,0,0,1-.618,4.417,12.908,12.908,0,0,1-1.477,3.019,6.482,6.482,0,0,0-.833,1.9C455.288,502.167,455.3,502.425,455.273,502.425Z" transform="translate(-455.234 -468.771)"/></g><g transform="translate(0.964)"><path class="f" d="M459.38,467.5a4.186,4.186,0,0,0-.512-1.659,1.914,1.914,0,0,0-1.393-.952,1.522,1.522,0,0,0-1.529.972,1.571,1.571,0,0,0,.569,1.706l.031.027.012.009,0-.006c.045.033.095.063.132.089.2.126.486.143.688.268a1.416,1.416,0,0,1,.528,1.285,12.82,12.82,0,0,0-.116,1.452c.027.352.227.763.581.77.305.008.522-.295.649-.573A6.206,6.206,0,0,0,459.38,467.5Z" transform="translate(-455.874 -464.887)"/></g></g><g transform="translate(0.962 21.193)"><path class="g" d="M426.752,463.092c-.149.074-.674-1.247-.143-2.821.514-1.578,1.724-2.324,1.8-2.177.12.138-.764.993-1.205,2.374C426.731,461.838,426.931,463.052,426.752,463.092Z" transform="translate(-426.376 -458.076)"/></g><g transform="translate(20.022 21.619)"><path class="g" d="M439.959,463.235c-.128.105-.919-.916-.913-2.434s.785-2.539.913-2.434c.159.087-.3,1.109-.287,2.434C439.658,462.126,440.119,463.146,439.959,463.235Z" transform="translate(-439.046 -458.359)"/></g></g><path class="z" d="M460.185,496.237l-12.857-6.294s-20.772,1.267-29.162,8.228c-4.211,3.495-6.114,15.116-7.042,20.028h49.11" transform="translate(-411.125 -420.808)"/><path class="z" d="M443.786,518.2H493c-.915-4.792-2.539-15.951-6.655-19.368-8.39-6.961-29.655-8.888-29.655-8.888l-12.958,6.294" transform="translate(-394.675 -420.808)"/><line class="aa" y2="20.641" transform="translate(48.764 76.154)"/><rect class="ab" width="16.653" height="2.876" transform="translate(65.554 88.92)"/><path class="z" d="M434.5,485.312l-2.622,7.807,9.159,11.029,8.379-6.051Z" transform="translate(-400.655 -423.144)"/><path class="z" d="M458.926,484.79l2.5,7.8-8.493,11.824-9.392-6.051Z" transform="translate(-394.775 -423.408)"/></g></g></g></svg>