<svg xmlns="http://www.w3.org/2000/svg" xmlns:xlink="http://www.w3.org/1999/xlink" width="836.61" height="110.74" viewBox="0 0 836.61 110.74"><defs><style>.a{fill:#ededed;}.b{fill:#d6d6d6;}.c{fill:#c18b76;}.c,.g,.h,.i,.j,.l,.m,.p,.q,.s,.t{stroke:#000;}.c,.g,.h,.i,.j,.l,.m,.p,.q,.t{stroke-linecap:round;stroke-linejoin:round;}.d{fill:#b66351;}.e{fill:#404041;}.f{fill:#e1e1e1;}.g,.h{fill:#231f20;}.g,.l,.m,.q,.t{stroke-width:1.5px;}.i{stroke-width:0.25px;}.j{fill:#fbbf9e;}.k{fill:#f7996e;}.l{fill:#f1f1f2;}.m{fill:#393434;}.n,.o,.u,.v{mix-blend-mode:multiply;isolation:isolate;}.n{fill:url(#a);}.o{fill:url(#b);}.p,.t{fill:#d0d2d3;}.q{fill:#fff;}.r{fill:#98939e;}.s{fill:#2d5872;stroke-miterlimit:10;}.u{fill:url(#c);}.v{fill:url(#d);}</style><linearGradient id="a" x1="0.175" y1="0.563" x2="0.933" y2="0.474" gradientUnits="objectBoundingBox"><stop offset="0" stop-color="#fff"/><stop offset="1" stop-color="#b4bebd"/></linearGradient><linearGradient id="b" x1="-73.311" y1="0.564" x2="-72.549" y2="0.474" xlink:href="#a"/><linearGradient id="c" x1="0.175" y1="0.563" x2="0.933" y2="0.474" xlink:href="#a"/><linearGradient id="d" x1="-122.855" y1="0.564" x2="-122.093" y2="0.474" xlink:href="#a"/></defs><g transform="translate(0.75)"><g transform="translate(0 1.247)"><g transform="translate(43.408 0)"><rect class="a" width="10.612" height="16.879" transform="translate(21.576 2.355)"/><rect class="a" width="10.612" height="16.879" transform="translate(60.761 2.355)"/><rect class="a" width="87.527" height="81.017" rx="3.274" transform="translate(3.067 12.583)"/><path class="b" d="M665.717,150.624s59.331-6.3,69.528-11.622,10.486-60.319,10.486-60.319,5.393-3.149,5.895,2.026.334,68.236,0,71.717-18.108,5.818-23.926,5.736-58.95-1.087-58.95-1.087S662.2,155.2,665.717,150.624Z" transform="translate(-661.031 -63.474)"/><path d="M746.81,78.224H736.483V71.789c0-2.574-2.457-4.094-5.031-4.094h-6.9c-2.574,0-4.446,1.52-4.446,4.094v6.435H697.713V71.789c0-2.574-1.872-4.094-4.446-4.094h-6.9c-2.574,0-5.03,1.52-5.03,4.094v6.435H671.008a8.655,8.655,0,0,0-8.894,8.411c-.006.2,0,.4,0,.6v67.613c0,5.146,3.744,9.943,8.891,9.943h75.8c5.148,0,8.891-4.8,8.891-9.943V87.231a8.657,8.657,0,0,0-8.3-9C747.208,78.219,747.009,78.218,746.81,78.224Zm-22.909-7h8.552V86.4H723.9Zm-38.133,0h7.864V86.4h-7.864Zm-16.25,11.338,11.851.1v2.675c0,2.675,1.436,4.524,4.111,4.524h7.411a4.5,4.5,0,0,0,4.621-4.372V82.558h23.035v2.675a4.5,4.5,0,0,0,4.374,4.619c.082,0,.165,0,.245,0h6.282a4.84,4.84,0,0,0,5.041-4.629V82.548l11.813.01a4.133,4.133,0,0,1,4.385,3.865,4.311,4.311,0,0,1-.009.634v13.737H665.141V87.056a4.134,4.134,0,0,1,3.744-4.49A4.27,4.27,0,0,1,669.518,82.558Zm78.8,78.642H669.5c-2.676,0-4.379-2.8-4.379-5.473v-51.69h87.57v51.69C752.694,158.4,750.991,161.2,748.314,161.2Z" transform="translate(-662.11 -67.695)"/><path d="M712.472,113.2a1.642,1.642,0,0,0-1.264-1.023L703.367,111l-3.537-7.145a1.588,1.588,0,0,0-.739-.724,1.55,1.55,0,0,0-2.088.724L693.466,111l-7.855,1.179a1.621,1.621,0,0,0-1.25,1.023,1.7,1.7,0,0,0,.384,1.648l5.739,5.5-1.42,7.855a1.612,1.612,0,0,0,.156.994,1.575,1.575,0,0,0,2.131.653l7.06-3.693,7.074,3.693.711.156a1.411,1.411,0,0,0,.937-.312,1.556,1.556,0,0,0,.625-1.491l-1.406-7.855,5.724-5.5A1.71,1.71,0,0,0,712.472,113.2Zm-8.239,5.639a1.836,1.836,0,0,0-.525,1.591l1.051,6.25-5.554-3-.8-.17-.8.17-5.554,3,1.065-6.25a1.88,1.88,0,0,0-.526-1.591l-4.5-4.318,6.265-.881a1.6,1.6,0,0,0,1.236-.966l2.813-5.654,2.827,5.654a1.605,1.605,0,0,0,1.236.966l6.25.881Z" transform="translate(-652.784 -52.864)"/></g><g transform="translate(0 15.929)"><g transform="translate(20.756)"><g transform="translate(1.312)"><path class="c" d="M669.776,78.993a19.605,19.605,0,0,0-21.358,18.051c-.681,9.1-1.32,18.938-1.329,23.9-.023,10.649,10.6,12.459,10.6,12.459s-1.3,7.281-1.648,11.192c-.706,7.875,6.225,10.651,14.117,11.127h0c7.737.467,15-2.046,15.458-9.784l1.93-46.255a19.611,19.611,0,0,0-17.773-20.689Z" transform="translate(-647.088 -78.909)"/><g transform="translate(10.692 50.561)"><path class="d" d="M655.233,118.469s8.9.423,16.121-3.966c0,0-6.128,8.794-16.739,7.682Z" transform="translate(-654.615 -114.503)"/></g><g transform="translate(39.867 24.116)"><path class="c" d="M675.72,96.189c.182-.077,7.347-2.06,7.01,5.217s-7.573,5.436-7.577,5.227S675.72,96.189,675.72,96.189Z" transform="translate(-675.154 -95.886)"/><g transform="translate(2.343 2.4)"><path class="d" d="M676.811,103.27c.033-.021.122.1.332.2a1.267,1.267,0,0,0,.946.062,3.137,3.137,0,0,0,1.583-2.746,4.18,4.18,0,0,0-.271-1.832,1.466,1.466,0,0,0-.908-1.017.646.646,0,0,0-.764.313c-.107.2-.067.347-.107.358-.021.017-.151-.129-.078-.428a.8.8,0,0,1,.308-.442.953.953,0,0,1,.709-.153,1.784,1.784,0,0,1,1.271,1.19,4.293,4.293,0,0,1,.345,2.048c-.114,1.463-.928,2.8-1.995,3.055a1.358,1.358,0,0,1-1.15-.246C676.815,103.446,676.785,103.281,676.811,103.27Z" transform="translate(-676.804 -97.575)"/></g></g><g transform="translate(3.367 14.286)"><g transform="translate(0.629 6.127)"><g transform="translate(1.47 2.173)"><path d="M650.938,96.162a1.52,1.52,0,0,0,1.443,1.555,1.455,1.455,0,0,0,1.588-1.348,1.522,1.522,0,0,0-1.443-1.557A1.456,1.456,0,0,0,650.938,96.162Z" transform="translate(-650.936 -94.808)"/></g><path d="M649.923,94.836c.186.2,1.35-.635,2.988-.608,1.633,0,2.822.864,3,.666.09-.088-.1-.449-.615-.837a4.183,4.183,0,0,0-2.4-.778,4,4,0,0,0-2.379.732C650.008,94.388,649.833,94.745,649.923,94.836Z" transform="translate(-649.901 -93.279)"/><g transform="translate(16.08 0.537)"><g transform="translate(1.785 2.086)"><path d="M662.479,96.479a1.522,1.522,0,0,0,1.443,1.555,1.456,1.456,0,0,0,1.588-1.349,1.52,1.52,0,0,0-1.443-1.555A1.455,1.455,0,0,0,662.479,96.479Z" transform="translate(-662.478 -95.125)"/></g><path d="M661.244,95.212c.186.2,1.352-.635,2.987-.607,1.635,0,2.824.864,3,.666.088-.088-.1-.449-.616-.837a4.17,4.17,0,0,0-2.4-.778,4.016,4.016,0,0,0-2.381.73C661.33,94.766,661.153,95.123,661.244,95.212Z" transform="translate(-661.221 -93.657)"/></g><g transform="translate(5.837 0.519)"><path d="M658.163,107.268a10.9,10.9,0,0,0-2.652-.517c-.416-.05-.811-.138-.876-.425a2.117,2.117,0,0,1,.3-1.234q.609-1.509,1.281-3.163c1.781-4.506,3.077-8.213,2.895-8.283s-1.774,3.526-3.555,8.03c-.429,1.112-.839,2.17-1.23,3.185a2.413,2.413,0,0,0-.24,1.636,1.051,1.051,0,0,0,.679.621,2.781,2.781,0,0,0,.707.108A10.584,10.584,0,0,0,658.163,107.268Z" transform="translate(-654.01 -93.644)"/></g></g><g transform="translate(14.832 0.849)"><path d="M659.911,91.009c.19.433,1.808.115,3.739.22,1.933.067,3.514.526,3.743.111.1-.2-.2-.6-.849-.987a6.514,6.514,0,0,0-5.7-.251C660.16,90.431,659.829,90.8,659.911,91.009Z" transform="translate(-659.899 -89.563)"/></g><path d="M649.5,90.62c.283.376,1.415.007,2.772.009,1.357-.047,2.5.285,2.77-.1.118-.188-.057-.563-.554-.922a4.017,4.017,0,0,0-4.465.074C649.536,90.056,649.374,90.436,649.5,90.62Z" transform="translate(-649.458 -88.966)"/></g></g><g transform="translate(12.625 38.949)"><path d="M661.189,106.775c.017.325-1.343.663-3.037.756s-3.082-.1-3.1-.426,1.341-.663,3.036-.754S661.17,106.45,661.189,106.775Z" transform="translate(-655.052 -106.328)"/></g><g transform="translate(0 18.204)"><g transform="translate(27.023 1.221)"><path d="M679.724,97.892a7.372,7.372,0,0,1-2.229-.487c-1.348-.4-3.169-1.08-5.149-1.884l-5.065-2.038a10.811,10.811,0,0,1-2.092-.882,7.431,7.431,0,0,1,2.229.487c1.349.4,3.171,1.081,5.15,1.885l5.064,2.037A10.755,10.755,0,0,1,679.724,97.892Z" transform="translate(-665.188 -92.584)"/></g><path d="M657.447,91.967a2.176,2.176,0,0,1,1.9,1.813,9.048,9.048,0,0,1-6.625,10.146,5.293,5.293,0,0,1-4.154-.389c-1.695-1.071-2.216-3.286-2.365-5.284a6.77,6.77,0,0,1,.733-4.244c1.026-1.561,3.034-2.163,4.9-2.264s5.607.223,5.607.223Z" transform="translate(-646.164 -91.724)"/><g transform="translate(17.713 0.387)"><path d="M660.759,92.116a2.2,2.2,0,0,0-1.977,1.777,9.146,9.146,0,0,0,6.4,10.45,5.35,5.35,0,0,0,4.211-.273c1.744-1.034,2.337-3.257,2.544-5.273a6.838,6.838,0,0,0-.618-4.313c-.99-1.609-3-2.276-4.887-2.432a56.5,56.5,0,0,0-5.675.062Z" transform="translate(-658.634 -91.997)"/></g><g transform="translate(9.082 0.362)"><path d="M665.034,92.425a66.016,66.016,0,0,1-12.476-.25,66.009,66.009,0,0,1,12.476.25Z" transform="translate(-652.558 -91.979)"/></g></g><g transform="translate(41.9 29.686)"><g transform="translate(0 5.518)"><path class="e" d="M675.7,135.467c-.01,0-.02-.058-.031-.176a2.481,2.481,0,0,1,.021-.526,5.634,5.634,0,0,1,.7-1.882,12.537,12.537,0,0,0,1.28-2.834,14.245,14.245,0,0,0,.483-4.077c0-1.54-.193-3.2-.307-5.047a2.573,2.573,0,0,1,.352-1.467,1.4,1.4,0,0,1,1.489-.687,1.213,1.213,0,0,1,.724.555.932.932,0,0,1-.02.98,1.436,1.436,0,0,1-1.716.334,2.581,2.581,0,0,1-1.356-2.97,2.642,2.642,0,0,1,1.01-1.469,1.929,1.929,0,0,1,.892-.354,1.175,1.175,0,0,1,1,.34.953.953,0,0,1-.706,1.659,2.337,2.337,0,0,1-2.358-2.587,2.321,2.321,0,0,1,1.1-1.611,2.189,2.189,0,0,1,1.642-.294,1.606,1.606,0,0,1,.766.449.988.988,0,0,1,.262.946,1.031,1.031,0,0,1-.689.678,1.9,1.9,0,0,1-.845.071,3.078,3.078,0,0,1-1.426-.634,2.516,2.516,0,0,1-.927-2.791,2.209,2.209,0,0,1,2.447-1.45,1.365,1.365,0,0,1,1.088,1.1.958.958,0,0,1-.31.8,1.249,1.249,0,0,1-.734.322,1.936,1.936,0,0,1-1.331-.493,2.973,2.973,0,0,1-.842-1.026,1.916,1.916,0,0,1,.527-2.428,1.371,1.371,0,0,1,2.119.832l.026.159-.136.074a2,2,0,0,1-2.754-.989,1.7,1.7,0,0,1,.122-1.467,2.1,2.1,0,0,1,1.024-.9,1.677,1.677,0,0,1,1.287-.009.953.953,0,0,1,.631,1.041.659.659,0,0,1-.412.494.8.8,0,0,1-.589-.033,1.114,1.114,0,0,1-.607-.8,9.027,9.027,0,0,1-.031-2.7,3.3,3.3,0,0,1,.2-.918,13.364,13.364,0,0,0,.085,3.546.835.835,0,0,0,.463.6.385.385,0,0,0,.574-.254c.119-.584-.825-.946-1.457-.624a1.509,1.509,0,0,0-.9,1.865,1.565,1.565,0,0,0,2.119.747l-.109.232a.9.9,0,0,0-1.376-.489,1.411,1.411,0,0,0-.341,1.793,2.11,2.11,0,0,0,1.658,1.209c.311-.027.592-.28.547-.533a.838.838,0,0,0-.67-.615,1.658,1.658,0,0,0-1.784,1.109,1.944,1.944,0,0,0,.754,2.132,2.5,2.5,0,0,0,1.142.51c.389.06.847-.078.889-.328.094-.229-.234-.575-.608-.662a1.6,1.6,0,0,0-1.184.226,1.729,1.729,0,0,0-.829,1.193,1.753,1.753,0,0,0,1.737,1.918c.491-.013.589-.357.321-.682-.227-.267-.773-.189-1.14.087a2.091,2.091,0,0,0-.8,1.148,2.04,2.04,0,0,0,1.021,2.321c.375.168.9.124,1.062-.126.192-.246-.048-.643-.4-.739a.9.9,0,0,0-.927.463,2.1,2.1,0,0,0-.284,1.188c.088,1.78.263,3.5.234,5.051a14.246,14.246,0,0,1-.584,4.171A12.168,12.168,0,0,1,676.591,133a6.11,6.11,0,0,0-.787,1.791C675.712,135.225,675.726,135.467,675.7,135.467Z" transform="translate(-675.661 -103.692)"/></g><g transform="translate(0.91)"><path class="e" d="M679.612,102.279a3.96,3.96,0,0,0-.483-1.567,1.814,1.814,0,0,0-1.315-.9,1.438,1.438,0,0,0-1.443.918,1.484,1.484,0,0,0,.537,1.611l.029.026.012.008,0,0c.043.03.09.06.125.082.19.119.459.135.649.253a1.339,1.339,0,0,1,.5,1.215,12.1,12.1,0,0,0-.109,1.369c.026.334.214.722.547.729.29.006.495-.278.614-.543A5.859,5.859,0,0,0,679.612,102.279Z" transform="translate(-676.301 -99.807)"/></g></g><g transform="translate(0.908 20.012)"><path class="f" d="M647.158,97.732a2.883,2.883,0,0,1-.135-2.663c.486-1.49,1.628-2.195,1.7-2.054.114.131-.722.936-1.138,2.24C647.138,96.55,647.327,97.695,647.158,97.732Z" transform="translate(-646.803 -92.997)"/></g><g transform="translate(18.905 20.413)"><path class="f" d="M660.335,97.883c-.121.1-.868-.864-.862-2.3s.741-2.4.862-2.3c.151.084-.284,1.047-.272,2.3C660.051,96.836,660.486,97.8,660.335,97.883Z" transform="translate(-659.473 -93.279)"/></g></g><path class="g" d="M677.875,130.806l-12.139-5.942s-19.613,1.2-27.535,7.769c-3.976,3.3-5.773,14.273-6.649,18.909h46.37" transform="translate(-631.552 -59.585)"/><path class="g" d="M664.21,151.542h46.472c-.863-4.524-2.4-15.061-6.284-18.287-7.922-6.573-28-8.391-28-8.391l-12.234,5.942" transform="translate(-617.84 -59.585)"/><line class="g" y2="19.49" transform="translate(46.044 71.906)"/><rect class="h" width="15.724" height="2.716" transform="translate(61.896 83.959)"/><path class="h" d="M654.784,120.232l-2.476,7.372,8.648,10.413,7.911-5.713Z" transform="translate(-622.825 -61.533)"/><path class="h" d="M678.5,119.71l2.358,7.362-8.019,11.165-8.868-5.713Z" transform="translate(-617.922 -61.752)"/></g></g><g transform="translate(174.713 1.247)"><g transform="translate(42.973 0)"><rect class="a" width="10.661" height="16.957" transform="translate(21.677 2.366)"/><rect class="a" width="10.661" height="16.957" transform="translate(61.043 2.366)"/><rect class="a" width="87.934" height="81.393" rx="3.274" transform="translate(3.082 12.642)"/><path class="b" d="M957.251,150.962s59.6-6.329,69.85-11.676,10.534-60.6,10.534-60.6,5.419-3.164,5.922,2.035.337,68.552,0,72.05-18.191,5.845-24.037,5.763-59.224-1.092-59.224-1.092S953.714,155.561,957.251,150.962Z" transform="translate(-952.543 -63.408)"/><path d="M1038.733,78.272h-10.375V71.808c0-2.586-2.467-4.113-5.053-4.113h-6.934c-2.586,0-4.465,1.527-4.465,4.113v6.465h-22.5V71.808c0-2.586-1.879-4.113-4.465-4.113h-6.934c-2.586,0-5.054,1.527-5.054,4.113v6.465H962.578a8.7,8.7,0,0,0-8.935,8.45q-.009.3,0,.6v67.927c0,5.17,3.76,9.99,8.931,9.99h76.155c5.172,0,8.932-4.819,8.932-9.99V87.322a8.7,8.7,0,0,0-8.333-9.046C1039.132,78.268,1038.932,78.267,1038.733,78.272Zm-23.016-7.037h8.594V86.482h-8.594Zm-38.31,0h7.9V86.482h-7.9ZM961.083,82.626l11.9.1v2.687c0,2.687,1.443,4.545,4.13,4.545h7.447a4.518,4.518,0,0,0,4.641-4.393c0-2,0-2.935,0-2.935h23.142v2.687a4.52,4.52,0,0,0,4.394,4.641q.123,0,.248,0h6.309a4.862,4.862,0,0,0,5.065-4.651V82.616l11.868.01a4.152,4.152,0,0,1,4.406,3.883,4,4,0,0,1-.009.636v13.8H956.686v-13.8a4.153,4.153,0,0,1,3.76-4.511A4.308,4.308,0,0,1,961.083,82.626Zm79.163,79.007H961.067c-2.688,0-4.4-2.81-4.4-5.5v-51.93h87.975v51.93C1044.643,158.824,1042.934,161.634,1040.245,161.634Z" transform="translate(-953.64 -67.695)"/><g transform="translate(31.954 50.817)"><path class="i" d="M998.223,104.25l-.689.237-.237-.691a.73.73,0,1,0-1.38.475l.237.689-13.2,4.537-2.76.949-2.762.949a.728.728,0,0,0-.452.926.73.73,0,0,1-.452.928.729.729,0,0,0-.454.928l.949,2.76.474,1.38a.732.732,0,0,0,.927.454.729.729,0,0,1,.912.412l1.611,8.423a2.191,2.191,0,0,0,2.862,1.658l2.716-.932a2.2,2.2,0,0,0,1.433-2.513l-.8-3.877,2.823-.969h0l.014-.006a2.191,2.191,0,0,0,1.344-2.776l-.711-2.071,7.682-2.64a.731.731,0,0,0,.487-.594l.371-2.787.954-.328a.728.728,0,0,0,.453-.926l-1.423-4.141A.729.729,0,0,0,998.223,104.25Zm-17.062,7.405,1.306-.448.029,3.077-1.306.448Zm-3.513,2.619a2.2,2.2,0,0,0,.828-1.7l1.231-.422.029,3.075-1.573.541Zm9.787,6.028a1.459,1.459,0,1,1-.948-2.76l.03-.01a3.6,3.6,0,0,0,1.274,2.647Zm2.523-1.638a.73.73,0,0,1-.31.859,2.149,2.149,0,0,1-1.637-2.5l1.235-.425Zm7.451-6.418-11.4,3.916a2.916,2.916,0,0,0-.443,5.324l.954,4.628a.731.731,0,0,1-.478.838l-2.714.932a.728.728,0,0,1-.953-.552c-1.737-9.073-1.625-8.51-1.65-8.582a2.192,2.192,0,0,0-2.051-1.478l-.042-.118,18.988-6.525Zm1.549-3.619-15.006,5.157-.028-3.077,14.085-4.841Z" transform="translate(-976.031 -103.304)"/></g></g><g transform="translate(0 16.003)"><g transform="translate(20.853)"><g transform="translate(1.318)"><path class="j" d="M961.856,78.993A19.7,19.7,0,0,0,940.4,97.129c-.683,9.139-1.326,19.026-1.336,24.011-.023,10.7,10.653,12.517,10.653,12.517s-1.3,7.315-1.655,11.244c-.709,7.912,6.253,10.7,14.182,11.178h0c7.773.47,15.069-2.055,15.529-9.83l1.94-46.47a19.7,19.7,0,0,0-17.855-20.785Z" transform="translate(-939.062 -78.909)"/><g transform="translate(10.742 50.796)"><path class="k" d="M947.211,118.487s8.945.425,16.2-3.984c0,0-6.156,8.835-16.816,7.718Z" transform="translate(-946.59 -114.503)"/></g><g transform="translate(40.052 24.228)"><path class="j" d="M967.7,96.19c.183-.077,7.381-2.069,7.043,5.242s-7.608,5.461-7.612,5.252S967.7,96.19,967.7,96.19Z" transform="translate(-967.129 -95.886)"/><g transform="translate(2.354 2.411)"><path class="k" d="M968.786,103.3c.033-.021.123.1.334.2a1.272,1.272,0,0,0,.95.063,3.152,3.152,0,0,0,1.59-2.759,4.192,4.192,0,0,0-.273-1.841,1.471,1.471,0,0,0-.912-1.022.65.65,0,0,0-.768.314c-.107.2-.068.348-.107.36-.021.017-.151-.13-.078-.43a.811.811,0,0,1,.308-.444.963.963,0,0,1,.714-.154,1.792,1.792,0,0,1,1.277,1.2,4.32,4.32,0,0,1,.347,2.058c-.114,1.47-.932,2.814-2,3.07a1.364,1.364,0,0,1-1.156-.247C968.79,103.473,968.76,103.308,968.786,103.3Z" transform="translate(-968.778 -97.575)"/></g></g><g transform="translate(3.382 14.352)"><g transform="translate(0.632 6.155)"><g transform="translate(1.477 2.183)"><path d="M942.912,96.168a1.527,1.527,0,0,0,1.45,1.563,1.46,1.46,0,0,0,1.594-1.354,1.527,1.527,0,0,0-1.448-1.564A1.461,1.461,0,0,0,942.912,96.168Z" transform="translate(-942.911 -94.808)"/></g><path d="M941.9,94.843c.187.2,1.356-.638,3-.611,1.641,0,2.835.868,3.017.669.09-.088-.1-.451-.618-.841a4.2,4.2,0,0,0-2.413-.782,4.019,4.019,0,0,0-2.39.735C941.983,94.394,941.807,94.752,941.9,94.843Z" transform="translate(-941.876 -93.279)"/><g transform="translate(16.155 0.539)"><g transform="translate(1.794 2.095)"><path d="M954.454,96.485a1.528,1.528,0,0,0,1.45,1.563,1.463,1.463,0,0,0,1.6-1.356,1.528,1.528,0,0,0-1.45-1.563A1.461,1.461,0,0,0,954.454,96.485Z" transform="translate(-954.453 -95.125)"/></g><path d="M953.219,95.22c.187.2,1.358-.638,3-.609,1.643,0,2.837.868,3.018.669.089-.088-.1-.451-.62-.841a4.187,4.187,0,0,0-2.411-.782,4.034,4.034,0,0,0-2.392.734C953.3,94.772,953.127,95.13,953.219,95.22Z" transform="translate(-953.196 -93.657)"/></g><g transform="translate(5.865 0.521)"><path d="M950.157,107.331a10.945,10.945,0,0,0-2.664-.519c-.418-.05-.815-.138-.88-.427a2.123,2.123,0,0,1,.3-1.24q.612-1.516,1.287-3.178c1.789-4.527,3.091-8.251,2.908-8.321s-1.782,3.542-3.572,8.067c-.431,1.117-.844,2.181-1.236,3.2a2.427,2.427,0,0,0-.241,1.644,1.056,1.056,0,0,0,.682.624,2.8,2.8,0,0,0,.711.108A10.631,10.631,0,0,0,950.157,107.331Z" transform="translate(-945.985 -93.644)"/></g></g><g transform="translate(14.9 0.853)"><path d="M951.887,91.016c.191.435,1.815.116,3.756.221,1.942.067,3.53.528,3.76.111.1-.2-.2-.6-.854-.992a6.545,6.545,0,0,0-5.726-.253C952.136,90.435,951.8,90.809,951.887,91.016Z" transform="translate(-951.874 -89.563)"/></g><path d="M941.473,90.627c.284.378,1.421.007,2.784.009,1.363-.047,2.512.287,2.783-.1.118-.188-.057-.565-.557-.926a4.036,4.036,0,0,0-4.485.074C941.511,90.061,941.349,90.443,941.473,90.627Z" transform="translate(-941.433 -88.966)"/></g></g><g transform="translate(12.684 39.13)"><path d="M953.192,106.777c.017.327-1.349.666-3.051.759s-3.1-.1-3.114-.428,1.347-.666,3.05-.758S953.173,106.451,953.192,106.777Z" transform="translate(-947.027 -106.328)"/></g><g transform="translate(0 18.289)"><g transform="translate(27.148 1.227)"><path d="M971.766,97.917a7.4,7.4,0,0,1-2.239-.49c-1.355-.405-3.184-1.085-5.173-1.892l-5.089-2.048a10.835,10.835,0,0,1-2.1-.886,7.462,7.462,0,0,1,2.239.49c1.355.405,3.185,1.086,5.175,1.894l5.088,2.046A10.8,10.8,0,0,1,971.766,97.917Z" transform="translate(-957.162 -92.584)"/></g><path d="M949.474,91.968a2.187,2.187,0,0,1,1.914,1.821,9.09,9.09,0,0,1-6.656,10.194,5.317,5.317,0,0,1-4.173-.391c-1.7-1.076-2.226-3.3-2.376-5.309a6.8,6.8,0,0,1,.736-4.264c1.03-1.568,3.048-2.173,4.922-2.275s5.633.224,5.633.224Z" transform="translate(-938.139 -91.724)"/><g transform="translate(17.796 0.389)"><path d="M952.744,92.117a2.206,2.206,0,0,0-1.986,1.785,9.188,9.188,0,0,0,6.432,10.5,5.373,5.373,0,0,0,4.23-.274c1.753-1.039,2.348-3.272,2.556-5.3a6.868,6.868,0,0,0-.62-4.333c-1-1.617-3.018-2.286-4.91-2.443a56.761,56.761,0,0,0-5.7.063Z" transform="translate(-950.609 -91.997)"/></g><g transform="translate(9.125 0.364)"><path d="M957.067,92.427a66.325,66.325,0,0,1-12.534-.251,66.317,66.317,0,0,1,12.534.251Z" transform="translate(-944.533 -91.979)"/></g></g><g transform="translate(42.094 29.824)"><g transform="translate(0 5.544)"><path class="e" d="M967.673,135.614c-.01,0-.02-.059-.031-.177a2.467,2.467,0,0,1,.021-.528,5.66,5.66,0,0,1,.7-1.891,12.647,12.647,0,0,0,1.286-2.847,14.317,14.317,0,0,0,.485-4.1c0-1.547-.2-3.212-.308-5.07a2.585,2.585,0,0,1,.354-1.474,1.406,1.406,0,0,1,1.5-.691,1.217,1.217,0,0,1,.728.558.931.931,0,0,1-.021.985,1.44,1.44,0,0,1-1.723.335,2.593,2.593,0,0,1-1.362-2.984,2.655,2.655,0,0,1,1.015-1.476,1.937,1.937,0,0,1,.895-.355,1.183,1.183,0,0,1,1.006.341.957.957,0,0,1-.709,1.667,2.347,2.347,0,0,1-2.369-2.6,2.331,2.331,0,0,1,1.109-1.618,2.2,2.2,0,0,1,1.65-.3,1.613,1.613,0,0,1,.769.451.992.992,0,0,1,.263.95,1.036,1.036,0,0,1-.692.681,1.9,1.9,0,0,1-.849.071,3.1,3.1,0,0,1-1.433-.636,2.528,2.528,0,0,1-.932-2.8,2.22,2.22,0,0,1,2.459-1.457,1.371,1.371,0,0,1,1.093,1.106.963.963,0,0,1-.311.808,1.257,1.257,0,0,1-.738.324,1.946,1.946,0,0,1-1.337-.5,2.991,2.991,0,0,1-.846-1.03,1.926,1.926,0,0,1,.529-2.439,1.378,1.378,0,0,1,2.129.836l.026.16-.137.074a2.01,2.01,0,0,1-2.767-.993,1.7,1.7,0,0,1,.123-1.474,2.111,2.111,0,0,1,1.029-.908,1.685,1.685,0,0,1,1.293-.009.956.956,0,0,1,.634,1.046.661.661,0,0,1-.414.5.8.8,0,0,1-.593-.033,1.118,1.118,0,0,1-.609-.8,9.073,9.073,0,0,1-.032-2.709,3.3,3.3,0,0,1,.2-.922,13.41,13.41,0,0,0,.086,3.562.84.84,0,0,0,.465.6.387.387,0,0,0,.576-.255c.12-.587-.829-.95-1.464-.626a1.516,1.516,0,0,0-.9,1.874,1.572,1.572,0,0,0,2.129.751l-.111.233a.9.9,0,0,0-1.383-.491,1.418,1.418,0,0,0-.341,1.8,2.12,2.12,0,0,0,1.665,1.214c.313-.027.6-.281.549-.535a.842.842,0,0,0-.673-.618,1.666,1.666,0,0,0-1.792,1.115,1.951,1.951,0,0,0,.758,2.142,2.513,2.513,0,0,0,1.147.512c.391.06.851-.078.894-.33.094-.23-.236-.578-.611-.665a1.608,1.608,0,0,0-1.19.227,1.739,1.739,0,0,0-.833,1.2,1.76,1.76,0,0,0,1.745,1.927c.494-.013.592-.358.321-.685-.227-.268-.776-.19-1.145.087a2.1,2.1,0,0,0-.8,1.153,2.05,2.05,0,0,0,1.026,2.332c.376.168.908.124,1.066-.127.194-.247-.047-.646-.4-.742a.9.9,0,0,0-.932.465,2.108,2.108,0,0,0-.286,1.193c.089,1.788.264,3.513.235,5.075a14.317,14.317,0,0,1-.587,4.19,12.209,12.209,0,0,1-1.4,2.864,6.139,6.139,0,0,0-.791,1.8C967.687,135.372,967.7,135.614,967.673,135.614Z" transform="translate(-967.635 -103.692)"/></g><g transform="translate(0.914)"><path class="e" d="M971.6,102.29a3.986,3.986,0,0,0-.485-1.574,1.822,1.822,0,0,0-1.322-.9,1.445,1.445,0,0,0-1.449.922,1.491,1.491,0,0,0,.539,1.618l.03.026.011.009,0,0c.043.03.09.06.125.083.191.12.461.136.652.254a1.344,1.344,0,0,1,.5,1.22,11.758,11.758,0,0,0-.11,1.376c.026.335.215.725.549.732.292.006.5-.28.617-.545A5.887,5.887,0,0,0,971.6,102.29Z" transform="translate(-968.276 -99.807)"/></g></g><g transform="translate(0.913 20.105)"><path class="f" d="M939.134,97.754A2.9,2.9,0,0,1,939,95.078c.488-1.5,1.635-2.2,1.707-2.064.114.131-.725.94-1.143,2.25C939.114,96.566,939.3,97.717,939.134,97.754Z" transform="translate(-938.778 -92.997)"/></g><g transform="translate(18.993 20.508)"><path class="f" d="M952.314,97.9c-.121.1-.872-.868-.866-2.309s.745-2.409.866-2.309c.151.084-.286,1.052-.272,2.309C952.028,96.852,952.465,97.821,952.314,97.9Z" transform="translate(-951.448 -93.279)"/></g></g><path class="g" d="M970.064,130.833l-12.194-5.969s-19.7,1.2-27.662,7.8c-3.995,3.314-5.8,14.339-6.68,19h46.586" transform="translate(-923.527 -59.282)"/><path class="g" d="M956.185,151.666h46.688c-.868-4.545-2.409-15.131-6.313-18.372-7.959-6.6-28.13-8.43-28.13-8.43l-12.293,5.969" transform="translate(-909.6 -59.282)"/><line class="g" y2="19.58" transform="translate(46.257 72.24)"/><rect class="h" width="15.797" height="2.728" transform="translate(62.183 84.349)"/><path class="h" d="M946.771,120.232l-2.487,7.406,8.688,10.462,7.948-5.74Z" transform="translate(-914.662 -61.26)"/><path class="h" d="M970.537,119.71l2.369,7.4-8.055,11.217-8.91-5.74Z" transform="translate(-909.683 -61.483)"/></g></g><g transform="translate(349.427 1.247)"><g transform="translate(40.665 0)"><path d="M787.193,331.274c-37.942-17.724-44.887-56.263-46.087-67.714a6,6,0,0,1,3.618-6.167,21.643,21.643,0,0,0,13.1-18.294,4.944,4.944,0,0,1,4.921-4.6l50.9-.3h.028a4.981,4.981,0,0,1,4.943,4.514,21.64,21.64,0,0,0,13.3,18.161,6.013,6.013,0,0,1,3.709,6.134c-1.064,11.463-7.547,50.107-45.287,68.249a4.012,4.012,0,0,1-3.146.018Zm-24.278-91.663a26.74,26.74,0,0,1-16.18,22.486.9.9,0,0,0-.542.93c1.121,10.712,7.493,46.784,42.543,63.323,34.851-16.949,40.8-53.093,41.8-63.815a.927.927,0,0,0-.577-.939,26.734,26.734,0,0,1-16.419-22.282Zm0,0" transform="translate(-741.072 -234.198)"/><path class="a" d="M828.557,258.64A23.617,23.617,0,0,1,814.2,239.915a3.656,3.656,0,0,0-3.664-3.144l-23.313.136-.5,0-23.306.137a3.641,3.641,0,0,0-3.628,3.141,23.617,23.617,0,0,1-13.483,18.645,4.663,4.663,0,0,0-2.583,4.81c1.433,11.921,8.649,46.862,43.3,62.844a1.111,1.111,0,0,0,.476.1,1.124,1.124,0,0,0,.474-.109c35.539-16.9,41.664-53.621,42.664-64.4a3.391,3.391,0,0,0-2.085-3.443Zm0,0" transform="translate(-739.833 -232.982)"/><path class="a" d="M783.784,314.077c-25.01-13.395-32.04-38.578-33.992-50.559a1.666,1.666,0,0,1,.783-1.7,30.212,30.212,0,0,0,13.5-17.759,1.673,1.673,0,0,1,1.6-1.226l36.963-.216a1.675,1.675,0,0,1,1.615,1.209,30.208,30.208,0,0,0,13.71,17.6,1.668,1.668,0,0,1,.8,1.693c-1.811,12-8.546,37.264-33.4,50.953a1.663,1.663,0,0,1-1.584.009Zm0,0" transform="translate(-736.963 -230.222)"/><path class="b" d="M815.988,258.641a23.623,23.623,0,0,1-14.409-19.177,2.981,2.981,0,0,0-2.958-2.7l-14.18.084c0,11.255,6.417,22.913,14.872,26.477a3.428,3.428,0,0,1,2.175,3.445c-.873,9.459-5.717,39.133-31.189,57.628,1.343.724,2.725,1.424,4.161,2.085a1.117,1.117,0,0,0,.95-.006c35.539-16.9,41.664-53.621,42.664-64.4a3.391,3.391,0,0,0-2.085-3.443Zm0,0" transform="translate(-727.265 -232.984)"/><path d="M773.475,280.645l-7.863-7.075a1.762,1.762,0,0,1-.069-2.584,2,2,0,0,1,2.726-.066l6.194,5.576,11.2-16.022a1.991,1.991,0,0,1,2.671-.514,1.77,1.77,0,0,1,.543,2.533l-12.467,17.837a2.029,2.029,0,0,1-2.934.315Zm0,0" transform="translate(-729.762 -222.171)"/></g><g transform="translate(0 13.425)"><g transform="translate(21.969)"><g transform="translate(1.359)"><path class="c" d="M752.817,243.4a20.321,20.321,0,0,0-22.141,18.712c-.705,9.429-1.366,19.629-1.378,24.774-.022,11.039,10.993,12.913,10.993,12.913s-1.345,7.548-1.708,11.6c-.732,8.163,6.451,11.042,14.632,11.535h0c8.02.483,15.549-2.122,16.024-10.142l2-47.947A20.329,20.329,0,0,0,752.817,243.4Z" transform="translate(-729.298 -243.316)"/><g transform="translate(11.083 52.409)"><path class="d" d="M737.466,283.02s9.231.44,16.712-4.111c0,0-6.352,9.116-17.353,7.963Z" transform="translate(-736.825 -278.909)"/></g><g transform="translate(41.327 24.997)"><path class="c" d="M757.951,260.605c.19-.078,7.617-2.134,7.267,5.41s-7.85,5.635-7.852,5.419S757.951,260.605,757.951,260.605Z" transform="translate(-757.365 -260.292)"/><g transform="translate(2.428 2.487)"><path class="d" d="M759.023,267.885c.034-.024.127.1.343.209a1.316,1.316,0,0,0,.982.066,3.256,3.256,0,0,0,1.639-2.848,4.34,4.34,0,0,0-.28-1.9,1.516,1.516,0,0,0-.943-1.054.671.671,0,0,0-.792.324c-.11.206-.069.359-.11.37-.021.019-.156-.133-.079-.442a.829.829,0,0,1,.318-.46,1,1,0,0,1,.737-.158,1.846,1.846,0,0,1,1.317,1.232,4.47,4.47,0,0,1,.358,2.123c-.119,1.518-.963,2.9-2.067,3.169a1.41,1.41,0,0,1-1.193-.255C759.027,268.068,758.995,267.9,759.023,267.885Z" transform="translate(-759.014 -261.981)"/></g></g><g transform="translate(3.491 14.808)"><g transform="translate(0.652 6.351)"><g transform="translate(1.523 2.252)"><path d="M733.147,260.618a1.576,1.576,0,0,0,1.5,1.612,1.507,1.507,0,0,0,1.644-1.4,1.577,1.577,0,0,0-1.494-1.614A1.51,1.51,0,0,0,733.147,260.618Z" transform="translate(-733.145 -259.215)"/></g><path d="M732.135,259.3c.192.209,1.4-.658,3.1-.629,1.695,0,2.927.9,3.114.69.091-.091-.1-.465-.639-.867a4.312,4.312,0,0,0-2.489-.807,4.161,4.161,0,0,0-2.468.757C732.223,258.836,732.04,259.206,732.135,259.3Z" transform="translate(-732.111 -257.686)"/><g transform="translate(16.669 0.556)"><g transform="translate(1.849 2.161)"><path d="M744.69,260.934a1.577,1.577,0,0,0,1.5,1.612,1.507,1.507,0,0,0,1.645-1.4,1.577,1.577,0,0,0-1.495-1.614A1.51,1.51,0,0,0,744.69,260.934Z" transform="translate(-744.688 -259.531)"/></g><path d="M743.456,259.677c.193.209,1.4-.658,3.1-.629,1.695,0,2.927.9,3.114.689.091-.09-.1-.464-.637-.866a4.317,4.317,0,0,0-2.49-.807,4.154,4.154,0,0,0-2.468.757C743.544,259.214,743.361,259.584,743.456,259.677Z" transform="translate(-743.432 -258.064)"/></g><g transform="translate(6.051 0.538)"><path d="M740.524,272.173a11.259,11.259,0,0,0-2.747-.536c-.433-.052-.841-.144-.91-.44a2.215,2.215,0,0,1,.308-1.28q.634-1.564,1.328-3.279c1.846-4.67,3.189-8.513,3-8.586s-1.838,3.653-3.684,8.324q-.667,1.727-1.275,3.3a2.505,2.505,0,0,0-.249,1.7,1.083,1.083,0,0,0,.7.643,2.9,2.9,0,0,0,.735.113A11.044,11.044,0,0,0,740.524,272.173Z" transform="translate(-736.221 -258.051)"/></g></g><g transform="translate(15.374 0.879)"><path d="M742.123,255.469c.2.448,1.873.119,3.874.228,2.005.068,3.644.545,3.88.115.1-.206-.2-.62-.879-1.023a6.746,6.746,0,0,0-5.907-.262C742.381,254.868,742.036,255.254,742.123,255.469Z" transform="translate(-742.11 -253.97)"/></g><path d="M731.71,255.087c.293.389,1.467.006,2.873.007,1.4-.047,2.59.3,2.87-.1.124-.193-.059-.582-.573-.954a4.164,4.164,0,0,0-4.628.077C731.75,254.5,731.581,254.9,731.71,255.087Z" transform="translate(-731.668 -253.373)"/></g></g><g transform="translate(13.085 40.372)"><path d="M743.623,271.2c.018.337-1.391.688-3.146.782s-3.2-.1-3.214-.44,1.391-.689,3.148-.783S743.605,270.861,743.623,271.2Z" transform="translate(-737.262 -270.734)"/></g><g transform="translate(0 18.87)"><g transform="translate(28.011 1.265)"><path d="M762.466,262.494a7.693,7.693,0,0,1-2.31-.505c-1.4-.418-3.287-1.12-5.338-1.954l-5.251-2.111a11.14,11.14,0,0,1-2.169-.914,7.644,7.644,0,0,1,2.31.5c1.4.418,3.287,1.119,5.338,1.954l5.251,2.11A11.252,11.252,0,0,1,762.466,262.494Z" transform="translate(-747.399 -256.99)"/></g><path d="M740.069,256.383a2.252,2.252,0,0,1,1.975,1.879,9.375,9.375,0,0,1-6.868,10.518,5.482,5.482,0,0,1-4.305-.4c-1.755-1.11-2.3-3.4-2.45-5.476a7.022,7.022,0,0,1,.76-4.4c1.063-1.618,3.145-2.243,5.078-2.347a57.9,57.9,0,0,1,5.81.231Z" transform="translate(-728.375 -256.131)"/><g transform="translate(18.36 0.401)"><path d="M743.048,256.526A2.281,2.281,0,0,0,741,258.37a9.485,9.485,0,0,0,6.638,10.833A5.552,5.552,0,0,0,752,268.92c1.807-1.072,2.422-3.376,2.637-5.467a7.1,7.1,0,0,0-.641-4.47c-1.026-1.667-3.114-2.357-5.065-2.521s-5.882.065-5.882.065Z" transform="translate(-740.844 -256.403)"/></g><g transform="translate(9.415 0.375)"><path d="M747.7,256.847c0,.169-2.9.249-6.473.178s-6.464-.267-6.46-.436,2.9-.249,6.471-.177S747.7,256.678,747.7,256.847Z" transform="translate(-734.769 -256.386)"/></g></g><g transform="translate(43.431 30.772)"><g transform="translate(0 5.719)"><path class="e" d="M757.91,301.036c-.01,0-.022-.06-.033-.183a2.523,2.523,0,0,1,.021-.545,5.8,5.8,0,0,1,.729-1.951,13.137,13.137,0,0,0,1.327-2.939,14.7,14.7,0,0,0,.5-4.224c0-1.6-.2-3.315-.316-5.232a2.672,2.672,0,0,1,.364-1.523,1.45,1.45,0,0,1,1.545-.711,1.26,1.26,0,0,1,.751.574.968.968,0,0,1-.022,1.017,1.486,1.486,0,0,1-1.779.345,2.672,2.672,0,0,1-1.4-3.077,2.756,2.756,0,0,1,1.047-1.524,1.987,1.987,0,0,1,.925-.365,1.223,1.223,0,0,1,1.038.35.989.989,0,0,1-.733,1.721,2.42,2.42,0,0,1-2.443-2.681,2.4,2.4,0,0,1,1.144-1.67,2.256,2.256,0,0,1,1.7-.3,1.658,1.658,0,0,1,.8.464,1.035,1.035,0,0,1,.271.982,1.066,1.066,0,0,1-.716.7,1.958,1.958,0,0,1-.875.075,3.2,3.2,0,0,1-1.478-.658,2.606,2.606,0,0,1-.963-2.892,2.291,2.291,0,0,1,2.538-1.5,1.413,1.413,0,0,1,1.128,1.141,1,1,0,0,1-.323.833,1.291,1.291,0,0,1-.761.334,2.018,2.018,0,0,1-1.378-.511,3.092,3.092,0,0,1-.873-1.064,1.987,1.987,0,0,1,.545-2.515,1.422,1.422,0,0,1,2.2.863l.025.163-.141.077a2.071,2.071,0,0,1-2.854-1.025,1.749,1.749,0,0,1,.127-1.52,2.164,2.164,0,0,1,1.062-.936,1.725,1.725,0,0,1,1.334-.009.986.986,0,0,1,.654,1.078.683.683,0,0,1-.427.512.826.826,0,0,1-.611-.032,1.152,1.152,0,0,1-.629-.827,9.291,9.291,0,0,1-.032-2.795,3.5,3.5,0,0,1,.208-.953,14.022,14.022,0,0,0,.088,3.675.866.866,0,0,0,.482.618.4.4,0,0,0,.595-.262c.122-.607-.857-.981-1.512-.648a1.569,1.569,0,0,0-.931,1.935,1.626,1.626,0,0,0,2.2.775l-.115.24a.933.933,0,0,0-1.427-.508,1.466,1.466,0,0,0-.354,1.858,2.191,2.191,0,0,0,1.719,1.253c.324-.028.614-.288.567-.551a.865.865,0,0,0-.693-.638,1.72,1.72,0,0,0-1.851,1.149,2.018,2.018,0,0,0,.784,2.211,2.614,2.614,0,0,0,1.184.529c.4.062.876-.081.922-.34.1-.238-.243-.6-.63-.686a1.651,1.651,0,0,0-1.228.234,1.793,1.793,0,0,0-.86,1.235,1.723,1.723,0,0,0,.469,1.4,1.75,1.75,0,0,0,1.331.589c.508-.013.611-.37.331-.707-.235-.277-.8-.2-1.182.09a2.159,2.159,0,0,0-.823,1.19,2.114,2.114,0,0,0,1.057,2.406c.388.172.936.128,1.1-.131.2-.256-.049-.667-.414-.767a.933.933,0,0,0-.961.482,2.161,2.161,0,0,0-.294,1.231c.091,1.844.272,3.624.243,5.236a14.728,14.728,0,0,1-.606,4.323,12.59,12.59,0,0,1-1.446,2.955,6.337,6.337,0,0,0-.814,1.857C757.923,300.784,757.938,301.036,757.91,301.036Z" transform="translate(-757.871 -268.098)"/></g><g transform="translate(0.942)"><path class="e" d="M761.944,266.776a4.122,4.122,0,0,0-.5-1.624,1.876,1.876,0,0,0-1.363-.932,1.493,1.493,0,0,0-1.5.951,1.541,1.541,0,0,0,.557,1.67l.032.026.012.009-.006-.006c.046.032.093.062.131.087.2.124.474.14.671.262a1.379,1.379,0,0,1,.517,1.258,12.919,12.919,0,0,0-.113,1.421c.027.345.222.747.568.754.3.007.511-.289.636-.561A6.077,6.077,0,0,0,761.944,266.776Z" transform="translate(-758.511 -264.214)"/></g></g><g transform="translate(0.941 20.743)"><path class="f" d="M729.382,262.312c-.147.072-.66-1.222-.141-2.761s1.687-2.275,1.762-2.131c.117.136-.748.972-1.181,2.324C729.361,261.086,729.556,262.274,729.382,262.312Z" transform="translate(-729.014 -257.403)"/></g><g transform="translate(19.596 21.16)"><path class="f" d="M742.576,262.458c-.125.1-.9-.9-.892-2.382s.768-2.486.894-2.383c.156.085-.295,1.085-.281,2.383C742.283,261.373,742.732,262.371,742.576,262.458Z" transform="translate(-741.684 -257.686)"/></g></g><path class="l" d="M761.829,316.924l-.223-16.108L749.2,289.27s-20.33,1.24-28.542,8.053c-4.121,3.42-5.984,14.795-6.892,19.6Z" transform="translate(-713.309 -221.605)"/><path class="m" d="M751.212,316.74l-7.222-27.082-4.492.478c-6.522,1.018-14.669,2.976-19.123,6.672-4.048,3.359-5.988,15.139-6.921,19.932Z" transform="translate(-713.455 -221.422)"/><path class="n" d="M736.658,316.74h7.863l-6.882-27.082s-4.732.406-6.594.752-3.207.624-3.207.624l4.023,24.322Z" transform="translate(-706.66 -221.422)"/><path class="l" d="M794.65,316.924c-.9-4.688-2.485-15.611-6.516-18.955-8.212-6.813-29.023-8.7-29.023-8.7l-12.856,11.545.222,16.108Z" transform="translate(-697.959 -221.605)"/><path class="m" d="M791.345,316.606c-.963-4.732-2.9-16.25-6.835-19.511-4.456-3.7-12.6-5.654-19.123-6.673l-4.494-.479-7.082,26.663Z" transform="translate(-694.39 -221.287)"/><path class="o" d="M762.922,316.606l3.343-.964,4.023-24.322s-1.346-.278-3.207-.624-6.594-.752-6.594-.752l-6.748,26.663Z" transform="translate(-694.424 -221.287)"/><path d="M753.965,312.785l-2.8-16.522H744.88l-2.213,16.522Z" transform="translate(-699.654 -218.302)"/><path d="M744.7,293.17h6.738a1.69,1.69,0,0,1,1.817,1.952c-.69,2.827-2.3,7.155-5.181,7.155s-4.5-4.327-5.19-7.155A1.69,1.69,0,0,1,744.7,293.17Z" transform="translate(-699.573 -219.763)"/><path class="p" d="M737.085,284.639l-2.566,7.641,8.964,10.794,8.2-5.922Z" transform="translate(-703.503 -223.793)"/><path class="p" d="M761.237,284.117l2.444,7.632-8.312,11.573-9.193-5.922Z" transform="translate(-697.996 -224.04)"/></g></g><g transform="translate(524.14 0.489)"><g transform="translate(40.847 0)"><path d="M474.185,169.192c-38.574-18.019-45.636-57.2-46.856-68.843a6.1,6.1,0,0,1,3.678-6.269,22,22,0,0,0,13.322-18.6,5.025,5.025,0,0,1,5-4.68l51.749-.3h.028a5.063,5.063,0,0,1,5.026,4.59,22,22,0,0,0,13.521,18.464,6.114,6.114,0,0,1,3.771,6.236c-1.082,11.654-7.674,50.942-46.043,69.387a4.079,4.079,0,0,1-3.2.018ZM449.5,76a27.186,27.186,0,0,1-16.45,22.86.919.919,0,0,0-.551.946c1.139,10.891,7.618,47.564,43.252,64.379,35.432-17.232,41.483-53.978,42.495-64.879a.941.941,0,0,0-.587-.955A27.181,27.181,0,0,1,500.969,75.7Zm0,0" transform="translate(-427.295 -70.497)"/><path class="a" d="M516.2,95.3A24.011,24.011,0,0,1,501.6,76.266a3.716,3.716,0,0,0-3.725-3.2l-23.7.138-.506,0-23.694.139a3.7,3.7,0,0,0-3.688,3.193A24.013,24.013,0,0,1,432.579,95.5a4.74,4.74,0,0,0-2.626,4.891c1.457,12.12,8.793,47.642,44.02,63.891a1.127,1.127,0,0,0,.484.1,1.142,1.142,0,0,0,.482-.111C511.071,147.093,517.3,109.76,518.315,98.8a3.446,3.446,0,0,0-2.12-3.5Zm0,0" transform="translate(-425.992 -69.218)"/><path class="a" d="M470.575,151.567c-25.428-13.618-32.574-39.221-34.559-51.4a1.694,1.694,0,0,1,.8-1.729,30.714,30.714,0,0,0,13.727-18.055,1.7,1.7,0,0,1,1.626-1.247l37.579-.22a1.7,1.7,0,0,1,1.642,1.229,30.712,30.712,0,0,0,13.938,17.89,1.7,1.7,0,0,1,.816,1.722c-1.841,12.2-8.689,37.886-33.955,51.8a1.693,1.693,0,0,1-1.611.009Zm0,0" transform="translate(-422.973 -66.314)"/><path class="b" d="M502.973,95.3a24.015,24.015,0,0,1-14.649-19.5,3.031,3.031,0,0,0-3.007-2.741l-14.416.085c0,11.441,6.524,23.295,15.12,26.919a3.485,3.485,0,0,1,2.211,3.5c-.888,9.617-5.813,39.785-31.709,58.589,1.365.737,2.771,1.448,4.231,2.12a1.126,1.126,0,0,0,.483.1,1.115,1.115,0,0,0,.482-.111c36.131-17.182,42.359-54.516,43.375-65.472a3.446,3.446,0,0,0-2.12-3.5Zm0,0" transform="translate(-412.77 -69.22)"/><g transform="translate(35.55 33.464)"><path class="i" d="M475.992,93.914l-.776.266-.266-.775a.821.821,0,0,0-1.552.533l.266.777-14.843,5.1-3.1,1.066-3.1,1.066a.819.819,0,0,0-.509,1.042.823.823,0,0,1-.51,1.043.82.82,0,0,0-.509,1.042l1.067,3.1.533,1.551a.819.819,0,0,0,1.042.509.823.823,0,0,1,1.026.464l1.811,9.468a2.461,2.461,0,0,0,3.217,1.865l3.052-1.049a2.463,2.463,0,0,0,1.609-2.823l-.9-4.359,3.172-1.09,0,0,.018-.006a2.464,2.464,0,0,0,1.51-3.121l-.8-2.326,8.636-2.969a.819.819,0,0,0,.546-.668l.418-3.133,1.073-.368a.82.82,0,0,0,.509-1.042l-1.6-4.656A.82.82,0,0,0,475.992,93.914Zm-19.181,8.326,1.469-.5.031,3.458-1.467.5Zm-3.951,2.943a2.47,2.47,0,0,0,.931-1.906l1.385-.476.031,3.46-1.768.606Zm11,6.777a1.641,1.641,0,1,1-1.067-3.1l.033-.012a4.049,4.049,0,0,0,1.434,2.978Zm2.835-1.843a.823.823,0,0,1-.347.967,2.417,2.417,0,0,1-1.84-2.817l1.388-.476Zm8.377-7.214-12.813,4.4a3.279,3.279,0,0,0-.5,5.985l1.073,5.2a.822.822,0,0,1-.536.942l-3.052,1.049a.819.819,0,0,1-1.072-.623c-1.952-10.2-1.826-9.566-1.855-9.648a2.466,2.466,0,0,0-2.305-1.66l-.046-.133,21.346-7.335Zm1.739-4.067-16.869,5.8-.032-3.458,15.835-5.442Z" transform="translate(-451.043 -92.851)"/></g></g><g transform="translate(0 12.592)"><g transform="translate(21.874)"><g transform="translate(1.383)"><path class="j" d="M439.455,79a20.662,20.662,0,0,0-22.51,19.024c-.716,9.587-1.389,19.958-1.4,25.187-.024,11.223,11.175,13.13,11.175,13.13s-1.367,7.674-1.737,11.795c-.744,8.3,6.558,11.224,14.877,11.726h0c8.153.493,15.807-2.156,16.29-10.311l2.034-48.746A20.667,20.667,0,0,0,439.455,79Z" transform="translate(-415.545 -78.909)"/><g transform="translate(11.268 53.284)"><path class="k" d="M423.723,118.683s9.383.446,16.989-4.18c0,0-6.458,9.268-17.641,8.1Z" transform="translate(-423.072 -114.503)"/></g><g transform="translate(42.014 25.414)"><path class="j" d="M444.207,96.205c.193-.081,7.744-2.171,7.389,5.5s-7.982,5.729-7.985,5.509S444.207,96.205,444.207,96.205Z" transform="translate(-443.611 -95.886)"/><g transform="translate(2.469 2.529)"><path class="k" d="M445.269,103.576c.034-.022.129.1.35.214a1.335,1.335,0,0,0,1,.066c.825-.259,1.566-1.513,1.668-2.894A4.443,4.443,0,0,0,448,99.032a1.544,1.544,0,0,0-.957-1.072.682.682,0,0,0-.805.329c-.114.211-.072.365-.112.377-.023.018-.159-.136-.082-.451a.85.85,0,0,1,.323-.466,1.009,1.009,0,0,1,.748-.162,1.88,1.88,0,0,1,1.34,1.254,4.527,4.527,0,0,1,.364,2.159c-.12,1.542-.979,2.952-2.1,3.22a1.43,1.43,0,0,1-1.213-.259C445.273,103.762,445.241,103.588,445.269,103.576Z" transform="translate(-445.26 -97.575)"/></g></g><g transform="translate(3.547 15.055)"><g transform="translate(0.663 6.457)"><g transform="translate(1.548 2.29)"><path d="M419.393,96.234a1.6,1.6,0,0,0,1.522,1.639,1.532,1.532,0,0,0,1.672-1.421,1.6,1.6,0,0,0-1.519-1.641A1.534,1.534,0,0,0,419.393,96.234Z" transform="translate(-419.392 -94.808)"/></g><path d="M418.382,94.92c.2.211,1.422-.669,3.147-.641,1.723,0,2.976.91,3.166.7.093-.093-.1-.473-.648-.882a4.409,4.409,0,0,0-2.531-.82,4.221,4.221,0,0,0-2.509.771C418.47,94.448,418.285,94.824,418.382,94.92Z" transform="translate(-418.357 -93.279)"/><g transform="translate(16.947 0.566)"><g transform="translate(1.882 2.198)"><path d="M430.936,96.551a1.6,1.6,0,0,0,1.521,1.639,1.535,1.535,0,0,0,1.674-1.422,1.6,1.6,0,0,0-1.521-1.639A1.533,1.533,0,0,0,430.936,96.551Z" transform="translate(-430.935 -95.125)"/></g><path d="M429.7,95.3c.2.213,1.425-.669,3.148-.639,1.721,0,2.976.91,3.166.7.093-.093-.1-.473-.65-.882a4.4,4.4,0,0,0-2.53-.82,4.231,4.231,0,0,0-2.509.769C429.792,94.826,429.606,95.2,429.7,95.3Z" transform="translate(-429.678 -93.657)"/></g><g transform="translate(6.152 0.547)"><path d="M426.844,108a11.485,11.485,0,0,0-2.795-.545c-.439-.052-.855-.145-.925-.448a2.252,2.252,0,0,1,.313-1.3q.644-1.59,1.352-3.334c1.877-4.748,3.242-8.656,3.051-8.729s-1.87,3.715-3.747,8.462c-.452,1.172-.885,2.287-1.3,3.356a2.544,2.544,0,0,0-.253,1.725,1.107,1.107,0,0,0,.716.654,2.931,2.931,0,0,0,.745.114A11.152,11.152,0,0,0,426.844,108Z" transform="translate(-422.467 -93.644)"/></g></g><g transform="translate(15.631 0.895)"><path d="M428.369,91.087c.2.457,1.9.121,3.94.232,2.037.07,3.7.554,3.945.117.106-.208-.207-.63-.9-1.04a6.866,6.866,0,0,0-6.006-.265C428.631,90.477,428.282,90.87,428.369,91.087Z" transform="translate(-428.356 -89.563)"/></g><path d="M417.957,90.709c.3.4,1.491.007,2.921.009,1.428-.049,2.635.3,2.919-.1.124-.2-.06-.593-.584-.972a4.233,4.233,0,0,0-4.7.078C418,90.114,417.825,90.516,417.957,90.709Z" transform="translate(-417.915 -88.966)"/></g></g><g transform="translate(13.305 41.046)"><path d="M429.974,106.8c.019.343-1.413.7-3.2.8s-3.248-.1-3.266-.449,1.413-.7,3.2-.795S429.956,106.457,429.974,106.8Z" transform="translate(-423.509 -106.328)"/></g><g transform="translate(0 19.185)"><g transform="translate(28.478 1.287)"><path d="M448.964,98.178a7.77,7.77,0,0,1-2.349-.513c-1.421-.425-3.341-1.138-5.427-1.985l-5.338-2.148a11.341,11.341,0,0,1-2.205-.93,7.83,7.83,0,0,1,2.349.513c1.421.425,3.341,1.139,5.428,1.986l5.337,2.147A11.337,11.337,0,0,1,448.964,98.178Z" transform="translate(-433.645 -92.584)"/></g><path d="M426.511,91.98a2.291,2.291,0,0,1,2.006,1.91,9.532,9.532,0,0,1-6.98,10.693,5.578,5.578,0,0,1-4.377-.41c-1.786-1.129-2.337-3.463-2.492-5.569a7.137,7.137,0,0,1,.772-4.473c1.081-1.645,3.2-2.28,5.163-2.386s5.909.235,5.909.235Z" transform="translate(-414.621 -91.724)"/><g transform="translate(18.667 0.408)"><path d="M429.33,92.123A2.315,2.315,0,0,0,427.247,94a9.639,9.639,0,0,0,6.747,11.013,5.637,5.637,0,0,0,4.437-.287c1.838-1.09,2.463-3.433,2.681-5.557a7.207,7.207,0,0,0-.651-4.545c-1.043-1.7-3.166-2.4-5.15-2.563a59.541,59.541,0,0,0-5.98.066Z" transform="translate(-427.091 -91.997)"/></g><g transform="translate(9.572 0.382)"><path d="M434.163,92.449c0,.171-2.951.252-6.581.18s-6.57-.271-6.567-.443,2.949-.251,6.581-.18S434.166,92.277,434.163,92.449Z" transform="translate(-421.015 -91.979)"/></g></g><g transform="translate(44.156 31.285)"><g transform="translate(0 5.815)"><path class="e" d="M444.157,137.178c-.01,0-.021-.061-.033-.186a2.491,2.491,0,0,1,.022-.554,5.859,5.859,0,0,1,.739-1.983,13.271,13.271,0,0,0,1.349-2.986,15.019,15.019,0,0,0,.509-4.3c0-1.623-.205-3.37-.323-5.319a2.71,2.71,0,0,1,.371-1.546,1.474,1.474,0,0,1,1.569-.725,1.278,1.278,0,0,1,.763.585.978.978,0,0,1-.022,1.033,1.512,1.512,0,0,1-1.808.352,2.72,2.72,0,0,1-1.427-3.13,2.782,2.782,0,0,1,1.063-1.548,2.047,2.047,0,0,1,.94-.373,1.241,1.241,0,0,1,1.055.358,1,1,0,0,1-.744,1.748,2.463,2.463,0,0,1-2.485-2.726,2.446,2.446,0,0,1,1.163-1.7,2.306,2.306,0,0,1,1.731-.31,1.693,1.693,0,0,1,.807.473,1.042,1.042,0,0,1,.276,1,1.09,1.09,0,0,1-.726.714,2,2,0,0,1-.891.075,3.239,3.239,0,0,1-1.5-.668,2.655,2.655,0,0,1-.979-2.942A2.331,2.331,0,0,1,448.154,111a1.44,1.44,0,0,1,1.147,1.16,1.01,1.01,0,0,1-.326.847,1.317,1.317,0,0,1-.774.34,2.041,2.041,0,0,1-1.4-.519,3.139,3.139,0,0,1-.888-1.081,2.021,2.021,0,0,1,.554-2.558,1.446,1.446,0,0,1,2.235.877l.027.168-.144.078a2.109,2.109,0,0,1-2.9-1.042,1.786,1.786,0,0,1,.129-1.546,2.216,2.216,0,0,1,1.079-.952,1.768,1.768,0,0,1,1.356-.009,1,1,0,0,1,.665,1.1.694.694,0,0,1-.434.521.839.839,0,0,1-.621-.034,1.17,1.17,0,0,1-.639-.841,9.512,9.512,0,0,1-.033-2.841,3.525,3.525,0,0,1,.211-.967,14.219,14.219,0,0,0,.091,3.736.882.882,0,0,0,.488.629.406.406,0,0,0,.6-.268c.126-.615-.871-1-1.537-.657a1.594,1.594,0,0,0-.946,1.966,1.652,1.652,0,0,0,2.235.787l-.117.244a.947.947,0,0,0-1.451-.515,1.488,1.488,0,0,0-.358,1.889,2.225,2.225,0,0,0,1.746,1.274c.329-.028.624-.295.576-.561a.879.879,0,0,0-.705-.648,1.75,1.75,0,0,0-1.882,1.169,2.05,2.05,0,0,0,.8,2.247,2.631,2.631,0,0,0,1.2.537c.41.063.892-.082.937-.346.1-.241-.247-.606-.641-.7a1.685,1.685,0,0,0-1.249.238,1.823,1.823,0,0,0-.874,1.257,1.847,1.847,0,0,0,1.831,2.021c.516-.014.621-.376.337-.719-.24-.281-.814-.2-1.2.091a2.2,2.2,0,0,0-.838,1.21,2.15,2.15,0,0,0,1.076,2.446c.394.177.951.13,1.118-.133.2-.259-.05-.678-.421-.778a.947.947,0,0,0-.978.488,2.213,2.213,0,0,0-.3,1.251c.093,1.876.277,3.686.247,5.323a15.024,15.024,0,0,1-.615,4.4,12.826,12.826,0,0,1-1.47,3,6.427,6.427,0,0,0-.829,1.888C444.172,136.924,444.187,137.178,444.157,137.178Z" transform="translate(-444.118 -103.692)"/></g><g transform="translate(0.959)"><path class="e" d="M448.247,102.412a4.176,4.176,0,0,0-.509-1.651,1.912,1.912,0,0,0-1.386-.948,1.516,1.516,0,0,0-1.521.967,1.563,1.563,0,0,0,.565,1.7l.033.027.012.009-.006,0c.046.031.1.063.133.087.2.126.482.142.684.266a1.406,1.406,0,0,1,.524,1.28,12.693,12.693,0,0,0-.114,1.443c.026.352.225.76.576.768.305.006.521-.293.647-.572A6.173,6.173,0,0,0,448.247,102.412Z" transform="translate(-444.758 -99.807)"/></g></g><g transform="translate(0.957 21.09)"><path class="f" d="M415.634,97.987c-.15.073-.671-1.241-.142-2.807.512-1.57,1.716-2.313,1.79-2.165.12.138-.761.987-1.2,2.361C415.613,96.741,415.812,97.948,415.634,97.987Z" transform="translate(-415.26 -92.997)"/></g><g transform="translate(19.923 21.512)"><path class="f" d="M428.839,98.131c-.127.1-.916-.91-.909-2.422s.781-2.527.909-2.422c.159.088-.3,1.1-.286,2.422C428.539,97.027,429,98.044,428.839,98.131Z" transform="translate(-427.93 -93.279)"/></g></g><path class="q" d="M448.876,152.979,448.65,136.6l-12.617-11.736s-20.669,1.26-29.018,8.187c-4.19,3.476-6.084,15.042-7.007,19.928Z" transform="translate(-400.009 -56.069)"/><path class="q" d="M481.7,152.979c-.91-4.768-2.527-15.873-6.624-19.272-8.347-6.927-29.507-8.843-29.507-8.843L432.5,136.6l.226,16.379Z" transform="translate(-383.86 -56.069)"/><path class="r" d="M434.039,133.707l-1.385,8.844L445.5,124.864Z" transform="translate(-383.785 -56.07)"/><path class="s" d="M440.4,148.654l-2.851-16.8h-6.386l-2.25,16.8Z" transform="translate(-385.644 -52.595)"/><path class="s" d="M430.974,128.763h6.85a1.718,1.718,0,0,1,1.847,1.985c-.7,2.874-2.337,7.275-5.268,7.275s-4.575-4.4-5.277-7.275A1.718,1.718,0,0,1,430.974,128.763Z" transform="translate(-385.559 -54.132)"/><path class="p" d="M423.416,120.5l-2.844,7.769,9.114,10.974,8.337-6.021Z" transform="translate(-389.79 -58.238)"/><path class="p" d="M448.3,120.5l1.73,6.977-8.45,11.766-9.346-6.021Z" transform="translate(-383.996 -58.238)"/><path class="t" d="M462.592,131.1l-1.455,3.391a2.822,2.822,0,0,1-3.768,1.286l-5-2.147a2.823,2.823,0,0,1-1.665-3.617l1.319-3.073" transform="translate(-374.912 -55.036)"/><path class="t" d="M417.7,126.762l1.1,3.524a2.824,2.824,0,0,1-2.031,3.425l-5.2,1.617a2.824,2.824,0,0,1-3.615-1.669l-.994-3.193" transform="translate(-396.556 -55.126)"/></g></g><g transform="translate(698.854)"><g transform="translate(41.194)"><path d="M1066.145,340.167c-38.435-17.954-45.471-57-46.687-68.6a6.074,6.074,0,0,1,3.665-6.247,21.924,21.924,0,0,0,13.274-18.532,5.007,5.007,0,0,1,4.984-4.663l51.563-.3h.029a5.045,5.045,0,0,1,5.007,4.573,21.921,21.921,0,0,0,13.472,18.4,6.091,6.091,0,0,1,3.757,6.214c-1.079,11.612-7.646,50.759-45.877,69.137a4.064,4.064,0,0,1-3.187.018Zm-24.593-92.856a27.088,27.088,0,0,1-16.391,22.778.917.917,0,0,0-.549.944c1.135,10.85,7.591,47.391,43.1,64.146,35.3-17.17,41.334-53.784,42.342-64.646a.939.939,0,0,0-.585-.952,27.083,27.083,0,0,1-16.633-22.572Zm0,0" transform="translate(-1019.424 -241.828)"/><path class="a" d="M1108.013,266.554a23.926,23.926,0,0,1-14.541-18.968,3.7,3.7,0,0,0-3.711-3.185l-23.616.137-.5,0-23.609.139a3.686,3.686,0,0,0-3.675,3.182,23.924,23.924,0,0,1-13.66,18.888,4.725,4.725,0,0,0-2.614,4.873c1.451,12.076,8.761,47.471,43.862,63.661a1.118,1.118,0,0,0,.482.1,1.157,1.157,0,0,0,.48-.109c36-17.122,42.206-54.321,43.219-65.238a3.436,3.436,0,0,0-2.112-3.487Zm0,0" transform="translate(-1018.135 -240.563)"/><path class="a" d="M1062.579,322.636c-25.336-13.569-32.458-39.08-34.435-51.217a1.69,1.69,0,0,1,.793-1.723,30.6,30.6,0,0,0,13.678-17.99,1.7,1.7,0,0,1,1.62-1.242l37.443-.219a1.7,1.7,0,0,1,1.637,1.225A30.6,30.6,0,0,0,1097.2,269.3a1.691,1.691,0,0,1,.813,1.715c-1.835,12.156-8.657,37.749-33.833,51.616a1.683,1.683,0,0,1-1.6.009Zm0,0" transform="translate(-1015.149 -237.69)"/><path class="b" d="M1094.935,266.556a23.925,23.925,0,0,1-14.6-19.426,3.02,3.02,0,0,0-3-2.731l-14.365.085c0,11.4,6.5,23.211,15.065,26.822a3.473,3.473,0,0,1,2.2,3.49c-.884,9.582-5.792,39.642-31.595,58.379,1.36.734,2.761,1.441,4.216,2.11a1.112,1.112,0,0,0,.481.1,1.134,1.134,0,0,0,.481-.109c36-17.122,42.206-54.321,43.219-65.238a3.436,3.436,0,0,0-2.112-3.487Zm0,0" transform="translate(-1005.057 -240.565)"/><g transform="translate(35.585 34.623)"><path class="i" d="M1066.478,266.029l-.723.248-.247-.722a.763.763,0,0,0-1.443.5l.248.72-13.8,4.742-2.885.992-2.885.992a.761.761,0,0,0-.474.968.764.764,0,0,1-.473.97.765.765,0,0,0-.474.97l.992,2.885.5,1.442a.765.765,0,0,0,.97.474.762.762,0,0,1,.953.431l1.685,8.8a2.288,2.288,0,0,0,2.991,1.733l2.837-.974a2.293,2.293,0,0,0,1.5-2.627l-.837-4.053,2.95-1.013h0l.016-.006a2.289,2.289,0,0,0,1.4-2.9l-.743-2.164,8.029-2.759a.762.762,0,0,0,.509-.62l.389-2.913,1-.343a.761.761,0,0,0,.473-.968l-1.487-4.329A.761.761,0,0,0,1066.478,266.029Zm-17.834,7.74,1.364-.469.03,3.216-1.363.468Zm-3.674,2.737a2.3,2.3,0,0,0,.867-1.772l1.286-.441.03,3.214-1.644.565Zm10.229,6.3a1.525,1.525,0,1,1-.99-2.885l.029-.01a3.769,3.769,0,0,0,1.332,2.768Zm2.638-1.712a.765.765,0,0,1-.324.9,2.248,2.248,0,0,1-1.711-2.618l1.292-.444Zm7.788-6.708-11.912,4.093a3.05,3.05,0,0,0-.462,5.565l1,4.837a.765.765,0,0,1-.5.876l-2.838.974a.761.761,0,0,1-1-.577c-1.815-9.484-1.7-8.894-1.724-8.97a2.292,2.292,0,0,0-2.144-1.545l-.042-.124,19.845-6.82Zm1.618-3.783-15.684,5.391-.03-3.216,14.724-5.059Z" transform="translate(-1043.281 -265.04)"/></g></g><g transform="translate(0 13.43)"><g transform="translate(22.255)"><g transform="translate(1.378)"><path class="j" d="M1031.474,250.92a20.588,20.588,0,0,0-22.429,18.957c-.713,9.551-1.384,19.884-1.395,25.095-.024,11.184,11.135,13.083,11.135,13.083s-1.362,7.646-1.73,11.752c-.741,8.269,6.535,11.184,14.822,11.685h0c8.124.489,15.751-2.149,16.233-10.274l2.027-48.572a20.594,20.594,0,0,0-18.663-21.725Z" transform="translate(-1007.651 -250.832)"/><g transform="translate(11.227 53.092)"><path class="k" d="M1015.827,290.591s9.349.444,16.928-4.164c0,0-6.435,9.234-17.577,8.067Z" transform="translate(-1015.178 -286.426)"/></g><g transform="translate(41.863 25.323)"><path class="j" d="M1036.31,268.127c.193-.081,7.716-2.161,7.363,5.479s-7.953,5.71-7.956,5.489S1036.31,268.127,1036.31,268.127Z" transform="translate(-1035.717 -267.809)"/><g transform="translate(2.46 2.519)"><path class="k" d="M1037.374,275.478c.034-.022.129.1.349.213a1.335,1.335,0,0,0,.993.067c.82-.26,1.56-1.51,1.661-2.885a4.414,4.414,0,0,0-.284-1.923,1.539,1.539,0,0,0-.953-1.068.678.678,0,0,0-.8.328c-.113.209-.072.364-.112.374-.023.018-.158-.136-.082-.447a.85.85,0,0,1,.322-.465,1.014,1.014,0,0,1,.746-.161,1.874,1.874,0,0,1,1.335,1.25,4.543,4.543,0,0,1,.362,2.151c-.119,1.538-.975,2.941-2.094,3.21a1.424,1.424,0,0,1-1.208-.259C1037.379,275.664,1037.348,275.491,1037.374,275.478Z" transform="translate(-1037.366 -269.498)"/></g></g><g transform="translate(3.535 15.001)"><g transform="translate(0.66 6.435)"><g transform="translate(1.543 2.281)"><path d="M1011.5,268.153a1.6,1.6,0,0,0,1.517,1.633,1.529,1.529,0,0,0,1.667-1.417,1.6,1.6,0,0,0-1.514-1.633A1.529,1.529,0,0,0,1011.5,268.153Z" transform="translate(-1011.497 -266.732)"/></g><path d="M1010.488,266.836c.2.212,1.417-.667,3.135-.637,1.717,0,2.965.905,3.155.7.092-.091-.1-.47-.646-.879a4.385,4.385,0,0,0-2.522-.816,4.205,4.205,0,0,0-2.5.767C1010.576,266.368,1010.391,266.741,1010.488,266.836Z" transform="translate(-1010.463 -265.203)"/><g transform="translate(16.885 0.564)"><g transform="translate(1.875 2.189)"><path d="M1023.042,268.469a1.6,1.6,0,0,0,1.516,1.633,1.529,1.529,0,0,0,1.668-1.416,1.6,1.6,0,0,0-1.515-1.635A1.529,1.529,0,0,0,1023.042,268.469Z" transform="translate(-1023.04 -267.048)"/></g><path d="M1021.808,267.214c.2.21,1.42-.667,3.137-.637,1.715,0,2.965.907,3.155.7.092-.091-.1-.47-.647-.878a4.385,4.385,0,0,0-2.523-.816,4.205,4.205,0,0,0-2.5.767C1021.9,266.746,1021.713,267.119,1021.808,267.214Z" transform="translate(-1021.784 -265.581)"/></g><g transform="translate(6.13 0.544)"><path d="M1018.934,279.874a11.3,11.3,0,0,0-2.785-.544c-.437-.051-.852-.145-.922-.445a2.238,2.238,0,0,1,.312-1.3q.642-1.584,1.347-3.323c1.871-4.731,3.231-8.623,3.04-8.7s-1.863,3.7-3.734,8.434c-.45,1.166-.882,2.277-1.292,3.343a2.538,2.538,0,0,0-.252,1.718,1.1,1.1,0,0,0,.713.652,3,3,0,0,0,.743.115A11.192,11.192,0,0,0,1018.934,279.874Z" transform="translate(-1014.573 -265.567)"/></g></g><g transform="translate(15.575 0.892)"><path d="M1020.475,263c.2.455,1.9.122,3.924.233,2.031.069,3.692.552,3.932.115.106-.207-.206-.626-.892-1.035a6.834,6.834,0,0,0-5.984-.266C1020.736,262.4,1020.388,262.788,1020.475,263Z" transform="translate(-1020.462 -261.487)"/></g><path d="M1010.063,262.627c.3.394,1.485.006,2.91.007,1.423-.049,2.625.3,2.907-.1.125-.2-.058-.589-.58-.967a4.21,4.21,0,0,0-4.688.078C1010.1,262.035,1009.932,262.434,1010.063,262.627Z" transform="translate(-1010.02 -260.889)"/></g></g><g transform="translate(13.257 40.898)"><path d="M1022.057,278.721c.02.343-1.408.7-3.188.794s-3.236-.1-3.254-.446,1.408-.7,3.188-.794S1022.039,278.379,1022.057,278.721Z" transform="translate(-1015.615 -278.251)"/></g><g transform="translate(0 19.116)"><g transform="translate(28.375 1.283)"><path d="M1041.014,270.081a7.751,7.751,0,0,1-2.34-.512c-1.415-.422-3.329-1.134-5.407-1.978l-5.319-2.139a11.278,11.278,0,0,1-2.2-.926,7.741,7.741,0,0,1,2.34.512c1.415.422,3.329,1.134,5.408,1.978l5.318,2.139A11.29,11.29,0,0,1,1041.014,270.081Z" transform="translate(-1025.751 -264.507)"/></g><path d="M1018.574,263.9a2.282,2.282,0,0,1,2,1.9,9.5,9.5,0,0,1-6.955,10.654,5.551,5.551,0,0,1-4.362-.41c-1.78-1.125-2.329-3.45-2.484-5.549a7.111,7.111,0,0,1,.77-4.457c1.077-1.639,3.186-2.27,5.145-2.378s5.887.234,5.887.234Z" transform="translate(-1006.727 -263.647)"/><g transform="translate(18.6 0.407)"><path d="M1021.428,264.045a2.307,2.307,0,0,0-2.076,1.866,9.606,9.606,0,0,0,6.723,10.975,5.616,5.616,0,0,0,4.421-.288c1.832-1.084,2.454-3.42,2.672-5.537a7.181,7.181,0,0,0-.65-4.529c-1.039-1.688-3.155-2.39-5.131-2.554s-5.959.066-5.959.066Z" transform="translate(-1019.197 -263.92)"/></g><g transform="translate(9.537 0.381)"><path d="M1026.221,264.37c0,.172-2.94.252-6.557.179s-6.547-.269-6.544-.44,2.938-.252,6.557-.181S1026.224,264.2,1026.221,264.37Z" transform="translate(-1013.121 -263.902)"/></g></g><g transform="translate(43.997 31.172)"><g transform="translate(0 5.794)"><path class="e" d="M1036.263,308.982c-.01,0-.021-.063-.033-.186a2.457,2.457,0,0,1,.022-.55,5.838,5.838,0,0,1,.737-1.977,13.249,13.249,0,0,0,1.344-2.977,14.942,14.942,0,0,0,.508-4.279c0-1.618-.2-3.358-.323-5.3a2.706,2.706,0,0,1,.37-1.542,1.466,1.466,0,0,1,1.563-.72,1.271,1.271,0,0,1,.76.582.978.978,0,0,1-.022,1.031,1.505,1.505,0,0,1-1.8.349,2.708,2.708,0,0,1-1.421-3.117,2.772,2.772,0,0,1,1.059-1.544,2.02,2.02,0,0,1,.936-.37,1.241,1.241,0,0,1,1.052.355,1,1,0,0,1-.742,1.744,2.454,2.454,0,0,1-2.476-2.718,2.43,2.43,0,0,1,1.159-1.69,2.291,2.291,0,0,1,1.724-.309,1.676,1.676,0,0,1,.8.47,1.046,1.046,0,0,1,.274.995,1.081,1.081,0,0,1-.724.71,2.01,2.01,0,0,1-.887.076,3.241,3.241,0,0,1-1.5-.667,2.641,2.641,0,0,1-.975-2.931,2.324,2.324,0,0,1,2.572-1.523,1.435,1.435,0,0,1,1.142,1.157,1.017,1.017,0,0,1-.325.844,1.315,1.315,0,0,1-.771.338,2.045,2.045,0,0,1-1.4-.517,3.14,3.14,0,0,1-.885-1.078,2.012,2.012,0,0,1,.552-2.548,1.439,1.439,0,0,1,2.227.874l.027.166-.143.078a2.1,2.1,0,0,1-2.892-1.038,1.776,1.776,0,0,1,.128-1.539,2.193,2.193,0,0,1,1.076-.949,1.749,1.749,0,0,1,1.351-.009,1,1,0,0,1,.662,1.092.687.687,0,0,1-.433.519.843.843,0,0,1-.619-.033,1.166,1.166,0,0,1-.637-.838,9.478,9.478,0,0,1-.033-2.831,3.541,3.541,0,0,1,.21-.965,14.2,14.2,0,0,0,.09,3.723.885.885,0,0,0,.487.626.405.405,0,0,0,.6-.267c.124-.613-.868-.992-1.532-.655a1.59,1.59,0,0,0-.943,1.96,1.648,1.648,0,0,0,2.227.785l-.116.243a.945.945,0,0,0-1.445-.515,1.482,1.482,0,0,0-.357,1.882,2.214,2.214,0,0,0,1.739,1.269c.328-.028.622-.292.574-.559a.876.876,0,0,0-.7-.644,1.742,1.742,0,0,0-1.875,1.163,2.046,2.046,0,0,0,.793,2.24,2.659,2.659,0,0,0,1.2.536c.408.063.889-.084.934-.345.1-.242-.247-.605-.639-.7a1.686,1.686,0,0,0-1.244.237,1.827,1.827,0,0,0-.872,1.253,1.838,1.838,0,0,0,1.825,2.014c.514-.013.619-.373.335-.716-.238-.279-.811-.2-1.2.091a2.184,2.184,0,0,0-.834,1.207,2.139,2.139,0,0,0,1.072,2.436c.393.176.947.13,1.114-.131.2-.259-.049-.677-.42-.777a.945.945,0,0,0-.973.486,2.207,2.207,0,0,0-.3,1.247c.093,1.869.276,3.672.246,5.3a14.97,14.97,0,0,1-.613,4.381,12.807,12.807,0,0,1-1.464,2.994,6.4,6.4,0,0,0-.827,1.881C1036.278,308.727,1036.293,308.98,1036.263,308.982Z" transform="translate(-1036.224 -275.615)"/></g><g transform="translate(0.955)"><path class="e" d="M1040.341,274.327a4.15,4.15,0,0,0-.508-1.645,1.9,1.9,0,0,0-1.381-.946,1.51,1.51,0,0,0-1.516.965,1.555,1.555,0,0,0,.563,1.69l.033.027.011.01-.006-.006.133.086c.2.127.48.142.682.266a1.4,1.4,0,0,1,.522,1.275,12.648,12.648,0,0,0-.114,1.439c.026.349.224.756.574.764.3.006.519-.292.644-.568A6.149,6.149,0,0,0,1040.341,274.327Z" transform="translate(-1036.864 -271.73)"/></g></g><g transform="translate(0.954 21.014)"><path class="f" d="M1007.738,269.893c-.149.073-.668-1.238-.141-2.8.51-1.566,1.709-2.306,1.784-2.158.119.137-.758.984-1.195,2.354C1007.718,268.651,1007.914,269.853,1007.738,269.893Z" transform="translate(-1007.366 -264.92)"/></g><g transform="translate(19.851 21.435)"><path class="f" d="M1020.941,270.038c-.127.1-.913-.908-.905-2.413s.779-2.519.905-2.415c.158.088-.3,1.1-.285,2.415C1020.643,268.938,1021.1,269.95,1020.941,270.038Z" transform="translate(-1020.036 -265.202)"/></g></g><path class="l" d="M1040.806,324.8l-.225-16.32-12.571-11.694s-20.595,1.256-28.913,8.158c-4.175,3.463-6.062,14.987-6.982,19.856Z" transform="translate(-991.655 -228.24)"/><path class="m" d="M1030.056,324.61l-7.315-27.436-4.553.485c-6.606,1.032-14.858,3.016-19.371,6.76-4.1,3.4-6.067,15.335-7.011,20.192Z" transform="translate(-991.807 -228.05)"/><path class="u" d="M1015.125,324.61h7.965l-6.972-27.436s-4.794.413-6.679.764-3.249.632-3.249.632l4.075,24.638Z" transform="translate(-984.736 -228.05)"/><path class="l" d="M1073.632,324.8c-.907-4.749-2.517-15.815-6.6-19.2-8.318-6.9-29.4-8.812-29.4-8.812l-13.023,11.694.225,16.32Z" transform="translate(-975.682 -228.24)"/><path class="m" d="M1070.185,324.47c-.976-4.794-2.942-16.463-6.924-19.767-4.512-3.744-12.765-5.728-19.371-6.758l-4.552-.485-7.176,27.01Z" transform="translate(-971.968 -227.91)"/><path class="v" d="M1041.393,324.47l3.386-.977,4.075-24.638s-1.364-.282-3.249-.633-6.677-.762-6.677-.762l-6.836,27.01Z" transform="translate(-972.004 -227.91)"/><path d="M1032.464,320.517l-2.84-16.737h-6.363l-2.242,16.737Z" transform="translate(-977.446 -224.803)"/><path d="M1023.073,300.687h6.826a1.711,1.711,0,0,1,1.84,1.976c-.7,2.864-2.328,7.249-5.248,7.249s-4.558-4.385-5.258-7.249A1.711,1.711,0,0,1,1023.073,300.687Z" transform="translate(-977.362 -226.323)"/><path class="p" d="M1015.471,292.156l-2.6,7.741,9.082,10.935,8.307-6Z" transform="translate(-981.451 -230.517)"/><path class="p" d="M1039.785,291.633l2.476,7.731-8.42,11.724-9.312-6Z" transform="translate(-975.721 -230.774)"/></g></g></g></svg>