<svg xmlns="http://www.w3.org/2000/svg" width="86.957" height="86.914" viewBox="0 0 86.957 86.914"><defs><style>.a{fill:#fff;}</style></defs><g transform="translate(0 0)"><path class="a" d="M904.536,152.694a1.7,1.7,0,1,0,1.7,1.7,1.7,1.7,0,0,0-1.7-1.7" transform="translate(-871.247 -75.971)"/><path class="a" d="M968.552,138.478a1.7,1.7,0,0,0-1.737.07L948.55,150.427V139.951a1.7,1.7,0,0,0-2.624-1.425L927.66,150.407V139.951a1.7,1.7,0,0,0-2.623-1.425l-17.4,11.3c-.1-1.22-2.552-31.609-2.573-31.9a1.7,1.7,0,0,0-1.693-1.563h-14.1a1.7,1.7,0,0,0-1.692,1.563l-5.1,63.177a1.7,1.7,0,0,0,1.693,1.838h83.56a1.7,1.7,0,0,0,1.7-1.7V139.969a1.692,1.692,0,0,0-.888-1.491m-65.84-7.509H889.939l.315-3.9H902.4Zm-13.046,3.4h13.321c.117,1.454,2.929,36.332,3.095,38.383H886.57Zm12.141-14.606.315,3.908H890.529l.315-3.908Zm-15.782,59.783.275-3.4h20.054l.275,3.4Zm80.02,0h-56.01l-2.084-25.866,16.313-10.6v10.459a1.7,1.7,0,0,0,2.625,1.425l18.268-11.881v10.475a1.7,1.7,0,0,0,2.621,1.425L966.043,143.1Z" transform="translate(-882.483 -96.027)"/><path class="a" d="M904.536,153.8h10.189a1.7,1.7,0,0,0,1.7-1.686v-6.793a1.7,1.7,0,0,0-1.7-1.712H904.536a1.7,1.7,0,0,0-1.7,1.712v6.793a1.7,1.7,0,0,0,1.7,1.686m1.7-6.795h6.793v3.4h-6.793Z" transform="translate(-871.247 -80.987)"/><path class="a" d="M915.479,153.8h10.7a1.7,1.7,0,0,0,1.7-1.686v-6.793a1.7,1.7,0,0,0-1.7-1.712h-10.7a1.7,1.7,0,0,0-1.7,1.712v6.793a1.7,1.7,0,0,0,1.7,1.686m1.7-6.795h7.3v3.4h-7.3Z" transform="translate(-865.206 -80.987)"/><path class="a" d="M926.751,153.8h10.7a1.7,1.7,0,0,0,1.7-1.686v-6.793a1.7,1.7,0,0,0-1.7-1.712h-10.7a1.7,1.7,0,0,0-1.7,1.712v6.793a1.7,1.7,0,0,0,1.7,1.686m1.7-6.795h7.3v3.4h-7.3Z" transform="translate(-858.983 -80.987)"/><path class="a" d="M889,116.8a1.7,1.7,0,0,0,1.7-1.7,5.1,5.1,0,0,1,5.1-5.094h20.72a5.17,5.17,0,0,0,3.652-1.524,4.928,4.928,0,0,0,1.443-3.549,1.7,1.7,0,0,0-1.7-1.676h-.022a1.7,1.7,0,0,0-1.678,1.717,1.553,1.553,0,0,1-.461,1.119,1.746,1.746,0,0,1-1.237.517H895.79A8.5,8.5,0,0,0,887.3,115.1a1.7,1.7,0,0,0,1.7,1.7" transform="translate(-879.825 -103.26)"/><path class="a" d="M916.886,110.973l-19.02.022a5.1,5.1,0,0,0-5.1,5.1,1.7,1.7,0,0,0,3.4,0,1.7,1.7,0,0,1,1.7-1.7l19.022-.022a5.06,5.06,0,0,0,5.1-5.013v-.037a1.7,1.7,0,1,0-3.4,0v.037a1.663,1.663,0,0,1-1.7,1.617" transform="translate(-876.803 -100.854)"/><path class="a" d="M947.3,152.694H908.913a1.7,1.7,0,1,0,0,3.4H947.3a1.7,1.7,0,0,0,0-3.4" transform="translate(-868.83 -75.971)"/><path class="a" d="M890.746,136.06h3.9a1.7,1.7,0,1,0,0-3.4h-3.9a1.7,1.7,0,1,0,0,3.4" transform="translate(-878.858 -87.028)"/><path class="a" d="M890.746,140.438h3.9a1.7,1.7,0,1,0,0-3.4h-3.9a1.7,1.7,0,0,0,0,3.4" transform="translate(-878.858 -84.612)"/><path class="a" d="M890.746,144.815h3.9a1.7,1.7,0,1,0,0-3.4h-3.9a1.7,1.7,0,0,0,0,3.4" transform="translate(-878.858 -82.196)"/><path class="a" d="M894.653,145.8h-3.9a1.7,1.7,0,0,0,0,3.4h3.9a1.7,1.7,0,0,0,0-3.4" transform="translate(-878.857 -79.779)"/></g></svg>