<svg xmlns="http://www.w3.org/2000/svg" width="151.623" height="120.108" viewBox="0 0 151.623 120.108"><defs><style>.a{fill:#ededed;}.b{fill:#d6d6d6;}.c,.d,.h,.i{stroke:#000;stroke-linecap:round;stroke-linejoin:round;}.c{stroke-width:0.25px;}.d{fill:#fbbf9e;}.e{fill:#f7996e;}.f{fill:#404041;}.g{fill:#e1e1e1;}.h,.i{fill:#231f20;}.h{stroke-width:1.5px;}</style></defs><g transform="translate(0.75)"><g transform="translate(47.323 0)"><rect class="a" width="11.74" height="18.673" transform="translate(23.871 2.606)"/><rect class="a" width="11.74" height="18.673" transform="translate(67.222 2.606)"/><rect class="a" width="96.835" height="89.632" rx="3.274" transform="translate(3.394 13.921)"/><path class="b" d="M957.357,158.374s65.638-6.97,76.92-12.858,11.6-66.733,11.6-66.733,5.967-3.484,6.522,2.241.371,75.491,0,79.343-20.032,6.437-26.471,6.346-65.218-1.2-65.218-1.2S953.461,163.439,957.357,158.374Z" transform="translate(-952.172 -61.958)"/><path d="M1047.346,79.343h-11.425V72.224c0-2.848-2.717-4.529-5.565-4.529h-7.636c-2.848,0-4.917,1.682-4.917,4.529v7.119H993.027V72.224c0-2.848-2.07-4.529-4.917-4.529h-7.636c-2.848,0-5.565,1.682-5.565,4.529v7.119H963.483a9.576,9.576,0,0,0-9.839,9.305q-.01.33,0,.66v74.8c0,5.694,4.141,11,9.835,11h83.863c5.7,0,9.836-5.307,9.836-11v-74.8a9.578,9.578,0,0,0-9.176-9.962C1047.786,79.338,1047.565,79.337,1047.346,79.343ZM1022,71.594h9.464v16.79H1022Zm-42.187,0h8.7v16.79h-8.7ZM961.836,84.138l13.11.105V87.2c0,2.959,1.589,5.005,4.548,5.005h8.2a4.976,4.976,0,0,0,5.111-4.837c0-2.2,0-3.233,0-3.233h25.484V87.1a4.978,4.978,0,0,0,4.839,5.111c.091,0,.182,0,.273,0h6.948a5.354,5.354,0,0,0,5.577-5.122V84.127l13.069.011a4.573,4.573,0,0,1,4.851,4.276,4.333,4.333,0,0,1-.009.7v15.2H956.994v-15.2a4.573,4.573,0,0,1,4.141-4.968A4.74,4.74,0,0,1,961.836,84.138Zm87.176,87H961.818c-2.961,0-4.843-3.094-4.843-6.055V107.9h96.88v57.186C1053.855,168.048,1051.972,171.142,1049.011,171.142Z" transform="translate(-953.64 -67.695)"/><g transform="translate(35.189 55.96)"><path class="c" d="M1000.47,104.346l-.759.261-.261-.761a.8.8,0,1,0-1.52.523l.261.759-14.54,5-3.039,1.045-3.041,1.045a.8.8,0,0,0-.5,1.02.8.8,0,0,1-.5,1.021.8.8,0,0,0-.5,1.021l1.045,3.039.522,1.52a.806.806,0,0,0,1.021.5.8.8,0,0,1,1,.454l1.774,9.275a2.412,2.412,0,0,0,3.151,1.826l2.991-1.026a2.418,2.418,0,0,0,1.578-2.767l-.882-4.27,3.109-1.067,0,0,.016-.006a2.413,2.413,0,0,0,1.48-3.057l-.783-2.28,8.46-2.907a.805.805,0,0,0,.536-.654l.409-3.069,1.051-.361a.8.8,0,0,0,.5-1.02l-1.567-4.561A.8.8,0,0,0,1000.47,104.346ZM981.681,112.5l1.438-.493.031,3.388-1.438.493Zm-3.869,2.884a2.421,2.421,0,0,0,.911-1.867l1.356-.465.032,3.387-1.732.6Zm10.777,6.638a1.607,1.607,0,1,1-1.045-3.039l.033-.011a3.96,3.96,0,0,0,1.4,2.915Zm2.778-1.8a.8.8,0,0,1-.341.946,2.367,2.367,0,0,1-1.8-2.758l1.359-.468Zm8.205-7.067-12.55,4.312a3.212,3.212,0,0,0-.487,5.863l1.051,5.1a.806.806,0,0,1-.527.923l-2.989,1.026a.8.8,0,0,1-1.05-.608c-1.913-9.992-1.79-9.371-1.817-9.451a2.415,2.415,0,0,0-2.258-1.628l-.045-.13,20.909-7.185Zm1.705-3.985-16.525,5.68-.032-3.388,15.511-5.331Z" transform="translate(-976.031 -103.304)"/></g></g><g transform="translate(0 17.623)"><g transform="translate(22.963)"><g transform="translate(1.452)"><path class="d" d="M964.163,79a21.69,21.69,0,0,0-23.629,19.971c-.753,10.064-1.46,20.952-1.471,26.441-.025,11.782,11.732,13.784,11.732,13.784s-1.435,8.056-1.823,12.382c-.781,8.713,6.886,11.783,15.618,12.31h0c8.56.517,16.594-2.263,17.1-10.825l2.136-51.174A21.7,21.7,0,0,0,964.163,79Z" transform="translate(-939.063 -78.909)"/><g transform="translate(11.829 55.938)"><path class="e" d="M947.274,118.891s9.85.468,17.835-4.388c0,0-6.78,9.729-18.519,8.5Z" transform="translate(-946.59 -114.503)"/></g><g transform="translate(44.107 26.68)"><path class="d" d="M967.756,96.221c.2-.085,8.128-2.279,7.756,5.772s-8.378,6.014-8.383,5.783S967.756,96.221,967.756,96.221Z" transform="translate(-967.129 -95.886)"/><g transform="translate(2.592 2.655)"><path class="e" d="M968.787,103.875c.036-.024.135.105.368.225a1.4,1.4,0,0,0,1.047.069c.866-.272,1.644-1.589,1.751-3.038a4.616,4.616,0,0,0-.3-2.027,1.621,1.621,0,0,0-1-1.125.715.715,0,0,0-.845.346c-.118.222-.075.383-.118.4-.023.019-.167-.143-.087-.473a.891.891,0,0,1,.339-.489,1.059,1.059,0,0,1,.786-.17,1.974,1.974,0,0,1,1.406,1.317,4.753,4.753,0,0,1,.382,2.266c-.126,1.619-1.026,3.1-2.206,3.38a1.5,1.5,0,0,1-1.273-.272C968.792,104.07,968.759,103.888,968.787,103.875Z" transform="translate(-968.779 -97.575)"/></g></g><g transform="translate(3.725 15.805)"><g transform="translate(0.696 6.778)"><g transform="translate(1.626 2.404)"><path d="M942.913,96.305a1.681,1.681,0,0,0,1.6,1.721,1.608,1.608,0,0,0,1.755-1.491,1.682,1.682,0,0,0-1.595-1.722A1.609,1.609,0,0,0,942.913,96.305Z" transform="translate(-942.911 -94.808)"/></g><path d="M941.9,95c.206.222,1.493-.7,3.3-.673,1.807,0,3.122.955,3.322.737.1-.1-.108-.5-.68-.926a4.629,4.629,0,0,0-2.658-.861,4.424,4.424,0,0,0-2.632.809C941.994,94.506,941.8,94.9,941.9,95Z" transform="translate(-941.876 -93.279)"/><g transform="translate(17.79 0.594)"><g transform="translate(1.975 2.308)"><path d="M954.455,96.623a1.683,1.683,0,0,0,1.6,1.721,1.61,1.61,0,0,0,1.757-1.493,1.682,1.682,0,0,0-1.6-1.721A1.61,1.61,0,0,0,954.455,96.623Z" transform="translate(-954.453 -95.125)"/></g><path d="M953.221,95.378c.206.223,1.5-.7,3.3-.671,1.809,0,3.124.955,3.324.737.1-.1-.107-.5-.682-.926a4.611,4.611,0,0,0-2.656-.861,4.441,4.441,0,0,0-2.634.808C953.315,94.884,953.121,95.279,953.221,95.378Z" transform="translate(-953.196 -93.657)"/></g><g transform="translate(6.458 0.574)"><path d="M950.58,108.716a12.049,12.049,0,0,0-2.934-.572c-.461-.055-.9-.152-.97-.47a2.343,2.343,0,0,1,.328-1.366q.674-1.669,1.418-3.5c1.97-4.985,3.4-9.087,3.2-9.164s-1.963,3.9-3.933,8.884c-.475,1.231-.929,2.4-1.361,3.523a2.672,2.672,0,0,0-.266,1.81,1.163,1.163,0,0,0,.751.687,3.082,3.082,0,0,0,.783.119A11.708,11.708,0,0,0,950.58,108.716Z" transform="translate(-945.985 -93.644)"/></g></g><g transform="translate(16.409 0.939)"><path d="M951.888,91.163c.211.479,2,.127,4.136.244,2.139.074,3.888.581,4.141.123.112-.218-.217-.662-.94-1.092a7.207,7.207,0,0,0-6.3-.278C952.163,90.523,951.8,90.935,951.888,91.163Z" transform="translate(-951.874 -89.563)"/></g><path d="M941.477,90.8c.313.416,1.565.008,3.066.009,1.5-.052,2.766.316,3.064-.11.131-.207-.063-.622-.613-1.02a4.444,4.444,0,0,0-4.94.082C941.519,90.172,941.34,90.593,941.477,90.8Z" transform="translate(-941.433 -88.966)"/></g></g><g transform="translate(13.967 43.09)"><path d="M953.816,106.823c.019.36-1.485.734-3.36.836s-3.41-.11-3.429-.471,1.483-.734,3.358-.834S953.8,106.463,953.816,106.823Z" transform="translate(-947.027 -106.328)"/></g><g transform="translate(0 20.14)"><g transform="translate(29.896 1.351)"><path d="M973.244,98.457a8.157,8.157,0,0,1-2.466-.539c-1.492-.446-3.506-1.194-5.7-2.084l-5.6-2.255a11.957,11.957,0,0,1-2.315-.976,8.217,8.217,0,0,1,2.466.539c1.492.446,3.508,1.2,5.7,2.085l5.6,2.254A11.892,11.892,0,0,1,973.244,98.457Z" transform="translate(-957.163 -92.584)"/></g><path d="M950.621,91.993A2.408,2.408,0,0,1,952.729,94a10.01,10.01,0,0,1-7.33,11.225,5.855,5.855,0,0,1-4.595-.431c-1.875-1.185-2.452-3.635-2.617-5.846a7.491,7.491,0,0,1,.811-4.7c1.135-1.727,3.357-2.393,5.42-2.505s6.2.247,6.2.247Z" transform="translate(-938.139 -91.724)"/><g transform="translate(19.597 0.429)"><path d="M952.96,92.129a2.43,2.43,0,0,0-2.188,1.966,10.119,10.119,0,0,0,7.083,11.562,5.918,5.918,0,0,0,4.658-.3c1.93-1.144,2.585-3.6,2.815-5.834a7.565,7.565,0,0,0-.683-4.771c-1.1-1.781-3.324-2.518-5.406-2.69a62.511,62.511,0,0,0-6.278.069Z" transform="translate(-950.609 -91.997)"/></g><g transform="translate(10.048 0.401)"><path d="M958.336,92.472c0,.179-3.1.264-6.907.189s-6.9-.284-6.9-.465,3.1-.264,6.909-.189S958.339,92.291,958.336,92.472Z" transform="translate(-944.533 -91.979)"/></g></g><g transform="translate(46.355 32.843)"><g transform="translate(0 6.105)"><path class="f" d="M967.677,138.845c-.011,0-.022-.064-.034-.195a2.706,2.706,0,0,1,.024-.581,6.22,6.22,0,0,1,.776-2.082,13.933,13.933,0,0,0,1.416-3.135,15.767,15.767,0,0,0,.534-4.51c0-1.7-.215-3.538-.34-5.584a2.847,2.847,0,0,1,.39-1.623,1.548,1.548,0,0,1,1.647-.761,1.341,1.341,0,0,1,.8.614,1.028,1.028,0,0,1-.023,1.084,1.586,1.586,0,0,1-1.9.369,2.855,2.855,0,0,1-1.5-3.286,2.922,2.922,0,0,1,1.117-1.625,2.134,2.134,0,0,1,.985-.391,1.3,1.3,0,0,1,1.108.376,1.054,1.054,0,0,1-.781,1.836,2.586,2.586,0,0,1-2.609-2.862,2.568,2.568,0,0,1,1.221-1.782,2.422,2.422,0,0,1,1.817-.325,1.776,1.776,0,0,1,.847.5,1.093,1.093,0,0,1,.289,1.047,1.141,1.141,0,0,1-.762.75,2.1,2.1,0,0,1-.935.079,3.407,3.407,0,0,1-1.578-.7,2.784,2.784,0,0,1-1.026-3.088,2.444,2.444,0,0,1,2.707-1.6,1.51,1.51,0,0,1,1.2,1.218,1.061,1.061,0,0,1-.343.889,1.383,1.383,0,0,1-.812.357,2.143,2.143,0,0,1-1.473-.545,3.3,3.3,0,0,1-.932-1.135,2.121,2.121,0,0,1,.583-2.686,1.517,1.517,0,0,1,2.345.921l.028.176-.151.082a2.214,2.214,0,0,1-3.047-1.094,1.875,1.875,0,0,1,.135-1.623,2.326,2.326,0,0,1,1.133-1,1.856,1.856,0,0,1,1.424-.009,1.053,1.053,0,0,1,.7,1.152.729.729,0,0,1-.456.547.882.882,0,0,1-.652-.036,1.232,1.232,0,0,1-.671-.883,9.986,9.986,0,0,1-.035-2.983,3.645,3.645,0,0,1,.223-1.015,14.785,14.785,0,0,0,.094,3.923.925.925,0,0,0,.512.66.426.426,0,0,0,.635-.281c.132-.646-.913-1.047-1.613-.69a1.67,1.67,0,0,0-.993,2.063,1.731,1.731,0,0,0,2.345.827l-.123.256a.994.994,0,0,0-1.523-.541,1.563,1.563,0,0,0-.376,1.983,2.335,2.335,0,0,0,1.834,1.337c.344-.03.655-.31.605-.589a.928.928,0,0,0-.742-.68,1.834,1.834,0,0,0-1.974,1.227,2.149,2.149,0,0,0,.834,2.359,2.77,2.77,0,0,0,1.264.564c.43.066.937-.086.984-.363.1-.253-.259-.636-.673-.732a1.77,1.77,0,0,0-1.311.25,1.914,1.914,0,0,0-.918,1.32,1.939,1.939,0,0,0,1.922,2.122c.544-.014.652-.394.354-.754-.25-.3-.855-.209-1.26.1a2.315,2.315,0,0,0-.88,1.27,2.257,2.257,0,0,0,1.13,2.568c.413.185,1,.137,1.174-.14.214-.272-.052-.712-.442-.817a1,1,0,0,0-1.026.512,2.322,2.322,0,0,0-.315,1.314c.1,1.969.291,3.869.26,5.588a15.779,15.779,0,0,1-.646,4.614,13.453,13.453,0,0,1-1.543,3.154,6.753,6.753,0,0,0-.871,1.982C967.693,138.578,967.708,138.845,967.677,138.845Z" transform="translate(-967.636 -103.692)"/></g><g transform="translate(1.007)"><path class="f" d="M971.939,102.541a4.385,4.385,0,0,0-.534-1.733,2.007,2.007,0,0,0-1.455-.995,1.592,1.592,0,0,0-1.6,1.015,1.642,1.642,0,0,0,.594,1.782l.033.028.012.009,0,0c.047.033.1.066.138.091.211.132.507.149.718.28a1.481,1.481,0,0,1,.552,1.344,12.923,12.923,0,0,0-.121,1.515c.028.369.237.8.6.806.321.006.547-.308.679-.6A6.482,6.482,0,0,0,971.939,102.541Z" transform="translate(-968.276 -99.807)"/></g></g><g transform="translate(1.005 22.14)"><path class="g" d="M939.171,98.235c-.156.077-.7-1.3-.149-2.947.537-1.649,1.8-2.428,1.88-2.272.126.145-.8,1.036-1.259,2.478C939.149,96.928,939.357,98.194,939.171,98.235Z" transform="translate(-938.779 -92.997)"/></g><g transform="translate(20.915 22.583)"><path class="g" d="M952.4,98.372c-.133.11-.96-.955-.954-2.543s.82-2.653.954-2.543c.167.093-.314,1.158-.3,2.543C952.088,97.214,952.569,98.281,952.4,98.372Z" transform="translate(-951.448 -93.279)"/></g></g><path class="h" d="M974.775,131.438l-13.429-6.574s-21.7,1.323-30.463,8.595c-4.4,3.649-6.387,15.791-7.356,20.92h51.3" transform="translate(-923.527 -52.644)"/><path class="h" d="M956.191,154.379H1007.6c-.956-5.005-2.653-16.663-6.953-20.232-8.764-7.271-30.978-9.283-30.978-9.283l-13.537,6.574" transform="translate(-904.89 -52.644)"/><line class="h" y2="21.562" transform="translate(50.94 79.552)"/><rect class="i" width="17.396" height="3.004" transform="translate(68.478 92.887)"/><path class="i" d="M947.022,120.232l-2.739,8.156,9.568,11.521,8.753-6.321Z" transform="translate(-911.664 -55.291)"/><path class="i" d="M972.015,119.71l2.609,8.145-8.871,12.352-9.811-6.321Z" transform="translate(-905.002 -55.59)"/></g></g></svg>