<svg xmlns="http://www.w3.org/2000/svg" width="74" height="92.514" viewBox="0 0 74 92.514"><defs><style>.a{fill:#fff;}</style></defs><g transform="translate(-606.418 -235.46)"><path class="a" d="M639.023,245.906h-4.829a1.921,1.921,0,0,0-1.92,1.92v4.1a14.317,14.317,0,0,0-2.3.952l-2.9-2.9a1.924,1.924,0,0,0-2.716,0l-3.415,3.413a1.92,1.92,0,0,0,0,2.718l2.9,2.9a14.436,14.436,0,0,0-.955,2.3h-4.1a1.924,1.924,0,0,0-1.92,1.923v4.831a1.923,1.923,0,0,0,1.92,1.918h4.1a14.248,14.248,0,0,0,.955,2.3l-2.9,2.9a1.916,1.916,0,0,0,0,2.713l3.415,3.416a1.92,1.92,0,0,0,2.716,0l2.9-2.9a14.335,14.335,0,0,0,2.3.957v4.1a1.923,1.923,0,0,0,1.92,1.92h4.829a1.923,1.923,0,0,0,1.92-1.92v-4.1a14.4,14.4,0,0,0,2.3-.957l2.9,2.9a1.92,1.92,0,0,0,2.716,0l3.415-3.416a1.915,1.915,0,0,0,0-2.713l-2.9-2.9a14.248,14.248,0,0,0,.955-2.3h4.1a1.923,1.923,0,0,0,1.92-1.918v-4.831a1.924,1.924,0,0,0-1.92-1.923h-4.1a14.436,14.436,0,0,0-.955-2.3l2.9-2.9a1.921,1.921,0,0,0,0-2.718l-3.415-3.413a1.923,1.923,0,0,0-2.716,0l-2.9,2.9a14.379,14.379,0,0,0-2.3-.952v-4.1a1.921,1.921,0,0,0-1.92-1.92m3.737,9.815a1.357,1.357,0,0,0,1.674-.192l3.073-3.074,2.3,2.3-3.071,3.074a1.352,1.352,0,0,0-.193,1.674,11.612,11.612,0,0,1,1.442,3.479,1.35,1.35,0,0,0,1.317,1.046h4.347v3.25H649.3a1.35,1.35,0,0,0-1.317,1.046,11.63,11.63,0,0,1-1.442,3.483,1.353,1.353,0,0,0,.193,1.673l3.071,3.073-2.3,2.3-3.073-3.073a1.35,1.35,0,0,0-1.674-.192,11.668,11.668,0,0,1-3.482,1.441,1.355,1.355,0,0,0-1.046,1.317v4.347h-3.246V278.34a1.355,1.355,0,0,0-1.049-1.317,11.687,11.687,0,0,1-3.479-1.441,1.35,1.35,0,0,0-1.674.192l-3.074,3.073-2.295-2.3,3.071-3.073a1.357,1.357,0,0,0,.193-1.673,11.588,11.588,0,0,1-1.442-3.483,1.353,1.353,0,0,0-1.32-1.046h-4.346v-3.25h4.346a1.354,1.354,0,0,0,1.32-1.046,11.569,11.569,0,0,1,1.442-3.479,1.357,1.357,0,0,0-.193-1.674l-3.071-3.074,2.295-2.3,3.074,3.074a1.352,1.352,0,0,0,1.674.192,11.565,11.565,0,0,1,3.479-1.441,1.357,1.357,0,0,0,1.049-1.32v-4.347h3.246v4.347a1.358,1.358,0,0,0,1.046,1.32,11.582,11.582,0,0,1,3.482,1.441" transform="translate(6.811 6.811)"/><path class="a" d="M624.421,260.735a7.26,7.26,0,1,0,7.261-7.259,7.267,7.267,0,0,0-7.261,7.259m11.809,0a4.549,4.549,0,1,1-4.548-4.548,4.553,4.553,0,0,1,4.548,4.548" transform="translate(11.739 11.747)"/><path class="a" d="M612.27,257.048h-4.494a1.356,1.356,0,1,0,0,2.711h4.494a1.356,1.356,0,0,0,0-2.711" transform="translate(0 14.076)"/><path class="a" d="M652.7,257.048h-4.493a1.355,1.355,0,1,0,0,2.711H652.7a1.355,1.355,0,0,0,0-2.711" transform="translate(26.363 14.076)"/><path class="a" d="M616.313,270.771l-3.178,3.18a1.354,1.354,0,0,0,1.916,1.913l3.179-3.177a1.355,1.355,0,0,0-1.916-1.916" transform="translate(4.121 22.766)"/><path class="a" d="M643.642,247.275l3.179-3.18a1.354,1.354,0,0,0-1.917-1.913l-3.179,3.177a1.355,1.355,0,0,0,1.916,1.916" transform="translate(22.763 4.123)"/><path class="a" d="M629.35,242.663a1.353,1.353,0,0,0,1.353-1.353v-4.5a1.354,1.354,0,0,0-2.708,0v4.5a1.353,1.353,0,0,0,1.355,1.353" transform="translate(14.069 0)"/><path class="a" d="M643.642,270.771a1.355,1.355,0,1,0-1.916,1.916l3.179,3.177a1.354,1.354,0,0,0,1.917-1.913Z" transform="translate(22.763 22.766)"/><path class="a" d="M616.313,247.275a1.355,1.355,0,0,0,1.916-1.916l-3.179-3.177a1.354,1.354,0,0,0-1.916,1.913Z" transform="translate(4.121 4.123)"/><path class="a" d="M631.427,241.45a1.356,1.356,0,0,0-.327,2.691,24.4,24.4,0,0,1,21.341,21.44,1.359,1.359,0,0,0,1.346,1.2c.05,0,.1,0,.157-.008a1.361,1.361,0,0,0,1.191-1.505,27.253,27.253,0,0,0-23.708-23.817" transform="translate(15.317 3.899)"/><path class="a" d="M665.388,270.4a1.356,1.356,0,0,0-1.515,1.176,24.422,24.422,0,0,1-11.3,17.662,9.118,9.118,0,0,0-4.307,7.753v5.579H630.852v-5.7a8.916,8.916,0,0,0-4.175-7.547,24.515,24.515,0,0,1,9.887-45.185,1.354,1.354,0,1,0-.334-2.688,27.222,27.222,0,0,0-10.981,50.177,6.188,6.188,0,0,1,2.893,5.242v5.9a3.531,3.531,0,0,0-2.372,3.326v1.931a3.51,3.51,0,0,0,.752,2.171,3.493,3.493,0,0,0-.752,2.167v1.93a3.531,3.531,0,0,0,3.525,3.525h4.259v3.061a3.208,3.208,0,0,0,3.2,3.205h5.6a3.208,3.208,0,0,0,3.2-3.205v-3.061h4.259a3.53,3.53,0,0,0,3.525-3.525v-1.93a3.492,3.492,0,0,0-.752-2.167,3.509,3.509,0,0,0,.752-2.171v-1.931a3.534,3.534,0,0,0-2.372-3.326v-5.774a6.426,6.426,0,0,1,3.038-5.458,27.11,27.11,0,0,0,12.547-19.618,1.354,1.354,0,0,0-1.173-1.515m-15.566,34.878h0a.826.826,0,0,1,.815.813v1.931a.826.826,0,0,1-.815.814H629.3a.826.826,0,0,1-.815-.814v-1.931a.826.826,0,0,1,.815-.813Zm-6.97,15.6a.5.5,0,0,1-.494.494h-5.6a.5.5,0,0,1-.5-.494v-3.064h6.588Zm7.784-6.587a.826.826,0,0,1-.815.815H629.3a.826.826,0,0,1-.815-.815v-1.93a.826.826,0,0,1,.815-.814h20.527a.826.826,0,0,1,.815.814Z" transform="translate(3.861 3.896)"/></g></svg>