<svg xmlns="http://www.w3.org/2000/svg" width="146.604" height="117.753" viewBox="0 0 146.604 117.753"><defs><style>.a{fill:#ededed;}.b{fill:#d6d6d6;}.c{fill:#c18b76;}.c,.g,.i,.j,.k{stroke:#000;}.c,.g,.j,.k{stroke-linecap:round;stroke-linejoin:round;}.d{fill:#b66351;}.e{fill:#404041;}.f{fill:#e1e1e1;}.g{fill:#fff;}.g,.k{stroke-width:1.5px;}.h{fill:#98939e;}.i{fill:#2d5872;stroke-miterlimit:10;}.j,.k{fill:#d0d2d3;}</style></defs><g transform="translate(0.75)"><g transform="translate(43.109 0)"><path d="M201.184,175.953c-41.217-19.254-48.762-61.12-50.064-73.559a6.509,6.509,0,0,1,3.928-6.7,23.51,23.51,0,0,0,14.234-19.873,5.369,5.369,0,0,1,5.346-5l55.294-.325h.03a5.411,5.411,0,0,1,5.371,4.9A23.5,23.5,0,0,0,249.769,95.13a6.533,6.533,0,0,1,4.029,6.664c-1.156,12.452-8.2,54.432-49.2,74.14a4.358,4.358,0,0,1-3.418.019ZM174.81,76.377A29.048,29.048,0,0,1,157.233,100.8a.982.982,0,0,0-.589,1.011c1.217,11.637,8.14,50.822,46.215,68.79,37.859-18.412,44.325-57.676,45.406-69.324a1,1,0,0,0-.627-1.021A29.043,29.043,0,0,1,229.8,76.054Zm0,0" transform="translate(-151.083 -70.497)"/><path class="a" d="M245.892,96.826A25.656,25.656,0,0,1,230.3,76.485a3.971,3.971,0,0,0-3.98-3.415L201,73.217l-.541,0-25.317.149a3.955,3.955,0,0,0-3.941,3.412,25.658,25.658,0,0,1-14.647,20.255,5.065,5.065,0,0,0-2.806,5.226c1.556,12.95,9.4,50.905,47.036,68.268a1.2,1.2,0,0,0,.517.112,1.22,1.22,0,0,0,.515-.118c38.606-18.359,45.26-58.25,46.347-69.957a3.681,3.681,0,0,0-2.265-3.74Zm0,0" transform="translate(-149.511 -68.954)"/><path class="a" d="M196.731,156.544c-27.17-14.551-34.806-41.908-36.927-54.923a1.81,1.81,0,0,1,.851-1.847,32.813,32.813,0,0,0,14.668-19.292,1.817,1.817,0,0,1,1.737-1.332l40.155-.235a1.818,1.818,0,0,1,1.753,1.313,32.813,32.813,0,0,0,14.895,19.116,1.814,1.814,0,0,1,.87,1.839c-1.966,13.036-9.284,40.481-36.281,55.352a1.809,1.809,0,0,1-1.721.01Zm0,0" transform="translate(-145.869 -65.451)"/><path class="b" d="M229.943,96.828A25.662,25.662,0,0,1,214.29,76a3.238,3.238,0,0,0-3.213-2.929l-15.4.091c0,12.225,6.971,24.89,16.155,28.763a3.724,3.724,0,0,1,2.363,3.743c-.949,10.275-6.211,42.511-33.881,62.6,1.459.787,2.961,1.547,4.52,2.265a1.213,1.213,0,0,0,1.032-.006c38.606-18.359,45.26-58.25,46.347-69.957a3.68,3.68,0,0,0-2.265-3.74Zm0,0" transform="translate(-133.561 -68.956)"/><path d="M185.474,116.481l-8.541-7.686a1.914,1.914,0,0,1-.075-2.807,2.175,2.175,0,0,1,2.961-.074l6.731,6.059,12.164-17.406a2.166,2.166,0,0,1,2.9-.558,1.925,1.925,0,0,1,.59,2.753l-13.543,19.377a2.2,2.2,0,0,1-3.188.342Zm0,0" transform="translate(-135.976 -56.599)"/></g><g transform="translate(0 13.455)"><g transform="translate(23.373)"><g transform="translate(1.477)"><path class="c" d="M165.216,79A22.076,22.076,0,0,0,141.165,99.33c-.766,10.243-1.486,21.325-1.5,26.912-.024,11.992,11.942,14.03,11.942,14.03s-1.46,8.2-1.855,12.6c-.795,8.868,7.008,11.993,15.895,12.529h0c8.713.526,16.891-2.3,17.408-11.018l2.172-52.086A22.082,22.082,0,0,0,165.216,79Z" transform="translate(-139.668 -78.909)"/><g transform="translate(12.04 56.934)"><path class="d" d="M147.891,118.969s10.027.477,18.155-4.466c0,0-6.9,9.9-18.851,8.65Z" transform="translate(-147.195 -114.503)"/></g><g transform="translate(44.894 27.155)"><path class="c" d="M168.372,96.227c.206-.086,8.273-2.319,7.894,5.875s-8.527,6.121-8.53,5.886S168.372,96.227,168.372,96.227Z" transform="translate(-167.735 -95.886)"/><g transform="translate(2.638 2.702)"><path class="d" d="M169.393,103.988c.037-.024.138.107.373.229a1.429,1.429,0,0,0,1.067.07c.88-.277,1.673-1.617,1.78-3.092a4.721,4.721,0,0,0-.3-2.063,1.649,1.649,0,0,0-1.024-1.145.729.729,0,0,0-.861.352c-.12.226-.075.39-.12.4-.024.019-.17-.146-.088-.481a.911.911,0,0,1,.347-.5,1.073,1.073,0,0,1,.8-.173,2.011,2.011,0,0,1,1.433,1.34,4.856,4.856,0,0,1,.389,2.307c-.13,1.648-1.046,3.154-2.246,3.441a1.526,1.526,0,0,1-1.3-.277C169.4,104.186,169.363,104,169.393,103.988Z" transform="translate(-169.384 -97.575)"/></g></g><g transform="translate(3.792 16.086)"><g transform="translate(0.708 6.899)"><g transform="translate(1.654 2.446)"><path d="M143.518,96.332a1.713,1.713,0,0,0,1.627,1.752,1.637,1.637,0,0,0,1.787-1.518,1.714,1.714,0,0,0-1.625-1.753A1.639,1.639,0,0,0,143.518,96.332Z" transform="translate(-143.516 -94.808)"/></g><path d="M142.508,95.032c.208.226,1.52-.715,3.362-.685,1.841,0,3.18.973,3.383.75.1-.1-.112-.505-.694-.942a4.71,4.71,0,0,0-2.7-.877,4.51,4.51,0,0,0-2.681.824C142.6,94.528,142.4,94.93,142.508,95.032Z" transform="translate(-142.481 -93.279)"/><g transform="translate(18.107 0.605)"><g transform="translate(2.009 2.349)"><path d="M155.06,96.649a1.715,1.715,0,0,0,1.627,1.751,1.639,1.639,0,0,0,1.787-1.52,1.712,1.712,0,0,0-1.625-1.751A1.638,1.638,0,0,0,155.06,96.649Z" transform="translate(-155.058 -95.125)"/></g><path d="M153.828,95.409c.208.227,1.521-.715,3.362-.683,1.841,0,3.18.973,3.383.75.1-.1-.109-.505-.694-.942a4.69,4.69,0,0,0-2.7-.877,4.521,4.521,0,0,0-2.681.822C153.924,94.906,153.725,95.308,153.828,95.409Z" transform="translate(-153.802 -93.657)"/></g><g transform="translate(6.574 0.584)"><path d="M151.266,108.985a12.266,12.266,0,0,0-2.985-.582c-.47-.056-.913-.155-.988-.478a2.4,2.4,0,0,1,.334-1.39l1.443-3.562c2.006-5.074,3.465-9.248,3.26-9.327s-2,3.97-4,9.042c-.483,1.252-.945,2.444-1.385,3.586a2.719,2.719,0,0,0-.27,1.843,1.181,1.181,0,0,0,.763.7,3.148,3.148,0,0,0,.8.122A11.9,11.9,0,0,0,151.266,108.985Z" transform="translate(-146.591 -93.644)"/></g></g><g transform="translate(16.701 0.956)"><path d="M152.494,91.191c.214.488,2.035.13,4.208.248,2.177.075,3.959.592,4.215.125.114-.222-.221-.673-.955-1.112a7.339,7.339,0,0,0-6.419-.283C152.773,90.54,152.4,90.959,152.494,91.191Z" transform="translate(-152.48 -89.563)"/></g><path d="M142.084,90.828c.317.424,1.593.008,3.121.01,1.526-.053,2.814.322,3.117-.112.134-.211-.064-.633-.624-1.038a4.52,4.52,0,0,0-5.026.083C142.127,90.193,141.943,90.622,142.084,90.828Z" transform="translate(-142.039 -88.966)"/></g></g><g transform="translate(14.215 43.858)"><path d="M154.542,106.832c.019.366-1.512.747-3.42.851s-3.469-.112-3.49-.48,1.512-.747,3.42-.849S154.523,106.466,154.542,106.832Z" transform="translate(-147.632 -106.328)"/></g><g transform="translate(0 20.499)"><g transform="translate(30.43 1.375)"><path d="M174.137,98.562a8.3,8.3,0,0,1-2.51-.549c-1.52-.454-3.57-1.216-5.8-2.121l-5.7-2.3a12.114,12.114,0,0,1-2.356-.993,8.351,8.351,0,0,1,2.508.549c1.52.454,3.57,1.217,5.8,2.123l5.7,2.294A12.17,12.17,0,0,1,174.137,98.562Z" transform="translate(-157.769 -92.584)"/></g><path d="M151.449,92a2.448,2.448,0,0,1,2.145,2.041,10.184,10.184,0,0,1-7.46,11.425,5.96,5.96,0,0,1-4.677-.438c-1.907-1.206-2.5-3.7-2.662-5.95a7.615,7.615,0,0,1,.825-4.779c1.153-1.758,3.417-2.436,5.515-2.55s6.313.251,6.313.251Z" transform="translate(-138.745 -91.724)"/><g transform="translate(19.945 0.436)"><path d="M153.608,92.131a2.475,2.475,0,0,0-2.228,2,10.3,10.3,0,0,0,7.209,11.768,6.027,6.027,0,0,0,4.743-.307c1.963-1.164,2.63-3.668,2.865-5.937a7.711,7.711,0,0,0-.7-4.856c-1.116-1.812-3.383-2.562-5.5-2.738a63.614,63.614,0,0,0-6.39.07Z" transform="translate(-151.214 -91.997)"/></g><g transform="translate(10.228 0.408)"><path d="M159.186,92.481c0,.182-3.151.269-7.03.192s-7.022-.29-7.017-.473,3.149-.269,7.03-.192S159.191,92.3,159.186,92.481Z" transform="translate(-145.139 -91.979)"/></g></g><g transform="translate(47.181 33.428)"><g transform="translate(0 6.214)"><path class="e" d="M168.284,139.472c-.011,0-.024-.066-.035-.2a2.647,2.647,0,0,1,.022-.592,6.307,6.307,0,0,1,.792-2.119,14.256,14.256,0,0,0,1.441-3.191,16.11,16.11,0,0,0,.542-4.591c0-1.734-.218-3.6-.344-5.683a2.9,2.9,0,0,1,.4-1.652,1.578,1.578,0,0,1,1.678-.774,1.375,1.375,0,0,1,.816.625,1.052,1.052,0,0,1-.024,1.1,1.617,1.617,0,0,1-1.932.376,2.906,2.906,0,0,1-1.526-3.345,2.983,2.983,0,0,1,1.137-1.654,2.179,2.179,0,0,1,1-.4,1.326,1.326,0,0,1,1.128.382,1.074,1.074,0,0,1-.8,1.868,2.631,2.631,0,0,1-2.655-2.913,2.616,2.616,0,0,1,1.244-1.814,2.46,2.46,0,0,1,1.847-.331,1.806,1.806,0,0,1,.864.505,1.116,1.116,0,0,1,.293,1.065,1.158,1.158,0,0,1-.776.763,2.127,2.127,0,0,1-.95.08,3.466,3.466,0,0,1-1.608-.713,2.836,2.836,0,0,1-1.044-3.143,2.489,2.489,0,0,1,2.756-1.633,1.538,1.538,0,0,1,1.227,1.24,1.086,1.086,0,0,1-.35.905,1.408,1.408,0,0,1-.827.363,2.184,2.184,0,0,1-1.5-.555,3.348,3.348,0,0,1-.947-1.155,2.158,2.158,0,0,1,.592-2.734,1.544,1.544,0,0,1,2.386.937l.029.179-.154.083a2.252,2.252,0,0,1-3.1-1.113,1.9,1.9,0,0,1,.138-1.652,2.364,2.364,0,0,1,1.152-1.017,1.893,1.893,0,0,1,1.451-.01,1.074,1.074,0,0,1,.71,1.172.745.745,0,0,1-.464.557.9.9,0,0,1-.665-.037,1.248,1.248,0,0,1-.681-.9,10.107,10.107,0,0,1-.035-3.036,3.755,3.755,0,0,1,.226-1.033,15.226,15.226,0,0,0,.1,3.992.944.944,0,0,0,.523.672.433.433,0,0,0,.645-.286c.134-.657-.929-1.065-1.641-.7a1.7,1.7,0,0,0-1.011,2.1,1.764,1.764,0,0,0,2.388.841l-.125.261a1.012,1.012,0,0,0-1.55-.55,1.591,1.591,0,0,0-.384,2.019,2.379,2.379,0,0,0,1.867,1.361c.352-.03.667-.315.616-.6a.939.939,0,0,0-.755-.693,1.868,1.868,0,0,0-2.009,1.249,2.188,2.188,0,0,0,.851,2.4,2.811,2.811,0,0,0,1.286.574c.438.067.952-.088,1-.369.107-.258-.262-.648-.683-.745a1.8,1.8,0,0,0-1.336.254,1.953,1.953,0,0,0-.934,1.344,1.976,1.976,0,0,0,1.958,2.159c.552-.014.664-.4.36-.768-.256-.3-.87-.213-1.284.1a2.353,2.353,0,0,0-.894,1.292,2.3,2.3,0,0,0,1.148,2.614c.422.189,1.017.139,1.2-.142.216-.277-.054-.725-.451-.832a1.011,1.011,0,0,0-1.043.521,2.339,2.339,0,0,0-.32,1.337c.1,2,.3,3.938.262,5.688a15.952,15.952,0,0,1-.657,4.7,13.637,13.637,0,0,1-1.571,3.21,6.9,6.9,0,0,0-.885,2.017C168.3,139.2,168.314,139.472,168.284,139.472Z" transform="translate(-168.241 -103.692)"/></g><g transform="translate(1.024)"><path class="e" d="M172.611,102.59a4.516,4.516,0,0,0-.544-1.764,2.042,2.042,0,0,0-1.481-1.012,1.621,1.621,0,0,0-1.627,1.033,1.671,1.671,0,0,0,.6,1.814l.035.029.011.01,0,0c.05.034.1.067.142.093.213.134.515.152.729.285a1.5,1.5,0,0,1,.561,1.368,13.555,13.555,0,0,0-.123,1.542c.029.376.242.813.617.821.326.006.555-.314.691-.611A6.6,6.6,0,0,0,172.611,102.59Z" transform="translate(-168.881 -99.807)"/></g></g><g transform="translate(1.023 22.534)"><path class="f" d="M139.782,98.328c-.158.078-.715-1.326-.152-3,.547-1.678,1.833-2.471,1.915-2.313.126.147-.814,1.054-1.283,2.522C139.761,97,139.973,98.287,139.782,98.328Z" transform="translate(-139.384 -92.997)"/></g><g transform="translate(21.289 22.986)"><path class="f" d="M153.023,98.463c-.136.112-.977-.973-.969-2.588-.008-1.616.835-2.7.971-2.588.17.094-.32,1.179-.306,2.588C152.7,97.284,153.193,98.37,153.023,98.463Z" transform="translate(-152.054 -93.279)"/></g></g><path class="g" d="M176.347,154.9l-.242-17.5-13.479-12.54s-22.085,1.347-31.005,8.748c-4.477,3.714-6.5,16.072-7.489,21.293Z" transform="translate(-124.132 -51.357)"/><path class="g" d="M209.2,154.9c-.974-5.095-2.7-16.96-7.078-20.592-8.921-7.4-31.528-9.448-31.528-9.448L156.625,137.4l.241,17.5Z" transform="translate(-104.651 -51.357)"/><path class="h" d="M158.258,134.313l-1.481,9.45,13.723-18.9Z" transform="translate(-104.56 -51.357)"/><path class="i" d="M165.31,149.8l-3.046-17.949h-6.823l-2.4,17.949Z" transform="translate(-106.802 -47.165)"/><path class="i" d="M155.228,128.763h7.319a1.837,1.837,0,0,1,1.974,2.121c-.75,3.071-2.5,7.774-5.63,7.774s-4.887-4.7-5.637-7.774A1.836,1.836,0,0,1,155.228,128.763Z" transform="translate(-106.699 -49.019)"/><path class="j" d="M147.734,120.5l-3.039,8.3,9.738,11.726,8.908-6.433Z" transform="translate(-111.804 -53.972)"/><path class="j" d="M173.52,120.5l1.848,7.455-9.029,12.572-9.986-6.433Z" transform="translate(-104.814 -53.972)"/><path class="k" d="M187.545,131.388l-1.555,3.623a3.016,3.016,0,0,1-4.028,1.374l-5.342-2.294a3.016,3.016,0,0,1-1.78-3.864l1.409-3.284" transform="translate(-93.857 -50.11)"/><path class="k" d="M142.556,126.762l1.171,3.765a3.016,3.016,0,0,1-2.169,3.66l-5.552,1.727a3.015,3.015,0,0,1-3.863-1.783l-1.062-3.412" transform="translate(-119.966 -50.219)"/></g></g></svg>